<svg xmlns="http://www.w3.org/2000/svg" xmlns:xlink="http://www.w3.org/1999/xlink" viewBox="0 0 2016.95 1137.6"><defs><style>.cls-1,.cls-10,.cls-11,.cls-42{fill:none;}.cls-2{fill:#180633;}.cls-3{fill:#cdb4bd;}.cls-4{fill:#2f37ad;}.cls-5{fill:#7a4580;}.cls-6{fill:#66003d;}.cls-7{fill:#fff;}.cls-8{fill:#7199c9;}.cls-9{clip-path:url(#clip-path);}.cls-10,.cls-11{stroke:#263238;stroke-linecap:round;stroke-linejoin:round;stroke-width:1.75px;}.cls-10{opacity:0.5;}.cls-10,.cls-44,.cls-46{isolation:isolate;}.cls-12{clip-path:url(#clip-path-2);}.cls-13{clip-path:url(#clip-path-3);}.cls-14{clip-path:url(#clip-path-4);}.cls-15{clip-path:url(#clip-path-5);}.cls-16{clip-path:url(#clip-path-6);}.cls-17{clip-path:url(#clip-path-7);}.cls-18{clip-path:url(#clip-path-8);}.cls-19{clip-path:url(#clip-path-9);}.cls-20{clip-path:url(#clip-path-10);}.cls-21{clip-path:url(#clip-path-11);}.cls-22{clip-path:url(#clip-path-12);}.cls-23{clip-path:url(#clip-path-13);}.cls-24{clip-path:url(#clip-path-14);}.cls-25{clip-path:url(#clip-path-15);}.cls-26{clip-path:url(#clip-path-16);}.cls-27{clip-path:url(#clip-path-17);}.cls-28{clip-path:url(#clip-path-18);}.cls-29{clip-path:url(#clip-path-19);}.cls-30{clip-path:url(#clip-path-20);}.cls-31{clip-path:url(#clip-path-21);}.cls-32{clip-path:url(#clip-path-22);}.cls-33{clip-path:url(#clip-path-23);}.cls-34{clip-path:url(#clip-path-24);}.cls-35{fill:#b897d1;}.cls-36{fill:#9c82b2;}.cls-37{fill:#a589b6;}.cls-38{fill:#987fae;}.cls-39{fill:#c12837;}.cls-40{fill:#f2c7d8;}.cls-41{fill:#8b2789;}.cls-42{stroke:#231f20;stroke-miterlimit:10;stroke-width:2px;}.cls-43,.cls-44,.cls-46{fill:#231f20;}.cls-44{font-size:35.03px;}.cls-44,.cls-46{font-family:Georgia;}.cls-45{fill:#c81b1f;}.cls-46{font-size:77.34px;}</style><clipPath id="clip-path"><path class="cls-1" d="M1525.77,434s8.76-10,21.53-10c0,0,.43-7.79,9.14-9.48s10.41,6.1,10.41,6.1,6.43-3.42,15.1,0,6.89,13.39,6.89,13.39,25-.81,29.23,3.76H1505.93S1508.19,432.12,1525.77,434Z"/></clipPath><clipPath id="clip-path-2"><path class="cls-1" d="M1598.13,374.45s-7-8-17.17-8a8.54,8.54,0,0,0-7.29-7.56c-7-1.34-8.31,4.87-8.31,4.87a15.16,15.16,0,0,0-12,0c-6.89,2.72-5.5,10.67-5.5,10.67s-19.93-.64-23.32,3H1614S1612.15,373,1598.13,374.45Z"/></clipPath><clipPath id="clip-path-3"><path class="cls-1" d="M1436,402.27s4.15-4.76,10.21-4.76a5.07,5.07,0,0,1,4.32-4.5,4,4,0,0,1,4.93,2.89,9,9,0,0,1,7.15,0c4.1,1.62,3.28,6.34,3.28,6.34s11.81-.38,13.84,1.78h-53.12S1427.64,401.38,1436,402.27Z"/></clipPath><clipPath id="clip-path-4"><path class="cls-1" d="M1499.5,512.21s4.15-4.76,10.21-4.76A5,5,0,0,1,1514,503a4,4,0,0,1,4.94,2.88,9,9,0,0,1,7.15,0c4.1,1.61,3.27,6.35,3.27,6.35s11.82-.39,13.85,1.78H1490.1S1491.17,511.32,1499.5,512.21Z"/></clipPath><clipPath id="clip-path-5"><path class="cls-1" d="M1335.79,445.71s5.49-7.23,13.5-7.23c0,0,.27-5.61,5.74-6.82s6.53,4.39,6.53,4.39a10.56,10.56,0,0,1,9.47,0c5.43,2.46,4.32,9.64,4.32,9.64s15.66-.58,18.34,2.71h-70.35S1324.76,444.37,1335.79,445.71Z"/></clipPath><clipPath id="clip-path-6"><path class="cls-1" d="M1381.18,402.83s-4.39-5.76-10.77-5.76c0,0-.22-4.48-4.58-5.44s-5.21,3.5-5.21,3.5a8.43,8.43,0,0,0-7.55,0c-4.32,2-3.45,7.69-3.45,7.69s-12.5-.46-14.63,2.16h56.12S1390,401.77,1381.18,402.83Z"/></clipPath><clipPath id="clip-path-7"><path class="cls-1" d="M1279.46,422.87s2.6-3.43,6.4-3.43a3.47,3.47,0,0,1,2.71-3.24,2.55,2.55,0,0,1,3.1,2.08,5,5,0,0,1,4.48,0c2.57,1.17,2,4.57,2,4.57s7.42-.28,8.69,1.28h-33.33S1274.23,422.23,1279.46,422.87Z"/></clipPath><clipPath id="clip-path-8"><path class="cls-1" d="M1319.31,502s2.6-3.42,6.4-3.42a3.46,3.46,0,0,1,2.71-3.24,2.54,2.54,0,0,1,3.1,2.07,5,5,0,0,1,4.49,0c2.57,1.16,2,4.57,2,4.57s7.41-.28,8.69,1.28h-33.34S1314.08,501.4,1319.31,502Z"/></clipPath><clipPath id="clip-path-9"><path class="cls-1" d="M685.47,460.74s6.43-7.38,15.82-7.38a7.85,7.85,0,0,1,6.71-7c6.41-1.23,7.65,4.48,7.65,4.48a14,14,0,0,1,11.09,0c6.36,2.52,5.06,9.84,5.06,9.84s18.33-.6,21.48,2.76H670.89S672.56,459.37,685.47,460.74Z"/></clipPath><clipPath id="clip-path-10"><path class="cls-1" d="M738.62,417s-5.13-5.87-12.61-5.87a6.27,6.27,0,0,0-5.35-5.56,4.9,4.9,0,0,0-6.11,3.58,11.1,11.1,0,0,0-8.84,0c-5.06,2-4,7.84-4,7.84s-14.64-.47-17.13,2.2h65.71S748.92,415.91,738.62,417Z"/></clipPath><clipPath id="clip-path-11"><path class="cls-1" d="M619.51,437.44a10.93,10.93,0,0,1,7.49-3.5,3.73,3.73,0,0,1,3.18-3.3,2.9,2.9,0,0,1,3.62,2.12,6.59,6.59,0,0,1,5.26,0c3,1.19,2.4,4.66,2.4,4.66s8.68-.28,10.17,1.31h-39S613.39,436.79,619.51,437.44Z"/></clipPath><clipPath id="clip-path-12"><path class="cls-1" d="M666.18,518.2a10.93,10.93,0,0,1,7.49-3.5,3.71,3.71,0,0,1,3.18-3.3,2.91,2.91,0,0,1,3.63,2.11,6.65,6.65,0,0,1,5.25,0c3,1.19,2.4,4.67,2.4,4.67s8.68-.29,10.17,1.3h-39S660.06,517.55,666.18,518.2Z"/></clipPath><clipPath id="clip-path-13"><path class="cls-1" d="M517.21,436s8.76-10,21.53-10c0,0,.43-7.79,9.14-9.48s10.41,6.1,10.41,6.1,6.43-3.42,15.1,0S580.28,436,580.28,436s25-.81,29.24,3.76H497.37S499.63,434.13,517.21,436Z"/></clipPath><clipPath id="clip-path-14"><path class="cls-1" d="M589.57,376.45s-7-8-17.17-8a8.53,8.53,0,0,0-7.29-7.56c-7-1.34-8.31,4.87-8.31,4.87a15.14,15.14,0,0,0-12,0c-6.9,2.72-5.51,10.67-5.51,10.67s-19.93-.64-23.31,3H605.4S603.59,375,589.57,376.45Z"/></clipPath><clipPath id="clip-path-15"><path class="cls-1" d="M427.42,404.27s4.14-4.76,10.2-4.76A5.07,5.07,0,0,1,442,395a4,4,0,0,1,4.93,2.89,9,9,0,0,1,7.14,0c4.11,1.62,3.28,6.34,3.28,6.34s11.81-.38,13.84,1.79H418S419.08,403.38,427.42,404.27Z"/></clipPath><clipPath id="clip-path-16"><path class="cls-1" d="M491,514.21s4.14-4.76,10.2-4.76a5,5,0,0,1,4.32-4.5,4,4,0,0,1,4.94,2.88,9,9,0,0,1,7.15,0c4.1,1.61,3.27,6.35,3.27,6.35s11.82-.39,13.85,1.78H481.55S482.61,513.32,491,514.21Z"/></clipPath><clipPath id="clip-path-17"><path class="cls-1" d="M202.93,387.71s10.82-12.41,26.6-12.41c0,0,.53-9.63,11.3-11.71s12.87,7.54,12.87,7.54,7.94-4.23,18.65,0,8.52,16.54,8.52,16.54,30.84-1,36.14,4.65H178.4S181.19,385.4,202.93,387.71Z"/></clipPath><clipPath id="clip-path-18"><path class="cls-1" d="M292.35,314.13s-8.64-9.9-21.22-9.9c0,0-.42-7.68-9-9.34s-10.27,6-10.27,6-6.35-3.36-14.87,0-6.8,13.2-6.8,13.2-24.63-.79-28.82,3.7H311.91S309.68,312.29,292.35,314.13Z"/></clipPath><clipPath id="clip-path-19"><path class="cls-1" d="M91.94,348.51s5.13-5.88,12.61-5.88a6.27,6.27,0,0,1,5.35-5.57,4.88,4.88,0,0,1,6.09,3.57,11.13,11.13,0,0,1,8.84,0c5.07,2,4,7.84,4,7.84s14.61-.47,17.12,2.21H80.33S81.65,347.41,91.94,348.51Z"/></clipPath><clipPath id="clip-path-20"><path class="cls-1" d="M170.46,484.38s5.12-5.88,12.61-5.88a6.26,6.26,0,0,1,5.35-5.56,4.9,4.9,0,0,1,6.1,3.56,11.11,11.11,0,0,1,8.83,0c5.07,2,4.05,7.84,4.05,7.84s14.6-.48,17.11,2.2H158.84S160.16,483.28,170.46,484.38Z"/></clipPath><clipPath id="clip-path-21"><path class="cls-1" d="M1816,379.15s12.15-13.93,29.88-13.93c0,0,.59-10.82,12.69-13.16s14.44,8.47,14.44,8.47,8.93-4.75,21,0,9.57,18.58,9.57,18.58,34.64-1.13,40.58,5.22H1788.43S1791.58,376.56,1816,379.15Z"/></clipPath><clipPath id="clip-path-22"><path class="cls-1" d="M1916.4,296.52s-9.7-11.11-23.83-11.11c0,0-.47-8.63-10.12-10.49s-11.53,6.75-11.53,6.75-7.13-3.78-16.7,0-7.64,14.82-7.64,14.82-27.66-.89-32.36,4.16h124.15S1935.86,294.46,1916.4,296.52Z"/></clipPath><clipPath id="clip-path-23"><path class="cls-1" d="M1691.35,335.13s5.75-6.6,14.16-6.6a7,7,0,0,1,6-6.25c5.73-1.11,6.85,4,6.85,4a12.49,12.49,0,0,1,9.92,0c5.69,2.24,4.54,8.8,4.54,8.8s16.4-.53,19.22,2.47H1678.3S1679.78,333.9,1691.35,335.13Z"/></clipPath><clipPath id="clip-path-24"><path class="cls-1" d="M1779.52,487.71s5.76-6.6,14.16-6.6a7,7,0,0,1,6-6.25c5.72-1.08,6.85,4,6.85,4a12.49,12.49,0,0,1,9.92,0c5.69,2.24,4.54,8.81,4.54,8.81s16.4-.54,19.22,2.47h-73.74S1768,486.48,1779.52,487.71Z"/></clipPath></defs><title>among us</title><g id="Calque_2" data-name="Calque 2"><g id="Among_us" data-name="Among us"><polygon id="sol_centrale" data-name="sol centrale" class="cls-2" points="959.39 648.55 569.65 1133.09 1443.92 1133.09 1063.22 650.06 959.39 648.55"/><rect id="fond_deriere_porte" data-name="fond deriere porte" class="cls-3" x="772.8" y="222.7" width="478.51" height="431.87"/><polygon id="lampe" class="cls-2" points="852.3 1.76 944.34 223.27 914.24 251.29 732.17 1.5 852.3 1.76"/><polygon id="lampe-2" data-name="lampe" class="cls-2" points="1158.02 1.5 1278.4 1.5 1097.83 251.29 1058.89 222.71 1158.02 1.5"/><rect class="cls-4" x="1009.23" y="387.54" width="2.63" height="265.53"/><polygon class="cls-5" points="42.99 126.4 772.8 374.69 842.02 374.69 909.73 305.47 914.24 251.29 732.17 1.5 42.99 0 42.99 126.4"/><polygon class="cls-5" points="1976.61 126.4 1240.49 374.69 1170.68 374.69 1102.38 305.47 1097.83 251.29 1278.4 1.5 1976.61 0 1976.61 126.4"/><polygon class="cls-5" points="41.48 1066.88 772.8 654.57 959.39 648.55 569.65 1133.09 41.48 1132.33 41.48 1066.88"/><polygon class="cls-5" points="1977.36 1071.39 1246.04 659.09 1059.45 653.07 1449.19 1137.6 1977.36 1136.85 1977.36 1071.39"/><g id="porte"><rect class="cls-6" x="935.19" y="391.49" width="148.97" height="265.21" rx="31.6"/><rect class="cls-7" x="956.45" y="419.14" width="107.21" height="211.61" rx="14.6"/></g><polygon class="cls-3" points="42.99 126.4 772.8 374.69 772.8 654.57 41.48 1066.88 42.99 126.4"/><polygon class="cls-3" points="1974.35 1062.36 1246.04 659.09 1249.81 373.18 1975.85 121.89 1974.35 1062.36"/><polygon class="cls-5" points="42.99 126.4 772.8 374.69 842.02 374.69 301.81 0 42.99 0 42.99 126.4"/><polygon class="cls-5" points="1975.48 126.4 1245.67 374.69 1176.45 374.69 1716.66 0 1975.48 0 1975.48 126.4"/><path class="cls-8" d="M42.61,279.13c2.26-66.58,13.54-93.67,79-76.74,61.55,15.92,202.94,74.75,219.59,81.71A20.69,20.69,0,0,0,344,285c6.08,1.6,34.37,12.12,29.33,68.59-4.25,47.62-2.09,136.24-.77,177a20.91,20.91,0,0,1-20.9,21.58H61.44a20.91,20.91,0,0,1-20.91-21.08Z"/><path class="cls-8" d="M1981.89,282.14c-2.25-66.58-13.54-93.67-79-76.74-61.55,15.92-202.94,74.75-219.59,81.71a20.08,20.08,0,0,1-2.74.93c-6.09,1.6-34.38,12.12-29.34,68.59,4.25,47.62,2.1,136.24.78,177a20.9,20.9,0,0,0,20.89,21.58h290.18A20.92,20.92,0,0,0,1984,534.18Z"/><path class="cls-8" d="M1621.53,358.5c-1.42-41.73-8.49-58.71-49.52-48.1-38.57,10-127.19,46.85-137.62,51.22a15.12,15.12,0,0,1-1.72.58c-3.82,1-21.55,7.59-18.39,43,2.66,29.84,1.31,85.39.49,111a13.1,13.1,0,0,0,13.09,13.53h181.87a13.11,13.11,0,0,0,13.1-13.22Z"/><path class="cls-8" d="M1396.32,402c-.87-25.63-5.22-36.06-30.42-29.55-23.69,6.13-78.13,28.78-84.54,31.46a6.51,6.51,0,0,1-1,.36c-2.34.62-13.24,4.67-11.3,26.41,1.64,18.33.81,52.45.3,68.16a8,8,0,0,0,8,8.3h111.71a8,8,0,0,0,8-8.11Z"/><path class="cls-8" d="M413.07,345.4c1.34-39.64,8.06-55.76,47-45.68,36.64,9.47,120.82,44.5,130.73,48.64a11.57,11.57,0,0,0,1.63.55c3.62,1,20.47,7.22,17.47,40.84-2.53,28.35-1.25,81.11-.47,105.4A12.44,12.44,0,0,1,597,508H424.27a12.45,12.45,0,0,1-12.44-12.55Z"/><path class="cls-8" d="M634.9,398.2c.81-23.8,4.84-33.48,28.24-27.43,22,5.69,72.53,26.72,78.48,29.21a8.68,8.68,0,0,0,1,.33c2.18.57,12.29,4.33,10.49,24.52-1.52,17-.75,48.69-.28,63.28a7.47,7.47,0,0,1-7.47,7.71H641.63a7.47,7.47,0,0,1-7.47-7.54Z"/><g id="freepik--Clouds--inject-64"><g class="cls-9"><path class="cls-10" d="M1525.77,434s8.76-10,21.53-10c0,0,.43-7.79,9.14-9.48s10.41,6.1,10.41,6.1,6.43-3.42,15.1,0,6.89,13.39,6.89,13.39,25-.81,29.23,3.76H1505.93S1508.19,432.12,1525.77,434Z"/></g><path class="cls-11" d="M1525.77,434s8.76-10,21.53-10c0,0,.43-7.79,9.14-9.48s10.41,6.1,10.41,6.1,6.43-3.42,15.1,0,6.89,13.39,6.89,13.39,25-.81,29.23,3.76H1505.93S1508.19,432.12,1525.77,434Z"/><g class="cls-12"><path class="cls-10" d="M1598.13,374.45s-7-8-17.17-8a8.54,8.54,0,0,0-7.29-7.56c-7-1.34-8.31,4.87-8.31,4.87a15.16,15.16,0,0,0-12,0c-6.89,2.72-5.5,10.67-5.5,10.67s-19.93-.64-23.32,3H1614S1612.15,373,1598.13,374.45Z"/></g><path class="cls-11" d="M1598.13,374.45s-7-8-17.17-8a8.54,8.54,0,0,0-7.29-7.56c-7-1.34-8.31,4.87-8.31,4.87a15.16,15.16,0,0,0-12,0c-6.89,2.72-5.5,10.67-5.5,10.67s-19.93-.64-23.32,3H1614S1612.15,373,1598.13,374.45Z"/><g class="cls-13"><path class="cls-10" d="M1436,402.27s4.15-4.76,10.21-4.76a5.07,5.07,0,0,1,4.32-4.5,4,4,0,0,1,4.93,2.89,9,9,0,0,1,7.15,0c4.1,1.62,3.28,6.34,3.28,6.34s11.81-.38,13.84,1.78h-53.12S1427.64,401.38,1436,402.27Z"/></g><path class="cls-11" d="M1436,402.27s4.15-4.76,10.21-4.76a5.07,5.07,0,0,1,4.32-4.5,4,4,0,0,1,4.93,2.89,9,9,0,0,1,7.15,0c4.1,1.62,3.28,6.34,3.28,6.34s11.81-.38,13.84,1.78h-53.12S1427.64,401.38,1436,402.27Z"/><g class="cls-14"><path class="cls-10" d="M1499.5,512.21s4.15-4.76,10.21-4.76A5,5,0,0,1,1514,503a4,4,0,0,1,4.94,2.88,9,9,0,0,1,7.15,0c4.1,1.61,3.27,6.35,3.27,6.35s11.82-.39,13.85,1.78H1490.1S1491.17,511.32,1499.5,512.21Z"/></g><path class="cls-11" d="M1499.5,512.21s4.15-4.76,10.21-4.76A5,5,0,0,1,1514,503a4,4,0,0,1,4.94,2.88,9,9,0,0,1,7.15,0c4.1,1.61,3.27,6.35,3.27,6.35s11.82-.39,13.85,1.78H1490.1S1491.17,511.32,1499.5,512.21Z"/></g><g id="freepik--wind-turbines--inject-64"><path class="cls-11" d="M1442.22,467.47l-.06-10a1.37,1.37,0,0,0-2.74,0v3.28"/><line class="cls-11" x1="1442.79" y1="556.55" x2="1442.29" y2="477.61"/><line class="cls-11" x1="1439.28" y1="480.77" x2="1438.79" y2="556.55"/><path class="cls-11" d="M1475.39,474.46l-29.2-6.23-1.6,2.27-1.17-.13-12.35-29.57a.85.85,0,0,0-1.6.58L1438,470l2.76.31.44,1.05-19.57,25.44a.86.86,0,0,0,1.29,1.11l20.61-21.6-1.1-2.57.73-.94,32,3.37a.86.86,0,0,0,.26-1.7Z"/><path class="cls-11" d="M1485.53,485.71l0-7.94a1.08,1.08,0,1,0-2.16,0v2.61"/><line class="cls-11" x1="1483.25" y1="487.83" x2="1483.23" y2="490.74"/><line class="cls-11" x1="1485.98" y1="556.18" x2="1485.58" y2="493.73"/><line class="cls-11" x1="1483.2" y1="496.23" x2="1482.81" y2="556.18"/><path class="cls-11" d="M1511.78,491.26l-23.1-4.94-1.28,1.8-.93-.1-9.76-23.4a.64.64,0,0,0-.82-.39l-.06,0a.71.71,0,0,0-.4.83l6.76,22.62,2.18.26.35.82-15.5,20.11a.68.68,0,0,0,.08,1,.67.67,0,0,0,1-.08l16.3-17.08-.86-2,.57-.75,25.29,2.66a.64.64,0,0,0,.74-.53.13.13,0,0,1,0-.06A.69.69,0,0,0,1511.78,491.26Z"/><path class="cls-11" d="M1486.67,488.82a.64.64,0,0,1-.64.64.65.65,0,0,1,0-1.29A.65.65,0,0,1,1486.67,488.82Z"/><path class="cls-11" d="M1626.11,468.05l.06-10a1.37,1.37,0,0,1,2.73,0v3.29"/><line class="cls-11" x1="1628.98" y1="470.73" x2="1629.01" y2="474.42"/><line class="cls-11" x1="1625.53" y1="557.13" x2="1626.04" y2="478.2"/><line class="cls-11" x1="1629.05" y1="481.35" x2="1629.53" y2="557.13"/><path class="cls-11" d="M1592.94,475.05l29.19-6.23,1.61,2.26,1.16-.12,12.35-29.57a.86.86,0,0,1,1.12-.47.85.85,0,0,1,.49,1l-8.54,28.61-2.75.32-.44,1,19.59,25.43a.86.86,0,0,1-1.29,1.11l-20.61-21.6,1.09-2.57-.72-.94-32,3.37a.85.85,0,0,1-.28-1.68Z"/><circle class="cls-11" cx="1625.53" cy="471.98" r="0.84"/><path class="cls-11" d="M1580.65,485.71l.06-7.94a1.07,1.07,0,0,1,1.08-1.07,1.09,1.09,0,0,1,1.08,1.07v2.61"/><line class="cls-11" x1="1582.93" y1="487.83" x2="1582.95" y2="490.74"/><line class="cls-11" x1="1580.2" y1="556.18" x2="1580.6" y2="493.73"/><line class="cls-11" x1="1582.98" y1="496.23" x2="1583.37" y2="556.18"/><path class="cls-11" d="M1554.4,491.26l23.1-4.94,1.28,1.8.93-.1,9.76-23.4a.65.65,0,0,1,.83-.39l.06,0a.71.71,0,0,1,.39.83L1584,487.7l-2.18.26-.35.82,15.5,20.11a.68.68,0,0,1-.08,1,.67.67,0,0,1-1-.08l-16.3-17.08.86-2-.57-.75-25.29,2.66a.64.64,0,0,1-.74-.53.13.13,0,0,0,0-.06A.69.69,0,0,1,1554.4,491.26Z"/><path class="cls-11" d="M1579.54,488.82a.65.65,0,1,0,.64-.65A.64.64,0,0,0,1579.54,488.82Z"/></g><g id="freepik--Clouds--inject-64-2" data-name="freepik--Clouds--inject-64"><g class="cls-15"><path class="cls-10" d="M1335.79,445.71s5.49-7.23,13.5-7.23c0,0,.27-5.61,5.74-6.82s6.53,4.39,6.53,4.39a10.56,10.56,0,0,1,9.47,0c5.43,2.46,4.32,9.64,4.32,9.64s15.66-.58,18.34,2.71h-70.35S1324.76,444.37,1335.79,445.71Z"/></g><path class="cls-11" d="M1335.79,445.71s5.49-7.23,13.5-7.23c0,0,.27-5.61,5.74-6.82s6.53,4.39,6.53,4.39a10.56,10.56,0,0,1,9.47,0c5.43,2.46,4.32,9.64,4.32,9.64s15.66-.58,18.34,2.71h-70.35S1324.76,444.37,1335.79,445.71Z"/><g class="cls-16"><path class="cls-10" d="M1381.18,402.83s-4.39-5.76-10.77-5.76c0,0-.22-4.48-4.58-5.44s-5.21,3.5-5.21,3.5a8.43,8.43,0,0,0-7.55,0c-4.32,2-3.45,7.69-3.45,7.69s-12.5-.46-14.63,2.16h56.12S1390,401.77,1381.18,402.83Z"/></g><path class="cls-11" d="M1381.18,402.83s-4.39-5.76-10.77-5.76c0,0-.22-4.48-4.58-5.44s-5.21,3.5-5.21,3.5a8.43,8.43,0,0,0-7.55,0c-4.32,2-3.45,7.69-3.45,7.69s-12.5-.46-14.63,2.16h56.12S1390,401.77,1381.18,402.83Z"/><g class="cls-17"><path class="cls-10" d="M1279.46,422.87s2.6-3.43,6.4-3.43a3.47,3.47,0,0,1,2.71-3.24,2.55,2.55,0,0,1,3.1,2.08,5,5,0,0,1,4.48,0c2.57,1.17,2,4.57,2,4.57s7.42-.28,8.69,1.28h-33.33S1274.23,422.23,1279.46,422.87Z"/></g><path class="cls-11" d="M1279.46,422.87s2.6-3.43,6.4-3.43a3.47,3.47,0,0,1,2.71-3.24,2.55,2.55,0,0,1,3.1,2.08,5,5,0,0,1,4.48,0c2.57,1.17,2,4.57,2,4.57s7.42-.28,8.69,1.28h-33.33S1274.23,422.23,1279.46,422.87Z"/><g class="cls-18"><path class="cls-10" d="M1319.31,502s2.6-3.42,6.4-3.42a3.46,3.46,0,0,1,2.71-3.24,2.54,2.54,0,0,1,3.1,2.07,5,5,0,0,1,4.49,0c2.57,1.16,2,4.57,2,4.57s7.41-.28,8.69,1.28h-33.34S1314.08,501.4,1319.31,502Z"/></g><path class="cls-11" d="M1319.31,502s2.6-3.42,6.4-3.42a3.46,3.46,0,0,1,2.71-3.24,2.54,2.54,0,0,1,3.1,2.07,5,5,0,0,1,4.49,0c2.57,1.16,2,4.57,2,4.57s7.41-.28,8.69,1.28h-33.34S1314.08,501.4,1319.31,502Z"/></g><g id="freepik--wind-turbines--inject-64-2" data-name="freepik--wind-turbines--inject-64"><path class="cls-11" d="M1283.38,469.82l0-7.22a.93.93,0,0,0-.92-.92.94.94,0,0,0-.8.92V465"/><line class="cls-11" x1="1283.74" y1="533.98" x2="1283.42" y2="477.13"/><line class="cls-11" x1="1281.53" y1="479.4" x2="1281.23" y2="533.98"/><path class="cls-11" d="M1304.18,474.86l-18.31-4.49-1,1.63-.73-.08-7.75-21.3a.51.51,0,0,0-.7-.34.64.64,0,0,0-.3.75l5.35,20.61,1.73.22.28.76-12.28,18.32a.67.67,0,0,0,.14.86.49.49,0,0,0,.67-.06l12.93-15.56-.69-1.85.46-.67,20,2.42a.55.55,0,0,0,.61-.52.6.6,0,0,0-.45-.7Z"/><path class="cls-11" d="M1310.54,483l0-5.72a.68.68,0,1,0-1.35,0v1.88"/><line class="cls-11" x1="1309.12" y1="484.49" x2="1309.1" y2="486.58"/><line class="cls-11" x1="1310.83" y1="533.71" x2="1310.58" y2="488.74"/><line class="cls-11" x1="1309.08" y1="490.54" x2="1308.84" y2="533.71"/><path class="cls-11" d="M1327,487l-14.49-3.56-.8,1.29-.58-.07L1305,467.77a.39.39,0,0,0-.52-.28l0,0a.51.51,0,0,0-.25.59l4.24,16.3,1.37.18.21.59-9.71,14.49a.52.52,0,0,0,0,.68.38.38,0,0,0,.6,0L1311.18,488l-.54-1.45.36-.54,15.87,1.92a.41.41,0,0,0,.46-.38.09.09,0,0,1,0,0A.48.48,0,0,0,1327,487Z"/><path class="cls-11" d="M1311.26,485.2a.41.41,0,1,1-.4-.47A.44.44,0,0,1,1311.26,485.2Z"/><path class="cls-11" d="M1398.73,470.24l0-7.22a.92.92,0,0,1,.92-.92.94.94,0,0,1,.8.92v2.37"/><line class="cls-11" x1="1400.53" y1="472.17" x2="1400.55" y2="474.83"/><line class="cls-11" x1="1398.37" y1="534.4" x2="1398.69" y2="477.55"/><line class="cls-11" x1="1400.58" y1="479.82" x2="1400.88" y2="534.4"/><path class="cls-11" d="M1377.93,475.28l18.31-4.49,1,1.63.73-.08,7.74-21.3a.52.52,0,0,1,.7-.34.65.65,0,0,1,.31.75l-5.35,20.61-1.73.22-.28.76,12.29,18.31a.67.67,0,0,1-.14.86.49.49,0,0,1-.67-.06l-12.93-15.56.69-1.85-.46-.67-20.05,2.42a.55.55,0,0,1-.59-.55A.61.61,0,0,1,1377.93,475.28Z"/><ellipse class="cls-11" cx="1398.37" cy="473.07" rx="0.52" ry="0.6"/><path class="cls-11" d="M1370.22,483l0-5.72a.73.73,0,0,1,.68-.77.74.74,0,0,1,.68.77v1.88"/><line class="cls-11" x1="1371.65" y1="484.49" x2="1371.66" y2="486.58"/><line class="cls-11" x1="1369.94" y1="533.71" x2="1370.19" y2="488.74"/><line class="cls-11" x1="1371.68" y1="490.54" x2="1371.92" y2="533.71"/><path class="cls-11" d="M1353.75,487l14.49-3.56.8,1.29.59-.07,6.12-16.85a.4.4,0,0,1,.52-.28l0,0a.51.51,0,0,1,.25.59l-4.24,16.3-1.37.18-.21.59,9.72,14.49a.53.53,0,0,1,0,.68.38.38,0,0,1-.6,0L1369.58,488l.54-1.45-.36-.54-15.87,1.92a.41.41,0,0,1-.46-.38v0A.47.47,0,0,1,1353.75,487Z"/><path class="cls-11" d="M1369.52,485.2a.41.41,0,1,0,.4-.47A.44.44,0,0,0,1369.52,485.2Z"/></g><g id="freepik--Clouds--inject-64-3" data-name="freepik--Clouds--inject-64"><g class="cls-19"><path class="cls-10" d="M685.47,460.74s6.43-7.38,15.82-7.38a7.85,7.85,0,0,1,6.71-7c6.41-1.23,7.65,4.48,7.65,4.48a14,14,0,0,1,11.09,0c6.36,2.52,5.06,9.84,5.06,9.84s18.33-.6,21.48,2.76H670.89S672.56,459.37,685.47,460.74Z"/></g><path class="cls-11" d="M685.47,460.74s6.43-7.38,15.82-7.38a7.85,7.85,0,0,1,6.71-7c6.41-1.23,7.65,4.48,7.65,4.48a14,14,0,0,1,11.09,0c6.36,2.52,5.06,9.84,5.06,9.84s18.33-.6,21.48,2.76H670.89S672.56,459.37,685.47,460.74Z"/><g class="cls-20"><path class="cls-10" d="M738.62,417s-5.13-5.87-12.61-5.87a6.27,6.27,0,0,0-5.35-5.56,4.9,4.9,0,0,0-6.11,3.58,11.1,11.1,0,0,0-8.84,0c-5.06,2-4,7.84-4,7.84s-14.64-.47-17.13,2.2h65.71S748.92,415.91,738.62,417Z"/></g><path class="cls-11" d="M738.62,417s-5.13-5.87-12.61-5.87a6.27,6.27,0,0,0-5.35-5.56,4.9,4.9,0,0,0-6.11,3.58,11.1,11.1,0,0,0-8.84,0c-5.06,2-4,7.84-4,7.84s-14.64-.47-17.13,2.2h65.71S748.92,415.91,738.62,417Z"/><g class="cls-21"><path class="cls-10" d="M619.51,437.44a10.93,10.93,0,0,1,7.49-3.5,3.73,3.73,0,0,1,3.18-3.3,2.9,2.9,0,0,1,3.62,2.12,6.59,6.59,0,0,1,5.26,0c3,1.19,2.4,4.66,2.4,4.66s8.68-.28,10.17,1.31h-39S613.39,436.79,619.51,437.44Z"/></g><path class="cls-11" d="M619.51,437.44a10.93,10.93,0,0,1,7.49-3.5,3.73,3.73,0,0,1,3.18-3.3,2.9,2.9,0,0,1,3.62,2.12,6.59,6.59,0,0,1,5.26,0c3,1.19,2.4,4.66,2.4,4.66s8.68-.28,10.17,1.31h-39S613.39,436.79,619.51,437.44Z"/><g class="cls-22"><path class="cls-10" d="M666.18,518.2a10.93,10.93,0,0,1,7.49-3.5,3.71,3.71,0,0,1,3.18-3.3,2.91,2.91,0,0,1,3.63,2.11,6.65,6.65,0,0,1,5.25,0c3,1.19,2.4,4.67,2.4,4.67s8.68-.29,10.17,1.3h-39S660.06,517.55,666.18,518.2Z"/></g><path class="cls-11" d="M666.18,518.2a10.93,10.93,0,0,1,7.49-3.5,3.71,3.71,0,0,1,3.18-3.3,2.91,2.91,0,0,1,3.63,2.11,6.65,6.65,0,0,1,5.25,0c3,1.19,2.4,4.67,2.4,4.67s8.68-.29,10.17,1.3h-39S660.06,517.55,666.18,518.2Z"/></g><g id="freepik--wind-turbines--inject-64-3" data-name="freepik--wind-turbines--inject-64"><path class="cls-11" d="M624.1,485.33l-.05-7.36A1,1,0,0,0,623,477a1,1,0,0,0-.94.94v2.41"/><line class="cls-11" x1="624.52" y1="550.77" x2="624.14" y2="492.79"/><line class="cls-11" x1="621.93" y1="495.1" x2="621.58" y2="550.77"/><path class="cls-11" d="M648.46,490.47,627,485.9l-1.18,1.66-.86-.09-9.07-21.73a.63.63,0,0,0-1.18.43l6.27,21,2,.23.32.77L609,506.87a.64.64,0,0,0,.16.88.65.65,0,0,0,.79-.06l15.14-15.87-.81-1.89.54-.69,23.48,2.48a.63.63,0,1,0,.19-1.25Z"/><path class="cls-11" d="M655.91,498.74l0-5.84a.79.79,0,0,0-.79-.79.79.79,0,0,0-.8.79v1.92"/><line class="cls-11" x1="654.24" y1="500.29" x2="654.22" y2="502.43"/><line class="cls-11" x1="656.24" y1="550.5" x2="655.95" y2="504.63"/><line class="cls-11" x1="654.2" y1="506.46" x2="653.92" y2="550.5"/><path class="cls-11" d="M675.2,502.81l-17-3.63-1,1.32-.68-.07-7.17-17.19a.48.48,0,0,0-.6-.29l-.05,0a.5.5,0,0,0-.28.61l5,16.62,1.6.18.25.61-11.38,14.77a.5.5,0,1,0,.76.65l12-12.55-.63-1.48.42-.55L675,503.78a.47.47,0,0,0,.54-.39v-.05A.49.49,0,0,0,675.2,502.81Z"/><path class="cls-11" d="M656.75,501a.47.47,0,0,1-.94,0,.47.47,0,1,1,.94,0Z"/><path class="cls-11" d="M759.18,485.76l.05-7.36a1,1,0,0,1,2,0v2.41"/><line class="cls-11" x1="761.29" y1="487.73" x2="761.31" y2="490.44"/><line class="cls-11" x1="758.76" y1="551.2" x2="759.13" y2="493.21"/><line class="cls-11" x1="761.34" y1="495.53" x2="761.7" y2="551.2"/><path class="cls-11" d="M734.82,490.9l21.44-4.58,1.18,1.67.86-.09,9.07-21.73a.63.63,0,0,1,.82-.34.64.64,0,0,1,.36.77l-6.27,21-2,.23-.32.77,14.39,18.68a.63.63,0,0,1-.16.88.65.65,0,0,1-.79-.06l-15.14-15.87.81-1.89-.54-.69L735,492.14a.63.63,0,0,1-.2-1.24Z"/><circle class="cls-11" cx="758.76" cy="488.65" r="0.61"/><path class="cls-11" d="M725.79,498.74l0-5.84a.79.79,0,0,1,1.58,0v1.92"/><line class="cls-11" x1="727.46" y1="500.29" x2="727.48" y2="502.43"/><line class="cls-11" x1="725.46" y1="550.5" x2="725.75" y2="504.63"/><line class="cls-11" x1="727.5" y1="506.46" x2="727.78" y2="550.5"/><path class="cls-11" d="M706.5,502.81l17-3.63.95,1.32.68-.07,7.17-17.19a.48.48,0,0,1,.6-.29l0,0a.51.51,0,0,1,.28.61l-5,16.62-1.6.18-.26.61,11.39,14.77a.52.52,0,0,1-.06.71.5.5,0,0,1-.7-.06l-12-12.55.63-1.48-.42-.55-18.58,1.95a.47.47,0,0,1-.54-.39v-.05A.49.49,0,0,1,706.5,502.81Z"/><path class="cls-11" d="M725,501a.48.48,0,0,0,.95,0,.48.48,0,1,0-.95,0Z"/></g><g id="freepik--Clouds--inject-64-4" data-name="freepik--Clouds--inject-64"><g class="cls-23"><path class="cls-10" d="M517.21,436s8.76-10,21.53-10c0,0,.43-7.79,9.14-9.48s10.41,6.1,10.41,6.1,6.43-3.42,15.1,0S580.28,436,580.28,436s25-.81,29.24,3.76H497.37S499.63,434.13,517.21,436Z"/></g><path class="cls-11" d="M517.21,436s8.76-10,21.53-10c0,0,.43-7.79,9.14-9.48s10.41,6.1,10.41,6.1,6.43-3.42,15.1,0S580.28,436,580.28,436s25-.81,29.24,3.76H497.37S499.63,434.13,517.21,436Z"/><g class="cls-24"><path class="cls-10" d="M589.57,376.45s-7-8-17.17-8a8.53,8.53,0,0,0-7.29-7.56c-7-1.34-8.31,4.87-8.31,4.87a15.14,15.14,0,0,0-12,0c-6.9,2.72-5.51,10.67-5.51,10.67s-19.93-.64-23.31,3H605.4S603.59,375,589.57,376.45Z"/></g><path class="cls-11" d="M589.57,376.45s-7-8-17.17-8a8.53,8.53,0,0,0-7.29-7.56c-7-1.34-8.31,4.87-8.31,4.87a15.14,15.14,0,0,0-12,0c-6.9,2.72-5.51,10.67-5.51,10.67s-19.93-.64-23.31,3H605.4S603.59,375,589.57,376.45Z"/><g class="cls-25"><path class="cls-10" d="M427.42,404.27s4.14-4.76,10.2-4.76A5.07,5.07,0,0,1,442,395a4,4,0,0,1,4.93,2.89,9,9,0,0,1,7.14,0c4.11,1.62,3.28,6.34,3.28,6.34s11.81-.38,13.84,1.79H418S419.08,403.38,427.42,404.27Z"/></g><path class="cls-11" d="M427.42,404.27s4.14-4.76,10.2-4.76A5.07,5.07,0,0,1,442,395a4,4,0,0,1,4.93,2.89,9,9,0,0,1,7.14,0c4.11,1.62,3.28,6.34,3.28,6.34s11.81-.38,13.84,1.79H418S419.08,403.38,427.42,404.27Z"/><g class="cls-26"><path class="cls-10" d="M491,514.21s4.14-4.76,10.2-4.76a5,5,0,0,1,4.32-4.5,4,4,0,0,1,4.94,2.88,9,9,0,0,1,7.15,0c4.1,1.61,3.27,6.35,3.27,6.35s11.82-.39,13.85,1.78H481.55S482.61,513.32,491,514.21Z"/></g><path class="cls-11" d="M491,514.21s4.14-4.76,10.2-4.76a5,5,0,0,1,4.32-4.5,4,4,0,0,1,4.94,2.88,9,9,0,0,1,7.15,0c4.1,1.61,3.27,6.35,3.27,6.35s11.82-.39,13.85,1.78H481.55S482.61,513.32,491,514.21Z"/></g><g id="freepik--wind-turbines--inject-64-4" data-name="freepik--wind-turbines--inject-64"><path class="cls-11" d="M433.66,469.47l-.06-10a1.37,1.37,0,0,0-1.46-1.27,1.36,1.36,0,0,0-1.27,1.27v3.29"/><line class="cls-11" x1="434.23" y1="558.55" x2="433.73" y2="479.61"/><line class="cls-11" x1="430.72" y1="482.77" x2="430.24" y2="558.55"/><path class="cls-11" d="M466.83,476.46l-29.19-6.23L436,472.5l-1.17-.13L422.52,442.8a.87.87,0,0,0-1.12-.46.85.85,0,0,0-.49,1L429.45,472l2.75.31.44,1.05-19.57,25.44a.86.86,0,0,0,1.29,1.11L435,478.3l-1.1-2.57.73-.94,32,3.37a.86.86,0,0,0,.26-1.7Z"/><path class="cls-11" d="M477,487.71l-.05-7.94a1.08,1.08,0,0,0-2.16,0v2.61"/><line class="cls-11" x1="474.69" y1="489.83" x2="474.67" y2="492.74"/><line class="cls-11" x1="477.42" y1="558.18" x2="477.02" y2="495.73"/><line class="cls-11" x1="474.64" y1="498.23" x2="474.26" y2="558.18"/><path class="cls-11" d="M503.22,493.26l-23.1-4.94-1.28,1.8-.93-.1-9.76-23.4a.64.64,0,0,0-.82-.39l-.06,0a.69.69,0,0,0-.39.83l6.75,22.62,2.18.26.35.82-15.49,20.11a.68.68,0,0,0,.07,1,.67.67,0,0,0,.95-.08L478,494.69l-.86-2,.57-.75L503,494.58a.64.64,0,0,0,.74-.53s0,0,0-.06A.69.69,0,0,0,503.22,493.26Z"/><path class="cls-11" d="M478.11,490.82a.64.64,0,0,1-.64.64.65.65,0,0,1,0-1.29A.65.65,0,0,1,478.11,490.82Z"/><path class="cls-11" d="M617.55,470.05l.06-10a1.37,1.37,0,0,1,2.74,0v3.29"/><line class="cls-11" x1="620.42" y1="472.73" x2="620.45" y2="476.42"/><line class="cls-11" x1="616.98" y1="559.13" x2="617.48" y2="480.2"/><line class="cls-11" x1="620.49" y1="483.35" x2="620.98" y2="559.13"/><path class="cls-11" d="M584.38,477.05l29.2-6.23,1.6,2.26,1.17-.12,12.35-29.57a.85.85,0,0,1,1.6.57l-8.53,28.61-2.76.32-.44,1,19.59,25.43a.86.86,0,0,1-1.29,1.11l-20.61-21.6,1.1-2.57-.73-.94-32,3.37a.85.85,0,0,1-.28-1.68Z"/><circle class="cls-11" cx="616.98" cy="473.98" r="0.84"/><path class="cls-11" d="M572.1,487.71l0-7.94a1.07,1.07,0,0,1,1.08-1.07,1.08,1.08,0,0,1,1.08,1.07v2.61"/><line class="cls-11" x1="574.37" y1="489.83" x2="574.39" y2="492.74"/><line class="cls-11" x1="571.65" y1="558.18" x2="572.04" y2="495.73"/><line class="cls-11" x1="574.42" y1="498.23" x2="574.81" y2="558.18"/><path class="cls-11" d="M545.84,493.26l23.1-4.94,1.29,1.8.92-.1,9.77-23.4a.63.63,0,0,1,.82-.39l.06,0a.7.7,0,0,1,.39.83l-6.76,22.62-2.18.26-.34.82,15.49,20.11a.69.69,0,0,1-.07,1,.68.68,0,0,1-1-.08l-16.3-17.08.87-2-.58-.75-25.29,2.66a.64.64,0,0,1-.74-.53V494A.67.67,0,0,1,545.84,493.26Z"/><path class="cls-11" d="M571,490.82a.65.65,0,1,0,.65-.65A.65.65,0,0,0,571,490.82Z"/></g><g id="freepik--Clouds--inject-64-5" data-name="freepik--Clouds--inject-64"><g class="cls-27"><path class="cls-10" d="M202.93,387.71s10.82-12.41,26.6-12.41c0,0,.53-9.63,11.3-11.71s12.87,7.54,12.87,7.54,7.94-4.23,18.65,0,8.52,16.54,8.52,16.54,30.84-1,36.14,4.65H178.4S181.19,385.4,202.93,387.71Z"/></g><path class="cls-11" d="M202.93,387.71s10.82-12.41,26.6-12.41c0,0,.53-9.63,11.3-11.71s12.87,7.54,12.87,7.54,7.94-4.23,18.65,0,8.52,16.54,8.52,16.54,30.84-1,36.14,4.65H178.4S181.19,385.4,202.93,387.71Z"/><g class="cls-28"><path class="cls-10" d="M292.35,314.13s-8.64-9.9-21.22-9.9c0,0-.42-7.68-9-9.34s-10.27,6-10.27,6-6.35-3.36-14.87,0-6.8,13.2-6.8,13.2-24.63-.79-28.82,3.7H311.91S309.68,312.29,292.35,314.13Z"/></g><path class="cls-11" d="M292.35,314.13s-8.64-9.9-21.22-9.9c0,0-.42-7.68-9-9.34s-10.27,6-10.27,6-6.35-3.36-14.87,0-6.8,13.2-6.8,13.2-24.63-.79-28.82,3.7H311.91S309.68,312.29,292.35,314.13Z"/><g class="cls-29"><path class="cls-10" d="M91.94,348.51s5.13-5.88,12.61-5.88a6.27,6.27,0,0,1,5.35-5.57,4.88,4.88,0,0,1,6.09,3.57,11.13,11.13,0,0,1,8.84,0c5.07,2,4,7.84,4,7.84s14.61-.47,17.12,2.21H80.33S81.65,347.41,91.94,348.51Z"/></g><path class="cls-11" d="M91.94,348.51s5.13-5.88,12.61-5.88a6.27,6.27,0,0,1,5.35-5.57,4.88,4.88,0,0,1,6.09,3.57,11.13,11.13,0,0,1,8.84,0c5.07,2,4,7.84,4,7.84s14.61-.47,17.12,2.21H80.33S81.65,347.41,91.94,348.51Z"/><g class="cls-30"><path class="cls-10" d="M170.46,484.38s5.12-5.88,12.61-5.88a6.26,6.26,0,0,1,5.35-5.56,4.9,4.9,0,0,1,6.1,3.56,11.11,11.11,0,0,1,8.83,0c5.07,2,4.05,7.84,4.05,7.84s14.6-.48,17.11,2.2H158.84S160.16,483.28,170.46,484.38Z"/></g><path class="cls-11" d="M170.46,484.38s5.12-5.88,12.61-5.88a6.26,6.26,0,0,1,5.35-5.56,4.9,4.9,0,0,1,6.1,3.56,11.11,11.11,0,0,1,8.83,0c5.07,2,4.05,7.84,4.05,7.84s14.6-.48,17.11,2.2H158.84S160.16,483.28,170.46,484.38Z"/></g><g id="freepik--wind-turbines--inject-64-5" data-name="freepik--wind-turbines--inject-64"><path class="cls-11" d="M99.66,429.09l-.08-12.4a1.69,1.69,0,0,0-3.37,0v4.06"/><line class="cls-11" x1="100.37" y1="539.19" x2="99.74" y2="441.62"/><line class="cls-11" x1="96.02" y1="445.53" x2="95.43" y2="539.19"/><path class="cls-11" d="M140.65,437.73,104.57,430l-2,2.8-1.44-.15L85.89,396.13a1.06,1.06,0,0,0-2,.71L94.45,432.2l3.41.39.54,1.3L74.21,465.33a1.06,1.06,0,0,0,1.59,1.37L101.28,440l-1.35-3.17.89-1.16,39.52,4.16a1,1,0,0,0,1.2-.89,1.06,1.06,0,0,0-.89-1.21Z"/><path class="cls-11" d="M153.19,451.63l-.07-9.81a1.34,1.34,0,0,0-2.67,0V445"/><line class="cls-11" x1="150.37" y1="454.26" x2="150.35" y2="457.85"/><line class="cls-11" x1="153.74" y1="538.72" x2="153.25" y2="461.55"/><line class="cls-11" x1="150.31" y1="464.63" x2="149.83" y2="538.72"/><path class="cls-11" d="M185.64,458.49l-28.55-6.1-1.59,2.22-1.15-.12-12.07-28.92a.79.79,0,0,0-1-.49l-.07,0a.85.85,0,0,0-.49,1l8.35,28,2.7.31.42,1L133,480.29a.84.84,0,0,0,.09,1.18.83.83,0,0,0,1.18-.1l20.14-21.12-1.07-2.49.71-.92,31.26,3.29a.79.79,0,0,0,.91-.66.22.22,0,0,0,0-.08A.84.84,0,0,0,185.64,458.49Z"/><path class="cls-11" d="M154.6,455.47a.8.8,0,1,1-.79-.79A.79.79,0,0,1,154.6,455.47Z"/><path class="cls-11" d="M326.93,429.81l.08-12.4a1.69,1.69,0,0,1,3.38,0v4.06"/><line class="cls-11" x1="330.49" y1="433.12" x2="330.52" y2="437.67"/><line class="cls-11" x1="326.23" y1="539.91" x2="326.85" y2="442.35"/><line class="cls-11" x1="330.57" y1="446.25" x2="331.17" y2="539.91"/><path class="cls-11" d="M285.94,438.45l36.08-7.7,2,2.8,1.44-.15,15.26-36.55a1.06,1.06,0,0,1,2,.71l-10.55,35.36-3.41.39-.54,1.3L352.41,466a1.06,1.06,0,0,1-1.59,1.38l-25.48-26.7,1.36-3.18-.9-1.16-39.52,4.16a1.06,1.06,0,0,1-.34-2.08Z"/><circle class="cls-11" cx="326.23" cy="434.66" r="1.03"/><path class="cls-11" d="M270.76,451.63l.06-9.81a1.34,1.34,0,0,1,2.67,0V445"/><line class="cls-11" x1="273.57" y1="454.26" x2="273.59" y2="457.85"/><line class="cls-11" x1="270.2" y1="538.72" x2="270.69" y2="461.55"/><line class="cls-11" x1="273.63" y1="464.63" x2="274.11" y2="538.72"/><path class="cls-11" d="M238.31,458.49l28.55-6.1,1.58,2.22,1.15-.12,12.07-28.92a.79.79,0,0,1,1-.49l.08,0a.86.86,0,0,1,.48,1l-8.35,28-2.69.31-.43,1,19.15,24.86a.84.84,0,0,1-.09,1.18.83.83,0,0,1-1.18-.1l-20.15-21.12,1.07-2.49-.71-.92-31.26,3.29a.79.79,0,0,1-.91-.66s0-.05,0-.08A.84.84,0,0,1,238.31,458.49Z"/><path class="cls-11" d="M269.38,455.47a.8.8,0,0,0,.8.8.79.79,0,0,0,.79-.8.79.79,0,0,0-.79-.79A.79.79,0,0,0,269.38,455.47Z"/></g><g id="freepik--Clouds--inject-64-6" data-name="freepik--Clouds--inject-64"><g class="cls-31"><path class="cls-10" d="M1816,379.15s12.15-13.93,29.88-13.93c0,0,.59-10.82,12.69-13.16s14.44,8.47,14.44,8.47,8.93-4.75,21,0,9.57,18.58,9.57,18.58,34.64-1.13,40.58,5.22H1788.43S1791.58,376.56,1816,379.15Z"/></g><path class="cls-11" d="M1816,379.15s12.15-13.93,29.88-13.93c0,0,.59-10.82,12.69-13.16s14.44,8.47,14.44,8.47,8.93-4.75,21,0,9.57,18.58,9.57,18.58,34.64-1.13,40.58,5.22H1788.43S1791.58,376.56,1816,379.15Z"/><g class="cls-32"><path class="cls-10" d="M1916.4,296.52s-9.7-11.11-23.83-11.11c0,0-.47-8.63-10.12-10.49s-11.53,6.75-11.53,6.75-7.13-3.78-16.7,0-7.64,14.82-7.64,14.82-27.66-.89-32.36,4.16h124.15S1935.86,294.46,1916.4,296.52Z"/></g><path class="cls-11" d="M1916.4,296.52s-9.7-11.11-23.83-11.11c0,0-.47-8.63-10.12-10.49s-11.53,6.75-11.53,6.75-7.13-3.78-16.7,0-7.64,14.82-7.64,14.82-27.66-.89-32.36,4.16h124.15S1935.86,294.46,1916.4,296.52Z"/><g class="cls-33"><path class="cls-10" d="M1691.35,335.13s5.75-6.6,14.16-6.6a7,7,0,0,1,6-6.25c5.73-1.11,6.85,4,6.85,4a12.49,12.49,0,0,1,9.92,0c5.69,2.24,4.54,8.8,4.54,8.8s16.4-.53,19.22,2.47H1678.3S1679.78,333.9,1691.35,335.13Z"/></g><path class="cls-11" d="M1691.35,335.13s5.75-6.6,14.16-6.6a7,7,0,0,1,6-6.25c5.73-1.11,6.85,4,6.85,4a12.49,12.49,0,0,1,9.92,0c5.69,2.24,4.54,8.8,4.54,8.8s16.4-.53,19.22,2.47H1678.3S1679.78,333.9,1691.35,335.13Z"/><g class="cls-34"><path class="cls-10" d="M1779.52,487.71s5.76-6.6,14.16-6.6a7,7,0,0,1,6-6.25c5.72-1.08,6.85,4,6.85,4a12.49,12.49,0,0,1,9.92,0c5.69,2.24,4.54,8.81,4.54,8.81s16.4-.54,19.22,2.47h-73.74S1768,486.48,1779.52,487.71Z"/></g><path class="cls-11" d="M1779.52,487.71s5.76-6.6,14.16-6.6a7,7,0,0,1,6-6.25c5.72-1.08,6.85,4,6.85,4a12.49,12.49,0,0,1,9.92,0c5.69,2.24,4.54,8.81,4.54,8.81s16.4-.54,19.22,2.47h-73.74S1768,486.48,1779.52,487.71Z"/></g><g id="freepik--wind-turbines--inject-64-6" data-name="freepik--wind-turbines--inject-64"><path class="cls-11" d="M1700,425.62l-.09-13.92a1.9,1.9,0,0,0-3.79,0v4.56"/><line class="cls-11" x1="1700.81" y1="549.26" x2="1700.11" y2="439.7"/><line class="cls-11" x1="1695.93" y1="444.08" x2="1695.26" y2="549.26"/><path class="cls-11" d="M1746.05,435.33l-40.52-8.65-2.23,3.14-1.61-.17-17.14-41a1.19,1.19,0,0,0-2.23.8l11.84,39.71,3.83.43.61,1.46-27.16,35.31a1.18,1.18,0,0,0,1.78,1.54l28.61-30-1.52-3.57,1-1.3,44.37,4.67a1.19,1.19,0,1,0,.36-2.35Z"/><path class="cls-11" d="M1760.12,450.94l-.07-11a1.5,1.5,0,1,0-3,0v3.61"/><line class="cls-11" x1="1756.96" y1="453.88" x2="1756.94" y2="457.92"/><line class="cls-11" x1="1760.75" y1="548.74" x2="1760.19" y2="462.07"/><line class="cls-11" x1="1756.89" y1="465.54" x2="1756.36" y2="548.74"/><path class="cls-11" d="M1796.56,458.64l-32.06-6.85-1.78,2.49-1.29-.14-13.55-32.48a.9.9,0,0,0-1.14-.54l-.08,0a1,1,0,0,0-.55,1.14l9.38,31.41,3,.34.48,1.15-21.51,27.91a1,1,0,0,0,.11,1.33.93.93,0,0,0,1.32-.1l22.62-23.72-1.19-2.8.79-1,35.1,3.7a.9.9,0,0,0,1-.74.28.28,0,0,1,0-.09A1,1,0,0,0,1796.56,458.64Z"/><path class="cls-11" d="M1761.71,455.25a.89.89,0,1,1-.89-.89A.89.89,0,0,1,1761.71,455.25Z"/><path class="cls-11" d="M1955.24,426.43l.09-13.92a1.9,1.9,0,0,1,3.79,0v4.56"/><line class="cls-11" x1="1959.23" y1="430.15" x2="1959.26" y2="435.26"/><line class="cls-11" x1="1954.44" y1="550.07" x2="1955.15" y2="440.51"/><line class="cls-11" x1="1959.32" y1="444.89" x2="1959.99" y2="550.07"/><path class="cls-11" d="M1909.21,436.14l40.51-8.65,2.23,3.14,1.62-.17,17.14-41a1.19,1.19,0,0,1,2.23.8l-11.85,39.71-3.83.43-.6,1.46,27.18,35.29a1.18,1.18,0,0,1-.3,1.65,1.19,1.19,0,0,1-1.48-.11l-28.61-30,1.52-3.57-1-1.3-44.37,4.67a1.18,1.18,0,0,1-.38-2.33Z"/><circle class="cls-11" cx="1954.44" cy="431.88" r="1.16"/><path class="cls-11" d="M1892.15,450.94l.07-11a1.5,1.5,0,0,1,3,0v3.61"/><line class="cls-11" x1="1895.31" y1="453.88" x2="1895.34" y2="457.92"/><line class="cls-11" x1="1891.53" y1="548.74" x2="1892.08" y2="462.07"/><line class="cls-11" x1="1895.38" y1="465.54" x2="1895.92" y2="548.74"/><path class="cls-11" d="M1855.71,458.64l32.06-6.85,1.79,2.49,1.28-.14,13.55-32.48a.9.9,0,0,1,1.14-.54l.09,0a1,1,0,0,1,.54,1.14l-9.38,31.41-3,.34-.48,1.15,21.5,27.91a.94.94,0,0,1-1.43,1.23l-22.62-23.72,1.2-2.8-.79-1-35.11,3.7a.89.89,0,0,1-1-.74.28.28,0,0,1,0-.09A.94.94,0,0,1,1855.71,458.64Z"/><path class="cls-11" d="M1890.61,455.25a.89.89,0,1,0,.89-.89A.89.89,0,0,0,1890.61,455.25Z"/></g><g id="rager_gauche" data-name="rager gauche"><path class="cls-35" d="M774.54,663H691s-17.45-167.94-17.92-176-3.3-50,42.45-50.48S767,479,767,499.79s6.61,145.76,6.61,145.76Z"/><polygon class="cls-36" points="742.15 707.04 752.84 663.64 774.54 663.01 773.28 707.98 742.15 707.04"/><polygon class="cls-37" points="823.6 678.42 810.08 645.71 774.54 663.01 773.28 707.98 823.6 678.42"/><polygon class="cls-38" points="828.01 636.28 829.26 614.26 784.61 632.5 774.54 663.01 828.01 636.28"/><path class="cls-35" d="M721.71,436.89c6.92-.11,47.17,1.57,52.83,35.53S784.61,632.5,784.61,632.5L774.54,663s-4.3-83-4.4-85.86-2.2-66.28-3.15-72.88,3-47.15-27.46-62.56C739.53,441.71,734.08,437.73,721.71,436.89Z"/><path class="cls-2" d="M783.82,614.89l41.51-20.6s6.45,6.92,3.93,20L784.61,632.5Z"/><polygon class="cls-2" points="782.4 590.83 825.33 594.29 783.82 614.89 782.4 590.83"/><polygon class="cls-39" points="683.76 458.9 742.88 459.01 743.83 502.41 690.57 502.93 683.76 458.9"/><polygon class="cls-40" points="690.89 464.98 732.72 465.4 735.23 499.05 695.08 498.63 690.89 464.98"/><path class="cls-35" d="M882.73,661.75h-83.5s-17.45-167.94-17.93-176-3.3-50,42.46-50.48,51.42,42.46,51.42,63.22,6.61,145.77,6.61,145.77Z"/><polygon class="cls-37" points="850.34 705.78 861.03 662.38 882.73 661.75 881.47 706.72 850.34 705.78"/><polygon class="cls-37" points="931.79 677.16 918.27 644.45 882.73 661.75 881.47 706.72 931.79 677.16"/><polygon class="cls-38" points="936.19 635.02 937.45 613 892.79 631.25 882.73 661.75 936.19 635.02"/><path class="cls-35" d="M829.89,435.63c6.92-.11,47.18,1.57,52.84,35.54s10.06,160.07,10.06,160.07l-10.06,30.51s-4.3-83-4.4-85.86-2.21-66.28-3.15-72.88,3-47.15-27.46-62.56C847.72,440.45,842.26,436.47,829.89,435.63Z"/><path class="cls-2" d="M892,613.63,933.52,593s6.45,6.92,3.93,20l-44.66,18.24Z"/><polygon class="cls-2" points="890.59 589.57 933.52 593.03 892.01 613.63 890.59 589.57"/><polygon class="cls-39" points="791.95 457.64 851.07 457.75 852.01 501.15 798.76 501.67 791.95 457.64"/><polygon class="cls-40" points="799.07 463.72 840.9 464.14 843.42 497.79 803.27 497.38 799.07 463.72"/><g id="Calque_2-2" data-name="Calque 2"><g id="Calque_2-2-2" data-name="Calque 2-2"><path class="cls-41" d="M828.52,495.28a8.77,8.77,0,0,0,3,.86,5.3,5.3,0,0,0,2.67-.32,7.54,7.54,0,0,0,1.93-1.5,11.87,11.87,0,0,0,1.61-1.93,14.37,14.37,0,0,0,.88-2.25,12.63,12.63,0,0,0,.19-2.46,8.35,8.35,0,0,0-.86-2.47,11.27,11.27,0,0,0-2.78-3.32A14.51,14.51,0,0,0,832,481a27.5,27.5,0,0,0-1.61-4.72,11.61,11.61,0,0,0-3-2.89,13.44,13.44,0,0,0-3.53-1.17,11.79,11.79,0,0,0-3.75,0,11,11,0,0,0-3.32,1.92,46.35,46.35,0,0,0-3.32,4.39,21.71,21.71,0,0,0-4.07-.53,11.17,11.17,0,0,0-4,1.51,14.39,14.39,0,0,0-1.91,2.56l-1.29,2.35a16.25,16.25,0,0,0-3.64-.1,7.59,7.59,0,0,0-2.89,1.75,11.48,11.48,0,0,0-1.72,3.17,8.06,8.06,0,0,0,0,3.75,8.56,8.56,0,0,0,2.57,2.79,8.7,8.7,0,0,0,3.12.95,18.66,18.66,0,0,0,3.85-.85,30.56,30.56,0,0,0,3.42,2,18.26,18.26,0,0,0,3.32.88,15.28,15.28,0,0,0,3.64-.24,19.06,19.06,0,0,0,2.9-1.34s1.89,1.07,2.57,1.34a7.33,7.33,0,0,0,4.07.75,6.62,6.62,0,0,0,2.67-1.18A9.89,9.89,0,0,0,828.52,495.28Z"/><line class="cls-42" x1="791.25" y1="492.96" x2="840.19" y2="493.07"/><line class="cls-42" x1="791.36" y1="489.23" x2="840.09" y2="489.12"/><rect class="cls-43" x="795.16" y="489.22" width="0.75" height="3.79"/><rect class="cls-43" x="796.79" y="489.22" width="0.75" height="3.79"/><rect class="cls-43" x="798.44" y="489.22" width="0.75" height="3.79"/><rect class="cls-43" x="800.1" y="489.22" width="0.75" height="3.79"/><rect class="cls-43" x="801.8" y="489.22" width="0.75" height="3.79"/><rect class="cls-43" x="803.3" y="489.22" width="0.75" height="3.79"/><rect class="cls-43" x="804.91" y="489.22" width="0.75" height="3.79"/><rect class="cls-43" x="806.48" y="489.22" width="0.75" height="3.79"/><rect class="cls-43" x="807.99" y="489.22" width="0.75" height="3.79"/><rect class="cls-43" x="809.48" y="489.15" width="0.75" height="3.79"/><rect class="cls-43" x="811.01" y="489.22" width="0.75" height="3.79"/><rect class="cls-43" x="812.51" y="489.22" width="0.75" height="3.79"/><rect class="cls-43" x="814" y="489.22" width="0.75" height="3.79"/><rect class="cls-43" x="815.5" y="489.15" width="0.75" height="3.79"/><rect class="cls-43" x="817.02" y="489.15" width="0.75" height="3.79"/><rect class="cls-43" x="818.53" y="489.15" width="0.75" height="3.79"/><rect class="cls-43" x="820.08" y="489.15" width="0.75" height="3.79"/><rect class="cls-43" x="821.58" y="489.22" width="0.75" height="3.79"/><rect class="cls-43" x="823.14" y="489.15" width="0.75" height="3.79"/><rect class="cls-43" x="824.64" y="489.15" width="0.75" height="3.79"/><rect class="cls-43" x="826.13" y="489.15" width="0.75" height="3.79"/><rect class="cls-43" x="827.61" y="489.15" width="0.75" height="3.79"/><rect class="cls-43" x="829.08" y="489.15" width="0.75" height="3.79"/><rect class="cls-43" x="830.61" y="489.22" width="0.75" height="3.79"/><rect class="cls-43" x="832.18" y="489.15" width="0.75" height="3.79"/><rect class="cls-43" x="833.71" y="489.15" width="0.75" height="3.79"/><rect class="cls-43" x="835.27" y="489.15" width="0.75" height="3.79"/><text class="cls-44" transform="translate(798.25 491.66)">Tt</text></g></g><path class="cls-35" d="M672.5,723.58h-103s-21.54-207.26-22.12-217.16-4.08-61.71,52.4-62.29,63.46,52.39,63.46,78S671.34,702,671.34,702Z"/><polygon class="cls-36" points="632.52 777.92 645.72 724.36 672.5 723.58 670.95 779.08 632.52 777.92"/><polygon class="cls-37" points="733.05 742.6 716.36 702.23 672.5 723.58 670.95 779.08 733.05 742.6"/><polygon class="cls-38" points="738.48 690.59 740.03 663.42 684.92 685.93 672.5 723.58 738.48 690.59"/><path class="cls-35" d="M607.29,444.52c8.54-.13,58.22,1.94,65.21,43.85s12.42,197.56,12.42,197.56L672.5,723.58s-5.3-102.47-5.43-106-2.72-81.8-3.88-90,3.75-58.19-33.9-77.2C629.29,450.47,622.56,445.55,607.29,444.52Z"/><path class="cls-2" d="M684,664.2l51.23-25.43s8,8.54,4.85,24.65l-55.11,22.51Z"/><polygon class="cls-2" points="682.2 634.5 735.18 638.77 683.95 664.2 682.2 634.5"/><polygon class="cls-39" points="560.46 471.68 633.43 471.81 634.59 525.38 568.87 526.02 560.46 471.68"/><polygon class="cls-40" points="569.26 479.19 620.88 479.71 623.98 521.24 574.43 520.72 569.26 479.19"/><path class="cls-35" d="M806,722H703s-21.54-207.26-22.13-217.16-4.07-61.71,52.4-62.3,63.46,52.4,63.46,78,8.15,179.9,8.15,179.9Z"/><polygon class="cls-37" points="766.04 776.36 779.24 722.8 806.02 722.03 804.46 777.53 766.04 776.36"/><polygon class="cls-37" points="866.56 741.04 849.87 700.68 806.02 722.03 804.46 777.53 866.56 741.04"/><polygon class="cls-38" points="872 689.04 873.55 661.87 818.44 684.38 806.02 722.03 872 689.04"/><path class="cls-35" d="M740.81,443c8.54-.13,58.22,1.94,65.21,43.86s12.42,197.56,12.42,197.56L806,722s-5.31-102.47-5.44-106-2.71-81.8-3.88-90,3.75-58.19-33.9-77.21C762.8,448.91,756.08,444,740.81,443Z"/><path class="cls-2" d="M817.47,662.64l51.23-25.42s8,8.54,4.85,24.65l-55.11,22.51Z"/><polygon class="cls-2" points="815.72 632.95 868.7 637.22 817.47 662.64 815.72 632.95"/><polygon class="cls-39" points="693.98 470.13 766.94 470.26 768.11 523.82 702.39 524.47 693.98 470.13"/><polygon class="cls-40" points="702.77 477.64 754.39 478.15 757.5 519.68 707.95 519.16 702.77 477.64"/><g id="Calque_2-3" data-name="Calque 2"><g id="Calque_2-2-3" data-name="Calque 2-2"><path class="cls-41" d="M738.71,508.54a9,9,0,0,0,3,.86,5.34,5.34,0,0,0,2.68-.33,7.67,7.67,0,0,0,1.92-1.5,11.46,11.46,0,0,0,1.61-1.93,14.92,14.92,0,0,0,.89-2.24,12,12,0,0,0,.18-2.47,8.2,8.2,0,0,0-.86-2.46,10.74,10.74,0,0,0-2.78-3.32,14.11,14.11,0,0,0-3.21-.86,27.18,27.18,0,0,0-1.61-4.71,11.3,11.3,0,0,0-3-2.89,13.46,13.46,0,0,0-3.53-1.18,12.41,12.41,0,0,0-3.75,0,10.69,10.69,0,0,0-3.31,1.93,44,44,0,0,0-3.33,4.39,22.39,22.39,0,0,0-4.07-.54,11.37,11.37,0,0,0-4,1.51,14.39,14.39,0,0,0-1.91,2.56l-1.29,2.36a16.73,16.73,0,0,0-3.64-.11,7.82,7.82,0,0,0-2.89,1.76,11.18,11.18,0,0,0-1.71,3.17,7.8,7.8,0,0,0,0,3.75,8.39,8.39,0,0,0,2.56,2.78,9,9,0,0,0,3.12,1,18.66,18.66,0,0,0,3.85-.85,29.35,29.35,0,0,0,3.42,2,18.26,18.26,0,0,0,3.32.88,15.94,15.94,0,0,0,3.65-.23,19.86,19.86,0,0,0,2.89-1.34s1.9,1.07,2.57,1.34a7.34,7.34,0,0,0,4.07.75,6.9,6.9,0,0,0,2.67-1.18A10,10,0,0,0,738.71,508.54Z"/><line class="cls-42" x1="701.44" y1="506.21" x2="750.38" y2="506.32"/><line class="cls-42" x1="701.55" y1="502.48" x2="750.28" y2="502.37"/><rect class="cls-43" x="705.35" y="502.47" width="0.75" height="3.79"/><rect class="cls-43" x="706.98" y="502.47" width="0.75" height="3.79"/><rect class="cls-43" x="708.63" y="502.47" width="0.75" height="3.79"/><rect class="cls-43" x="710.29" y="502.47" width="0.75" height="3.79"/><rect class="cls-43" x="711.99" y="502.47" width="0.75" height="3.79"/><rect class="cls-43" x="713.49" y="502.47" width="0.75" height="3.79"/><rect class="cls-43" x="715.1" y="502.47" width="0.75" height="3.79"/><rect class="cls-43" x="716.67" y="502.47" width="0.75" height="3.79"/><rect class="cls-43" x="718.18" y="502.47" width="0.75" height="3.79"/><rect class="cls-43" x="719.67" y="502.41" width="0.75" height="3.79"/><rect class="cls-43" x="721.2" y="502.47" width="0.75" height="3.79"/><rect class="cls-43" x="722.7" y="502.47" width="0.75" height="3.79"/><rect class="cls-43" x="724.19" y="502.47" width="0.75" height="3.79"/><rect class="cls-43" x="725.69" y="502.41" width="0.75" height="3.79"/><rect class="cls-43" x="727.21" y="502.41" width="0.75" height="3.79"/><rect class="cls-43" x="728.72" y="502.41" width="0.75" height="3.79"/><rect class="cls-43" x="730.28" y="502.41" width="0.75" height="3.79"/><rect class="cls-43" x="731.77" y="502.47" width="0.75" height="3.79"/><rect class="cls-43" x="733.33" y="502.41" width="0.75" height="3.79"/><rect class="cls-43" x="734.83" y="502.41" width="0.75" height="3.79"/><rect class="cls-43" x="736.33" y="502.41" width="0.75" height="3.79"/><rect class="cls-43" x="737.81" y="502.41" width="0.75" height="3.79"/><rect class="cls-43" x="739.27" y="502.41" width="0.75" height="3.79"/><rect class="cls-43" x="740.8" y="502.47" width="0.75" height="3.79"/><rect class="cls-43" x="742.37" y="502.41" width="0.75" height="3.79"/><rect class="cls-43" x="743.9" y="502.41" width="0.75" height="3.79"/><rect class="cls-43" x="745.46" y="502.41" width="0.75" height="3.79"/><text class="cls-44" transform="translate(708.45 504.91)">Tt</text></g></g><path class="cls-35" d="M522,807.46H378.7s-29.95-288.12-30.76-301.88-5.66-85.79,72.84-86.6S509,491.82,509,527.43s11.33,250.08,11.33,250.08Z"/><polygon class="cls-36" points="466.37 882.99 484.72 808.54 521.95 807.46 519.79 884.61 466.37 882.99"/><polygon class="cls-37" points="606.12 833.89 582.91 777.78 521.95 807.46 519.79 884.61 606.12 833.89"/><polygon class="cls-38" points="613.67 761.6 615.83 723.83 539.21 755.12 521.95 807.46 613.67 761.6"/><path class="cls-35" d="M431.3,419.52c11.87-.18,80.93,2.7,90.65,61s17.26,274.63,17.26,274.63L522,807.46s-7.38-142.44-7.56-147.3-3.77-113.71-5.39-125,5.21-80.89-47.12-107.32C461.88,427.8,452.52,421,431.3,419.52Z"/><path class="cls-2" d="M537.86,724.91l71.22-35.34s11.06,11.87,6.75,34.26l-76.62,31.29Z"/><polygon class="cls-2" points="535.43 683.63 609.08 689.57 537.86 724.91 535.43 683.63"/><polygon class="cls-39" points="366.2 457.29 467.63 457.47 469.25 531.93 377.89 532.83 366.2 457.29"/><polygon class="cls-40" points="378.43 467.72 450.19 468.44 454.5 526.17 385.62 525.45 378.43 467.72"/><path class="cls-35" d="M707.55,805.3H564.3s-29.94-288.12-30.75-301.88-5.67-85.79,72.84-86.59,88.21,72.83,88.21,108.44,11.33,250.08,11.33,250.08Z"/><polygon class="cls-37" points="651.98 880.84 670.32 806.38 707.55 805.3 705.39 882.45 651.98 880.84"/><polygon class="cls-37" points="791.72 831.74 768.52 775.62 707.55 805.3 705.39 882.45 791.72 831.74"/><polygon class="cls-38" points="799.27 759.44 801.43 721.67 724.82 752.96 707.55 805.3 799.27 759.44"/><path class="cls-35" d="M616.91,417.37c11.87-.18,80.93,2.69,90.64,61S724.82,753,724.82,753L707.55,805.3S700.18,662.86,700,658s-3.78-113.71-5.4-125,5.22-80.88-47.12-107.32C647.48,425.64,638.13,418.8,616.91,417.37Z"/><path class="cls-2" d="M723.47,722.75l71.22-35.34s11.06,11.87,6.74,34.26L724.82,753Z"/><polygon class="cls-2" points="721.04 681.47 794.69 687.41 723.47 722.75 721.04 681.47"/><polygon class="cls-39" points="551.8 455.13 653.24 455.31 654.85 529.77 563.49 530.67 551.8 455.13"/><polygon class="cls-40" points="564.03 465.56 635.79 466.28 640.11 524.01 571.23 523.3 564.03 465.56"/><path class="cls-35" d="M243.12,966.06H43.36S1.61,564.29.48,545.1s-7.9-119.63,101.57-120.76,123,101.57,123,151.23,15.8,348.73,15.8,348.73Z"/><polygon class="cls-36" points="165.63 1071.39 191.21 967.56 243.12 966.06 240.11 1073.65 165.63 1071.39"/><polygon class="cls-37" points="360.49 1002.92 328.14 924.68 243.12 966.06 240.11 1073.65 360.49 1002.92"/><polygon class="cls-38" points="371.02 902.11 374.04 849.44 267.2 893.08 243.12 966.06 371.02 902.11"/><path class="cls-35" d="M116.72,425.1c16.55-.26,112.86,3.76,126.4,85s24.08,383,24.08,383l-24.08,73s-10.28-198.63-10.53-205.4-5.27-158.57-7.53-174.37,7.28-112.79-65.7-149.66C159.36,436.63,146.31,427.1,116.72,425.1Z"/><path class="cls-2" d="M265.32,850.94l99.31-49.28s15.42,16.55,9.4,47.78L267.2,893.08Z"/><polygon class="cls-2" points="261.93 793.39 364.63 801.66 265.32 850.94 261.93 793.39"/><polygon class="cls-39" points="25.93 477.76 167.38 478.01 169.64 581.84 42.23 583.1 25.93 477.76"/><polygon class="cls-40" points="42.99 492.31 143.05 493.31 149.07 573.82 53.02 572.81 42.99 492.31"/><path class="cls-35" d="M501.94,963.05H302.18s-41.75-401.77-42.88-421-7.9-119.63,101.57-120.76,123,101.57,123,151.23,15.8,348.73,15.8,348.73Z"/><polygon class="cls-37" points="424.44 1068.38 450.02 964.55 501.94 963.05 498.93 1070.64 424.44 1068.38"/><polygon class="cls-37" points="619.31 999.91 586.96 921.67 501.94 963.05 498.93 1070.64 619.31 999.91"/><polygon class="cls-38" points="629.84 899.1 632.85 846.43 526.02 890.07 501.94 963.05 629.84 899.1"/><path class="cls-35" d="M375.54,422.09c16.55-.26,112.86,3.76,126.4,85s24.08,383,24.08,383l-24.08,73s-10.28-198.63-10.53-205.4-5.27-158.57-7.53-174.37,7.28-112.79-65.71-149.66C418.17,433.62,405.13,424.09,375.54,422.09Z"/><path class="cls-2" d="M524.13,847.93l99.32-49.28s15.42,16.55,9.4,47.78L526,890.07Z"/><polygon class="cls-2" points="520.75 790.38 623.45 798.65 524.13 847.93 520.75 790.38"/><polygon class="cls-39" points="284.75 474.75 426.2 475 428.46 578.83 301.05 580.09 284.75 474.75"/><polygon class="cls-40" points="301.81 489.3 401.87 490.3 407.89 570.81 311.84 569.8 301.81 489.3"/></g><path class="cls-35" d="M1242.41,656.24h83.49s17.46-167.94,17.93-176,3.3-50-42.46-50.48S1250,472.26,1250,493s-6.6,145.77-6.6,145.77Z"/><polygon class="cls-36" points="1274.8 700.27 1264.11 656.87 1242.4 656.24 1243.66 701.21 1274.8 700.27"/><polygon class="cls-37" points="1193.34 671.65 1206.87 638.94 1242.4 656.24 1243.66 701.21 1193.34 671.65"/><polygon class="cls-38" points="1188.94 629.5 1187.68 607.49 1232.34 625.73 1242.4 656.24 1188.94 629.5"/><path class="cls-35" d="M1295.24,430.12c-6.92-.11-47.17,1.57-52.83,35.53s-10.07,160.08-10.07,160.08l10.07,30.51s4.29-83,4.4-85.86,2.2-66.28,3.14-72.88-3-47.15,27.47-62.56C1277.42,434.94,1282.87,431,1295.24,430.12Z"/><path class="cls-2" d="M1233.13,608.12l-41.52-20.6s-6.44,6.92-3.93,20l44.66,18.24Z"/><polygon class="cls-2" points="1234.54 584.06 1191.61 587.52 1233.13 608.12 1234.54 584.06"/><polygon class="cls-39" points="1333.19 452.13 1274.06 452.24 1273.12 495.63 1326.38 496.16 1333.19 452.13"/><polygon class="cls-40" points="1326.06 458.21 1284.23 458.63 1281.72 492.28 1321.87 491.86 1326.06 458.21"/><path class="cls-35" d="M1134.22,655h83.5s17.45-167.94,17.92-176,3.31-50-42.45-50.48-51.42,42.46-51.42,63.22-6.61,145.76-6.61,145.76Z"/><polygon class="cls-37" points="1166.61 699.01 1155.92 655.61 1134.22 654.98 1135.48 699.95 1166.61 699.01"/><polygon class="cls-37" points="1085.16 670.39 1098.68 637.68 1134.22 654.98 1135.48 699.95 1085.16 670.39"/><polygon class="cls-38" points="1080.76 628.25 1079.5 606.23 1124.15 624.47 1134.22 654.98 1080.76 628.25"/><path class="cls-35" d="M1187.05,428.86c-6.91-.11-47.17,1.57-52.83,35.54s-10.06,160.07-10.06,160.07L1134.22,655s4.3-83,4.4-85.86,2.2-66.28,3.15-72.88-3-47.15,27.46-62.56C1169.23,433.68,1174.68,429.7,1187.05,428.86Z"/><path class="cls-2" d="M1124.94,606.86l-41.51-20.6s-6.45,6.92-3.93,20l44.66,18.24Z"/><polygon class="cls-2" points="1126.36 582.8 1083.43 586.26 1124.94 606.86 1126.36 582.8"/><polygon class="cls-39" points="1225 450.87 1165.88 450.98 1164.93 494.38 1218.19 494.9 1225 450.87"/><polygon class="cls-40" points="1217.88 456.95 1176.05 457.37 1173.53 491.02 1213.68 490.6 1217.88 456.95"/><g id="Calque_2-4" data-name="Calque 2"><g id="Calque_2-2-4" data-name="Calque 2-2"><path class="cls-41" d="M1214,486.55a8.77,8.77,0,0,0,3,.86,5.41,5.41,0,0,0,2.67-.32,7.77,7.77,0,0,0,1.93-1.5,11.87,11.87,0,0,0,1.61-1.93,15.43,15.43,0,0,0,.88-2.25,12.69,12.69,0,0,0,.19-2.46,8.16,8.16,0,0,0-.86-2.47,11.15,11.15,0,0,0-2.78-3.32,14.56,14.56,0,0,0-3.22-.85,27,27,0,0,0-1.6-4.72,11.45,11.45,0,0,0-3-2.89,13.41,13.41,0,0,0-3.54-1.18,12.34,12.34,0,0,0-3.74,0,11.06,11.06,0,0,0-3.32,1.93,45.08,45.08,0,0,0-3.32,4.39,21.71,21.71,0,0,0-4.07-.53,11.11,11.11,0,0,0-4,1.51,14.72,14.72,0,0,0-1.9,2.56l-1.29,2.35a16.73,16.73,0,0,0-3.64-.11,7.74,7.74,0,0,0-2.89,1.76,11.21,11.21,0,0,0-1.72,3.17,8.06,8.06,0,0,0,0,3.75,8.42,8.42,0,0,0,2.57,2.78,8.53,8.53,0,0,0,3.12,1,18.53,18.53,0,0,0,3.84-.85,30.93,30.93,0,0,0,3.43,2,17.46,17.46,0,0,0,3.32.87,15.31,15.31,0,0,0,3.64-.23,19.06,19.06,0,0,0,2.9-1.34s1.89,1.07,2.57,1.34a7.33,7.33,0,0,0,4.07.75,6.76,6.76,0,0,0,2.67-1.18A10,10,0,0,0,1214,486.55Z"/><line class="cls-42" x1="1176.76" y1="484.23" x2="1225.7" y2="484.33"/><line class="cls-42" x1="1176.87" y1="480.49" x2="1225.6" y2="480.39"/><rect class="cls-43" x="1180.67" y="480.48" width="0.75" height="3.79"/><rect class="cls-43" x="1182.3" y="480.48" width="0.75" height="3.79"/><rect class="cls-43" x="1183.95" y="480.48" width="0.75" height="3.79"/><rect class="cls-43" x="1185.61" y="480.48" width="0.75" height="3.79"/><rect class="cls-43" x="1187.31" y="480.48" width="0.75" height="3.79"/><rect class="cls-43" x="1188.81" y="480.48" width="0.75" height="3.79"/><rect class="cls-43" x="1190.42" y="480.48" width="0.75" height="3.79"/><rect class="cls-43" x="1191.99" y="480.48" width="0.75" height="3.79"/><rect class="cls-43" x="1193.5" y="480.48" width="0.75" height="3.79"/><rect class="cls-43" x="1194.99" y="480.42" width="0.75" height="3.79"/><rect class="cls-43" x="1196.52" y="480.48" width="0.75" height="3.79"/><rect class="cls-43" x="1198.02" y="480.48" width="0.75" height="3.79"/><rect class="cls-43" x="1199.51" y="480.48" width="0.75" height="3.79"/><rect class="cls-43" x="1201.01" y="480.42" width="0.75" height="3.79"/><rect class="cls-43" x="1202.53" y="480.42" width="0.75" height="3.79"/><rect class="cls-43" x="1204.04" y="480.42" width="0.75" height="3.79"/><rect class="cls-43" x="1205.59" y="480.42" width="0.75" height="3.79"/><rect class="cls-43" x="1207.09" y="480.48" width="0.75" height="3.79"/><rect class="cls-43" x="1208.65" y="480.42" width="0.75" height="3.79"/><rect class="cls-43" x="1210.15" y="480.42" width="0.75" height="3.79"/><rect class="cls-43" x="1211.64" y="480.42" width="0.75" height="3.79"/><rect class="cls-43" x="1213.12" y="480.42" width="0.75" height="3.79"/><rect class="cls-43" x="1214.59" y="480.42" width="0.75" height="3.79"/><rect class="cls-43" x="1216.12" y="480.48" width="0.75" height="3.79"/><rect class="cls-43" x="1217.69" y="480.42" width="0.75" height="3.79"/><rect class="cls-43" x="1219.22" y="480.42" width="0.75" height="3.79"/><rect class="cls-43" x="1220.77" y="480.42" width="0.75" height="3.79"/><text class="cls-44" transform="translate(1183.76 482.92)">Tt</text></g></g><path class="cls-35" d="M1344.45,716.81h103s21.54-207.26,22.12-217.16,4.07-61.71-52.4-62.29-63.46,52.39-63.46,78-8.15,179.9-8.15,179.9Z"/><polygon class="cls-36" points="1384.42 771.15 1371.23 717.58 1344.45 716.81 1346 772.31 1384.42 771.15"/><polygon class="cls-37" points="1283.9 735.83 1300.59 695.46 1344.45 716.81 1346 772.31 1283.9 735.83"/><polygon class="cls-38" points="1278.47 683.82 1276.91 656.65 1332.03 679.16 1344.45 716.81 1278.47 683.82"/><path class="cls-35" d="M1409.65,437.74c-8.54-.13-58.22,1.94-65.2,43.86S1332,679.16,1332,679.16l12.42,37.65s5.3-102.47,5.43-106,2.72-81.8,3.88-90-3.75-58.19,33.9-77.2C1387.66,443.7,1394.39,438.78,1409.65,437.74Z"/><path class="cls-45" d="M1333,657.42,1281.77,632s-8,8.54-4.86,24.65L1332,679.16Z"/><polygon class="cls-2" points="1334.74 627.73 1281.77 632 1333 657.42 1334.74 627.73"/><polygon class="cls-2" points="1456.49 464.91 1383.52 465.04 1382.36 518.6 1448.08 519.25 1456.49 464.91"/><polygon class="cls-40" points="1447.69 472.42 1396.07 472.93 1392.96 514.46 1442.52 513.95 1447.69 472.42"/><path class="cls-35" d="M1210.93,715.26h103S1335.52,508,1336.1,498.1s4.08-61.71-52.39-62.3-63.46,52.4-63.46,78-8.15,179.89-8.15,179.89Z"/><polygon class="cls-37" points="1250.91 769.59 1237.71 716.03 1210.93 715.25 1212.48 770.76 1250.91 769.59"/><polygon class="cls-37" points="1150.38 734.27 1167.07 693.91 1210.93 715.25 1212.48 770.76 1150.38 734.27"/><polygon class="cls-38" points="1144.95 682.26 1143.4 655.1 1198.51 677.61 1210.93 715.25 1144.95 682.26"/><path class="cls-35" d="M1276.14,436.19c-8.54-.13-58.22,1.94-65.21,43.86s-12.42,197.56-12.42,197.56l12.42,37.65s5.31-102.47,5.44-106,2.71-81.8,3.88-89.95-3.76-58.19,33.89-77.21C1254.14,442.14,1260.87,437.23,1276.14,436.19Z"/><path class="cls-2" d="M1199.48,655.87l-51.23-25.42s-8,8.54-4.85,24.65l55.11,22.51Z"/><polygon class="cls-2" points="1201.23 626.18 1148.25 630.45 1199.48 655.87 1201.23 626.18"/><polygon class="cls-39" points="1322.97 463.36 1250 463.49 1248.84 517.05 1314.56 517.7 1322.97 463.36"/><polygon class="cls-40" points="1314.17 470.86 1262.55 471.38 1259.45 512.91 1309 512.39 1314.17 470.86"/><g id="Calque_2-5" data-name="Calque 2"><g id="Calque_2-2-5" data-name="Calque 2-2"><path class="cls-41" d="M1304.68,503.14a9,9,0,0,0,3,.86,5.33,5.33,0,0,0,2.68-.33,7.72,7.72,0,0,0,1.93-1.5,10.94,10.94,0,0,0,1.6-1.93,13.93,13.93,0,0,0,.89-2.24,12,12,0,0,0,.18-2.47,8.17,8.17,0,0,0-.85-2.46,10.92,10.92,0,0,0-2.79-3.32,14.11,14.11,0,0,0-3.21-.86,26.33,26.33,0,0,0-1.61-4.71,11.3,11.3,0,0,0-3-2.89,13.34,13.34,0,0,0-3.53-1.18,12.41,12.41,0,0,0-3.75,0,10.69,10.69,0,0,0-3.31,1.93,44,44,0,0,0-3.33,4.39,22.39,22.39,0,0,0-4.07-.54,11.52,11.52,0,0,0-4,1.51,14.39,14.39,0,0,0-1.91,2.56l-1.28,2.36a16.83,16.83,0,0,0-3.65-.11,7.9,7.9,0,0,0-2.89,1.76,11.18,11.18,0,0,0-1.71,3.17,8.06,8.06,0,0,0,0,3.75,8.32,8.32,0,0,0,2.57,2.78,8.94,8.94,0,0,0,3.11,1,18.66,18.66,0,0,0,3.85-.85,29.7,29.7,0,0,0,3.43,2,18.26,18.26,0,0,0,3.32.88,15.88,15.88,0,0,0,3.64-.23,20.1,20.1,0,0,0,2.9-1.34s1.89,1.07,2.56,1.34a7.36,7.36,0,0,0,4.07.75,6.94,6.94,0,0,0,2.68-1.18A9.91,9.91,0,0,0,1304.68,503.14Z"/><line class="cls-42" x1="1267.41" y1="500.81" x2="1316.36" y2="500.92"/><line class="cls-42" x1="1267.52" y1="497.08" x2="1316.25" y2="496.97"/><rect class="cls-43" x="1271.32" y="497.07" width="0.75" height="3.79"/><rect class="cls-43" x="1272.95" y="497.07" width="0.75" height="3.79"/><rect class="cls-43" x="1274.6" y="497.07" width="0.75" height="3.79"/><rect class="cls-43" x="1276.27" y="497.07" width="0.75" height="3.79"/><rect class="cls-43" x="1277.96" y="497.07" width="0.75" height="3.79"/><rect class="cls-43" x="1279.47" y="497.07" width="0.75" height="3.79"/><rect class="cls-43" x="1281.08" y="497.07" width="0.75" height="3.79"/><rect class="cls-43" x="1282.64" y="497.07" width="0.75" height="3.79"/><rect class="cls-43" x="1284.15" y="497.07" width="0.75" height="3.79"/><rect class="cls-43" x="1285.65" y="497.01" width="0.75" height="3.79"/><rect class="cls-43" x="1287.17" y="497.07" width="0.75" height="3.79"/><rect class="cls-43" x="1288.67" y="497.07" width="0.75" height="3.79"/><rect class="cls-43" x="1290.16" y="497.07" width="0.75" height="3.79"/><rect class="cls-43" x="1291.66" y="497.01" width="0.75" height="3.79"/><rect class="cls-43" x="1293.19" y="497.01" width="0.75" height="3.79"/><rect class="cls-43" x="1294.7" y="497.01" width="0.75" height="3.79"/><rect class="cls-43" x="1296.25" y="497.01" width="0.75" height="3.79"/><rect class="cls-43" x="1297.75" y="497.07" width="0.75" height="3.79"/><rect class="cls-43" x="1299.3" y="497.01" width="0.75" height="3.79"/><rect class="cls-43" x="1300.8" y="497.01" width="0.75" height="3.79"/><rect class="cls-43" x="1302.3" y="497.01" width="0.75" height="3.79"/><rect class="cls-43" x="1303.78" y="497.01" width="0.75" height="3.79"/><rect class="cls-43" x="1305.24" y="497.01" width="0.75" height="3.79"/><rect class="cls-43" x="1306.77" y="497.07" width="0.75" height="3.79"/><rect class="cls-43" x="1308.34" y="497.01" width="0.75" height="3.79"/><rect class="cls-43" x="1309.87" y="497.01" width="0.75" height="3.79"/><rect class="cls-43" x="1311.43" y="497.01" width="0.75" height="3.79"/><text class="cls-44" transform="translate(1274.42 499.51)">Tt</text></g></g><path class="cls-35" d="M1495,800.69h143.25s30-288.12,30.76-301.88,5.66-85.79-72.84-86.6S1508,485.05,1508,520.66s-11.33,250.08-11.33,250.08Z"/><polygon class="cls-36" points="1550.58 876.22 1532.23 801.76 1495 800.68 1497.16 877.84 1550.58 876.22"/><polygon class="cls-37" points="1410.83 827.12 1434.03 771.01 1495 800.68 1497.16 877.84 1410.83 827.12"/><polygon class="cls-38" points="1403.28 754.82 1401.12 717.06 1477.74 748.35 1495 800.68 1403.28 754.82"/><path class="cls-35" d="M1585.65,412.75c-11.87-.18-80.94,2.7-90.65,61s-17.26,274.63-17.26,274.63L1495,800.69s7.38-142.44,7.56-147.3,3.77-113.71,5.39-125-5.21-80.89,47.12-107.32C1555.07,421,1564.42,414.19,1585.65,412.75Z"/><path class="cls-2" d="M1479.09,718.13l-71.22-35.34s-11.07,11.87-6.75,34.27l76.62,31.29Z"/><polygon class="cls-2" points="1481.51 676.86 1407.87 682.79 1479.09 718.13 1481.51 676.86"/><polygon class="cls-39" points="1650.75 450.52 1549.32 450.7 1547.7 525.16 1639.06 526.06 1650.75 450.52"/><polygon class="cls-40" points="1638.52 460.95 1566.76 461.67 1562.44 519.4 1631.33 518.68 1638.52 460.95"/><path class="cls-35" d="M1309.4,798.53h143.25s29.94-288.12,30.75-301.88,5.67-85.79-72.84-86.6-88.21,72.84-88.21,108.45S1311,768.58,1311,768.58Z"/><polygon class="cls-37" points="1364.97 874.06 1346.63 799.61 1309.4 798.53 1311.56 875.68 1364.97 874.06"/><polygon class="cls-37" points="1225.23 824.97 1248.43 768.85 1309.4 798.53 1311.56 875.68 1225.23 824.97"/><polygon class="cls-38" points="1217.67 752.67 1215.52 714.9 1292.13 746.19 1309.4 798.53 1217.67 752.67"/><path class="cls-35" d="M1400,410.59c-11.87-.18-80.93,2.7-90.64,61s-17.27,274.63-17.27,274.63l17.27,52.34s7.37-142.44,7.55-147.3,3.78-113.71,5.4-125-5.22-80.89,47.12-107.32C1369.47,418.87,1378.82,412,1400,410.59Z"/><path class="cls-2" d="M1293.48,716l-71.22-35.34s-11.06,11.87-6.74,34.26l76.61,31.29Z"/><polygon class="cls-2" points="1295.91 674.7 1222.26 680.64 1293.48 715.98 1295.91 674.7"/><polygon class="cls-39" points="1465.15 448.36 1363.71 448.54 1362.09 523 1453.46 523.9 1465.15 448.36"/><polygon class="cls-40" points="1452.92 458.79 1381.16 459.51 1376.84 517.24 1445.72 516.52 1452.92 458.79"/><path class="cls-35" d="M1773.83,959.29h199.75s41.76-401.78,42.89-421,7.9-119.63-101.57-120.76-123,101.57-123,151.23-15.8,348.73-15.8,348.73Z"/><polygon class="cls-36" points="1851.32 1064.62 1825.74 960.79 1773.83 959.29 1776.84 1066.88 1851.32 1064.62"/><polygon class="cls-37" points="1656.46 996.15 1688.81 917.9 1773.83 959.29 1776.84 1066.88 1656.46 996.15"/><polygon class="cls-38" points="1645.92 895.33 1642.91 842.67 1749.75 886.3 1773.83 959.29 1645.92 895.33"/><path class="cls-35" d="M1900.23,418.32c-16.56-.25-112.86,3.77-126.4,85s-24.08,383-24.08,383l24.08,73s10.28-198.63,10.53-205.4,5.27-158.57,7.52-174.37-7.27-112.79,65.71-149.66C1857.59,429.86,1870.63,420.33,1900.23,418.32Z"/><path class="cls-2" d="M1751.63,844.17l-99.31-49.28s-15.43,16.55-9.41,47.78l106.84,43.63Z"/><polygon class="cls-2" points="1755.02 786.61 1652.32 794.89 1751.63 844.17 1755.02 786.61"/><polygon class="cls-39" points="1991.01 470.99 1849.57 471.24 1847.31 575.07 1974.71 576.32 1991.01 470.99"/><polygon class="cls-40" points="1973.96 485.54 1873.89 486.54 1867.88 567.04 1963.93 566.04 1973.96 485.54"/><path class="cls-35" d="M1515,956.28h199.76s41.75-401.78,42.88-421,7.9-119.63-101.57-120.76-123,101.57-123,151.23-15.8,348.73-15.8,348.73Z"/><polygon class="cls-37" points="1592.5 1061.61 1566.92 957.78 1515.01 956.28 1518.02 1063.87 1592.5 1061.61"/><polygon class="cls-37" points="1397.64 993.14 1429.99 914.89 1515.01 956.28 1518.02 1063.87 1397.64 993.14"/><polygon class="cls-38" points="1387.1 892.32 1384.09 839.66 1490.93 883.29 1515.01 956.28 1387.1 892.32"/><path class="cls-35" d="M1641.41,415.31c-16.55-.25-112.86,3.77-126.4,85s-24.08,383-24.08,383l24.08,73s10.28-198.63,10.53-205.4,5.27-158.57,7.53-174.37-7.28-112.79,65.7-149.66C1598.77,426.85,1611.81,417.32,1641.41,415.31Z"/><path class="cls-2" d="M1492.81,841.16l-99.31-49.28s-15.43,16.55-9.41,47.78l106.84,43.64Z"/><polygon class="cls-2" points="1496.2 783.61 1393.5 791.88 1492.81 841.16 1496.2 783.61"/><polygon class="cls-39" points="1732.19 467.98 1590.75 468.23 1588.49 572.06 1715.89 573.31 1732.19 467.98"/><polygon class="cls-40" points="1715.14 482.53 1615.08 483.53 1609.06 564.03 1705.11 563.03 1715.14 482.53"/><g id="Calque_2-6" data-name="Calque 2"><g id="Calque_2-2-6" data-name="Calque 2-2"><path class="cls-41" d="M1039.73,321.45a19.52,19.52,0,0,0,6.62,1.89,11.82,11.82,0,0,0,5.91-.71,17.34,17.34,0,0,0,4.25-3.31,25.73,25.73,0,0,0,3.55-4.26,32,32,0,0,0,2-5,26.64,26.64,0,0,0,.41-5.43,18.24,18.24,0,0,0-1.89-5.44c-1.08-2.14-4.12-6.05-6.15-7.33-1.54-1-7.09-1.89-7.09-1.89s-2.06-8.09-3.55-10.41a25,25,0,0,0-6.62-6.38,29.11,29.11,0,0,0-7.8-2.6c-2-.27-6.29-.59-8.27,0a23.87,23.87,0,0,0-7.32,4.25c-2.19,2.11-7.35,9.7-7.35,9.7s-6.73-1.44-9-1.19-7.06,2-8.79,3.34c-1.49,1.17-4.21,5.65-4.21,5.65l-2.84,5.2s-6.1-.75-8-.24a17.09,17.09,0,0,0-6.38,3.88,24.87,24.87,0,0,0-3.79,7c-.55,2-.75,6.35,0,8.28s3.92,5,5.67,6.14a19.12,19.12,0,0,0,6.88,2.11c2.25.12,8.49-1.87,8.49-1.87s5.51,3.71,7.57,4.49a38.83,38.83,0,0,0,7.33,1.94,34.39,34.39,0,0,0,8-.52c1.72-.38,6.4-2.95,6.4-2.95s4.18,2.36,5.66,2.95c2.93,1.17,5.62,2.19,9,1.66a15,15,0,0,0,5.91-2.6A22.19,22.19,0,0,0,1039.73,321.45Z"/><line class="cls-42" x1="957.44" y1="316.31" x2="1065.5" y2="316.55"/><line class="cls-42" x1="957.69" y1="308.07" x2="1065.27" y2="307.83"/><rect class="cls-43" x="966.07" y="308.05" width="1.66" height="8.38"/><rect class="cls-43" x="969.68" y="308.05" width="1.66" height="8.38"/><rect class="cls-43" x="973.32" y="308.05" width="1.66" height="8.38"/><rect class="cls-43" x="976.99" y="308.05" width="1.66" height="8.38"/><rect class="cls-43" x="980.73" y="308.05" width="1.66" height="8.38"/><rect class="cls-43" x="984.06" y="308.05" width="1.66" height="8.38"/><rect class="cls-43" x="987.61" y="308.05" width="1.66" height="8.38"/><rect class="cls-43" x="991.07" y="308.05" width="1.66" height="8.38"/><rect class="cls-43" x="994.4" y="308.05" width="1.66" height="8.38"/><rect class="cls-43" x="997.7" y="307.91" width="1.66" height="8.38"/><rect class="cls-43" x="1001.07" y="308.05" width="1.66" height="8.38"/><rect class="cls-43" x="1004.38" y="308.05" width="1.66" height="8.38"/><rect class="cls-43" x="1007.66" y="308.05" width="1.66" height="8.38"/><rect class="cls-43" x="1010.99" y="307.91" width="1.66" height="8.38"/><rect class="cls-43" x="1014.35" y="307.91" width="1.66" height="8.38"/><rect class="cls-43" x="1017.68" y="307.91" width="1.66" height="8.38"/><rect class="cls-43" x="1021.1" y="307.91" width="1.66" height="8.38"/><rect class="cls-43" x="1024.41" y="308.05" width="1.66" height="8.38"/><rect class="cls-43" x="1027.84" y="307.91" width="1.66" height="8.38"/><rect class="cls-43" x="1031.15" y="307.91" width="1.66" height="8.38"/><rect class="cls-43" x="1034.46" y="307.91" width="1.66" height="8.38"/><rect class="cls-43" x="1037.73" y="307.91" width="1.66" height="8.38"/><rect class="cls-43" x="1040.97" y="307.91" width="1.66" height="8.38"/><rect class="cls-43" x="1044.33" y="308.05" width="1.66" height="8.38"/><rect class="cls-43" x="1047.8" y="307.91" width="1.66" height="8.38"/><rect class="cls-43" x="1051.19" y="307.91" width="1.66" height="8.38"/><rect class="cls-43" x="1054.62" y="307.91" width="1.66" height="8.38"/><text class="cls-46" transform="translate(972.91 313.44)">Tt</text></g></g><g id="Calque_2-7" data-name="Calque 2"><g id="Calque_2-2-7" data-name="Calque 2-2"><path class="cls-41" d="M1674.9,535.54a8.77,8.77,0,0,0,3,.86,5.3,5.3,0,0,0,2.67-.32,7.54,7.54,0,0,0,1.93-1.5,11.87,11.87,0,0,0,1.61-1.93,15.43,15.43,0,0,0,.88-2.25,12.63,12.63,0,0,0,.19-2.46,8.35,8.35,0,0,0-.86-2.47,11.27,11.27,0,0,0-2.78-3.32,14.56,14.56,0,0,0-3.22-.85,27.25,27.25,0,0,0-1.6-4.72,11.61,11.61,0,0,0-3-2.89,13.39,13.39,0,0,0-3.54-1.17,11.73,11.73,0,0,0-3.74,0,11,11,0,0,0-3.32,1.92,46.35,46.35,0,0,0-3.32,4.39,21.71,21.71,0,0,0-4.07-.53,11.3,11.3,0,0,0-4,1.51,14.72,14.72,0,0,0-1.9,2.56l-1.29,2.35a16.25,16.25,0,0,0-3.64-.1,7.59,7.59,0,0,0-2.89,1.75,11.48,11.48,0,0,0-1.72,3.17,8.06,8.06,0,0,0,0,3.75,8.45,8.45,0,0,0,2.57,2.79,8.7,8.7,0,0,0,3.12.95,18.53,18.53,0,0,0,3.84-.85,30.93,30.93,0,0,0,3.43,2,18.26,18.26,0,0,0,3.32.88,15.31,15.31,0,0,0,3.64-.24,19.06,19.06,0,0,0,2.9-1.34s1.89,1.07,2.57,1.34a7.33,7.33,0,0,0,4.07.75,6.62,6.62,0,0,0,2.67-1.18A9.89,9.89,0,0,0,1674.9,535.54Z"/><line class="cls-42" x1="1637.63" y1="533.22" x2="1686.57" y2="533.33"/><line class="cls-42" x1="1637.74" y1="529.49" x2="1686.47" y2="529.38"/><rect class="cls-43" x="1641.54" y="529.48" width="0.75" height="3.79"/><rect class="cls-43" x="1643.17" y="529.48" width="0.75" height="3.79"/><rect class="cls-43" x="1644.82" y="529.48" width="0.75" height="3.79"/><rect class="cls-43" x="1646.48" y="529.48" width="0.75" height="3.79"/><rect class="cls-43" x="1648.18" y="529.48" width="0.75" height="3.79"/><rect class="cls-43" x="1649.68" y="529.48" width="0.75" height="3.79"/><rect class="cls-43" x="1651.29" y="529.48" width="0.75" height="3.79"/><rect class="cls-43" x="1652.86" y="529.48" width="0.75" height="3.79"/><rect class="cls-43" x="1654.37" y="529.48" width="0.75" height="3.79"/><rect class="cls-43" x="1655.86" y="529.41" width="0.75" height="3.79"/><rect class="cls-43" x="1657.39" y="529.48" width="0.75" height="3.79"/><rect class="cls-43" x="1658.89" y="529.48" width="0.75" height="3.79"/><rect class="cls-43" x="1660.38" y="529.48" width="0.75" height="3.79"/><rect class="cls-43" x="1661.88" y="529.41" width="0.75" height="3.79"/><rect class="cls-43" x="1663.4" y="529.41" width="0.75" height="3.79"/><rect class="cls-43" x="1664.91" y="529.41" width="0.75" height="3.79"/><rect class="cls-43" x="1666.46" y="529.41" width="0.75" height="3.79"/><rect class="cls-43" x="1667.96" y="529.48" width="0.75" height="3.79"/><rect class="cls-43" x="1669.52" y="529.41" width="0.75" height="3.79"/><rect class="cls-43" x="1671.02" y="529.41" width="0.75" height="3.79"/><rect class="cls-43" x="1672.51" y="529.41" width="0.75" height="3.79"/><rect class="cls-43" x="1673.99" y="529.41" width="0.75" height="3.79"/><rect class="cls-43" x="1675.46" y="529.41" width="0.75" height="3.79"/><rect class="cls-43" x="1676.99" y="529.48" width="0.75" height="3.79"/><rect class="cls-43" x="1678.56" y="529.41" width="0.75" height="3.79"/><rect class="cls-43" x="1680.09" y="529.41" width="0.75" height="3.79"/><rect class="cls-43" x="1681.64" y="529.41" width="0.75" height="3.79"/><text class="cls-44" transform="translate(1644.63 531.92)">Tt</text></g></g><g id="Calque_2-8" data-name="Calque 2"><g id="Calque_2-2-8" data-name="Calque 2-2"><path class="cls-41" d="M1933.72,541.44a8.94,8.94,0,0,0,3,.86,5.3,5.3,0,0,0,2.67-.33,7.54,7.54,0,0,0,1.93-1.5,11.46,11.46,0,0,0,1.61-1.93,14.59,14.59,0,0,0,.88-2.25,12.63,12.63,0,0,0,.19-2.46,8.48,8.48,0,0,0-.86-2.46,11,11,0,0,0-2.78-3.32,14.16,14.16,0,0,0-3.22-.86,26.94,26.94,0,0,0-1.6-4.71,11.3,11.3,0,0,0-3-2.89,13.41,13.41,0,0,0-3.54-1.18,12.34,12.34,0,0,0-3.74,0,10.74,10.74,0,0,0-3.32,1.93,45.59,45.59,0,0,0-3.33,4.39,22.25,22.25,0,0,0-4.06-.54,11.3,11.3,0,0,0-4,1.51,14.92,14.92,0,0,0-1.91,2.56l-1.28,2.36a16.73,16.73,0,0,0-3.64-.11,7.74,7.74,0,0,0-2.89,1.76,11,11,0,0,0-1.72,3.17,8.06,8.06,0,0,0,0,3.75,8.42,8.42,0,0,0,2.57,2.78,8.92,8.92,0,0,0,3.12,1,18.53,18.53,0,0,0,3.84-.85,29.7,29.7,0,0,0,3.43,2,18.26,18.26,0,0,0,3.32.88,15.85,15.85,0,0,0,3.64-.23,20.1,20.1,0,0,0,2.9-1.34s1.89,1.07,2.56,1.34a7.36,7.36,0,0,0,4.07.75,6.88,6.88,0,0,0,2.68-1.18A10,10,0,0,0,1933.72,541.44Z"/><line class="cls-42" x1="1896.45" y1="539.11" x2="1945.39" y2="539.22"/><line class="cls-42" x1="1896.56" y1="535.38" x2="1945.29" y2="535.27"/><rect class="cls-43" x="1900.35" y="535.37" width="0.75" height="3.79"/><rect class="cls-43" x="1901.99" y="535.37" width="0.75" height="3.79"/><rect class="cls-43" x="1903.64" y="535.37" width="0.75" height="3.79"/><rect class="cls-43" x="1905.3" y="535.37" width="0.75" height="3.79"/><rect class="cls-43" x="1907" y="535.37" width="0.75" height="3.79"/><rect class="cls-43" x="1908.5" y="535.37" width="0.75" height="3.79"/><rect class="cls-43" x="1910.11" y="535.37" width="0.75" height="3.79"/><rect class="cls-43" x="1911.68" y="535.37" width="0.75" height="3.79"/><rect class="cls-43" x="1913.19" y="535.37" width="0.75" height="3.79"/><rect class="cls-43" x="1914.68" y="535.31" width="0.75" height="3.79"/><rect class="cls-43" x="1916.21" y="535.37" width="0.75" height="3.79"/><rect class="cls-43" x="1917.71" y="535.37" width="0.75" height="3.79"/><rect class="cls-43" x="1919.19" y="535.37" width="0.75" height="3.79"/><rect class="cls-43" x="1920.7" y="535.31" width="0.75" height="3.79"/><rect class="cls-43" x="1922.22" y="535.31" width="0.75" height="3.79"/><rect class="cls-43" x="1923.73" y="535.31" width="0.75" height="3.79"/><rect class="cls-43" x="1925.28" y="535.31" width="0.75" height="3.79"/><rect class="cls-43" x="1926.78" y="535.37" width="0.75" height="3.79"/><rect class="cls-43" x="1928.33" y="535.31" width="0.75" height="3.79"/><rect class="cls-43" x="1929.83" y="535.31" width="0.75" height="3.79"/><rect class="cls-43" x="1931.33" y="535.31" width="0.75" height="3.79"/><rect class="cls-43" x="1932.81" y="535.31" width="0.75" height="3.79"/><rect class="cls-43" x="1934.28" y="535.31" width="0.75" height="3.79"/><rect class="cls-43" x="1935.8" y="535.37" width="0.75" height="3.79"/><rect class="cls-43" x="1937.38" y="535.31" width="0.75" height="3.79"/><rect class="cls-43" x="1938.91" y="535.31" width="0.75" height="3.79"/><rect class="cls-43" x="1940.46" y="535.31" width="0.75" height="3.79"/><text class="cls-44" transform="translate(1903.45 537.81)">Tt</text></g></g><g id="Calque_2-9" data-name="Calque 2"><g id="Calque_2-2-9" data-name="Calque 2-2"><path class="cls-41" d="M1426.42,499.36a8.91,8.91,0,0,0,3,.85,5.23,5.23,0,0,0,2.68-.32,7.67,7.67,0,0,0,1.92-1.5,11.87,11.87,0,0,0,1.61-1.93,14,14,0,0,0,.88-2.25,11.24,11.24,0,0,0,.19-2.46,8.2,8.2,0,0,0-.86-2.46,10.74,10.74,0,0,0-2.78-3.32,14.11,14.11,0,0,0-3.21-.86,27.18,27.18,0,0,0-1.61-4.71,11.49,11.49,0,0,0-3-2.9,13.44,13.44,0,0,0-3.53-1.17,12.09,12.09,0,0,0-3.75,0,10.87,10.87,0,0,0-3.31,1.92,45,45,0,0,0-3.33,4.4,21.52,21.52,0,0,0-4.07-.54,11.17,11.17,0,0,0-4,1.51,14.39,14.39,0,0,0-1.91,2.56l-1.29,2.36a16.73,16.73,0,0,0-3.64-.11,7.69,7.69,0,0,0-2.89,1.76,11.18,11.18,0,0,0-1.71,3.17,7.76,7.76,0,0,0,0,3.74,8.32,8.32,0,0,0,2.56,2.79,8.77,8.77,0,0,0,3.12.95,18.15,18.15,0,0,0,3.85-.84,29.35,29.35,0,0,0,3.42,2,18.26,18.26,0,0,0,3.32.88,15.28,15.28,0,0,0,3.64-.24,19.06,19.06,0,0,0,2.9-1.34s1.9,1.08,2.57,1.34a7.24,7.24,0,0,0,4.07.75,6.62,6.62,0,0,0,2.67-1.18A9.91,9.91,0,0,0,1426.42,499.36Z"/><line class="cls-42" x1="1389.15" y1="497.03" x2="1438.09" y2="497.14"/><line class="cls-42" x1="1389.26" y1="493.3" x2="1437.99" y2="493.19"/><rect class="cls-43" x="1393.06" y="493.29" width="0.75" height="3.79"/><rect class="cls-43" x="1394.69" y="493.29" width="0.75" height="3.79"/><rect class="cls-43" x="1396.34" y="493.29" width="0.75" height="3.79"/><rect class="cls-43" x="1398" y="493.29" width="0.75" height="3.79"/><rect class="cls-43" x="1399.7" y="493.29" width="0.75" height="3.79"/><rect class="cls-43" x="1401.2" y="493.29" width="0.75" height="3.79"/><rect class="cls-43" x="1402.81" y="493.29" width="0.75" height="3.79"/><rect class="cls-43" x="1404.38" y="493.29" width="0.75" height="3.79"/><rect class="cls-43" x="1405.89" y="493.29" width="0.75" height="3.79"/><rect class="cls-43" x="1407.38" y="493.22" width="0.75" height="3.79"/><rect class="cls-43" x="1408.91" y="493.29" width="0.75" height="3.79"/><rect class="cls-43" x="1410.41" y="493.29" width="0.75" height="3.79"/><rect class="cls-43" x="1411.9" y="493.29" width="0.75" height="3.79"/><rect class="cls-43" x="1413.4" y="493.22" width="0.75" height="3.79"/><rect class="cls-43" x="1414.92" y="493.22" width="0.75" height="3.79"/><rect class="cls-43" x="1416.43" y="493.22" width="0.75" height="3.79"/><rect class="cls-43" x="1417.98" y="493.22" width="0.75" height="3.79"/><rect class="cls-43" x="1419.48" y="493.29" width="0.75" height="3.79"/><rect class="cls-43" x="1421.04" y="493.22" width="0.75" height="3.79"/><rect class="cls-43" x="1422.54" y="493.22" width="0.75" height="3.79"/><rect class="cls-43" x="1424.04" y="493.22" width="0.75" height="3.79"/><rect class="cls-43" x="1425.52" y="493.22" width="0.75" height="3.79"/><rect class="cls-43" x="1426.98" y="493.22" width="0.75" height="3.79"/><rect class="cls-43" x="1428.51" y="493.29" width="0.75" height="3.79"/><rect class="cls-43" x="1430.08" y="493.22" width="0.75" height="3.79"/><rect class="cls-43" x="1431.61" y="493.22" width="0.75" height="3.79"/><rect class="cls-43" x="1433.17" y="493.22" width="0.75" height="3.79"/><text class="cls-44" transform="translate(1396.15 495.73)">Tt</text></g></g><g id="Calque_2-10" data-name="Calque 2"><g id="Calque_2-2-10" data-name="Calque 2-2"><path class="cls-41" d="M98.28,545.25a8.77,8.77,0,0,0,3,.86,5.32,5.32,0,0,0,2.68-.32,7.72,7.72,0,0,0,1.93-1.5,11.32,11.32,0,0,0,1.6-1.93,14.42,14.42,0,0,0,.89-2.25,11.89,11.89,0,0,0,.18-2.46,8.33,8.33,0,0,0-.85-2.47,11.16,11.16,0,0,0-2.79-3.32,14.51,14.51,0,0,0-3.21-.85,26.64,26.64,0,0,0-1.61-4.72,11.46,11.46,0,0,0-3-2.89,13.32,13.32,0,0,0-3.53-1.17,11.79,11.79,0,0,0-3.75,0,10.87,10.87,0,0,0-3.31,1.92,45.16,45.16,0,0,0-3.33,4.39,21.71,21.71,0,0,0-4.07-.53,11.32,11.32,0,0,0-4,1.51,14.39,14.39,0,0,0-1.91,2.56l-1.28,2.35a16.34,16.34,0,0,0-3.65-.1,7.74,7.74,0,0,0-2.89,1.75,11.45,11.45,0,0,0-1.71,3.17,8.06,8.06,0,0,0,0,3.75,8.35,8.35,0,0,0,2.57,2.79,8.71,8.71,0,0,0,3.11,1,18.66,18.66,0,0,0,3.85-.85,30.93,30.93,0,0,0,3.43,2,18.26,18.26,0,0,0,3.32.88,15.35,15.35,0,0,0,3.64-.24,19.06,19.06,0,0,0,2.9-1.34s1.89,1.07,2.56,1.34a7.36,7.36,0,0,0,4.07.75,6.66,6.66,0,0,0,2.68-1.18A9.78,9.78,0,0,0,98.28,545.25Z"/><line class="cls-42" x1="61.01" y1="542.93" x2="109.96" y2="543.04"/><line class="cls-42" x1="61.12" y1="539.2" x2="109.85" y2="539.09"/><rect class="cls-43" x="64.92" y="539.19" width="0.75" height="3.79"/><rect class="cls-43" x="66.55" y="539.19" width="0.75" height="3.79"/><rect class="cls-43" x="68.2" y="539.19" width="0.75" height="3.79"/><rect class="cls-43" x="69.87" y="539.19" width="0.75" height="3.79"/><rect class="cls-43" x="71.56" y="539.19" width="0.75" height="3.79"/><rect class="cls-43" x="73.07" y="539.19" width="0.75" height="3.79"/><rect class="cls-43" x="74.68" y="539.19" width="0.75" height="3.79"/><rect class="cls-43" x="76.24" y="539.19" width="0.75" height="3.79"/><rect class="cls-43" x="77.75" y="539.19" width="0.75" height="3.79"/><rect class="cls-43" x="79.25" y="539.12" width="0.75" height="3.79"/><rect class="cls-43" x="80.77" y="539.19" width="0.75" height="3.79"/><rect class="cls-43" x="82.27" y="539.19" width="0.75" height="3.79"/><rect class="cls-43" x="83.76" y="539.19" width="0.75" height="3.79"/><rect class="cls-43" x="85.27" y="539.12" width="0.75" height="3.79"/><rect class="cls-43" x="86.79" y="539.12" width="0.75" height="3.79"/><rect class="cls-43" x="88.3" y="539.12" width="0.75" height="3.79"/><rect class="cls-43" x="89.85" y="539.12" width="0.75" height="3.79"/><rect class="cls-43" x="91.35" y="539.19" width="0.75" height="3.79"/><rect class="cls-43" x="92.9" y="539.12" width="0.75" height="3.79"/><rect class="cls-43" x="94.4" y="539.12" width="0.75" height="3.79"/><rect class="cls-43" x="95.9" y="539.12" width="0.75" height="3.79"/><rect class="cls-43" x="97.38" y="539.12" width="0.75" height="3.79"/><rect class="cls-43" x="98.84" y="539.12" width="0.75" height="3.79"/><rect class="cls-43" x="100.37" y="539.19" width="0.75" height="3.79"/><rect class="cls-43" x="101.94" y="539.12" width="0.75" height="3.79"/><rect class="cls-43" x="103.47" y="539.12" width="0.75" height="3.79"/><rect class="cls-43" x="105.03" y="539.12" width="0.75" height="3.79"/><text class="cls-44" transform="translate(68.02 541.63)">Tt</text></g></g><g id="Calque_2-11" data-name="Calque 2"><g id="Calque_2-2-11" data-name="Calque 2-2"><path class="cls-41" d="M364.05,544.2a8.94,8.94,0,0,0,3,.86,5.3,5.3,0,0,0,2.67-.33,7.54,7.54,0,0,0,1.93-1.5,11.46,11.46,0,0,0,1.61-1.93,14.59,14.59,0,0,0,.88-2.25,12.63,12.63,0,0,0,.19-2.46,8.48,8.48,0,0,0-.86-2.46,11,11,0,0,0-2.78-3.32,14.16,14.16,0,0,0-3.22-.86,26.94,26.94,0,0,0-1.6-4.71,11.3,11.3,0,0,0-3-2.89,13.41,13.41,0,0,0-3.54-1.18,12.34,12.34,0,0,0-3.74,0,10.74,10.74,0,0,0-3.32,1.93,45.08,45.08,0,0,0-3.32,4.39,22.39,22.39,0,0,0-4.07-.54,11.49,11.49,0,0,0-4,1.51A14.92,14.92,0,0,0,339,531l-1.28,2.36a16.73,16.73,0,0,0-3.64-.11,7.74,7.74,0,0,0-2.89,1.76,11,11,0,0,0-1.72,3.17,8.06,8.06,0,0,0,0,3.75,8.42,8.42,0,0,0,2.57,2.78,8.92,8.92,0,0,0,3.12,1,18.53,18.53,0,0,0,3.84-.85,29.7,29.7,0,0,0,3.43,2,18.26,18.26,0,0,0,3.32.88,15.85,15.85,0,0,0,3.64-.23,20.1,20.1,0,0,0,2.9-1.34s1.89,1.07,2.56,1.34a7.36,7.36,0,0,0,4.07.75,6.88,6.88,0,0,0,2.68-1.18A10,10,0,0,0,364.05,544.2Z"/><line class="cls-42" x1="326.78" y1="541.87" x2="375.72" y2="541.98"/><line class="cls-42" x1="326.89" y1="538.14" x2="375.62" y2="538.03"/><rect class="cls-43" x="330.68" y="538.13" width="0.75" height="3.79"/><rect class="cls-43" x="332.32" y="538.13" width="0.75" height="3.79"/><rect class="cls-43" x="333.97" y="538.13" width="0.75" height="3.79"/><rect class="cls-43" x="335.63" y="538.13" width="0.75" height="3.79"/><rect class="cls-43" x="337.33" y="538.13" width="0.75" height="3.79"/><rect class="cls-43" x="338.83" y="538.13" width="0.75" height="3.79"/><rect class="cls-43" x="340.44" y="538.13" width="0.75" height="3.79"/><rect class="cls-43" x="342.01" y="538.13" width="0.75" height="3.79"/><rect class="cls-43" x="343.52" y="538.13" width="0.75" height="3.79"/><rect class="cls-43" x="345.01" y="538.07" width="0.75" height="3.79"/><rect class="cls-43" x="346.54" y="538.13" width="0.75" height="3.79"/><rect class="cls-43" x="348.04" y="538.13" width="0.75" height="3.79"/><rect class="cls-43" x="349.52" y="538.13" width="0.75" height="3.79"/><rect class="cls-43" x="351.03" y="538.07" width="0.75" height="3.79"/><rect class="cls-43" x="352.55" y="538.07" width="0.75" height="3.79"/><rect class="cls-43" x="354.06" y="538.07" width="0.75" height="3.79"/><rect class="cls-43" x="355.61" y="538.07" width="0.75" height="3.79"/><rect class="cls-43" x="357.11" y="538.13" width="0.75" height="3.79"/><rect class="cls-43" x="358.66" y="538.07" width="0.75" height="3.79"/><rect class="cls-43" x="360.16" y="538.07" width="0.75" height="3.79"/><rect class="cls-43" x="361.66" y="538.07" width="0.75" height="3.79"/><rect class="cls-43" x="363.14" y="538.07" width="0.75" height="3.79"/><rect class="cls-43" x="364.61" y="538.07" width="0.75" height="3.79"/><rect class="cls-43" x="366.13" y="538.13" width="0.75" height="3.79"/><rect class="cls-43" x="367.71" y="538.07" width="0.75" height="3.79"/><rect class="cls-43" x="369.24" y="538.07" width="0.75" height="3.79"/><rect class="cls-43" x="370.79" y="538.07" width="0.75" height="3.79"/><text class="cls-44" transform="translate(333.78 540.57)">Tt</text></g></g><g id="Calque_2-12" data-name="Calque 2"><g id="Calque_2-2-12" data-name="Calque 2-2"><path class="cls-41" d="M614.42,508.19a8.77,8.77,0,0,0,3,.86,5.45,5.45,0,0,0,2.68-.32,7.91,7.91,0,0,0,1.92-1.5,11.87,11.87,0,0,0,1.61-1.93,15.48,15.48,0,0,0,.89-2.25,11.94,11.94,0,0,0,.18-2.46,8.16,8.16,0,0,0-.86-2.47,10.86,10.86,0,0,0-2.78-3.32,14.51,14.51,0,0,0-3.21-.85,27.22,27.22,0,0,0-1.61-4.72,11.45,11.45,0,0,0-3-2.89,13.46,13.46,0,0,0-3.53-1.18,12.41,12.41,0,0,0-3.75,0,10.89,10.89,0,0,0-3.31,1.93,44,44,0,0,0-3.33,4.39,21.71,21.71,0,0,0-4.07-.53,11.06,11.06,0,0,0-4,1.51,14.39,14.39,0,0,0-1.91,2.56l-1.29,2.35a16.73,16.73,0,0,0-3.64-.11,7.82,7.82,0,0,0-2.89,1.76,11.18,11.18,0,0,0-1.71,3.17,8.06,8.06,0,0,0,0,3.75,8.32,8.32,0,0,0,2.57,2.78,8.53,8.53,0,0,0,3.11,1,18.66,18.66,0,0,0,3.85-.85,30.56,30.56,0,0,0,3.42,2,17.36,17.36,0,0,0,3.33.87,15.34,15.34,0,0,0,3.64-.23,19.06,19.06,0,0,0,2.9-1.34s1.89,1.07,2.56,1.34a7.34,7.34,0,0,0,4.07.75,6.8,6.8,0,0,0,2.68-1.18A10.1,10.1,0,0,0,614.42,508.19Z"/><line class="cls-42" x1="577.15" y1="505.87" x2="626.09" y2="505.97"/><line class="cls-42" x1="577.26" y1="502.13" x2="625.99" y2="502.03"/><rect class="cls-43" x="581.06" y="502.12" width="0.75" height="3.79"/><rect class="cls-43" x="582.69" y="502.12" width="0.75" height="3.79"/><rect class="cls-43" x="584.34" y="502.12" width="0.75" height="3.79"/><rect class="cls-43" x="586" y="502.12" width="0.75" height="3.79"/><rect class="cls-43" x="587.7" y="502.12" width="0.75" height="3.79"/><rect class="cls-43" x="589.21" y="502.12" width="0.75" height="3.79"/><rect class="cls-43" x="590.81" y="502.12" width="0.75" height="3.79"/><rect class="cls-43" x="592.38" y="502.12" width="0.75" height="3.79"/><rect class="cls-43" x="593.89" y="502.12" width="0.75" height="3.79"/><rect class="cls-43" x="595.38" y="502.06" width="0.75" height="3.79"/><rect class="cls-43" x="596.91" y="502.12" width="0.75" height="3.79"/><rect class="cls-43" x="598.41" y="502.12" width="0.75" height="3.79"/><rect class="cls-43" x="599.9" y="502.12" width="0.75" height="3.79"/><rect class="cls-43" x="601.4" y="502.06" width="0.75" height="3.79"/><rect class="cls-43" x="602.92" y="502.06" width="0.75" height="3.79"/><rect class="cls-43" x="604.43" y="502.06" width="0.75" height="3.79"/><rect class="cls-43" x="605.99" y="502.06" width="0.75" height="3.79"/><rect class="cls-43" x="607.49" y="502.12" width="0.75" height="3.79"/><rect class="cls-43" x="609.04" y="502.06" width="0.75" height="3.79"/><rect class="cls-43" x="610.54" y="502.06" width="0.75" height="3.79"/><rect class="cls-43" x="612.04" y="502.06" width="0.75" height="3.79"/><rect class="cls-43" x="613.52" y="502.06" width="0.75" height="3.79"/><rect class="cls-43" x="614.98" y="502.06" width="0.75" height="3.79"/><rect class="cls-43" x="616.51" y="502.12" width="0.75" height="3.79"/><rect class="cls-43" x="618.08" y="502.06" width="0.75" height="3.79"/><rect class="cls-43" x="619.61" y="502.06" width="0.75" height="3.79"/><rect class="cls-43" x="621.17" y="502.06" width="0.75" height="3.79"/><text class="cls-44" transform="translate(584.16 504.56)">Tt</text></g></g></g></g></svg>