<svg xmlns="http://www.w3.org/2000/svg" xmlns:xlink="http://www.w3.org/1999/xlink" viewBox="0 0 406.3 341.7"><defs><style>.cls-1,.cls-6,.cls-7{fill:none;}.cls-2{fill:#7199c9;}.cls-12,.cls-14,.cls-15,.cls-16,.cls-17,.cls-20,.cls-22,.cls-3{fill:#fff;}.cls-4{fill:#42210b;}.cls-5{clip-path:url(#clip-path);}.cls-6,.cls-7{stroke:#263238;stroke-linecap:round;stroke-linejoin:round;stroke-width:1.75px;}.cls-20,.cls-6{opacity:0.5;}.cls-12,.cls-14,.cls-15,.cls-16,.cls-17,.cls-19,.cls-20,.cls-22,.cls-6{isolation:isolate;}.cls-8{clip-path:url(#clip-path-2);}.cls-9{clip-path:url(#clip-path-3);}.cls-10{clip-path:url(#clip-path-4);}.cls-11{fill:#37474f;}.cls-12,.cls-19{opacity:0.2;}.cls-13{fill:#263238;}.cls-14{opacity:0.3;}.cls-15{opacity:0.1;}.cls-16{opacity:0.7;}.cls-17,.cls-18{opacity:0.4;}.cls-21{fill:#e4897b;}.cls-22{opacity:0.6;}.cls-23{fill:#2e353a;}.cls-24{fill:#de5753;}.cls-25{fill:#f0f0f0;}</style><clipPath id="clip-path"><path class="cls-1" d="M235.8,83.4s6.1-7,15.1-7a7.4,7.4,0,0,1,6.4-6.6c6.1-1.2,7.3,4.3,7.3,4.3a13.35,13.35,0,0,1,10.6,0c6.1,2.4,4.8,9.4,4.8,9.4s17.5-.6,20.5,2.6H221.9C221.9,86,223.5,82.1,235.8,83.4Z"/></clipPath><clipPath id="clip-path-2"><path class="cls-1" d="M286.5,41.7s-4.9-5.6-12-5.6a5.89,5.89,0,0,0-5.1-5.3c-4.9-.9-5.8,3.4-5.8,3.4a10.62,10.62,0,0,0-8.4,0c-4.8,1.9-3.9,7.5-3.9,7.5s-14-.5-16.3,2.1h62.7C297.6,43.8,296.3,40.6,286.5,41.7Z"/></clipPath><clipPath id="clip-path-3"><path class="cls-1" d="M172.9,61.2a10.51,10.51,0,0,1,7.2-3.3,3.72,3.72,0,0,1,3-3.2,2.79,2.79,0,0,1,3.5,2,6.21,6.21,0,0,1,5,0c2.9,1.1,2.3,4.4,2.3,4.4s8.3-.3,9.7,1.2H166.4C166.3,62.4,167,60.6,172.9,61.2Z"/></clipPath><clipPath id="clip-path-4"><path class="cls-1" d="M217.4,138.2a10.51,10.51,0,0,1,7.2-3.3,3.72,3.72,0,0,1,3-3.2,2.86,2.86,0,0,1,3.5,2,6.21,6.21,0,0,1,5,0c2.9,1.1,2.3,4.4,2.3,4.4s8.3-.3,9.7,1.2H210.9C210.8,139.5,211.6,137.6,217.4,138.2Z"/></clipPath></defs><title>classe_bain</title><g id="Calque_2" data-name="Calque 2"><g id="Calque_1-2" data-name="Calque 1"><path class="cls-2" d="M187.7,172.9a40.2,40.2,0,0,1-40.2-40.2V52a40.2,40.2,0,0,1,40.2-40.2H291.3A40.2,40.2,0,0,1,331.5,52v80.7a40.2,40.2,0,0,1-40.2,40.2Z"/><path class="cls-3" d="M291.3,23.6A28.44,28.44,0,0,1,319.7,52v80.7a28.44,28.44,0,0,1-28.4,28.4H187.7a28.44,28.44,0,0,1-28.4-28.4V52a28.44,28.44,0,0,1,28.4-28.4H291.3m0-23.6H187.7a52.15,52.15,0,0,0-52,52v80.7a52.15,52.15,0,0,0,52,52H291.3a52.15,52.15,0,0,0,52-52V52a52.15,52.15,0,0,0-52-52Z"/><path class="cls-4" d="M291.3,9.3A42.81,42.81,0,0,1,334,52v80.7a42.81,42.81,0,0,1-42.7,42.7H187.7A42.81,42.81,0,0,1,145,132.7V52A42.81,42.81,0,0,1,187.7,9.3H291.3m0-9.3H187.7a52.15,52.15,0,0,0-52,52v80.7a52.15,52.15,0,0,0,52,52H291.3a52.15,52.15,0,0,0,52-52V52a52.15,52.15,0,0,0-52-52Z"/><path d="M291.3.7A51.34,51.34,0,0,1,342.6,52v80.7A51.34,51.34,0,0,1,291.3,184H187.7a51.34,51.34,0,0,1-51.3-51.3V52A51.34,51.34,0,0,1,187.7.7H291.3m0-.7H187.7a52.15,52.15,0,0,0-52,52v80.7a52.15,52.15,0,0,0,52,52H291.3a52.15,52.15,0,0,0,52-52V52a52.15,52.15,0,0,0-52-52Z"/><g id="freepik--Clouds--inject-64"><g class="cls-5"><path class="cls-6" d="M235.8,83.4s6.1-7,15.1-7a7.4,7.4,0,0,1,6.4-6.6c6.1-1.2,7.3,4.3,7.3,4.3a13.35,13.35,0,0,1,10.6,0c6.1,2.4,4.8,9.4,4.8,9.4s17.5-.6,20.5,2.6H221.9C221.9,86,223.5,82.1,235.8,83.4Z"/></g><path class="cls-7" d="M235.8,83.4s6.1-7,15.1-7a7.4,7.4,0,0,1,6.4-6.6c6.1-1.2,7.3,4.3,7.3,4.3a13.35,13.35,0,0,1,10.6,0c6.1,2.4,4.8,9.4,4.8,9.4s17.5-.6,20.5,2.6H221.9C221.9,86,223.5,82.1,235.8,83.4Z"/><g class="cls-8"><path class="cls-6" d="M286.5,41.7s-4.9-5.6-12-5.6a5.89,5.89,0,0,0-5.1-5.3c-4.9-.9-5.8,3.4-5.8,3.4a10.62,10.62,0,0,0-8.4,0c-4.8,1.9-3.9,7.5-3.9,7.5s-14-.5-16.3,2.1h62.7C297.6,43.8,296.3,40.6,286.5,41.7Z"/></g><path class="cls-7" d="M286.5,41.7s-4.9-5.6-12-5.6a5.89,5.89,0,0,0-5.1-5.3c-4.9-.9-5.8,3.4-5.8,3.4a10.62,10.62,0,0,0-8.4,0c-4.8,1.9-3.9,7.5-3.9,7.5s-14-.5-16.3,2.1h62.7C297.6,43.8,296.3,40.6,286.5,41.7Z"/><g class="cls-9"><path class="cls-6" d="M172.9,61.2a10.51,10.51,0,0,1,7.2-3.3,3.72,3.72,0,0,1,3-3.2,2.79,2.79,0,0,1,3.5,2,6.21,6.21,0,0,1,5,0c2.9,1.1,2.3,4.4,2.3,4.4s8.3-.3,9.7,1.2H166.4C166.3,62.4,167,60.6,172.9,61.2Z"/></g><path class="cls-7" d="M172.9,61.2a10.51,10.51,0,0,1,7.2-3.3,3.72,3.72,0,0,1,3-3.2,2.79,2.79,0,0,1,3.5,2,6.21,6.21,0,0,1,5,0c2.9,1.1,2.3,4.4,2.3,4.4s8.3-.3,9.7,1.2H166.4C166.3,62.4,167,60.6,172.9,61.2Z"/><g class="cls-10"><path class="cls-6" d="M217.4,138.2a10.51,10.51,0,0,1,7.2-3.3,3.72,3.72,0,0,1,3-3.2,2.86,2.86,0,0,1,3.5,2,6.21,6.21,0,0,1,5,0c2.9,1.1,2.3,4.4,2.3,4.4s8.3-.3,9.7,1.2H210.9C210.8,139.5,211.6,137.6,217.4,138.2Z"/></g><path class="cls-7" d="M217.4,138.2a10.51,10.51,0,0,1,7.2-3.3,3.72,3.72,0,0,1,3-3.2,2.86,2.86,0,0,1,3.5,2,6.21,6.21,0,0,1,5,0c2.9,1.1,2.3,4.4,2.3,4.4s8.3-.3,9.7,1.2H210.9C210.8,139.5,211.6,137.6,217.4,138.2Z"/></g><g id="freepik--wind-turbines--inject-64"><path class="cls-7" d="M177.2,106.9v-7a1,1,0,0,0-1-.9.9.9,0,0,0-.9.9v2.3"/><line class="cls-7" x1="177.6" y1="169.3" x2="177.3" y2="114"/><line class="cls-7" x1="175.2" y1="116.2" x2="174.8" y2="169.3"/><path class="cls-7" d="M200.5,111.8,180,107.4l-1.1,1.6-.8-.1-8.7-20.7a.55.55,0,0,0-.8-.3.52.52,0,0,0-.3.7l6,20.1,1.9.2.3.7-13.7,17.8a.54.54,0,0,0,.2.8.49.49,0,0,0,.7-.1L178.1,113l-.8-1.8.5-.7,22.4,2.4a.75.75,0,0,0,.7-.5.44.44,0,0,0-.4-.6Z"/><path class="cls-7" d="M207.6,119.7v-5.6a.79.79,0,0,0-.8-.8.74.74,0,0,0-.8.8v1.8"/><line class="cls-7" x1="206" y1="121.1" x2="206" y2="123.2"/><line class="cls-7" x1="207.9" y1="169" x2="207.6" y2="125.3"/><line class="cls-7" x1="206" y1="127" x2="205.7" y2="169"/><path class="cls-7" d="M226,123.5,209.8,120l-.9,1.3-.6-.1-6.8-16.4a.49.49,0,0,0-.6-.3h0a.6.6,0,0,0-.3.6l4.7,15.9,1.5.2.2.6-10.9,14.1a.5.5,0,1,0,.8.6l11.4-12-.6-1.4.4-.5,17.7,1.9c.2,0,.5-.1.5-.4h0A.49.49,0,0,0,226,123.5Z"/><path class="cls-7" d="M208.4,121.8a.5.5,0,0,1-1,0,.47.47,0,0,1,.5-.5C208.2,121.4,208.4,121.6,208.4,121.8Z"/><path class="cls-7" d="M306.1,107.3v-7a1,1,0,0,1,1-.9.9.9,0,0,1,.9.9v2.3"/><line class="cls-7" x1="308.1" y1="109.2" x2="308.2" y2="111.7"/><line class="cls-7" x1="305.7" y1="169.7" x2="306.1" y2="114.4"/><line class="cls-7" x1="308.2" y1="116.6" x2="308.5" y2="169.7"/><path class="cls-7" d="M282.9,112.2l20.5-4.4,1.1,1.6.8-.1L314,88.6a.55.55,0,0,1,.8-.3.52.52,0,0,1,.3.7l-6,20.1-1.9.2-.3.7,13.7,17.8a.54.54,0,0,1-.2.8.49.49,0,0,1-.7-.1l-14.4-15.1.8-1.8-.5-.7-22.4,2.4a.75.75,0,0,1-.7-.5C282.4,112.5,282.6,112.3,282.9,112.2Z"/><circle class="cls-7" cx="305.7" cy="110" r="0.6"/><path class="cls-7" d="M274.3,119.7v-5.6a.8.8,0,0,1,1.6,0v1.8"/><line class="cls-7" x1="275.9" y1="121.1" x2="275.9" y2="123.2"/><line class="cls-7" x1="274" y1="169" x2="274.2" y2="125.3"/><line class="cls-7" x1="275.9" y1="127" x2="276.2" y2="169"/><path class="cls-7" d="M255.9,123.5l16.2-3.5.9,1.3.6-.1,6.8-16.4a.49.49,0,0,1,.6-.3h0a.6.6,0,0,1,.3.6L276.6,121l-1.5.2-.2.6,10.9,14.1a.5.5,0,0,1-.8.6l-11.4-12,.6-1.4-.4-.5-17.7,1.9c-.2,0-.5-.1-.5-.4h0A.42.42,0,0,1,255.9,123.5Z"/><path class="cls-7" d="M273.5,121.8a.54.54,0,0,0,.5.5.5.5,0,0,0,0-1A.54.54,0,0,0,273.5,121.8Z"/></g><g id="freepik--Mirror--inject-1"><rect class="cls-11" x="388.1" y="25" width="17.5" height="94.8"/><rect class="cls-12" x="391.6" y="25" width="14" height="94.8"/></g><g id="freepik--Sink--inject-1"><path class="cls-13" d="M402.5,204.4a8.71,8.71,0,0,0-8.7,8.7h0v22.7c0,2.6-5.3,2.8-5.6,0v-41h-6.3V236c0,11.4,18.7,11.4,18.7-.2V214.1a2.9,2.9,0,0,1,2.9-2.9h2.7v-6.7h-3.7Z"/><path class="cls-14" d="M402.5,204.4a8.71,8.71,0,0,0-8.7,8.7h0v22.7c0,2.6-5.3,2.8-5.6,0v-41h-6.3V236c0,11.4,18.7,11.4,18.7-.2V214.1a2.9,2.9,0,0,1,2.9-2.9h2.7v-6.7h-3.7Z"/><path class="cls-12" d="M387.2,198h-.9v34.1a3.29,3.29,0,0,0,.4,1.7l.5,1.2Z"/><path class="cls-12" d="M399.4,213.8v22.6c.2,3.1-3.4,7-7.5,7,4-.9,6.6-3.9,6.5-7V216A3,3,0,0,1,399.4,213.8Z"/><path class="cls-15" d="M382.4,198v38.4l.4-2.4V198Z"/><path class="cls-15" d="M394.2,212.3c-.2-2.5,3.1-6.9,5.9-7.2a8.46,8.46,0,0,0-5.6,7.2V237c0,1.2-1.8,1.8-3.1,1.7,1.2,0,2.8-.5,2.8-1.7Z"/><path class="cls-13" d="M380.7,198h9.4a.6.6,0,0,0,.6-.3l5-7.3H375.2l4.8,7.3A.91.91,0,0,0,380.7,198Z"/><path class="cls-15" d="M380.7,198h9.4a.6.6,0,0,0,.6-.3l5-7.3H375.2l4.8,7.3A.91.91,0,0,0,380.7,198Z"/><polygon class="cls-12" points="393 190.4 389.3 198 388.1 198 391 190.4 393 190.4"/><polygon class="cls-15" points="376.2 190.4 381 198 381.4 198 377.3 190.4 376.2 190.4"/><path class="cls-13" d="M391.6,143.2h0c0,.6.1,1,.2,1h1.9c.1,0,.2-.4.2-1h0c0-.6-.1-1-.2-1h-1.9C391.7,142.2,391.6,142.7,391.6,143.2Z"/><path class="cls-12" d="M391.6,143.2h0c0,.6.1,1,.2,1h1.9c.1,0,.2-.4.2-1h0c0-.6-.1-1-.2-1h-1.9C391.7,142.2,391.6,142.7,391.6,143.2Z"/><path class="cls-13" d="M389.1,157.1a6.81,6.81,0,0,0,7.5,0l-2.1-12.6h-3.7Z"/><path class="cls-16" d="M389.1,157.1a6.81,6.81,0,0,0,7.5,0l-2.1-12.6h-3.7Z"/><path class="cls-13" d="M386.3,143.7h0a.94.94,0,0,0,1,1h11.1a.94.94,0,0,0,1-1h0a.94.94,0,0,0-1-1H387.3A.94.94,0,0,0,386.3,143.7Z"/><path class="cls-17" d="M386.3,143.7h0a.94.94,0,0,0,1,1h11.1a.94.94,0,0,0,1-1h0a.94.94,0,0,0-1-1H387.3A.94.94,0,0,0,386.3,143.7Z"/><path class="cls-13" d="M387.8,146.1l2.9-.3a1.24,1.24,0,0,1,.8,1.5c0,.9-.5,1.4-1.2,1.4l-1.7-.2a1.75,1.75,0,0,0-1.9,1.4v.3l-1.8-.1a12.75,12.75,0,0,1,.1-1.9A3.3,3.3,0,0,1,387.8,146.1Z"/><g class="cls-18"><path class="cls-3" d="M387.8,146.1l2.9-.3a1.24,1.24,0,0,1,.8,1.5c0,.9-.5,1.4-1.2,1.4l-1.7-.2a1.75,1.75,0,0,0-1.9,1.4v.3l-1.8-.1a12.75,12.75,0,0,1,.1-1.9A3.3,3.3,0,0,1,387.8,146.1Z"/></g><path class="cls-11" d="M339.2,156.6h63.6a3.37,3.37,0,0,1,3.4,3.4v28.1a1.84,1.84,0,0,1-1.7,1.8c-41.1,3.3-60-.4-67.9-26v-4.7A2.72,2.72,0,0,1,339.2,156.6Z"/><path class="cls-12" d="M339.2,156.6h63.6a3.37,3.37,0,0,1,3.4,3.4v28.1a1.84,1.84,0,0,1-1.7,1.8c-41.1,3.3-60-.4-67.9-26v-4.7A2.72,2.72,0,0,1,339.2,156.6Z"/><path class="cls-19" d="M339.2,156.6h63.6a3.37,3.37,0,0,1,3.4,3.4v3.7l-69.5.2v-4.7A2.56,2.56,0,0,1,339.2,156.6Z"/><path class="cls-15" d="M345.1,156.6h57.8a3.37,3.37,0,0,1,3.4,3.4v3.7l-63.7.2v-4.7A2.5,2.5,0,0,1,345.1,156.6Z"/><path class="cls-15" d="M406.2,163.7v24.4a1.84,1.84,0,0,1-1.7,1.8c-41.1,3.3-54.1-.4-62-26Z"/></g><g id="freepik--Bathtub--inject-1"><path class="cls-11" d="M15.3,268.9H187.2a8.92,8.92,0,0,1,8.9,8.9,6.6,6.6,0,0,1-.1,1.4l-9.7,60.7H17L6.5,279.3A9,9,0,0,1,13.7,269,8.08,8.08,0,0,1,15.3,268.9Z"/><path class="cls-14" d="M17,339.9,6.5,279a8.63,8.63,0,0,1,7.1-10,7.57,7.57,0,0,1,1.5-.1H87a8.71,8.71,0,0,1,8.7,8.7,6.15,6.15,0,0,1-.1,1.3l-9,61.1Z"/><path class="cls-11" d="M150.2,41.8H13.3a3,3,0,0,0-3,3h0a3,3,0,0,0,3,3H150.2a3,3,0,0,0,3-3h0A3,3,0,0,0,150.2,41.8Z"/><path class="cls-20" d="M150.2,41.8H13.3a3,3,0,0,0-3,3h0a3,3,0,0,0,3,3H150.2a3,3,0,0,0,3-3h0A3,3,0,0,0,150.2,41.8Z"/><path class="cls-13" d="M71.5,54.6H73V40a.68.68,0,0,0-.7-.7h0a.68.68,0,0,0-.7.7V54.6Z"/><path class="cls-16" d="M71.5,54.6H73V40a.68.68,0,0,0-.7-.7h0a.68.68,0,0,0-.7.7V54.6Z"/><path class="cls-13" d="M59.8,54.6h1.5V40a.68.68,0,0,0-.7-.7h0a.68.68,0,0,0-.7.7h0Z"/><path class="cls-16" d="M59.8,54.6h1.5V40a.68.68,0,0,0-.7-.7h0a.68.68,0,0,0-.7.7h0Z"/><path class="cls-13" d="M47.3,54.6h1.5V40a.68.68,0,0,0-.7-.7h0a.68.68,0,0,0-.7.7Z"/><path class="cls-16" d="M47.3,54.6h1.5V40a.68.68,0,0,0-.7-.7h0a.68.68,0,0,0-.7.7Z"/><path class="cls-13" d="M36.9,54.6h1.5V40a.68.68,0,0,0-.7-.7h0a.68.68,0,0,0-.7.7V54.6Z"/><path class="cls-16" d="M36.9,54.6h1.5V40a.68.68,0,0,0-.7-.7h0a.68.68,0,0,0-.7.7V54.6Z"/><path class="cls-13" d="M25.9,54.6h1.5V40a.68.68,0,0,0-.7-.7h0a.68.68,0,0,0-.7.7V54.6Z"/><path class="cls-16" d="M25.9,54.6h1.5V40a.68.68,0,0,0-.7-.7h0a.68.68,0,0,0-.7.7V54.6Z"/><path class="cls-13" d="M16.6,54.6h1.5V40a.68.68,0,0,0-.7-.7h0a.68.68,0,0,0-.7.7Z"/><path class="cls-16" d="M16.6,54.6h1.5V40a.68.68,0,0,0-.7-.7h0a.68.68,0,0,0-.7.7Z"/><path class="cls-13" d="M11.9,54.6h1.5V40a.68.68,0,0,0-.7-.7h0a.68.68,0,0,0-.7.7V54.6Z"/><path class="cls-16" d="M11.9,54.6h1.5V40a.68.68,0,0,0-.7-.7h0a.68.68,0,0,0-.7.7V54.6Z"/><polygon class="cls-11" points="10.6 52.6 18.9 53.7 8 278.4 0 275.5 10.6 52.6"/><polygon class="cls-11" points="74.5 53.2 77.1 270.1 58.4 268.2 62.1 53.2 74.5 53.2"/><polygon class="cls-19" points="63.3 53.2 67.1 269.1 58.4 268.2 62.1 53.2 63.3 53.2"/><polygon class="cls-11" points="49.9 53.2 62 53.6 58.4 275.7 44.1 273.2 49.9 53.2"/><polygon class="cls-19" points="49.9 53.2 51 53.4 49.9 274.2 44.1 273.2 49.9 53.2"/><polygon class="cls-11" points="39.4 53.6 49.9 54 44.1 278.4 31.4 275.9 39.4 53.6"/><polygon class="cls-19" points="39.4 53.6 39.8 53.6 36.8 276.9 31.4 275.9 39.4 53.6"/><polygon class="cls-11" points="28.1 52.9 39.3 54.3 31.4 282.1 18.9 279.2 28.1 52.9"/><polygon class="cls-19" points="28.1 52.9 28.6 52.9 20.1 279.5 18.9 279.2 28.1 52.9"/><polygon class="cls-11" points="18.9 53.2 28.1 53.2 18.9 280.5 8 277.3 18.9 53.2"/><polygon class="cls-19" points="18.9 53.2 19.4 53.2 9.4 277.7 8 277.3 18.9 53.2"/><path class="cls-11" d="M143,259.6l18.6-.6-2.8,2.6c-.8,4.3-4.6,9.3-7.3,9.3h-7.3c-4.6,0-6.4-2-5.9-6l1-8c-2.1-.6-2-3.8-.8-5.3,1.6-1.9,4-2.3,5.8,0C145.4,253.2,144,256.7,143,259.6Z"/><path class="cls-14" d="M143,259.6l18.6-.6-2.8,2.6c-.8,4.3-4.6,9.3-7.3,9.3h-7.3c-4.6,0-6.4-2-5.9-6l1-8c-2.1-.6-2-3.8-.8-5.3,1.6-1.9,4-2.3,5.8,0C145.4,253.2,144,256.7,143,259.6Z"/><path class="cls-13" d="M133.2,254.3l4.9-1.1a5.1,5.1,0,0,0,4.4,2.1c.3.5.1,1-.8,1.6h-6.1A6.71,6.71,0,0,1,133.2,254.3Z"/><path class="cls-12" d="M133.2,254.3l4.9-1.1a5.1,5.1,0,0,0,4.4,2.1c.3.5.1,1-.8,1.6h-6.1A6.71,6.71,0,0,1,133.2,254.3Z"/><rect class="cls-13" x="112.4" y="197.1" width="14.6" height="3.6"/><rect class="cls-20" x="112.4" y="197.1" width="14.6" height="3.6"/><circle class="cls-11" cx="110.2" cy="198.9" r="5.8"/><circle class="cls-14" cx="110.2" cy="198.9" r="5.8"/><circle class="cls-13" cx="132.2" cy="198.9" r="5.8"/><circle class="cls-14" cx="132.2" cy="198.9" r="5.8"/><path class="cls-11" d="M121,112.1h-2.6l6.1,105c.1,2.1-.3,3.8-2,4.6-2.7.8-3.8-.3-4-2.6V200.7h-2.4v19.8c0,4.1,3,5.3,7.1,4.6,3-1.1,3.9-4.1,3.8-8Z"/><path class="cls-16" d="M121,112.1h-2.6l6.1,105c.1,2.1-.3,3.8-2,4.6-2.7.8-3.8-.3-4-2.6V200.7h-2.4v19.8c0,4.1,3,5.3,7.1,4.6,3-1.1,3.9-4.1,3.8-8Z"/><path class="cls-11" d="M120.1,80.2h0c-.6-5.3-.3-10.5-9.3-13.8a8.73,8.73,0,0,0-9.5,4.3l-3.7,6,14.1,8,1.8-2.7a.78.78,0,0,1,1-.2.55.55,0,0,1,.3.5l2.7,29.8h4.4Z"/><path class="cls-20" d="M120.1,80.2h0c-.6-5.3-.3-10.5-9.3-13.8a8.73,8.73,0,0,0-9.5,4.3l-3.7,6,14.1,8,1.8-2.7a.78.78,0,0,1,1-.2.55.55,0,0,1,.3.5l2.7,29.8h4.4Z"/><polygon class="cls-11" points="95.6 79.2 110.8 87.4 112.3 84.9 97.2 76.4 95.6 79.2"/><polygon class="cls-17" points="95.6 79.2 110.8 87.4 112.3 84.9 97.2 76.4 95.6 79.2"/></g><g id="freepik--Character--inject-1"><path class="cls-21" d="M286.8,82.5l7.5,17.8c12.4-.2,23.1-5.2,32.4-14.2a2.87,2.87,0,0,0,0-3.7c-3.7-5.8-6.8-9.4-30-15.7l-1.9,3.6A56.36,56.36,0,0,1,310.4,81,39.71,39.71,0,0,1,286.8,82.5Z"/><path class="cls-19" d="M310.3,81.2a13.23,13.23,0,0,0,3.3,2.9,26.9,26.9,0,0,0-8.4-1.4C306.8,82.3,308.6,81.8,310.3,81.2Z"/><polygon class="cls-21" points="255.9 338.2 248 338.2 249.4 320 257.2 320 255.9 338.2"/><polygon class="cls-19" points="248.8 328.2 256.6 328.2 256.7 326.9 248.8 326.9 248.8 328.2"/><polygon class="cls-21" points="297.8 338.2 290 338.2 291.1 320 299 320 297.8 338.2"/><polygon class="cls-19" points="290.7 326.2 298.5 327 298.6 325.5 290.8 324.5 290.7 326.2"/><path class="cls-11" d="M254.1,159.4h41.7c4,21.7,16.4,98.3,7.5,166.6l-14.1-1.8S290.5,233.5,278,200c-1.4,18-3.1,37-4.6,47.2-3.6,25-11.4,79.6-11.4,79.6H247.6s2.9-52.3,4.3-76.9C253.4,223.4,254.1,164.9,254.1,159.4Z"/><path class="cls-22" d="M247.6,326.9H262s7.8-54.6,11.4-79.6c1.5-10.1,3.2-29.2,4.6-47.2a113.5,113.5,0,0,1,4.7,18c7.5,40.2,6.5,106.1,6.5,106.1l14.1,1.8c8.9-68.3-3.5-145.1-7.5-166.1H254.1c-.1,5-.7,63.7-2.2,90.4C250.6,274.9,247.6,326.9,247.6,326.9Z"/><path class="cls-14" d="M251,326.9a1109.21,1109.21,0,0,0,6.4-167H259a969,969,0,0,1-6.2,167Z"/><path class="cls-19" d="M278.1,200.1a113.5,113.5,0,0,1,4.7,18c1.2-16-3.5-32.9-3.5-32.9Z"/><path class="cls-23" d="M285.3,48.5s1.3,8.9-4.4,13.1-5.8-16-5.8-16Z"/><path class="cls-21" d="M261.9,83.4c3.8,3.5,13.2,2.2,13.2,2.2s5.9-1.6,4.6-3.4c-3.5-.6-5.1-2.2-5.8-4.2a10.39,10.39,0,0,1-.4-3.9c.1-.7.2-1.5.3-2.2l-11.6-8.6C263.8,68.8,265.7,79.3,261.9,83.4Z"/><path class="cls-19" d="M265,68.6c.5,7,6.2,8.9,9,9.3a10.39,10.39,0,0,1-.4-3.9Z"/><path class="cls-21" d="M264.2,70.2A9.82,9.82,0,0,0,275.5,74a11,11,0,0,0,6.3-5.1,4.67,4.67,0,0,0,.5-1c2.8-6.6,3.7-18.2-3.3-22.5a10.68,10.68,0,0,0-14.7,3.4,11,11,0,0,0-1.6,4.6C261.9,61.1,261,65.7,264.2,70.2Z"/><path class="cls-23" d="M274,57.5c-.1.6.1,1.2.5,1.3s.8-.4.9-1-.1-1.2-.5-1.3S274.1,56.9,274,57.5Z"/><path class="cls-23" d="M281.1,58.7c-.1.6.1,1.2.5,1.3s.8-.4.9-1-.1-1.2-.5-1.3S281.2,58.2,281.1,58.7Z"/><path class="cls-24" d="M278.8,58.7a21.94,21.94,0,0,0,2.1,5.9,3.73,3.73,0,0,1-3.1.1Z"/><path class="cls-23" d="M272.2,54.9a.6.6,0,0,0,.4-.1,2.78,2.78,0,0,1,2.6-.8c.2.1.4-.1.4-.3h0c0-.2-.1-.4-.3-.4h0a3.69,3.69,0,0,0-3.2,1,.45.45,0,0,0,0,.5h0Z"/><path class="cls-23" d="M276.2,67.6h0a5.55,5.55,0,0,1-4.6-2.5.37.37,0,0,1,.1-.3c.1-.1.2,0,.3.1h0a5.36,5.36,0,0,0,4.3,2.3.22.22,0,0,1,.2.2h0c-.1.1-.2.2-.3.2Z"/><path class="cls-23" d="M284.5,56.8h.2c.2,0,.3-.2.3-.4h0a3.61,3.61,0,0,0-2.3-2.5.37.37,0,0,0-.5.2h0a.37.37,0,0,0,.2.5h0a3,3,0,0,1,1.8,2C284.3,56.7,284.4,56.8,284.5,56.8Z"/><path class="cls-23" d="M272.5,48.4a2.82,2.82,0,0,0-4.2,2.9c.8,3-1.4,7.3-3.8,8.8,0,0,.1-1.3-1-1.1s-1.6,6.7.1,10c0,0-2.8-3.2-3.7-10.2a33.63,33.63,0,0,1,.8-11.4,9.77,9.77,0,0,1,2.9-5h0a13.14,13.14,0,0,1,6.5-3.1l1.6-.3a9.84,9.84,0,0,1,5.1.5l3.7,1.4c3.7,1.5,6.8,1.7,9.5.8C289.9,41.7,286.2,55.2,272.5,48.4Z"/><path class="cls-21" d="M258.3,59.1a7.19,7.19,0,0,0,3.6,4.4c2.3,1.2,4-.7,3.8-3.1-.2-2.2-1.5-5.5-4-5.7A3.3,3.3,0,0,0,258.3,59.1Z"/><path class="cls-21" d="M247.6,86.2a184.06,184.06,0,0,1,5.1,25.6c.3,2.7.6,5.3.8,7.9.3,3.2.5,6.4.6,9.3.2,3.8.3,8.2.3,12.5,0,10-.4,19.6-.4,19.6,8,2,31.1.7,43.8-.3a201.49,201.49,0,0,0,1.2-36.4,212.92,212.92,0,0,0-2.6-23.9A107.39,107.39,0,0,0,293.6,88a7.86,7.86,0,0,0-6.6-5.5c-1.5-.2-3.3-.4-5.2-.5-.7,0-1.4-.1-2.2-.1a175.37,175.37,0,0,0-17.8,1.2c-1.1.1-2.3.3-3.4.5A89.66,89.66,0,0,0,247.6,86.2Z"/><path class="cls-11" d="M247.6,86.2a184.06,184.06,0,0,1,5.1,25.6c.3,2.7.6,5.3.8,7.9.3,3.2.5,6.4.6,9.3.2,3.8.3,8.2.3,12.5,0,10-.4,19.6-.4,19.6,8,2,31.1.7,43.8-.3a201.49,201.49,0,0,0,1.2-36.4,212.92,212.92,0,0,0-2.6-23.9A107.39,107.39,0,0,0,293.6,88a7.86,7.86,0,0,0-6.6-5.5c-1.5-.2-3.3-.4-5.2-.5-.7,0-2.2-.8-2.2-.1,0,16.6-7.2,13.6-17.8,1.2-.7-.9-2.3.3-3.4.5A89.66,89.66,0,0,0,247.6,86.2Z"/><path class="cls-19" d="M252.6,111.8c6.5,1.2,16.4,1.4,27,1.3l-28.1-9Z"/><path class="cls-25" d="M278.3,71.2a.37.37,0,0,0,.1-.3.65.65,0,0,0-.6-.6h-.1a.52.52,0,0,0-.2-.4.55.55,0,1,0-.1-1.1.47.47,0,0,0-.5.5c0-.1-.1-.1-.1-.2s.1-.2.1-.3a.88.88,0,0,0-.8-.9c-.2,0-.3,0-.4.1a1.5,1.5,0,0,0-1.1-.4,1.69,1.69,0,0,0-1,.3l-.6-.3a1.55,1.55,0,0,0,.8-1.1c.2-.1.5-.2.6-.4h0c.2,0,.3-.1.5-.2a1,1,0,0,0,.9.1,1,1,0,0,0,.9.8.71.71,0,0,0,.6-.3.57.57,0,1,0,.7-.9.37.37,0,0,0-.3-.1h-.2c-.1-.1-.1-.3-.3-.4,0-.1.1-.2.1-.4a.9.9,0,0,0-.9-.9h0c-.2,0-.3,0-.4.1s-.1-.1-.2-.1a1,1,0,0,0-.8-.6.76.76,0,0,0-.5.2,1.61,1.61,0,0,0-1.3-.6.9.9,0,0,0-.5.1,2.35,2.35,0,0,0-.8-.2h-.1a1.83,1.83,0,0,0-1.7-1.3,1.88,1.88,0,0,0-.8.2l-.2-.1v-.1a2.35,2.35,0,0,0-.2-.8,1.88,1.88,0,0,0,.2-.8,2.51,2.51,0,0,0-2.3-2.5,2.36,2.36,0,0,0-2.4,1.9v.4c-.4.9-.9,1.8-1.3,2.7v.2a2.13,2.13,0,0,0-2.3,1.9,2.09,2.09,0,0,0,1.4,2.2,1.78,1.78,0,0,0,.6,2.4,1,1,0,0,0,.9.2h0a1.85,1.85,0,0,0,.2.7.89.89,0,0,0-.5.8,1,1,0,0,0,.5.8,1.71,1.71,0,0,0,1.7,1.3h.3a.91.91,0,0,0,.7.3h0a1.81,1.81,0,0,0,1.7,1.5,1.88,1.88,0,0,0,.8-.2,1.71,1.71,0,0,0,1.6,1.1,1.86,1.86,0,0,0,1.5-.9,2.35,2.35,0,0,0,.8.2,1.79,1.79,0,0,1,2.4-.8,2,2,0,0,1,.8.8A1.79,1.79,0,0,0,278,73h0v-.4a.66.66,0,0,0,.4-.5.76.76,0,0,0-.2-.4.76.76,0,0,0,.2-.5C278.3,71.4,278.3,71.3,278.3,71.2ZM267,70.4h0c.1-.1.2-.1.2-.2h0Zm3.6-1h0l.1-.1h0Z"/><path class="cls-21" d="M286.4,71.8a2.47,2.47,0,0,1,2.8,2v.7l-3,8.6h-4.5l-1.2-8.5a1.89,1.89,0,0,1,1.5-2.1Z"/><polygon class="cls-23" points="280.6 66.8 279.9 68.2 287.8 71.3 288.1 70.3 280.6 66.8"/><polygon class="cls-23" points="278.3 69.1 279.5 69.7 281.5 65.9 280.3 65.4 278.3 69.1"/><polygon class="cls-19" points="278.3 69.1 279.5 69.7 281.5 65.9 280.3 65.4 278.3 69.1"/><path class="cls-21" d="M286.3,63.9l10.2,2.9-1.9,3.6-9.9.5a1.44,1.44,0,0,1-1.6-1.2c-.3-1.5.4-3.3,1.4-5.1A2.2,2.2,0,0,1,286.3,63.9Z"/><path class="cls-21" d="M247.6,86.2s-2.5,5.4.1,13.3c3.3,10.2,23.6,12.6,32.3,13.5,11.8,1.3,6.3-30,6.3-30h-4.5s-.8,12.5-3.4,18.9c-4.1-1.7-8.1-5.1-20.2-11.8C253.2,87.4,251.4,87.3,247.6,86.2Z"/><path class="cls-19" d="M273.9,99.6c.6.3,4,2.1,4.4,2.4a7,7,0,0,1,.8,2C278.6,102.7,275,100.2,273.9,99.6Z"/><path class="cls-13" d="M299.2,333.3h-9a.56.56,0,0,0-.6.5l-1.5,6.6a1.07,1.07,0,0,0,.8,1.3h.2c2.9,0,5-.2,8.7-.2,2.3,0,9,.2,12.2.2s3.5-3.1,2.2-3.4c-5.7-1.2-10-3-11.8-4.6A2.45,2.45,0,0,0,299.2,333.3Z"/><path class="cls-11" d="M299.7,334.4a.1.1,0,0,1-.1-.1c0-.1,0-.1.1-.2.3-.2,2.7-1.6,3.5-1.2a.55.55,0,0,1,.3.5.81.81,0,0,1-.4.9,2.3,2.3,0,0,1-1.4.4Zm.5-.3a3.34,3.34,0,0,0,2.6-.1c.2-.2.3-.4.2-.6a.35.35,0,0,0-.1-.2h-.2A5.81,5.81,0,0,0,300.2,334.1Z"/><path class="cls-11" d="M299.6,334.4a.35.35,0,0,1-.1-.2c0-.1.2-2.2,1-2.9a.78.78,0,0,1,.8-.2.63.63,0,0,1,.6.5c.1.8-1.3,2.4-2.1,2.8Zm1.2-2.9a5,5,0,0,0-.9,2.3c.8-.6,1.7-1.8,1.6-2.3,0,0,0-.2-.3-.2h-.1c0,.1-.2.1-.3.2Z"/><path class="cls-13" d="M257.3,333.3h-9a.56.56,0,0,0-.6.5l-1.5,6.6a1.07,1.07,0,0,0,.8,1.3h.2c2.9,0,5-.2,8.7-.2,2.3,0,9,.2,12.2.2s3.5-3.1,2.2-3.4c-5.7-1.2-10-3-11.8-4.6A2.14,2.14,0,0,0,257.3,333.3Z"/><path class="cls-11" d="M257.8,334.4a.1.1,0,0,1-.1-.1c0-.1,0-.1.1-.2.3-.2,2.7-1.6,3.5-1.2a.55.55,0,0,1,.3.5.81.81,0,0,1-.4.9,2.3,2.3,0,0,1-1.4.4Zm.6-.3a3.34,3.34,0,0,0,2.6-.1c.2-.2.3-.4.2-.6a.35.35,0,0,0-.1-.2h-.2A5.38,5.38,0,0,0,258.4,334.1Z"/><path class="cls-11" d="M257.8,334.4c-.1,0-.1-.1-.1-.2s.2-2.2,1-2.9a.78.78,0,0,1,.8-.2.63.63,0,0,1,.6.5c.1.8-1.3,2.4-2.1,2.8Zm1.2-2.9a5,5,0,0,0-.9,2.3c.8-.6,1.7-1.8,1.6-2.3,0,0,0-.2-.3-.2h-.1C259.2,331.4,259.1,331.4,259,331.5Z"/></g></g></g></svg>