<svg xmlns="http://www.w3.org/2000/svg" xmlns:xlink="http://www.w3.org/1999/xlink" viewBox="0 0 498.42 454.23"><defs><style>.cls-1,.cls-30,.cls-6,.cls-7{fill:none;}.cls-2{fill:#7199c9;}.cls-3{fill:#fff;}.cls-4{fill:#42210b;}.cls-5{clip-path:url(#clip-path);}.cls-6,.cls-7{stroke:#263238;stroke-linecap:round;stroke-linejoin:round;stroke-width:1.75px;}.cls-6{opacity:0.5;}.cls-25,.cls-6{isolation:isolate;}.cls-8{clip-path:url(#clip-path-2);}.cls-9{clip-path:url(#clip-path-3);}.cls-10{clip-path:url(#clip-path-4);}.cls-11{fill:#c69c6d;}.cls-12{fill:#180633;}.cls-13{fill:#a589b6;}.cls-14{fill:#b897d1;}.cls-15{fill:#242426;}.cls-16{fill:#ffa8a7;}.cls-17{fill:#455a64;}.cls-18{fill:#ffbda7;}.cls-19{fill:#f0997a;}.cls-20{fill:#b16668;}.cls-21{fill:#9a4a4d;}.cls-22{fill:#f0f0f0;}.cls-23{fill:#ba68c8;}.cls-24{fill:#263238;}.cls-25{opacity:0.1;}.cls-26{fill:#fafafa;}.cls-27{fill:#e0e0e0;}.cls-28{fill:#37474f;}.cls-29{fill:#f28f8f;}.cls-30{stroke:#242426;stroke-miterlimit:10;stroke-width:28px;}</style><clipPath id="clip-path"><path class="cls-1" d="M248.37,137.6S258.49,126,273.27,126c0,0,.49-9,10.57-11s12,7.06,12,7.06,7.44-4,17.46,0,8,15.48,8,15.48,28.87-.94,33.82,4.35H225.41S228,135.44,248.37,137.6Z"/></clipPath><clipPath id="clip-path-2"><path class="cls-1" d="M332.05,68.74s-8.08-9.26-19.86-9.26a9.86,9.86,0,0,0-8.43-8.74c-8-1.56-9.6,5.62-9.6,5.62s-6-3.15-13.92,0-6.37,12.36-6.37,12.36-23.05-.75-27,3.46H350.36S348.27,67,332.05,68.74Z"/></clipPath><clipPath id="clip-path-3"><path class="cls-1" d="M144.51,100.91s4.79-5.5,11.8-5.5a5.85,5.85,0,0,1,5-5.21,4.57,4.57,0,0,1,5.7,3.34,10.43,10.43,0,0,1,8.27,0c4.75,1.88,3.79,7.34,3.79,7.34s13.66-.44,16,2.06H133.63S134.87,99.89,144.51,100.91Z"/></clipPath><clipPath id="clip-path-4"><path class="cls-1" d="M218,228.07s4.8-5.5,11.8-5.5a5.84,5.84,0,0,1,5-5.21,4.59,4.59,0,0,1,5.71,3.33,10.43,10.43,0,0,1,8.27,0c4.74,1.87,3.78,7.34,3.78,7.34s13.67-.45,16,2.06H207.11S208.35,227,218,228.07Z"/></clipPath></defs><title>classe_lunch</title><g id="Calque_2" data-name="Calque 2"><g id="Calque_1-2" data-name="Calque 1"><rect class="cls-2" x="95.06" y="11.76" width="318.93" height="281.22" rx="40.21"/><path class="cls-3" d="M373.78,23.53A28.48,28.48,0,0,1,402.22,52V252.77a28.48,28.48,0,0,1-28.44,28.45H135.27a28.49,28.49,0,0,1-28.45-28.45V52a28.48,28.48,0,0,1,28.45-28.45H373.78m0-23.53H135.27a52.13,52.13,0,0,0-52,52V252.77a52.13,52.13,0,0,0,52,52H373.78a52.13,52.13,0,0,0,52-52V52a52.13,52.13,0,0,0-52-52Z"/><path class="cls-4" d="M373.78,9.29A42.74,42.74,0,0,1,416.46,52V252.77a42.74,42.74,0,0,1-42.68,42.69H135.27a42.74,42.74,0,0,1-42.69-42.69V52A42.74,42.74,0,0,1,135.27,9.29H373.78m0-9.29H135.27a52.13,52.13,0,0,0-52,52V252.77a52.13,52.13,0,0,0,52,52H373.78a52.13,52.13,0,0,0,52-52V52a52.13,52.13,0,0,0-52-52Z"/><path d="M373.78.65A51.38,51.38,0,0,1,425.1,52V252.77a51.38,51.38,0,0,1-51.32,51.32H135.27A51.38,51.38,0,0,1,84,252.77V52A51.38,51.38,0,0,1,135.27.65H373.78m0-.65H135.27a52.13,52.13,0,0,0-52,52V252.77a52.13,52.13,0,0,0,52,52H373.78a52.13,52.13,0,0,0,52-52V52a52.13,52.13,0,0,0-52-52Z"/><g id="freepik--Clouds--inject-64"><g class="cls-5"><path class="cls-6" d="M248.37,137.6S258.49,126,273.27,126c0,0,.49-9,10.57-11s12,7.06,12,7.06,7.44-4,17.46,0,8,15.48,8,15.48,28.87-.94,33.82,4.35H225.41S228,135.44,248.37,137.6Z"/></g><path class="cls-7" d="M248.37,137.6S258.49,126,273.27,126c0,0,.49-9,10.57-11s12,7.06,12,7.06,7.44-4,17.46,0,8,15.48,8,15.48,28.87-.94,33.82,4.35H225.41S228,135.44,248.37,137.6Z"/><g class="cls-8"><path class="cls-6" d="M332.05,68.74s-8.08-9.26-19.86-9.26a9.86,9.86,0,0,0-8.43-8.74c-8-1.56-9.6,5.62-9.6,5.62s-6-3.15-13.92,0-6.37,12.36-6.37,12.36-23.05-.75-27,3.46H350.36S348.27,67,332.05,68.74Z"/></g><path class="cls-7" d="M332.05,68.74s-8.08-9.26-19.86-9.26a9.86,9.86,0,0,0-8.43-8.74c-8-1.56-9.6,5.62-9.6,5.62s-6-3.15-13.92,0-6.37,12.36-6.37,12.36-23.05-.75-27,3.46H350.36S348.27,67,332.05,68.74Z"/><g class="cls-9"><path class="cls-6" d="M144.51,100.91s4.79-5.5,11.8-5.5a5.85,5.85,0,0,1,5-5.21,4.57,4.57,0,0,1,5.7,3.34,10.43,10.43,0,0,1,8.27,0c4.75,1.88,3.79,7.34,3.79,7.34s13.66-.44,16,2.06H133.63S134.87,99.89,144.51,100.91Z"/></g><path class="cls-7" d="M144.51,100.91s4.79-5.5,11.8-5.5a5.85,5.85,0,0,1,5-5.21,4.57,4.57,0,0,1,5.7,3.34,10.43,10.43,0,0,1,8.27,0c4.75,1.88,3.79,7.34,3.79,7.34s13.66-.44,16,2.06H133.63S134.87,99.89,144.51,100.91Z"/><g class="cls-10"><path class="cls-6" d="M218,228.07s4.8-5.5,11.8-5.5a5.84,5.84,0,0,1,5-5.21,4.59,4.59,0,0,1,5.71,3.33,10.43,10.43,0,0,1,8.27,0c4.74,1.87,3.78,7.34,3.78,7.34s13.67-.45,16,2.06H207.11S208.35,227,218,228.07Z"/></g><path class="cls-7" d="M218,228.07s4.8-5.5,11.8-5.5a5.84,5.84,0,0,1,5-5.21,4.59,4.59,0,0,1,5.71,3.33,10.43,10.43,0,0,1,8.27,0c4.74,1.87,3.78,7.34,3.78,7.34s13.67-.45,16,2.06H207.11S208.35,227,218,228.07Z"/></g><g id="freepik--wind-turbines--inject-64"><path class="cls-7" d="M151.73,176.32l-.07-11.6a1.58,1.58,0,0,0-3.16,0v3.8"/><line class="cls-7" x1="152.39" y1="279.36" x2="151.8" y2="188.06"/><line class="cls-7" x1="148.32" y1="191.71" x2="147.77" y2="279.36"/><path class="cls-7" d="M190.09,184.41l-33.76-7.2-1.86,2.61-1.35-.14-14.28-34.2a1,1,0,0,0-1.86.67l9.87,33.09,3.19.36.51,1.21-22.64,29.43a1,1,0,0,0,.26,1.37,1,1,0,0,0,1.23-.09l23.84-25-1.26-3,.84-1.08,37,3.89a1,1,0,0,0,.3-2Z"/><path class="cls-7" d="M201.82,197.42l-.06-9.18a1.25,1.25,0,0,0-2.5,0v3"/><line class="cls-7" x1="199.19" y1="199.88" x2="199.16" y2="203.24"/><line class="cls-7" x1="202.34" y1="278.92" x2="201.88" y2="206.7"/><line class="cls-7" x1="199.13" y1="209.59" x2="198.68" y2="278.92"/><path class="cls-7" d="M232.19,203.84l-26.72-5.71L204,200.2l-1.07-.11L191.62,173a.76.76,0,0,0-1-.46l-.07,0a.8.8,0,0,0-.46,1L198,199.73l2.52.29.4,1L183,224.23a.79.79,0,0,0,.09,1.11.78.78,0,0,0,1.1-.09L203,205.49l-1-2.33.67-.87,29.25,3.08a.74.74,0,0,0,.85-.61.22.22,0,0,0,0-.08A.78.78,0,0,0,232.19,203.84Z"/><path class="cls-7" d="M203.14,201a.74.74,0,1,1-1.48,0,.74.74,0,0,1,1.48,0Z"/><path class="cls-7" d="M364.42,177l.07-11.6a1.58,1.58,0,0,1,3.16,0v3.8"/><line class="cls-7" x1="367.74" y1="180.1" x2="367.77" y2="184.36"/><line class="cls-7" x1="363.76" y1="280.03" x2="364.34" y2="188.73"/><line class="cls-7" x1="367.82" y1="192.38" x2="368.38" y2="280.03"/><path class="cls-7" d="M326.06,185.09l33.76-7.21,1.86,2.62,1.35-.14,14.28-34.21a1,1,0,0,1,1.86.67l-9.87,33.09-3.19.37-.51,1.21,22.66,29.41a1,1,0,0,1-1.49,1.28l-23.84-25,1.26-3-.84-1.08-37,3.89a1,1,0,0,1-.32-1.94Z"/><circle class="cls-7" cx="363.76" cy="181.54" r="0.97"/><path class="cls-7" d="M311.85,197.42l.06-9.18a1.25,1.25,0,1,1,2.49,0v3"/><line class="cls-7" x1="314.48" y1="199.88" x2="314.5" y2="203.24"/><line class="cls-7" x1="311.33" y1="278.92" x2="311.79" y2="206.7"/><line class="cls-7" x1="314.54" y1="209.59" x2="314.98" y2="278.92"/><path class="cls-7" d="M281.48,203.84l26.71-5.71,1.49,2.07,1.07-.11L322.05,173a.75.75,0,0,1,.95-.46l.07,0a.8.8,0,0,1,.45,1l-7.82,26.18-2.52.29-.4,1,17.92,23.25a.78.78,0,1,1-1.19,1l-18.85-19.76,1-2.33-.66-.87-29.25,3.08a.75.75,0,0,1-.86-.61.22.22,0,0,0,0-.08A.78.78,0,0,1,281.48,203.84Z"/><path class="cls-7" d="M310.56,201a.75.75,0,0,0,.74.75.76.76,0,0,0,.75-.75.75.75,0,0,0-.75-.74A.74.74,0,0,0,310.56,201Z"/></g><path class="cls-11" d="M215.55,443.54H81.28V431.72a8.29,8.29,0,0,1,8.3-8.29H207.25a8.3,8.3,0,0,1,8.3,8.29Z"/><path class="cls-12" d="M207.25,423.43H89.58a8.29,8.29,0,0,0-8.3,8.29v11.82H215.55V431.72a8.3,8.3,0,0,0-8.3-8.29Z"/><polygon class="cls-13" points="214.92 432.6 77.05 432.6 77.05 446.73 62.99 453.79 77.31 453.66 214.92 453.66 214.92 432.6"/><path class="cls-14" d="M77.05,446.73l-.13-8.89L68.76,441,13.38,297.44a3.11,3.11,0,0,0-4-1.78l-3.74,1.45a8.77,8.77,0,0,0-5,11.34L43.77,420.34l0,.08v33.26l20.54.17,5-2.79c.93-.36,1.94-.65,2.31-1.41Z"/><path class="cls-15" d="M51.76,258.32h0a7.54,7.54,0,0,1,7.54,7.54V436.42A7.54,7.54,0,0,1,51.76,444h-23a0,0,0,0,1,0,0V281.29a23,23,0,0,1,23-23Z" transform="translate(-123.45 39.4) rotate(-21.1)"/><rect class="cls-14" x="53.97" y="244.4" width="25.16" height="201.82" rx="5.31" transform="translate(-119.85 47.11) rotate(-21.1)"/><path class="cls-3" d="M282.87,443.54H417.14V431.72a8.3,8.3,0,0,0-8.3-8.29H291.17a8.3,8.3,0,0,0-8.3,8.29Z"/><path class="cls-12" d="M408.84,423.43H291.17a8.3,8.3,0,0,0-8.3,8.29v11.82H417.14V431.72a8.3,8.3,0,0,0-8.3-8.29Z"/><polygon class="cls-13" points="283.5 432.6 421.37 432.6 421.37 446.73 435.43 453.79 421.11 453.66 283.5 453.66 283.5 432.6"/><path class="cls-14" d="M421.37,446.73l.13-8.89,8.16,3.13L485,297.44a3.11,3.11,0,0,1,4-1.78l3.74,1.45a8.77,8.77,0,0,1,5,11.34L454.65,420.34l0,.08v33.26l-20.53.17-5-2.79c-.93-.36-2-.65-2.31-1.41Z"/><path class="cls-15" d="M439.12,258.32h23a7.54,7.54,0,0,1,7.54,7.54V436.42a7.54,7.54,0,0,1-7.54,7.54h0a23,23,0,0,1-23-23V258.32A0,0,0,0,1,439.12,258.32Z" transform="translate(751.89 842.3) rotate(-158.9)"/><rect class="cls-14" x="419.29" y="244.4" width="25.16" height="201.82" rx="5.31" transform="translate(710.47 822.95) rotate(-158.9)"/><g id="freepik--character-2--inject-8"><path class="cls-16" d="M340.65,278.34c-4.23.52-15.13-.15-21.19,8.19-6.41,8.81-28.29,44.12-28.29,44.12l-25.38-33.8-26.86-12.54c1.62,12.21,35.51,63.33,40.56,69.51s10.69,11.45,20.5,2.44,31.7-42.65,31.7-42.65S344.87,277.82,340.65,278.34Z"/><path class="cls-17" d="M343.25,277.57s-13-1-20,4.14-25.68,36.56-25.68,36.56,2.49,14.68,20,18.09l22.93-33.64Z"/><path class="cls-18" d="M249.18,289c8.12-5.26,21.7-5.95,30.32-1.55,4.3,2.21,6.55,5.25,6.71,8.42l.21,4c.16,3.17-1.75,6.45-5.82,9.08-8.13,5.27-21.71,6-30.32,1.55-4.31-2.19-6.55-5.25-6.71-8.4l-.21-4.09C243.16,294.86,245.12,291.58,249.18,289Z"/><path class="cls-19" d="M280.4,304.91c-8.13,5.26-21.71,5.95-30.32,1.55s-9-12.24-.9-17.51,21.7-5.95,30.32-1.55S288.53,299.64,280.4,304.91Z"/><path class="cls-20" d="M248.92,283.85c8.12-5.25,21.7-5.94,30.32-1.55,4.3,2.21,6.55,5.26,6.71,8.42l.21,4.06c.16,3.18-1.75,6.45-5.81,9.08-8.14,5.27-21.71,6-30.33,1.55-4.31-2.19-6.55-5.25-6.71-8.4l-.21-4.08C242.9,289.76,244.85,286.49,248.92,283.85Z"/><path class="cls-21" d="M280.14,299.82c-8.13,5.27-21.71,6-30.32,1.55s-9-12.25-.9-17.52,21.7-5.94,30.32-1.55S288.27,294.55,280.14,299.82Z"/><path class="cls-22" d="M249.1,288.06l30.4-1.55c3.63,4.77,4,12.64,4.11,14.19s0,2.53-2.56,2.1a67.36,67.36,0,0,0-31.76,1.62c-2.5.69-2.68-.29-2.76-1.83S246,293.18,249.1,288.06Z"/><path class="cls-23" d="M282.7,297.41a5,5,0,0,1-2.87,2.44c-1.19.37-2.47.33-3.7.58-2.52.51-4.15,2.33-6.39,3.36a6.84,6.84,0,0,1-3,.64,10.75,10.75,0,0,1-3.4-.71c-1.75-.59-3.45-1.37-5.25-1.81a9.24,9.24,0,0,0-4.31-.15,5.85,5.85,0,0,1-3.56-.18c-2.17-.89-3-3.59-5-4.83-1.57-1-3.8-1.06-4.77-2.62a3.34,3.34,0,0,1,.41-3.71,7.52,7.52,0,0,1,3.23-2.21,31,31,0,0,1,7.15-1.85c5.49-.84,11-1.45,16.54-1.88s10.76-.87,16.15.51a9.7,9.7,0,0,1,3.46,1.49,4,4,0,0,1,1.7,3.24,4.31,4.31,0,0,1-2,2.88c-.61.47-1.29.8-1.94,1.31A13,13,0,0,0,282.7,297.41Z"/><path class="cls-18" d="M242.06,286.54a.33.33,0,0,1,0-.17c1.57-7.59,10.43-13.7,21.4-14.26s20.44,4.61,22.78,12a.32.32,0,0,1,0,.17,7.5,7.5,0,0,1,.47,2.52c.08,3.27-1.95,6.61-6.12,9.29-8.53,5.52-22.76,6.24-31.81,1.63-4.41-2.24-6.79-5.36-7.05-8.62A7.67,7.67,0,0,1,242.06,286.54Z"/><path class="cls-19" d="M246.41,278.86l13.33-3s9.09,2.65,9.19,2.8,5,2.83,5,2.83c.85.65-.18,2.49-1.79,2.76a21.14,21.14,0,0,1-2.87.14s-2.69,3-9,3.89-10.91-1.65-13.37-2.33c-2.05-.56-3.32-1-4.46-.57A15.06,15.06,0,0,1,246.41,278.86Z"/><path class="cls-19" d="M247,293.87c5.82,4,20.24,4.66,29-.33s8.69-12.67,5.72-16.09a14.5,14.5,0,0,1,4.6,6.59.32.32,0,0,1,0,.17,7.5,7.5,0,0,1,.47,2.52c.08,3.27-1.95,6.61-6.12,9.29-8.53,5.52-22.76,6.25-31.81,1.63-4.41-2.24-6.79-5.36-7.05-8.62a7.55,7.55,0,0,1,.22-2.55S241.91,290.4,247,293.87Z"/><path class="cls-16" d="M241.83,287.88c-2.62.94-3.17-4.87-3.08-5.56a7.92,7.92,0,0,1,1.68-4.09c2.85-3.58,5.92-4,9.43-6.6a11.61,11.61,0,0,1,3.88-2.25,10.49,10.49,0,0,1,4.36.76c5.45,2.26,15.14,9.31,14.59,8.9a11,11,0,0,1,1.39,1.17c.57.69-.13,1.6-.63,2a5.82,5.82,0,0,1-4.67.93A18.94,18.94,0,0,1,261,286.4a19.48,19.48,0,0,1-9.94-.27C244.68,283.86,242.62,282.94,241.83,287.88Z"/><g id="freepik--Boy--inject-8"><path class="cls-17" d="M290.21,453.79s-8.87.06-22.9.06c0,0-5.32,2.08-5.71-5.42-.58-11.41,47.22-48,56.19-56.41,5.09-4.79,10.84-9.89,10.84-9.89l72,14c4.72,24.29.28,29.22-21.77,53.84-5.11,5.59-3.64,3.92-3.64,3.92s-48.69-.19-9.79-5.4c3.36,6.9-8.79,5.34-8.79,5.34s-6.63.06-16.74-.13l-17.36.39c.74-4,15.2-24,15.2-24l8.06-5.75-44.36,29.55"/><path class="cls-24" d="M345.79,424.34a50.54,50.54,0,0,1-18.34-19.76s1.31,10.78,5.66,16.87c3.26,4.57-30.1,32.34-30.1,32.34Z"/></g><g id="freepik--Character--inject-8"><path class="cls-23" d="M371.87,276.45c.74.15,17.93,2.24,17.93,2.24,7.32,1.28,3.65,2.2,7.84,3.39L399,333.71l3.1,66.67c-10.59,12.78-67.29,10.11-75.53-15.48l-4-78c-.64-12.47,5.53-27.8,24.59-29.89Z"/><path class="cls-25" d="M402.05,400.38,399,333.71l-1-39.35-15.38-4.86c-3.18,12.38,3,36.73,6.23,47.79s2.57,37.21-2.91,44.42-38.36,26.53-59.37,3.19C334.76,410.49,391.46,413.16,402.05,400.38Z"/><path class="cls-16" d="M359.74,388.16c13.09-4.9,47.29-28.24,47.29-28.24l-18.92-49.87s-3.57-22.38,1.69-31.36c12.3.32,16.81,6.44,19.3,15.4s24.36,66.76,23.22,72.74c-1,5.66-46.49,31.87-64.43,35.69C367.89,402.52,349.47,392,359.74,388.16Z"/><path class="cls-17" d="M385.45,278.15s-4.73,7.26-1.89,20a193.44,193.44,0,0,0,7.76,25.59c3.35,9.27,9.76,25.89,9.76,25.89s15.66,2.23,25.88-13.83c0,0-7.9-24.27-14-38.21C405.46,280.64,398.78,277.19,385.45,278.15Z"/><path class="cls-26" d="M364.24,367.93l-32.58,1.66,4.43,38.27h0c.23,1.32,1.61,2.71,4.19,3.64a28.89,28.89,0,0,0,19.55-1c2.53-1.19,3.87-2.65,3.89-4.05h0Z"/><path class="cls-27" d="M331.62,369.63l.9,7.77a14.75,14.75,0,0,0,2.74,1.33c7.2,2.55,18.77,2,26-1.33.31-.15.57-.29.84-.44a17,17,0,0,0,2-1.25l.1-7.78Z"/><path class="cls-28" d="M364.85,369.2l-.27-5.4-3.49.18c-.48-.22-1-.43-1.58-.63-6.78-2.32-17.52-1.77-23.86,1.22-.53.26-1,.52-1.44.78l-3.43.18.28,5.4h0c.09,1.75,1.8,3.43,5.11,4.6,6.62,2.33,17.3,1.79,23.86-1.22C363.36,372.8,364.94,370.93,364.85,369.2Z"/><path class="cls-17" d="M359.3,359.22c-6.78-2.32-17.52-1.77-23.86,1.22s-6.13,7.36.5,9.71,17.29,1.78,23.86-1.22S366.14,361.53,359.3,359.22Z"/><path class="cls-28" d="M360.19,362.51h0L358.68,359l-22.47,1.15-1.14,3.67h0c-.44,1.42.81,2.84,3.74,3.81a29.89,29.89,0,0,0,17.94-.92C359.65,365.41,360.78,363.88,360.19,362.51Z"/><path class="cls-17" d="M355.24,356.63a26.61,26.61,0,0,0-16,.81c-4.26,1.86-4.12,4.49.3,5.91a26.85,26.85,0,0,0,16-.82C359.94,360.67,359.8,358,355.24,356.63Z"/><path class="cls-28" d="M357.14,359.49a1.53,1.53,0,0,1-.46.58,7.49,7.49,0,0,1-1.8,1,23.16,23.16,0,0,1-7.45,1.51,21.93,21.93,0,0,1-7.43-.74,6.37,6.37,0,0,1-1.83-.85c-.38-.28-.5-.48-.5-.54s.35-.81,2.17-1.61a21.93,21.93,0,0,1,7.33-1.5,22.69,22.69,0,0,1,7.56.75C356.67,358.69,357.13,359.33,357.14,359.49Z"/><path class="cls-24" d="M356.73,360.07a7,7,0,0,1-1.8,1,22.85,22.85,0,0,1-7.44,1.52,22,22,0,0,1-7.44-.74,6.78,6.78,0,0,1-1.83-.85,6.6,6.6,0,0,1,1.73-1,22.18,22.18,0,0,1,7.33-1.5,23.25,23.25,0,0,1,7.56.74A7.43,7.43,0,0,1,356.73,360.07Z"/><path d="M352.24,360.41A2.29,2.29,0,0,1,354,360c.35.17.1.63-.53,1a2.24,2.24,0,0,1-1.75.43C351.37,361.28,351.61,360.81,352.24,360.41Z"/><path class="cls-16" d="M374.63,380.54c-2.83,1.63-10.57-.79-10.57-.79l-.09,5.88s-1.19,2.73-9.6,4.91-12.19-.32-16.12,1-.95,10.48,2.25,14,20.54,8,38.24-6.57Z"/><ellipse class="cls-24" cx="336.99" cy="222.55" rx="21.37" ry="23.05" transform="translate(-10.92 17.5) rotate(-2.93)"/><path class="cls-24" d="M382.55,234.5c1.5-11.88,1.66-17.22-1.36-19.93a8.56,8.56,0,0,0-7.19-2.13l-.83,21.38h0l-2.11,15.33.39,13.32a6.47,6.47,0,0,0,5.5-4.28c1.48-3.36,4.18-16.51,5.2-21.6h.15c.1-.69.19-1.34.26-2Z"/><path class="cls-16" d="M370.94,238.19c1.37.75,3.27-2,4.9-3.91s7.09-4.61,10.19,1.12-1.75,14-6.08,15.66c-7.49,2.78-8.87-2-8.87-2l.82,27.43s-4.35,12.42-17.73,14.94-11.12-8.76-7-14.4l-.43-8.34s-6.82,1.39-10.2,1.05c-5.63-.58-9.38-4.86-11.37-10.77-3.23-9.57-4.93-18.07-4.21-36.15.81-21.11,26.68-22.95,40.25-15.39S370.94,238.19,370.94,238.19Z"/><path class="cls-24" d="M371.06,240.53c.69,0,3.13-4.58,4.78-6.25,2.29-2.3-1.82-21.91-1.82-21.91s2-7.62-2.95-12.34c-5.38-5.06-14.55-3.5-21.2-3.2a71.75,71.75,0,0,1-14.28-.33,50.47,50.47,0,0,1-9-2.46c-2.46-.89-5.23-1.88-7.58-.75a7,7,0,0,0-3.13,3.72c-2.78,6.71.53,14.44,6.44,18.15a24.2,24.2,0,0,0,12.58,3.36c9.34.11,22.37-2.06,25.8-2.65,2.56-.49,3.23,2,5,8.75C367.15,230.49,368.68,240.6,371.06,240.53Z"/><path class="cls-24" d="M374.06,213.92l8.18-4.95a4.64,4.64,0,0,0-6.28-1.89l-.19.11A5,5,0,0,0,374.06,213.92Z"/><path class="cls-29" d="M346.71,268.65s10.31-3.19,14.54-5.7a14.45,14.45,0,0,0,5.72-6.27,19.74,19.74,0,0,1-3.06,7.2c-3,4.25-17,8.09-17,8.09Z"/><path class="cls-24" d="M344.73,237a2.77,2.77,0,1,0,0-.09Z"/><path class="cls-24" d="M346.57,226.52l6,1.16a3.22,3.22,0,0,0-2.5-3.67,3,3,0,0,0-3.49,2.4S346.58,226.49,346.57,226.52Z"/><path class="cls-29" d="M343.73,253.63l-5.6,2.44A3,3,0,0,0,342,257.8l.1,0A3.21,3.21,0,0,0,343.73,253.63Z"/><path class="cls-24" d="M323.14,228.54l5.67-2.44a3,3,0,0,0-3.84-1.7l-.07,0A3.26,3.26,0,0,0,323.14,228.54Z"/><path class="cls-24" d="M325.53,236.77A2.51,2.51,0,1,0,327.9,234a2.53,2.53,0,0,0-2.37,2.7Z"/><polygon class="cls-29" points="337.65 235.5 337.61 250.57 329.63 248.3 337.65 235.5"/></g></g><line class="cls-30" x1="145.95" y1="355.47" x2="329.63" y2="354.58"/><line class="cls-30" x1="243.62" y1="355.13" x2="243.62" y2="454.23"/></g></g></svg>