<svg xmlns="http://www.w3.org/2000/svg" xmlns:xlink="http://www.w3.org/1999/xlink" viewBox="0 0 1942.49 1137.6"><defs><style>.cls-1,.cls-10,.cls-11,.cls-36{fill:none;}.cls-2{fill:#180633;}.cls-3{fill:#cdb4bd;}.cls-4{fill:#2f37ad;}.cls-5{fill:#7a4580;}.cls-6{fill:#66003d;}.cls-40,.cls-41,.cls-42,.cls-49,.cls-50,.cls-7{fill:#fff;}.cls-8{fill:#7199c9;}.cls-9{clip-path:url(#clip-path);}.cls-10,.cls-11{stroke:#263238;stroke-linecap:round;stroke-linejoin:round;stroke-width:1.75px;}.cls-10,.cls-42{opacity:0.5;}.cls-10,.cls-38,.cls-40,.cls-41,.cls-42,.cls-44,.cls-49,.cls-50{isolation:isolate;}.cls-12{clip-path:url(#clip-path-2);}.cls-13{clip-path:url(#clip-path-3);}.cls-14{clip-path:url(#clip-path-4);}.cls-15{clip-path:url(#clip-path-5);}.cls-16{clip-path:url(#clip-path-6);}.cls-17{clip-path:url(#clip-path-7);}.cls-18{clip-path:url(#clip-path-8);}.cls-19{clip-path:url(#clip-path-9);}.cls-20{clip-path:url(#clip-path-10);}.cls-21{clip-path:url(#clip-path-11);}.cls-22{clip-path:url(#clip-path-12);}.cls-23{clip-path:url(#clip-path-13);}.cls-24{clip-path:url(#clip-path-14);}.cls-25{clip-path:url(#clip-path-15);}.cls-26{clip-path:url(#clip-path-16);}.cls-27{clip-path:url(#clip-path-17);}.cls-28{clip-path:url(#clip-path-18);}.cls-29{clip-path:url(#clip-path-19);}.cls-30{clip-path:url(#clip-path-20);}.cls-31{clip-path:url(#clip-path-21);}.cls-32{clip-path:url(#clip-path-22);}.cls-33{clip-path:url(#clip-path-23);}.cls-34{clip-path:url(#clip-path-24);}.cls-35{fill:#8b2789;}.cls-36{stroke:#231f20;stroke-miterlimit:10;stroke-width:2px;}.cls-37,.cls-38{fill:#231f20;}.cls-38{font-size:77.34px;font-family:Georgia;}.cls-39{fill:#263238;}.cls-40,.cls-44,.cls-53{opacity:0.2;}.cls-41,.cls-48{opacity:0.1;}.cls-43{fill:#ebb376;}.cls-45{fill:#b0bec5;}.cls-46{fill:#d58745;}.cls-47{fill:#de5753;}.cls-49{opacity:0.6;}.cls-50,.cls-60{opacity:0.3;}.cls-51{fill:#b55b52;}.cls-52{fill:#a02724;}.cls-54{fill:#ffc3bd;}.cls-55{fill:#ed847e;}.cls-56{fill:#455a64;}.cls-57{fill:#b56760;}.cls-58{fill:#8a4a43;}.cls-59{fill:#e0e0e0;}</style><clipPath id="clip-path"><path class="cls-1" d="M1484.29,499s8.75-10,21.53-10c0,0,.42-7.79,9.14-9.48s10.41,6.1,10.41,6.1,6.43-3.42,15.09,0,6.89,13.39,6.89,13.39,25-.81,29.24,3.76H1464.44S1466.71,497.12,1484.29,499Z"/></clipPath><clipPath id="clip-path-2"><path class="cls-1" d="M1556.64,439.45s-7-8-17.17-8a8.53,8.53,0,0,0-7.29-7.56c-7-1.34-8.3,4.87-8.3,4.87a15.17,15.17,0,0,0-12,0c-6.89,2.72-5.5,10.67-5.5,10.67s-19.93-.64-23.32,3h89.45S1570.66,438,1556.64,439.45Z"/></clipPath><clipPath id="clip-path-3"><path class="cls-1" d="M1394.49,467.27s4.15-4.76,10.2-4.76A5.08,5.08,0,0,1,1409,458a4,4,0,0,1,4.93,2.89,9,9,0,0,1,7.15,0c4.1,1.62,3.27,6.34,3.27,6.34s11.82-.38,13.85,1.78h-53.13S1386.16,466.38,1394.49,467.27Z"/></clipPath><clipPath id="clip-path-4"><path class="cls-1" d="M1458,577.21s4.15-4.76,10.2-4.76a5.06,5.06,0,0,1,4.33-4.5,4,4,0,0,1,4.94,2.88,9,9,0,0,1,7.15,0c4.1,1.61,3.27,6.35,3.27,6.35s11.81-.39,13.85,1.78h-53.14S1449.69,576.32,1458,577.21Z"/></clipPath><clipPath id="clip-path-5"><path class="cls-1" d="M1294.67,545.74s5.5-7.23,13.51-7.23c0,0,.27-5.61,5.73-6.82s6.53,4.39,6.53,4.39a10.56,10.56,0,0,1,9.47,0c5.44,2.46,4.33,9.64,4.33,9.64s15.65-.58,18.34,2.71h-70.36S1283.64,544.4,1294.67,545.74Z"/></clipPath><clipPath id="clip-path-6"><path class="cls-1" d="M1340.06,502.87s-4.38-5.77-10.77-5.77c0,0-.21-4.48-4.57-5.44s-5.21,3.5-5.21,3.5a8.43,8.43,0,0,0-7.55,0c-4.33,2-3.45,7.69-3.45,7.69s-12.51-.46-14.63,2.16H1350S1348.86,501.8,1340.06,502.87Z"/></clipPath><clipPath id="clip-path-7"><path class="cls-1" d="M1238.34,522.9s2.6-3.43,6.4-3.43a3.47,3.47,0,0,1,2.72-3.24,2.54,2.54,0,0,1,3.09,2.08,5,5,0,0,1,4.48,0c2.58,1.17,2.06,4.57,2.06,4.57s7.41-.28,8.68,1.28h-33.32S1233.12,522.26,1238.34,522.9Z"/></clipPath><clipPath id="clip-path-8"><path class="cls-1" d="M1278.2,602.07s2.6-3.42,6.4-3.42a3.44,3.44,0,0,1,2.71-3.24,2.54,2.54,0,0,1,3.1,2.07,5,5,0,0,1,4.48,0c2.57,1.16,2,4.57,2,4.57s7.42-.28,8.69,1.28H1272.3S1273,601.43,1278.2,602.07Z"/></clipPath><clipPath id="clip-path-9"><path class="cls-1" d="M657.5,525.09s5-6.2,12.43-6.2a6.51,6.51,0,0,1,5.28-5.86,4.86,4.86,0,0,1,6,3.77,10.33,10.33,0,0,1,8.71,0c5,2.11,4,8.27,4,8.27s14.41-.5,16.89,2.32H646S647.35,523.94,657.5,525.09Z"/></clipPath><clipPath id="clip-path-10"><path class="cls-1" d="M699.28,488.31s-4-4.94-9.92-4.94a5.18,5.18,0,0,0-4.21-4.67,3.88,3.88,0,0,0-4.79,3,8.22,8.22,0,0,0-7,0c-4,1.68-3.18,6.59-3.18,6.59s-11.51-.4-13.46,1.85h51.65S707.37,487.4,699.28,488.31Z"/></clipPath><clipPath id="clip-path-11"><path class="cls-1" d="M605.65,505.5a8.44,8.44,0,0,1,5.89-2.94,3,3,0,0,1,2.5-2.78,2.3,2.3,0,0,1,2.84,1.78,4.89,4.89,0,0,1,4.13,0c2.37,1,1.89,3.92,1.89,3.92s6.82-.24,8,1.1H600.22S600.84,505,605.65,505.5Z"/></clipPath><clipPath id="clip-path-12"><path class="cls-1" d="M642.33,573.4a8.47,8.47,0,0,1,5.89-2.94,3,3,0,0,1,2.5-2.77,2.31,2.31,0,0,1,2.85,1.77,4.89,4.89,0,0,1,4.13,0c2.37,1,1.89,3.92,1.89,3.92s6.82-.23,8,1.1H636.9S637.52,572.86,642.33,573.4Z"/></clipPath><clipPath id="clip-path-13"><path class="cls-1" d="M469.73,550.72s7.64-9.27,18.78-9.27a9.74,9.74,0,0,1,8-8.74c7.61-1.56,9.08,5.63,9.08,5.63s5.61-3.16,13.17,0,6,12.35,6,12.35,21.77-.75,25.51,3.47H452.41S454.39,549,469.73,550.72Z"/></clipPath><clipPath id="clip-path-14"><path class="cls-1" d="M532.86,495.77s-6.1-7.39-15-7.39a7.78,7.78,0,0,0-6.36-7,5.86,5.86,0,0,0-7.25,4.5,12.57,12.57,0,0,0-10.5,0c-6,2.51-4.8,9.85-4.8,9.85s-17.39-.59-20.35,2.77h78S545.09,494.4,532.86,495.77Z"/></clipPath><clipPath id="clip-path-15"><path class="cls-1" d="M391.38,521.44s3.62-4.39,8.9-4.39a4.56,4.56,0,0,1,3.78-4.15,3.47,3.47,0,0,1,4.3,2.66,7.47,7.47,0,0,1,6.24,0c3.57,1.5,2.85,5.86,2.85,5.86s10.31-.36,12.08,1.64H383.18S384.11,520.62,391.38,521.44Z"/></clipPath><clipPath id="clip-path-16"><path class="cls-1" d="M446.81,622.91s3.62-4.39,8.9-4.39a4.55,4.55,0,0,1,3.78-4.15,3.47,3.47,0,0,1,4.3,2.66,7.47,7.47,0,0,1,6.24,0c3.58,1.49,2.86,5.85,2.86,5.85s10.31-.35,12.08,1.65H438.61S439.54,622.09,446.81,622.91Z"/></clipPath><clipPath id="clip-path-17"><path class="cls-1" d="M165.79,525.24s10.82-12.41,26.61-12.41c0,0,.52-9.63,11.29-11.72s12.87,7.54,12.87,7.54,7.94-4.22,18.65,0,8.52,16.55,8.52,16.55,30.85-1,36.14,4.64H141.26S144.06,522.93,165.79,525.24Z"/></clipPath><clipPath id="clip-path-18"><path class="cls-1" d="M255.21,451.65s-8.63-9.89-21.22-9.89c0,0-.42-7.68-9-9.34s-10.26,6-10.26,6-6.36-3.37-14.88,0-6.8,13.2-6.8,13.2-24.63-.79-28.82,3.7H274.77S272.54,449.82,255.21,451.65Z"/></clipPath><clipPath id="clip-path-19"><path class="cls-1" d="M54.81,486s5.12-5.88,12.6-5.88a6.26,6.26,0,0,1,5.35-5.56,4.9,4.9,0,0,1,6.1,3.57,11.11,11.11,0,0,1,8.83,0c5.07,2,4,7.84,4,7.84s14.6-.47,17.11,2.2H43.19S44.51,484.94,54.81,486Z"/></clipPath><clipPath id="clip-path-20"><path class="cls-1" d="M133.32,621.91s5.13-5.88,12.61-5.88a6.25,6.25,0,0,1,5.35-5.56,4.9,4.9,0,0,1,6.1,3.56,11.13,11.13,0,0,1,8.84,0c5.07,2,4,7.84,4,7.84s14.6-.48,17.11,2.2H121.71S123,620.81,133.32,621.91Z"/></clipPath><clipPath id="clip-path-21"><path class="cls-1" d="M1774.5,453.15s12.15-13.93,29.88-13.93c0,0,.59-10.82,12.69-13.16s14.44,8.47,14.44,8.47,8.92-4.75,21,0,9.57,18.58,9.57,18.58,34.63-1.13,40.58,5.22H1747S1750.09,450.56,1774.5,453.15Z"/></clipPath><clipPath id="clip-path-22"><path class="cls-1" d="M1874.92,370.52s-9.7-11.11-23.83-11.11c0,0-.48-8.63-10.12-10.49s-11.53,6.75-11.53,6.75-7.14-3.78-16.7,0-7.64,14.82-7.64,14.82-27.66-.89-32.36,4.16h124.15S1894.38,368.46,1874.92,370.52Z"/></clipPath><clipPath id="clip-path-23"><path class="cls-1" d="M1649.87,409.13s5.75-6.6,14.16-6.6a7,7,0,0,1,6-6.25c5.73-1.11,6.84,4,6.84,4a12.51,12.51,0,0,1,9.93,0c5.69,2.24,4.54,8.8,4.54,8.8s16.4-.53,19.22,2.47h-73.74S1638.3,407.9,1649.87,409.13Z"/></clipPath><clipPath id="clip-path-24"><path class="cls-1" d="M1738,561.71s5.75-6.6,14.16-6.6a7,7,0,0,1,6-6.25c5.73-1.08,6.86,4,6.86,4a12.49,12.49,0,0,1,9.92,0c5.69,2.24,4.54,8.81,4.54,8.81s16.4-.54,19.22,2.47H1725S1726.47,560.48,1738,561.71Z"/></clipPath></defs><title>classe_sport</title><g id="Calque_2" data-name="Calque 2"><g id="Sport_-_copie" data-name="Sport - copie"><polygon id="sol_centrale" data-name="sol centrale" class="cls-2" points="917.9 648.55 528.17 1133.09 1402.44 1133.09 1021.73 650.06 917.9 648.55"/><polygon id="fond_deriere_porte" data-name="fond deriere porte" class="cls-3" points="1209.83 666.3 731.31 654.57 731.31 222.71 1209.83 222.71 1209.83 666.3"/><polygon id="lampe" class="cls-2" points="810.82 1.76 902.86 223.27 872.76 251.29 690.69 1.5 810.82 1.76"/><polygon id="lampe-2" data-name="lampe" class="cls-2" points="1116.53 1.5 1236.91 1.5 1056.34 251.29 1017.41 222.71 1116.53 1.5"/><rect class="cls-4" x="967.75" y="387.54" width="2.63" height="265.53"/><polygon class="cls-5" points="1.5 126.4 731.31 374.69 800.53 374.69 868.25 305.47 872.76 251.29 690.69 1.5 1.5 0 1.5 126.4"/><polygon class="cls-5" points="1935.12 126.4 1199.01 374.69 1129.19 374.69 1060.9 305.47 1056.34 251.29 1236.91 1.5 1935.12 0 1935.12 126.4"/><polygon class="cls-5" points="0 1066.88 731.31 654.57 917.9 648.55 528.17 1133.09 0 1132.33 0 1066.88"/><polygon class="cls-5" points="1935.88 1071.39 1204.56 659.09 1017.97 653.07 1407.7 1137.6 1935.88 1136.85 1935.88 1071.39"/><g id="porte"><rect class="cls-6" x="893.7" y="397.49" width="148.97" height="265.21" rx="31.6"/><rect class="cls-7" x="914.97" y="425.14" width="107.21" height="211.61" rx="14.6"/></g><polygon class="cls-3" points="2.63 127.81 732.44 376.1 732.44 655.99 1.13 1068.29 2.63 127.81"/><polygon class="cls-3" points="1932.87 1068.29 1204.56 662.47 1208.32 374.76 1934.37 121.89 1932.87 1068.29"/><polygon class="cls-5" points="1.5 126.4 731.31 374.69 800.53 374.69 260.32 0 1.5 0 1.5 126.4"/><polygon class="cls-5" points="1933.99 126.4 1204.19 374.69 1134.97 374.69 1675.18 0 1933.99 0 1933.99 126.4"/><path class="cls-8" d="M5.58,411.26C8,349.08,19.83,323.78,88.67,339.59c64.74,14.87,213.45,35.25,231,41.76a25.34,25.34,0,0,0,2.89.86c6.4,1.5,36.16,11.32,30.86,64.05-4.48,44.47-2.21,161.78-.82,199.88.4,11-9.55,20.16-22,20.16H25.38c-12.22,0-22.09-8.84-22-19.69Z"/><path class="cls-8" d="M1940.41,356.14c-2.26-66.58-13.54-93.67-79-76.74-61.55,15.92-202.94,74.75-219.59,81.71a20.55,20.55,0,0,1-2.74.93c-6.09,1.6-34.38,12.12-29.34,68.59,4.25,47.62,2.1,136.24.77,177a20.91,20.91,0,0,0,20.9,21.58h290.18a20.9,20.9,0,0,0,20.9-21.08Z"/><path class="cls-8" d="M1580,429.73c-1.41-46-8.48-64.71-49.51-53-38.58,11-127.19,39.64-137.63,44.44-.56.26-1.13,2.48-1.72,2.65-3.81,1.1-21.54,6.37-18.38,45.38,2.66,32.89,1.31,106.11.48,134.3-.24,8.16,5.7,14.91,13.1,14.91h181.87c7.28,0,13.16-6.54,13.1-14.56Z"/><path class="cls-8" d="M1354.83,486.1c-.86-30-5.21-42.18-30.41-34.56-23.7,7.17-78.13,14.67-84.54,17.8a6.5,6.5,0,0,1-1.06.42c-2.34.72-13.23,5.46-11.29,30.89,1.64,21.45.81,80.36.3,98.74-.15,5.31,3.5,9.71,8,9.71h111.72c4.47,0,8.08-4.26,8.05-9.49Z"/><path class="cls-8" d="M381,454.64c1.36-44.39,8.13-62.45,47.41-51.17,36.94,10.62,121.78,20.55,131.77,25.19a12.14,12.14,0,0,0,1.65.62c3.65,1.06,20.63,8.08,17.6,45.73-2.55,31.75-1.26,120.14-.46,147.35.22,7.87-5.46,14.39-12.54,14.39H392.29c-7,0-12.6-6.32-12.55-14.06Z"/><path class="cls-8" d="M596,479c1.1-34.27,6.62-48.2,38.63-39.49,30.1,8.19,87.6,15.7,95.74,19.28a10.69,10.69,0,0,0,1.34.48c3,.82,1.81,6.23-.65,35.3-2.08,24.5-.4,92.88.25,113.88.19,6.08,8.56,11.11,2.78,11.11H605.17a10.52,10.52,0,0,1-10.23-10.85Z"/><g id="freepik--Clouds--inject-64"><g class="cls-9"><path class="cls-10" d="M1484.29,499s8.75-10,21.53-10c0,0,.42-7.79,9.14-9.48s10.41,6.1,10.41,6.1,6.43-3.42,15.09,0,6.89,13.39,6.89,13.39,25-.81,29.24,3.76H1464.44S1466.71,497.12,1484.29,499Z"/></g><path class="cls-11" d="M1484.29,499s8.75-10,21.53-10c0,0,.42-7.79,9.14-9.48s10.41,6.1,10.41,6.1,6.43-3.42,15.09,0,6.89,13.39,6.89,13.39,25-.81,29.24,3.76H1464.44S1466.71,497.12,1484.29,499Z"/><g class="cls-12"><path class="cls-10" d="M1556.64,439.45s-7-8-17.17-8a8.53,8.53,0,0,0-7.29-7.56c-7-1.34-8.3,4.87-8.3,4.87a15.17,15.17,0,0,0-12,0c-6.89,2.72-5.5,10.67-5.5,10.67s-19.93-.64-23.32,3h89.45S1570.66,438,1556.64,439.45Z"/></g><path class="cls-11" d="M1556.64,439.45s-7-8-17.17-8a8.53,8.53,0,0,0-7.29-7.56c-7-1.34-8.3,4.87-8.3,4.87a15.17,15.17,0,0,0-12,0c-6.89,2.72-5.5,10.67-5.5,10.67s-19.93-.64-23.32,3h89.45S1570.66,438,1556.64,439.45Z"/><g class="cls-13"><path class="cls-10" d="M1394.49,467.27s4.15-4.76,10.2-4.76A5.08,5.08,0,0,1,1409,458a4,4,0,0,1,4.93,2.89,9,9,0,0,1,7.15,0c4.1,1.62,3.27,6.34,3.27,6.34s11.82-.38,13.85,1.78h-53.13S1386.16,466.38,1394.49,467.27Z"/></g><path class="cls-11" d="M1394.49,467.27s4.15-4.76,10.2-4.76A5.08,5.08,0,0,1,1409,458a4,4,0,0,1,4.93,2.89,9,9,0,0,1,7.15,0c4.1,1.62,3.27,6.34,3.27,6.34s11.82-.38,13.85,1.78h-53.13S1386.16,466.38,1394.49,467.27Z"/><g class="cls-14"><path class="cls-10" d="M1458,577.21s4.15-4.76,10.2-4.76a5.06,5.06,0,0,1,4.33-4.5,4,4,0,0,1,4.94,2.88,9,9,0,0,1,7.15,0c4.1,1.61,3.27,6.35,3.27,6.35s11.81-.39,13.85,1.78h-53.14S1449.69,576.32,1458,577.21Z"/></g><path class="cls-11" d="M1458,577.21s4.15-4.76,10.2-4.76a5.06,5.06,0,0,1,4.33-4.5,4,4,0,0,1,4.94,2.88,9,9,0,0,1,7.15,0c4.1,1.61,3.27,6.35,3.27,6.35s11.81-.39,13.85,1.78h-53.14S1449.69,576.32,1458,577.21Z"/></g><g id="freepik--Clouds--inject-64-2" data-name="freepik--Clouds--inject-64"><g class="cls-15"><path class="cls-10" d="M1294.67,545.74s5.5-7.23,13.51-7.23c0,0,.27-5.61,5.73-6.82s6.53,4.39,6.53,4.39a10.56,10.56,0,0,1,9.47,0c5.44,2.46,4.33,9.64,4.33,9.64s15.65-.58,18.34,2.71h-70.36S1283.64,544.4,1294.67,545.74Z"/></g><path class="cls-11" d="M1294.67,545.74s5.5-7.23,13.51-7.23c0,0,.27-5.61,5.73-6.82s6.53,4.39,6.53,4.39a10.56,10.56,0,0,1,9.47,0c5.44,2.46,4.33,9.64,4.33,9.64s15.65-.58,18.34,2.71h-70.36S1283.64,544.4,1294.67,545.74Z"/><g class="cls-16"><path class="cls-10" d="M1340.06,502.87s-4.38-5.77-10.77-5.77c0,0-.21-4.48-4.57-5.44s-5.21,3.5-5.21,3.5a8.43,8.43,0,0,0-7.55,0c-4.33,2-3.45,7.69-3.45,7.69s-12.51-.46-14.63,2.16H1350S1348.86,501.8,1340.06,502.87Z"/></g><path class="cls-11" d="M1340.06,502.87s-4.38-5.77-10.77-5.77c0,0-.21-4.48-4.57-5.44s-5.21,3.5-5.21,3.5a8.43,8.43,0,0,0-7.55,0c-4.33,2-3.45,7.69-3.45,7.69s-12.51-.46-14.63,2.16H1350S1348.86,501.8,1340.06,502.87Z"/><g class="cls-17"><path class="cls-10" d="M1238.34,522.9s2.6-3.43,6.4-3.43a3.47,3.47,0,0,1,2.72-3.24,2.54,2.54,0,0,1,3.09,2.08,5,5,0,0,1,4.48,0c2.58,1.17,2.06,4.57,2.06,4.57s7.41-.28,8.68,1.28h-33.32S1233.12,522.26,1238.34,522.9Z"/></g><path class="cls-11" d="M1238.34,522.9s2.6-3.43,6.4-3.43a3.47,3.47,0,0,1,2.72-3.24,2.54,2.54,0,0,1,3.09,2.08,5,5,0,0,1,4.48,0c2.58,1.17,2.06,4.57,2.06,4.57s7.41-.28,8.68,1.28h-33.32S1233.12,522.26,1238.34,522.9Z"/><g class="cls-18"><path class="cls-10" d="M1278.2,602.07s2.6-3.42,6.4-3.42a3.44,3.44,0,0,1,2.71-3.24,2.54,2.54,0,0,1,3.1,2.07,5,5,0,0,1,4.48,0c2.57,1.16,2,4.57,2,4.57s7.42-.28,8.69,1.28H1272.3S1273,601.43,1278.2,602.07Z"/></g><path class="cls-11" d="M1278.2,602.07s2.6-3.42,6.4-3.42a3.44,3.44,0,0,1,2.71-3.24,2.54,2.54,0,0,1,3.1,2.07,5,5,0,0,1,4.48,0c2.57,1.16,2,4.57,2,4.57s7.42-.28,8.69,1.28H1272.3S1273,601.43,1278.2,602.07Z"/></g><g id="freepik--Clouds--inject-64-3" data-name="freepik--Clouds--inject-64"><g class="cls-19"><path class="cls-10" d="M657.5,525.09s5-6.2,12.43-6.2a6.51,6.51,0,0,1,5.28-5.86,4.86,4.86,0,0,1,6,3.77,10.33,10.33,0,0,1,8.71,0c5,2.11,4,8.27,4,8.27s14.41-.5,16.89,2.32H646S647.35,523.94,657.5,525.09Z"/></g><path class="cls-11" d="M657.5,525.09s5-6.2,12.43-6.2a6.51,6.51,0,0,1,5.28-5.86,4.86,4.86,0,0,1,6,3.77,10.33,10.33,0,0,1,8.71,0c5,2.11,4,8.27,4,8.27s14.41-.5,16.89,2.32H646S647.35,523.94,657.5,525.09Z"/><g class="cls-20"><path class="cls-10" d="M699.28,488.31s-4-4.94-9.92-4.94a5.18,5.18,0,0,0-4.21-4.67,3.88,3.88,0,0,0-4.79,3,8.22,8.22,0,0,0-7,0c-4,1.68-3.18,6.59-3.18,6.59s-11.51-.4-13.46,1.85h51.65S707.37,487.4,699.28,488.31Z"/></g><path class="cls-11" d="M699.28,488.31s-4-4.94-9.92-4.94a5.18,5.18,0,0,0-4.21-4.67,3.88,3.88,0,0,0-4.79,3,8.22,8.22,0,0,0-7,0c-4,1.68-3.18,6.59-3.18,6.59s-11.51-.4-13.46,1.85h51.65S707.37,487.4,699.28,488.31Z"/><g class="cls-21"><path class="cls-10" d="M605.65,505.5a8.44,8.44,0,0,1,5.89-2.94,3,3,0,0,1,2.5-2.78,2.3,2.3,0,0,1,2.84,1.78,4.89,4.89,0,0,1,4.13,0c2.37,1,1.89,3.92,1.89,3.92s6.82-.24,8,1.1H600.22S600.84,505,605.65,505.5Z"/></g><path class="cls-11" d="M605.65,505.5a8.44,8.44,0,0,1,5.89-2.94,3,3,0,0,1,2.5-2.78,2.3,2.3,0,0,1,2.84,1.78,4.89,4.89,0,0,1,4.13,0c2.37,1,1.89,3.92,1.89,3.92s6.82-.24,8,1.1H600.22S600.84,505,605.65,505.5Z"/><g class="cls-22"><path class="cls-10" d="M642.33,573.4a8.47,8.47,0,0,1,5.89-2.94,3,3,0,0,1,2.5-2.77,2.31,2.31,0,0,1,2.85,1.77,4.89,4.89,0,0,1,4.13,0c2.37,1,1.89,3.92,1.89,3.92s6.82-.23,8,1.1H636.9S637.52,572.86,642.33,573.4Z"/></g><path class="cls-11" d="M642.33,573.4a8.47,8.47,0,0,1,5.89-2.94,3,3,0,0,1,2.5-2.77,2.31,2.31,0,0,1,2.85,1.77,4.89,4.89,0,0,1,4.13,0c2.37,1,1.89,3.92,1.89,3.92s6.82-.23,8,1.1H636.9S637.52,572.86,642.33,573.4Z"/></g><g id="freepik--Clouds--inject-64-4" data-name="freepik--Clouds--inject-64"><g class="cls-23"><path class="cls-10" d="M469.73,550.72s7.64-9.27,18.78-9.27a9.74,9.74,0,0,1,8-8.74c7.61-1.56,9.08,5.63,9.08,5.63s5.61-3.16,13.17,0,6,12.35,6,12.35,21.77-.75,25.51,3.47H452.41S454.39,549,469.73,550.72Z"/></g><path class="cls-11" d="M469.73,550.72s7.64-9.27,18.78-9.27a9.74,9.74,0,0,1,8-8.74c7.61-1.56,9.08,5.63,9.08,5.63s5.61-3.16,13.17,0,6,12.35,6,12.35,21.77-.75,25.51,3.47H452.41S454.39,549,469.73,550.72Z"/><g class="cls-24"><path class="cls-10" d="M532.86,495.77s-6.1-7.39-15-7.39a7.78,7.78,0,0,0-6.36-7,5.86,5.86,0,0,0-7.25,4.5,12.57,12.57,0,0,0-10.5,0c-6,2.51-4.8,9.85-4.8,9.85s-17.39-.59-20.35,2.77h78S545.09,494.4,532.86,495.77Z"/></g><path class="cls-11" d="M532.86,495.77s-6.1-7.39-15-7.39a7.78,7.78,0,0,0-6.36-7,5.86,5.86,0,0,0-7.25,4.5,12.57,12.57,0,0,0-10.5,0c-6,2.51-4.8,9.85-4.8,9.85s-17.39-.59-20.35,2.77h78S545.09,494.4,532.86,495.77Z"/><g class="cls-25"><path class="cls-10" d="M391.38,521.44s3.62-4.39,8.9-4.39a4.56,4.56,0,0,1,3.78-4.15,3.47,3.47,0,0,1,4.3,2.66,7.47,7.47,0,0,1,6.24,0c3.57,1.5,2.85,5.86,2.85,5.86s10.31-.36,12.08,1.64H383.18S384.11,520.62,391.38,521.44Z"/></g><path class="cls-11" d="M391.38,521.44s3.62-4.39,8.9-4.39a4.56,4.56,0,0,1,3.78-4.15,3.47,3.47,0,0,1,4.3,2.66,7.47,7.47,0,0,1,6.24,0c3.57,1.5,2.85,5.86,2.85,5.86s10.31-.36,12.08,1.64H383.18S384.11,520.62,391.38,521.44Z"/><g class="cls-26"><path class="cls-10" d="M446.81,622.91s3.62-4.39,8.9-4.39a4.55,4.55,0,0,1,3.78-4.15,3.47,3.47,0,0,1,4.3,2.66,7.47,7.47,0,0,1,6.24,0c3.58,1.49,2.86,5.85,2.86,5.85s10.31-.35,12.08,1.65H438.61S439.54,622.09,446.81,622.91Z"/></g></g><g id="freepik--Clouds--inject-64-5" data-name="freepik--Clouds--inject-64"><g class="cls-27"><path class="cls-10" d="M165.79,525.24s10.82-12.41,26.61-12.41c0,0,.52-9.63,11.29-11.72s12.87,7.54,12.87,7.54,7.94-4.22,18.65,0,8.52,16.55,8.52,16.55,30.85-1,36.14,4.64H141.26S144.06,522.93,165.79,525.24Z"/></g><path class="cls-11" d="M165.79,525.24s10.82-12.41,26.61-12.41c0,0,.52-9.63,11.29-11.72s12.87,7.54,12.87,7.54,7.94-4.22,18.65,0,8.52,16.55,8.52,16.55,30.85-1,36.14,4.64H141.26S144.06,522.93,165.79,525.24Z"/><g class="cls-28"><path class="cls-10" d="M255.21,451.65s-8.63-9.89-21.22-9.89c0,0-.42-7.68-9-9.34s-10.26,6-10.26,6-6.36-3.37-14.88,0-6.8,13.2-6.8,13.2-24.63-.79-28.82,3.7H274.77S272.54,449.82,255.21,451.65Z"/></g><path class="cls-11" d="M255.21,451.65s-8.63-9.89-21.22-9.89c0,0-.42-7.68-9-9.34s-10.26,6-10.26,6-6.36-3.37-14.88,0-6.8,13.2-6.8,13.2-24.63-.79-28.82,3.7H274.77S272.54,449.82,255.21,451.65Z"/><g class="cls-29"><path class="cls-10" d="M54.81,486s5.12-5.88,12.6-5.88a6.26,6.26,0,0,1,5.35-5.56,4.9,4.9,0,0,1,6.1,3.57,11.11,11.11,0,0,1,8.83,0c5.07,2,4,7.84,4,7.84s14.6-.47,17.11,2.2H43.19S44.51,484.94,54.81,486Z"/></g><path class="cls-11" d="M54.81,486s5.12-5.88,12.6-5.88a6.26,6.26,0,0,1,5.35-5.56,4.9,4.9,0,0,1,6.1,3.57,11.11,11.11,0,0,1,8.83,0c5.07,2,4,7.84,4,7.84s14.6-.47,17.11,2.2H43.19S44.51,484.94,54.81,486Z"/><g class="cls-30"><path class="cls-10" d="M133.32,621.91s5.13-5.88,12.61-5.88a6.25,6.25,0,0,1,5.35-5.56,4.9,4.9,0,0,1,6.1,3.56,11.13,11.13,0,0,1,8.84,0c5.07,2,4,7.84,4,7.84s14.6-.48,17.11,2.2H121.71S123,620.81,133.32,621.91Z"/></g><path class="cls-11" d="M133.32,621.91s5.13-5.88,12.61-5.88a6.25,6.25,0,0,1,5.35-5.56,4.9,4.9,0,0,1,6.1,3.56,11.13,11.13,0,0,1,8.84,0c5.07,2,4,7.84,4,7.84s14.6-.48,17.11,2.2H121.71S123,620.81,133.32,621.91Z"/></g><g id="freepik--Clouds--inject-64-6" data-name="freepik--Clouds--inject-64"><g class="cls-31"><path class="cls-10" d="M1774.5,453.15s12.15-13.93,29.88-13.93c0,0,.59-10.82,12.69-13.16s14.44,8.47,14.44,8.47,8.92-4.75,21,0,9.57,18.58,9.57,18.58,34.63-1.13,40.58,5.22H1747S1750.09,450.56,1774.5,453.15Z"/></g><path class="cls-11" d="M1774.5,453.15s12.15-13.93,29.88-13.93c0,0,.59-10.82,12.69-13.16s14.44,8.47,14.44,8.47,8.92-4.75,21,0,9.57,18.58,9.57,18.58,34.63-1.13,40.58,5.22H1747S1750.09,450.56,1774.5,453.15Z"/><g class="cls-32"><path class="cls-10" d="M1874.92,370.52s-9.7-11.11-23.83-11.11c0,0-.48-8.63-10.12-10.49s-11.53,6.75-11.53,6.75-7.14-3.78-16.7,0-7.64,14.82-7.64,14.82-27.66-.89-32.36,4.16h124.15S1894.38,368.46,1874.92,370.52Z"/></g><path class="cls-11" d="M1874.92,370.52s-9.7-11.11-23.83-11.11c0,0-.48-8.63-10.12-10.49s-11.53,6.75-11.53,6.75-7.14-3.78-16.7,0-7.64,14.82-7.64,14.82-27.66-.89-32.36,4.16h124.15S1894.38,368.46,1874.92,370.52Z"/><g class="cls-33"><path class="cls-10" d="M1649.87,409.13s5.75-6.6,14.16-6.6a7,7,0,0,1,6-6.25c5.73-1.11,6.84,4,6.84,4a12.51,12.51,0,0,1,9.93,0c5.69,2.24,4.54,8.8,4.54,8.8s16.4-.53,19.22,2.47h-73.74S1638.3,407.9,1649.87,409.13Z"/></g><path class="cls-11" d="M1649.87,409.13s5.75-6.6,14.16-6.6a7,7,0,0,1,6-6.25c5.73-1.11,6.84,4,6.84,4a12.51,12.51,0,0,1,9.93,0c5.69,2.24,4.54,8.8,4.54,8.8s16.4-.53,19.22,2.47h-73.74S1638.3,407.9,1649.87,409.13Z"/><g class="cls-34"><path class="cls-10" d="M1738,561.71s5.75-6.6,14.16-6.6a7,7,0,0,1,6-6.25c5.73-1.08,6.86,4,6.86,4a12.49,12.49,0,0,1,9.92,0c5.69,2.24,4.54,8.81,4.54,8.81s16.4-.54,19.22,2.47H1725S1726.47,560.48,1738,561.71Z"/></g><path class="cls-11" d="M1738,561.71s5.75-6.6,14.16-6.6a7,7,0,0,1,6-6.25c5.73-1.08,6.86,4,6.86,4a12.49,12.49,0,0,1,9.92,0c5.69,2.24,4.54,8.81,4.54,8.81s16.4-.54,19.22,2.47H1725S1726.47,560.48,1738,561.71Z"/></g><g id="Calque_2-2" data-name="Calque 2"><g id="Calque_2-2-2" data-name="Calque 2-2"><path class="cls-35" d="M998.24,321.45a19.63,19.63,0,0,0,6.62,1.89,11.79,11.79,0,0,0,5.91-.71,17.2,17.2,0,0,0,4.26-3.31,25.73,25.73,0,0,0,3.55-4.26,32,32,0,0,0,1.95-5,26.64,26.64,0,0,0,.41-5.43,18.24,18.24,0,0,0-1.89-5.44c-1.08-2.14-4.13-6.05-6.15-7.33-1.55-1-7.09-1.89-7.09-1.89s-2.06-8.09-3.55-10.41a25,25,0,0,0-6.62-6.38,29.11,29.11,0,0,0-7.8-2.6c-2-.27-6.29-.59-8.28,0a23.94,23.94,0,0,0-7.31,4.25c-2.2,2.11-7.35,9.7-7.35,9.7s-6.73-1.44-9-1.19-7.06,2-8.79,3.34c-1.49,1.17-4.22,5.65-4.22,5.65l-2.83,5.2s-6.1-.75-8-.24a17.2,17.2,0,0,0-6.39,3.88,24.59,24.59,0,0,0-3.78,7c-.56,2-.75,6.35,0,8.28s3.91,5,5.67,6.14a19.12,19.12,0,0,0,6.88,2.11c2.25.12,8.49-1.87,8.49-1.87s5.51,3.71,7.57,4.49a38.83,38.83,0,0,0,7.33,1.94,34.43,34.43,0,0,0,8-.52c1.72-.38,6.4-2.95,6.4-2.95s4.17,2.36,5.66,2.95c2.93,1.17,5.62,2.19,9,1.66a15.1,15.1,0,0,0,5.91-2.6A22.07,22.07,0,0,0,998.24,321.45Z"/><line class="cls-36" x1="915.96" y1="316.31" x2="1024.01" y2="316.55"/><line class="cls-36" x1="916.21" y1="308.07" x2="1023.79" y2="307.83"/><rect class="cls-37" x="924.59" y="308.05" width="1.66" height="8.38"/><rect class="cls-37" x="928.2" y="308.05" width="1.66" height="8.38"/><rect class="cls-37" x="931.84" y="308.05" width="1.66" height="8.38"/><rect class="cls-37" x="935.51" y="308.05" width="1.66" height="8.38"/><rect class="cls-37" x="939.25" y="308.05" width="1.66" height="8.38"/><rect class="cls-37" x="942.57" y="308.05" width="1.66" height="8.38"/><rect class="cls-37" x="946.13" y="308.05" width="1.66" height="8.38"/><rect class="cls-37" x="949.59" y="308.05" width="1.66" height="8.38"/><rect class="cls-37" x="952.92" y="308.05" width="1.66" height="8.38"/><rect class="cls-37" x="956.21" y="307.91" width="1.66" height="8.38"/><rect class="cls-37" x="959.58" y="308.05" width="1.66" height="8.38"/><rect class="cls-37" x="962.89" y="308.05" width="1.66" height="8.38"/><rect class="cls-37" x="966.18" y="308.05" width="1.66" height="8.38"/><rect class="cls-37" x="969.5" y="307.91" width="1.66" height="8.38"/><rect class="cls-37" x="972.86" y="307.91" width="1.66" height="8.38"/><rect class="cls-37" x="976.19" y="307.91" width="1.66" height="8.38"/><rect class="cls-37" x="979.62" y="307.91" width="1.66" height="8.38"/><rect class="cls-37" x="982.93" y="308.05" width="1.66" height="8.38"/><rect class="cls-37" x="986.36" y="307.91" width="1.66" height="8.38"/><rect class="cls-37" x="989.67" y="307.91" width="1.66" height="8.38"/><rect class="cls-37" x="992.98" y="307.91" width="1.66" height="8.38"/><rect class="cls-37" x="996.25" y="307.91" width="1.66" height="8.38"/><rect class="cls-37" x="999.48" y="307.91" width="1.66" height="8.38"/><rect class="cls-37" x="1002.85" y="308.05" width="1.66" height="8.38"/><rect class="cls-37" x="1006.32" y="307.91" width="1.66" height="8.38"/><rect class="cls-37" x="1009.7" y="307.91" width="1.66" height="8.38"/><rect class="cls-37" x="1013.14" y="307.91" width="1.66" height="8.38"/><text class="cls-38" transform="translate(931.43 313.44)">Tt</text></g></g><g id="freepik--Weights--inject-15"><path class="cls-39" d="M1065.45,575.25h-2.77c-8.74,0-15.84,9-15.84,20s7.1,20,15.84,20h2.77c8.76,0,15.85-8.95,15.85-20S1074.26,575.25,1065.45,575.25Z"/><path class="cls-40" d="M1081.3,595.28c0,11.06-7.09,20-15.85,20s-15.84-8.95-15.84-20,7.09-20,15.84-20S1081.3,584.22,1081.3,595.28Z"/><path class="cls-39" d="M1068.09,580.45h-2c-6.49,0-11.74,6.63-11.74,14.83s5.25,14.84,11.74,14.84h2c6.47,0,11.74-6.65,11.74-14.84S1074.56,580.45,1068.09,580.45Z"/><path class="cls-41" d="M1079.83,595.28c0,8.19-5.27,14.84-11.74,14.84s-11.74-6.65-11.74-14.84,5.25-14.83,11.74-14.83S1079.83,587.08,1079.83,595.28Z"/><path class="cls-39" d="M1070.71,590.74h-.62c-2,0-3.6,2-3.6,4.54s1.61,4.55,3.6,4.55h.62c2,0,3.61-2,3.61-4.55S1072.7,590.74,1070.71,590.74Z"/><path class="cls-40" d="M1074.32,595.28c0,2.51-1.62,4.55-3.61,4.55s-3.59-2-3.59-4.55,1.61-4.54,3.59-4.54S1074.32,592.77,1074.32,595.28Z"/><path class="cls-39" d="M1067.1,538.47H1065c-6.56,0-11.88,6.73-11.88,15s5.32,15,11.88,15h2.08c6.56,0,11.88-6.73,11.88-15S1073.66,538.47,1067.1,538.47Z"/><ellipse class="cls-40" cx="1067.1" cy="553.5" rx="11.88" ry="15.01"/><path class="cls-39" d="M1069.07,542.36h-1.53c-4.87,0-8.81,5-8.81,11.14s4,11.12,8.81,11.12h1.53c4.87,0,8.81-5,8.81-11.12S1073.94,542.36,1069.07,542.36Z"/><ellipse class="cls-41" cx="1069.07" cy="553.5" rx="8.81" ry="11.12"/><path class="cls-39" d="M1071,550.08h-.47c-1.49,0-2.69,1.52-2.69,3.42s1.2,3.4,2.69,3.4h.47c1.49,0,2.71-1.52,2.71-3.4S1072.53,550.08,1071,550.08Z"/><ellipse class="cls-40" cx="1071.04" cy="553.5" rx="2.7" ry="3.41"/><path class="cls-39" d="M1064.73,621h-3.32c-10.5,0-19,10.76-19,24s8.5,24,19,24h3.32c10.51,0,19-10.76,19-24S1075.25,621,1064.73,621Z"/><ellipse class="cls-40" cx="1064.73" cy="645.03" rx="19.01" ry="24.03"/><path class="cls-39" d="M1067.9,627.23h-2.47c-7.77,0-14.08,8-14.08,17.8s6.31,17.8,14.08,17.8h2.47c7.77,0,14.08-8,14.08-17.8S1075.67,627.23,1067.9,627.23Z"/><path class="cls-41" d="M1082,645c0,9.83-6.31,17.8-14.08,17.8s-14.09-8-14.09-17.8,6.31-17.8,14.09-17.8S1082,635.2,1082,645Z"/><path class="cls-39" d="M1071.05,639.58h-.77c-2.39,0-4.32,2.44-4.32,5.45s1.93,5.46,4.32,5.46h.75c2.39,0,4.32-2.44,4.32-5.46S1073.44,639.58,1071.05,639.58Z"/><ellipse class="cls-40" cx="1071.05" cy="645.03" rx="4.32" ry="5.45"/><polygon class="cls-39" points="1199.01 672.1 1196.88 672.4 1195.03 672.1 1180.87 674.09 1180.87 676.15 1184.85 676.15 1207.11 676.15 1211.09 676.15 1211.09 674.09 1199.01 672.1"/><polygon class="cls-40" points="1199.01 672.1 1196.88 672.4 1195.03 672.1 1180.87 674.09 1180.87 676.15 1184.85 676.15 1207.11 676.15 1211.09 676.15 1211.09 674.09 1199.01 672.1"/><polygon class="cls-40" points="1196.88 672.4 1184.85 674.09 1184.85 676.15 1180.87 676.15 1180.87 674.09 1195.04 672.1 1196.88 672.4"/><rect class="cls-39" x="1194.85" y="551.84" width="4.96" height="120.49"/><rect class="cls-40" x="1194.85" y="551.84" width="4.96" height="120.49"/><rect class="cls-40" x="1194.85" y="551.84" width="2.49" height="120.49"/><polygon class="cls-39" points="1079.62 672.1 1077.47 672.4 1075.64 672.1 1061.46 674.09 1061.46 676.15 1065.45 676.15 1087.71 676.15 1091.69 676.15 1091.69 674.09 1079.62 672.1"/><polygon class="cls-40" points="1079.62 672.1 1077.47 672.4 1075.64 672.1 1061.46 674.09 1061.46 676.15 1065.45 676.15 1087.71 676.15 1091.69 676.15 1091.69 674.09 1079.62 672.1"/><polygon class="cls-40" points="1077.47 672.4 1065.44 674.09 1065.44 676.15 1061.46 676.15 1061.46 674.09 1075.64 672.1 1077.47 672.4"/><rect class="cls-39" x="1075.45" y="551.84" width="4.96" height="120.49"/><rect class="cls-40" x="1075.45" y="551.84" width="4.96" height="120.49"/><rect class="cls-40" x="1075.45" y="551.84" width="2.49" height="120.49"/><path class="cls-39" d="M1195.88,645a2.68,2.68,0,0,1-.48,1.58,1.46,1.46,0,0,1-.93.64h-122.8c-.89,0-1.6-1-1.6-2.24a2.78,2.78,0,0,1,.46-1.58,1.44,1.44,0,0,1,1.14-.66h122.8A2.13,2.13,0,0,1,1195.88,645Z"/><path class="cls-42" d="M1195.88,645a2.68,2.68,0,0,1-.48,1.58,1.46,1.46,0,0,1-.93.64h-122.8c-.89,0-1.6-1-1.6-2.24a2.78,2.78,0,0,1,.46-1.58,1.44,1.44,0,0,1,1.14-.66h122.8A2.13,2.13,0,0,1,1195.88,645Z"/><path class="cls-39" d="M1203,621h-3.32c-10.5,0-19,10.76-19,24s8.51,24,19,24H1203c10.5,0,19-10.76,19-24S1213.55,621,1203,621Z"/><path class="cls-40" d="M1222.06,645c0,13.27-8.52,24-19,24s-19-10.78-19-24,8.52-24,19-24S1222.06,631.76,1222.06,645Z"/><path class="cls-39" d="M1206.2,627.23h-2.46c-7.77,0-14.08,8-14.08,17.8s6.31,17.8,14.08,17.8h2.46c7.78,0,14.09-8,14.09-17.8S1214,627.23,1206.2,627.23Z"/><path class="cls-41" d="M1220.29,645c0,9.83-6.31,17.8-14.09,17.8s-14.08-8-14.08-17.8,6.31-17.8,14.08-17.8S1220.29,635.2,1220.29,645Z"/><path class="cls-39" d="M1209.36,639.58h-.78c-2.39,0-4.32,2.44-4.32,5.45s1.93,5.46,4.32,5.46h.75c2.38,0,4.32-2.44,4.32-5.46S1211.74,639.58,1209.36,639.58Z"/><path class="cls-40" d="M1213.68,645c0,3-1.94,5.46-4.32,5.46S1205,648.05,1205,645s1.93-5.45,4.32-5.45S1213.68,642,1213.68,645Z"/><path class="cls-39" d="M1214.78,645a2.6,2.6,0,0,1-.47,1.58,1.48,1.48,0,0,1-.94.64H1210c-.89,0-1.6-1-1.6-2.24a2.78,2.78,0,0,1,.46-1.58,1.44,1.44,0,0,1,1.14-.66h3.39A2.12,2.12,0,0,1,1214.78,645Z"/><path class="cls-40" d="M1214.78,645a2.6,2.6,0,0,1-.47,1.58,1.48,1.48,0,0,1-.94.64A2.1,2.1,0,0,1,1212,645a2.63,2.63,0,0,1,.48-1.58,1.44,1.44,0,0,1,.93-.64A2.11,2.11,0,0,1,1214.78,645Z"/><path class="cls-39" d="M1195.88,595.28a2.73,2.73,0,0,1-.48,1.59,1.45,1.45,0,0,1-.93.63h-122.8c-.89,0-1.6-1-1.6-2.24a2.78,2.78,0,0,1,.46-1.58,1.44,1.44,0,0,1,1.14-.66h122.8A2.13,2.13,0,0,1,1195.88,595.28Z"/><path class="cls-42" d="M1195.88,595.28a2.73,2.73,0,0,1-.48,1.59,1.45,1.45,0,0,1-.93.63h-122.8c-.89,0-1.6-1-1.6-2.24a2.78,2.78,0,0,1,.46-1.58,1.44,1.44,0,0,1,1.14-.66h122.8A2.13,2.13,0,0,1,1195.88,595.28Z"/><path class="cls-39" d="M1203.76,575.25H1201c-8.74,0-15.84,9-15.84,20s7.1,20,15.84,20h2.77c8.76,0,15.85-8.95,15.85-20S1212.56,575.25,1203.76,575.25Z"/><ellipse class="cls-40" cx="1203.76" cy="595.28" rx="15.84" ry="20.03"/><path class="cls-39" d="M1206.4,580.45h-2.05c-6.49,0-11.74,6.63-11.74,14.83s5.25,14.84,11.74,14.84h2.05c6.47,0,11.73-6.65,11.73-14.84S1212.87,580.45,1206.4,580.45Z"/><ellipse class="cls-41" cx="1206.4" cy="595.28" rx="11.74" ry="14.83"/><path class="cls-39" d="M1209,590.74h-.62c-2,0-3.61,2-3.61,4.54s1.62,4.55,3.61,4.55h.62c2,0,3.6-2,3.6-4.55S1211,590.74,1209,590.74Z"/><path class="cls-40" d="M1212.62,595.28c0,2.51-1.61,4.55-3.6,4.55s-3.59-2-3.59-4.55,1.6-4.54,3.59-4.54S1212.62,592.77,1212.62,595.28Z"/><path class="cls-39" d="M1214.78,595.28a2.65,2.65,0,0,1-.47,1.59,1.47,1.47,0,0,1-.94.63H1210c-.89,0-1.6-1-1.6-2.24a2.78,2.78,0,0,1,.46-1.58A1.44,1.44,0,0,1,1210,593h3.39A2.12,2.12,0,0,1,1214.78,595.28Z"/><path class="cls-40" d="M1214.78,595.28a2.65,2.65,0,0,1-.47,1.59,1.47,1.47,0,0,1-.94.63,2.1,2.1,0,0,1-1.41-2.22,2.65,2.65,0,0,1,.48-1.58,1.44,1.44,0,0,1,.93-.64A2.13,2.13,0,0,1,1214.78,595.28Z"/><path class="cls-39" d="M1195.88,553.5a2.72,2.72,0,0,1-.48,1.58,1.41,1.41,0,0,1-.93.63h-122.8c-.89,0-1.6-1-1.6-2.23a2.79,2.79,0,0,1,.46-1.59,1.43,1.43,0,0,1,1.14-.65h122.8A2.11,2.11,0,0,1,1195.88,553.5Z"/><path class="cls-42" d="M1195.88,553.5a2.72,2.72,0,0,1-.48,1.58,1.41,1.41,0,0,1-.93.63h-122.8c-.89,0-1.6-1-1.6-2.23a2.79,2.79,0,0,1,.46-1.59,1.43,1.43,0,0,1,1.14-.65h122.8A2.11,2.11,0,0,1,1195.88,553.5Z"/><path class="cls-39" d="M1205.4,538.47h-2.07c-6.56,0-11.88,6.73-11.88,15s5.32,15,11.88,15h2.07c6.57,0,11.89-6.73,11.89-15S1212,538.47,1205.4,538.47Z"/><path class="cls-40" d="M1217.29,553.5c0,8.28-5.32,15-11.89,15s-11.88-6.73-11.88-15,5.32-15,11.88-15S1217.29,545.2,1217.29,553.5Z"/><path class="cls-39" d="M1207.38,542.36h-1.54c-4.86,0-8.8,5-8.8,11.14s4,11.12,8.8,11.12h1.54c4.87,0,8.81-5,8.81-11.12S1212.25,542.36,1207.38,542.36Z"/><path class="cls-41" d="M1216.19,553.5c0,6.13-4,11.12-8.81,11.12s-8.8-5-8.8-11.12,4-11.14,8.8-11.14S1216.19,547.35,1216.19,553.5Z"/><path class="cls-39" d="M1209.35,550.08h-.47c-1.49,0-2.69,1.52-2.69,3.42s1.2,3.4,2.69,3.4h.47c1.49,0,2.7-1.52,2.7-3.4S1210.84,550.08,1209.35,550.08Z"/><path class="cls-40" d="M1212.05,553.5c0,1.88-1.21,3.4-2.7,3.4s-2.69-1.52-2.69-3.4,1.2-3.42,2.69-3.42S1212.05,551.6,1212.05,553.5Z"/><path class="cls-39" d="M1214.78,553.5a2.64,2.64,0,0,1-.47,1.58,1.43,1.43,0,0,1-.94.63H1210c-.89,0-1.6-1-1.6-2.23a2.79,2.79,0,0,1,.46-1.59,1.43,1.43,0,0,1,1.14-.65h3.39A2.1,2.1,0,0,1,1214.78,553.5Z"/><path class="cls-40" d="M1214.78,553.5a2.64,2.64,0,0,1-.47,1.58,1.43,1.43,0,0,1-.94.63,2.08,2.08,0,0,1-1.41-2.21,2.66,2.66,0,0,1,.48-1.59,1.39,1.39,0,0,1,.93-.63A2.11,2.11,0,0,1,1214.78,553.5Z"/><path class="cls-39" d="M1076.68,555.71v4.41h-.76l-2.61-4.88.44-1.74h.74C1074.49,555.48,1076.68,555.71,1076.68,555.71Z"/><path class="cls-40" d="M1076.68,555.71v4.41h-.76l-2.61-4.88.44-1.74h.74C1074.49,555.48,1076.68,555.71,1076.68,555.71Z"/><path class="cls-39" d="M1076.68,555.71v4.41h-.13l-2.6-4.88.44-1.74h.1C1074.49,555.48,1076.68,555.71,1076.68,555.71Z"/><path class="cls-39" d="M1076.68,597.5v4.41h-.76l-2.61-4.89.44-1.74h.74C1074.49,597.27,1076.68,597.5,1076.68,597.5Z"/><path class="cls-40" d="M1076.68,597.5v4.41h-.76l-2.61-4.89.44-1.74h.74C1074.49,597.27,1076.68,597.5,1076.68,597.5Z"/><path class="cls-39" d="M1076.68,597.5v4.41h-.13L1074,597l.44-1.74h.1C1074.49,597.27,1076.68,597.5,1076.68,597.5Z"/><path class="cls-39" d="M1076.68,647.26v4.41h-.76l-2.61-4.89.44-1.74h.74C1074.49,647,1076.68,647.26,1076.68,647.26Z"/><path class="cls-40" d="M1076.68,647.26v4.41h-.76l-2.61-4.89.44-1.74h.74C1074.49,647,1076.68,647.26,1076.68,647.26Z"/><path class="cls-39" d="M1076.68,647.26v4.41h-.13l-2.6-4.89.44-1.74h.1C1074.49,647,1076.68,647.26,1076.68,647.26Z"/></g><g id="freepik--character-2--inject-15"><g id="freepik--group--inject-15"><path class="cls-43" d="M1164.77,569.26s4.71,48.84,2,71.53c-2.92,23.63-8.89,83.47-8.89,83.47l-6,.6s-8.66-58-4.89-81c2.47-15.06-11.69-84.27-11.69-84.27Z"/><path class="cls-43" d="M1143.28,571.82s-2.94,47.1-7,69.57c-4.21,23.39-13.5,82.86-13.5,82.86l-6,.25s-5.44-58.34-.4-81.12c3.3-14.9,2.56-78.29,2.56-78.29Z"/><path class="cls-43" d="M1143.22,474.88a5.42,5.42,0,0,0,.42,3.5,7,7,0,0,0,2.75,2c-.85,1.66-3.37,2.44-3.37,2.44h-6.08s-2.74.61-3.78,0c-.86-.48-1.77-.94-2.58-1.49-.42-.28-1.23.42-1.62.08a9,9,0,0,0,3.27-4.13c1.07-3.38-.08-15.16-.08-15.16l12.82,5.27s-.1.28-.24.77A38.32,38.32,0,0,0,1143.22,474.88Z"/><path class="cls-44" d="M1134.14,469.36s2.76,5.71,9.08,5.52a39.92,39.92,0,0,1,1.48-6.67l-.78-.28Z"/><path class="cls-43" d="M1112.18,484.19s.68,3.29,1.66,8.57c.9,4.84,2.06,11.33,3.16,18.52.19,1.28.42,2.58.63,3.91h0c1.64,9.76,3.75,20.4,4.18,29.64l42-2.15c.3-9.14,1.52-23,.17-38.41a136.79,136.79,0,0,0-3.89-23.79s-1.53-.08-4.15-.11h-6.81c-5.94.06-13.67.37-21.57,1.23-2.25.25-4.43.53-6.63.88C1118,482.93,1115,483.5,1112.18,484.19Z"/><path class="cls-39" d="M1164.67,522.49h0c0,2.07-.08,4.06-.15,6-.09,2.62-.2,5.1-.31,7.39-.13,2.49-.24,4.76-.31,6.81l-42.09,2.16a136.63,136.63,0,0,0-1.72-15.09c-.27-1.78-.57-3.58-.87-5.36s-.68-3.87-1-5.77c-.43-2.5-.85-5-1.22-7.35.24-.29.46-.58.69-.88a21.71,21.71,0,0,0,3.07-6.64,32.82,32.82,0,0,0,1-5.39,53.64,53.64,0,0,0-.1-11.54c-.15-1.31-.32-2.45-.45-3.3-.08-.42-.14-.77-.19-1.05,2.19-.35,4.42-.63,6.62-.88l.25.49a29.66,29.66,0,0,0,2.8,4.39,20.35,20.35,0,0,0,2,2.25h0a15,15,0,0,0,2.53,2,9.72,9.72,0,0,0,4.37,1.44,9.1,9.1,0,0,0,2.44-.17,9,9,0,0,0,3.2-1.27h0a8.28,8.28,0,0,0,3.38-4.5,14.14,14.14,0,0,0,.63-3.71c0-.69,0-1.37,0-2.06h6.8c.58,2.38,1.53,6.39,2.39,10,.51,2.14,1,4.12,1.32,5.49a.84.84,0,0,0,.11.41,17.18,17.18,0,0,0,1.66,3.87c.75,1.37,1.68,2.82,2.57,4.17.1,1.13.18,2.25.24,3.38.14,2,.23,3.9.28,5.8C1164.7,516.55,1164.71,519.59,1164.67,522.49Z"/><path class="cls-44" d="M1113.84,492.76c.9,4.84,2.06,11.33,3.16,18.52.19,1.28.42,2.58.63,3.91,4.4-7.16,3-17-.63-20.54A6.51,6.51,0,0,0,1113.84,492.76Z"/><path class="cls-45" d="M1114.2,604.34c.76-29.56,6.55-62.78,6.59-67.06h43.87c1.9,10.68,5.06,49.78,3.95,67.86Z"/><path class="cls-39" d="M1148.65,737.15l1.13-5.34.2-9.63h8a2,2,0,0,1,3.22-1.31l1.12,8.89c2,1.83,6.83,3.75,13.2,5.15,1.42.31,1,3.73-2.5,3.73s-11-.26-13.55-.26c-4.09,0-6.45.2-9.7.25h-.27a1.21,1.21,0,0,1-.9-1.46Z"/><path class="cls-39" d="M1112,737.15l1.18-5.34,1.78-9.63H1123a2,2,0,0,1,2.16-1.75,1.9,1.9,0,0,1,1,.44l-.47,8.89c2,1.83,6.83,3.75,13.19,5.15,1.42.31,1,3.73-2.49,3.73s-11-.26-13.57-.26c-4.07,0-6.43.2-9.68.25h-.27a1.21,1.21,0,0,1-.94-1.44Z"/><path class="cls-39" d="M1090.26,553.06H1087c-3.65,0-6.63,3.76-6.63,8.39s3,8.39,6.63,8.39h3.25c3.67,0,6.64-3.75,6.64-8.39S1093.93,553.06,1090.26,553.06Z"/><path class="cls-41" d="M1090.26,553.06H1087c-3.65,0-6.63,3.76-6.63,8.39s3,8.39,6.63,8.39h3.25c3.67,0,6.64-3.75,6.64-8.39S1093.93,553.06,1090.26,553.06Z"/><path class="cls-40" d="M1096.9,561.5c0,4.63-3,8.39-6.64,8.39s-6.63-3.76-6.63-8.39,3-8.39,6.63-8.39S1096.9,556.86,1096.9,561.5Z"/><path class="cls-39" d="M1103.51,558.24h-12.06c-1.43,0-2.58,1.46-2.58,3.26s1.12,3.26,2.58,3.26h12.06a3.37,3.37,0,0,0,0-6.52Z"/><path class="cls-43" d="M1118.25,483.13s-7.28-3.25-11.77,0-6.54,14-6.54,14-5.28,18-6.75,21,.06,33,.06,33l5.55.28s6.08-19,3-29.12c-.61-2,8.32-3.58,13.77-19.85,0,0,3.57-6.44,4-10.93A18.77,18.77,0,0,0,1118.25,483.13Z"/><path class="cls-43" d="M1093.22,551.13s-4.43,9.48-4.35,11.62,10.12,3.8,10.12,3.8,2.63-9.25,1.9-10.43-2-7.7-2-7.7Z"/><path class="cls-39" d="M1107.62,553.06h-3.25c-3.67,0-6.64,3.76-6.64,8.39s3,8.39,6.64,8.39h3.25c3.67,0,6.64-3.75,6.64-8.39S1111.23,553.06,1107.62,553.06Z"/><path class="cls-41" d="M1107.62,553.06h-3.25c-3.67,0-6.64,3.76-6.64,8.39s3,8.39,6.64,8.39h3.25c3.67,0,6.64-3.75,6.64-8.39S1111.23,553.06,1107.62,553.06Z"/><ellipse class="cls-40" cx="1107.56" cy="561.5" rx="6.64" ry="8.39"/><path class="cls-39" d="M1205.39,477.8l3.24-.05c3.66-.08,6.56-3.9,6.47-8.52s-3.13-8.33-6.8-8.27l-3.24.07c-3.67.07-6.57,3.88-6.48,8.52S1201.72,477.88,1205.39,477.8Z"/><path class="cls-41" d="M1205.39,477.8l3.24-.05c3.66-.08,6.56-3.9,6.47-8.52s-3.13-8.33-6.8-8.27l-3.24.07c-3.67.07-6.57,3.88-6.48,8.52S1201.72,477.88,1205.39,477.8Z"/><path class="cls-40" d="M1198.58,469.55c-.09-4.64,2.81-8.45,6.48-8.52s6.75,3.62,6.75,8.26-2.8,8.44-6.47,8.51S1198.73,474.18,1198.58,469.55Z"/><path class="cls-39" d="M1192,472.93l12.07-.23c1.42,0,2.56-1.51,2.51-3.31s-1.21-3.24-2.64-3.21l-12.07.24c-1.42,0-2.54,1.51-2.51,3.31S1190.61,473,1192,472.93Z"/><path class="cls-43" d="M1202.46,479.85s4.25-9.57,4.13-11.71-10.22-3.59-10.22-3.59-2.46,9.29-1.7,10.46,2.13,7.66,2.13,7.66Z"/><path class="cls-39" d="M1188.09,478.14h3.25c3.65-.08,6.55-3.89,6.46-8.51s-3.13-8.34-6.8-8.27l-3.24.07c-3.67.06-6.56,3.88-6.47,8.51S1184.42,478.22,1188.09,478.14Z"/><path class="cls-41" d="M1188.09,478.14h3.25c3.65-.08,6.55-3.89,6.46-8.51s-3.13-8.34-6.8-8.27l-3.24.07c-3.67.06-6.56,3.88-6.47,8.51S1184.42,478.22,1188.09,478.14Z"/><path class="cls-40" d="M1181.29,469.88c-.09-4.63,2.8-8.44,6.47-8.51s6.75,3.62,6.81,8.26-2.82,8.44-6.48,8.51S1181.38,474.52,1181.29,469.88Z"/><path class="cls-43" d="M1160.18,480.48s6.64-5.15,11-3,5.62,8.14,5.62,8.14a25.84,25.84,0,0,0,6.21,3.84c3.2,1.29,4.27,5.13,4.27,5.13l2.14,3.85c.22-4.76,7.69-20.74,7.69-20.74l5.78,1.12s-5.56,27.82-9.84,31-20.1-6.52-28.25-13.74l-2.54.91Z"/><path class="cls-44" d="M1141.51,604.73l2.82-23,8.67-11.79-5.74,13.84s3.3,13.32,3.3,21Z"/><path class="cls-39" d="M1152.18,445.08s3.82,11.15-2,15-4.88-16-4.88-16Z"/><path class="cls-43" d="M1133.31,467.69a9.71,9.71,0,0,0,10.92,4.3,10.78,10.78,0,0,0,6.39-4.7c.2-.32.38-.66.56-1,3.11-6.37,4.5-17.71-2.11-22.32a10.49,10.49,0,0,0-14.61,2.55v0a10.28,10.28,0,0,0-1.8,4.5C1131.44,458.64,1130.37,463.08,1133.31,467.69Z"/><path class="cls-39" d="M1143.61,455.68a1,1,0,0,0,.49,1.26c.4.09.82-.34,1-.95a1,1,0,0,0-.48-1.26C1144.19,454.6,1143.7,455.07,1143.61,455.68Z"/><path class="cls-39" d="M1150.45,457.21c-.18.59.08,1.18.47,1.26s.84-.34,1-1a1,1,0,0,0-.47-1.26C1151,456.13,1150.58,456.63,1150.45,457.21Z"/><path class="cls-46" d="M1148.19,457a22,22,0,0,0,1.76,5.86,3.65,3.65,0,0,1-3-.11Z"/><path class="cls-39" d="M1142.78,453a.42.42,0,0,0,.38,0,3,3,0,0,1,2.62-.39.35.35,0,0,0,.47-.16v0a.37.37,0,0,0-.18-.48h0a3.59,3.59,0,0,0-3.31.43.36.36,0,0,0-.12.49h0A.34.34,0,0,0,1142.78,453Z"/><path class="cls-39" d="M1153.66,454.64a.29.29,0,0,0,.2-.05.37.37,0,0,0,0-.52h0a3.61,3.61,0,0,0-3.17-1.06.36.36,0,0,0-.28.43h0a.37.37,0,0,0,.44.28h0a2.9,2.9,0,0,1,2.49.88A.4.4,0,0,0,1153.66,454.64Z"/><path class="cls-39" d="M1152.94,461.64c0,.08-.08.17-.13.25a11.52,11.52,0,0,1-3,3.67c-1.4-2.72-4.94-2.14-4.94-2.14a4.78,4.78,0,0,0-2.38-2.35c-1.55-.51-6-1.23-6-1.23-.72-.7-.73-2.36-.61-3.63a12.38,12.38,0,0,1,.22-1.62l-1,.53s-.08.23-.2.64h0c-.11.41-.29,1-.48,1.74h0c-.3,1.06-.61,2.37-.88,3.78a32.34,32.34,0,0,0-.55,3.79h0c0,.6-.08,1.2-.08,1.75h0a11.41,11.41,0,0,0,.18,2h0a4.3,4.3,0,0,0,.91,2.07,11.92,11.92,0,0,0,4,2.76c.27.13.54.23.81.33,3,1.07,6.58,1.05,9.24-1.24C1152.42,469.09,1152.94,461.64,1152.94,461.64Zm-12.51.29a5.83,5.83,0,0,1,4.08,1.93s4.33.52,3.76,4-4.17,3.66-5.28,2.4c-.93-1.07.08-2.1.42-2.4l.09-.08-1.36-.83a.83.83,0,0,1-.11.15,2.73,2.73,0,0,1-4.65-.1l-.09-.14a3.3,3.3,0,0,1-.28-.7h0a3.51,3.51,0,0,1,2.7-4.16,4.41,4.41,0,0,1,.72-.08Z"/><path class="cls-39" d="M1147,465.33a23.76,23.76,0,0,0-1.6,3.14l-.6-.15c-2.72-.69-3.75-1.9-4.08-3a3.57,3.57,0,0,1,0-1.72,3.35,3.35,0,0,1,.32-.92,13.12,13.12,0,0,0,5.07,2.44A7,7,0,0,0,1147,465.33Z"/><path class="cls-7" d="M1146.05,465.09l-.49.91c-2.57-.64-4.29-1.45-4.89-2.43a3.33,3.33,0,0,1,.31-.92A13.26,13.26,0,0,0,1146.05,465.09Z"/><path class="cls-47" d="M1144.74,468.33c-2.72-.68-3.76-1.9-4.09-3a8.89,8.89,0,0,1,2.87,1.35A3.39,3.39,0,0,1,1144.74,468.33Z"/><path class="cls-39" d="M1141.54,439.22c-8-.34-13.61,4.83-11.91,17,1,6.88,3.12,10.12,3.12,10.12-1.48-3.37-.68-9.72.4-9.83s.92,1.13.92,1.13c2.46-1.36,5.18-5.54,4.2-8.42-2.25-6.75,6-7.31,8-4.79,0,0,4.18,2.67,5.89.6S1149,435.54,1141.54,439.22Z"/><path class="cls-43" d="M1128,456.48a7.33,7.33,0,0,0,3.29,4.5c2.18,1.31,4-.49,3.92-2.91,0-2.16-1.21-5.51-3.7-5.81a3.27,3.27,0,0,0-3.51,4.22Z"/><path class="cls-7" d="M1145,548.65a.3.3,0,0,1-.23-.11.28.28,0,0,1,.06-.39h0c1.44-1.13,2-4.64,2.25-6.43-.89,1.21-2.61,3.22-4.23,3.55a2,2,0,0,1-1.57-.3c-1-.69-1.12-1.37-1-1.82.37-1.38,3.09-2.44,7.1-2.74h.24c1.13,0,5.63.11,6.82,1.89a1.89,1.89,0,0,1,.12,1.92,1.69,1.69,0,0,1-1.35,1.18c-1.56.22-3.7-1.85-5-3.28.72,1.86,2,4.94,3,6.06a.27.27,0,0,1,0,.39.28.28,0,0,1-.4,0h0c-1.19-1.28-2.59-4.77-3.29-6.6-.24,1.9-.87,5.45-2.44,6.64A.33.33,0,0,1,1145,548.65Zm3-7.68c1.21,1.46,3.69,4.08,5.14,3.88a1.18,1.18,0,0,0,.91-.84,1.38,1.38,0,0,0-.06-1.4c-.88-1.28-4.21-1.61-6-1.64Zm-1.12,0c-3.83.38-5.77,1.39-6,2.25-.12.49.33.93.74,1.21a1.41,1.41,0,0,0,1.13.21c1.57-.24,3.38-2.59,4.11-3.62Z"/><g class="cls-48"><path class="cls-7" d="M1128.74,530.78c-1.76.21-3.27-.75-6-1.13a9.88,9.88,0,0,0-2.66.09c-.27-1.78-.57-3.58-.87-5.36,2.3-.82,5.72-1.91,6.87-1.62,1.78.44,3.1,3.78,5.33,3.78s6.24-.89,7,1.12S1130.5,530.57,1128.74,530.78Z"/><path class="cls-7" d="M1164.52,528.49c-.09,2.62-.2,5.09-.31,7.38-1.27.13-2.68.23-4,.24-4,0-3.61-1.33-6.75-2.25s-6.85.89-14,0,4.24-2,9.89-3.08,5.47-1.37,9.78-2A31.63,31.63,0,0,1,1164.52,528.49Z"/><path class="cls-7" d="M1164.67,522.49h0c-4,.15-9.62.62-11.73.21-3.28-.61-4-1.9-7.73-2.25s-12.78.53-8.28-2.8c4.23-3.13,12-1.31,13.5-1.12s-.81,4,1.79,3.9,9,.59,10.12,0,2.67-1.66,0-3.9-.48-3.11,2.25-3.13C1164.7,516.55,1164.71,519.59,1164.67,522.49Z"/><path class="cls-7" d="M1132.84,514.09c-5,0-4.75,3.37-7.43,2.46-1.23-.42-4.32.82-7.19,2.07-.43-2.5-.85-5-1.22-7.34l.69-.89c2.4-.62,5.41-1,7.29,0,3.55,1.92,4,.58,6.44,1.26S1137.81,514.09,1132.84,514.09Z"/><path class="cls-7" d="M1164.32,507.62c-.76.45-1.56.93-2.25,1.4-2.25,1.46-2.25-.27-4.16-.12a12.75,12.75,0,0,1-3.38,0c-1.89-.15-.61-1.19,0-1.63s2.81-1.19,1.76-1.63a12.72,12.72,0,0,0-7-1.05c-3.56.45-8.77.45-7.8-.61s2.75-1,4.88-1.61a42,42,0,0,1,6.59-1c1.91-.23,5.93-.92,8.53-1.23.75,1.37,1.68,2.82,2.57,4.17C1164.17,505.39,1164.25,506.51,1164.32,507.62Z"/><path class="cls-7" d="M1135.22,498.67c.28,1.18-6,1.77-8.76,3.26s-2.68,2.62-4.89,2.05l-.81-.23a32.82,32.82,0,0,0,1-5.39c2.83-.45,3.78.44,7.16.31C1132.84,498.52,1134.94,497.49,1135.22,498.67Z"/><path class="cls-7" d="M1138.51,507.06a1.08,1.08,0,0,1-.3-.4l-.16-.24h0v-.07a4.3,4.3,0,0,1-1.13-.18.7.7,0,0,1-.48-.84,11.47,11.47,0,0,1-1.3-.25c-1.36-.45-1.38-.33-4.27,0a2.79,2.79,0,0,0-2.37,2.48c0,.86,4.6.18,7.22.16a8.31,8.31,0,0,0,2.9-.64Z"/><path class="cls-7" d="M1159.74,495.82a26.15,26.15,0,0,1-4.36,1.06c-4.5.66-8.45.9-7,0s.87-1.33,0-1.63-3.28.3-4.64,0a10,10,0,0,1-4.17-3.14,9.07,9.07,0,0,0,2.44-.17,8.92,8.92,0,0,0,3.21-1.27h0a29.46,29.46,0,0,0,9.23.13c1.54-.21,2.86-.37,3.91-.47C1158.93,492.47,1159.42,494.45,1159.74,495.82Z"/><path class="cls-7" d="M1130.7,486.47a7.21,7.21,0,0,1-2.77.33c-4-.3-5,.19-6.26,0-.15-1.32-.32-2.45-.45-3.31,1.73-.48,4.5-1.05,6.68-1.44A28.19,28.19,0,0,0,1130.7,486.47Z"/><path class="cls-7" d="M1152.94,482.67a5.16,5.16,0,0,1-4.3,3.46,13.88,13.88,0,0,0,.63-3.72C1151.49,481.75,1153.39,480.86,1152.94,482.67Z"/><path class="cls-7" d="M1133.49,492.75c.17.9-.75.72-2,.86s-3.48-.74-5.3-.86-1.13-1.95,0-2.25,3.37-1.12,6.58-1.78h0a14.46,14.46,0,0,0,2.53,1.95C1134,491.43,1133.28,491.84,1133.49,492.75Z"/></g><path class="cls-49" d="M1148.65,737.15l1.13-5.34.2-9.63h8a2,2,0,0,1,3.22-1.31l1.12,8.89c2,1.83,6.83,3.75,13.2,5.15,1.42.31,1,3.73-2.5,3.73s-11-.26-13.55-.26c-4.09,0-6.45.2-9.7.25h-.27a1.21,1.21,0,0,1-.9-1.46Z"/><path class="cls-49" d="M1112,737.15l1.18-5.34,1.78-9.63H1123a2,2,0,0,1,2.16-1.75,1.9,1.9,0,0,1,1,.44l-.47,8.89c2,1.83,6.83,3.75,13.19,5.15,1.42.31,1,3.73-2.49,3.73s-11-.26-13.57-.26c-4.07,0-6.43.2-9.68.25h-.27a1.21,1.21,0,0,1-.94-1.44Z"/></g></g><g id="freepik--Treadmill--inject-15"><polygon class="cls-39" points="637.9 636.22 649.5 564.95 645.1 558.87 642.06 558.87 628.47 637.17 638.06 732.41 641.1 732.41 650.47 732.41 653.5 732.41 637.9 636.22"/><polygon class="cls-50" points="642.06 558.87 646.47 564.95 634.87 636.22 650.47 732.41 638.06 732.41 628.47 637.17 642.06 558.87"/><polygon class="cls-39" points="702.6 636.22 714.2 564.95 709.79 558.87 706.77 558.87 693.16 637.17 702.77 732.41 705.79 732.41 715.16 732.41 718.2 732.41 702.6 636.22"/><polygon class="cls-50" points="706.77 558.87 711.16 564.95 699.57 636.22 715.16 732.41 702.77 732.41 693.16 637.17 706.77 558.87"/><path class="cls-39" d="M723.65,735.92V717.49a5.65,5.65,0,0,1,5.67-5.65,6.09,6.09,0,0,1,1,.09l96.78,18.44a5.64,5.64,0,0,1,4.6,5.55h0a5.67,5.67,0,0,1-5.66,5.65H729.31A5.66,5.66,0,0,1,723.65,735.92Z"/><path class="cls-50" d="M831.67,735.91a5.64,5.64,0,0,1-5.62,5.65H729.3a5.65,5.65,0,0,1-5.65-5.65h0V717.49a5.58,5.58,0,0,1,2.66-4.79,5.68,5.68,0,0,1,4.06-.77l96.77,18.43A5.64,5.64,0,0,1,831.67,735.91Z"/><path class="cls-50" d="M823.59,735.91a5.65,5.65,0,0,1-5.63,5.65H729.3a5.65,5.65,0,0,1-5.65-5.65h0V717.49a5.58,5.58,0,0,1,2.66-4.79L819,730.36A5.64,5.64,0,0,1,823.59,735.91Z"/><path class="cls-39" d="M628.47,714.44v24h191v-3.51a3.21,3.21,0,0,0-2.59-3.14l-90.61-17.31Z"/><path class="cls-39" d="M818.62,739.32H725.24v-3.81h93.38a1.9,1.9,0,0,1,1.9,1.9h0a1.91,1.91,0,0,1-1.9,1.91Z"/><path class="cls-40" d="M818.62,739.32H725.24v-3.81h93.38a1.9,1.9,0,0,1,1.9,1.9h0a1.91,1.91,0,0,1-1.9,1.91Z"/><path class="cls-39" d="M621.55,735.92V717.49a5.66,5.66,0,0,1,5.65-5.66,5.74,5.74,0,0,1,1.09.1L725,730.37a5.65,5.65,0,0,1,4.59,5.55h0a5.66,5.66,0,0,1-5.65,5.65H627.19A5.66,5.66,0,0,1,621.55,735.92Z"/><path class="cls-50" d="M729.58,735.91a5.65,5.65,0,0,1-5.65,5.65H627.19a5.65,5.65,0,0,1-5.65-5.63V717.49a5.67,5.67,0,0,1,5.67-5.66,6.57,6.57,0,0,1,1.08.1L725,730.36A5.65,5.65,0,0,1,729.58,735.91Z"/><path class="cls-50" d="M721.49,735.91a5.64,5.64,0,0,1-5.64,5.65H627.19a5.65,5.65,0,0,1-5.65-5.63V717.49a5.63,5.63,0,0,1,2.66-4.79l92.69,17.66A5.64,5.64,0,0,1,721.49,735.91Z"/><path class="cls-39" d="M632.93,574.2a2.57,2.57,0,0,1-1.09-.26l-18.58-9.29a2.52,2.52,0,0,1,1.09-4.78H732.87a1.77,1.77,0,0,1,.46,0l36.85,6.79a2.53,2.53,0,1,1-.92,5h0l-36.63-6.76H625l9,4.5a2.53,2.53,0,0,1-1.09,4.79Z"/><path class="cls-39" d="M642.06,558.87l2.35-2a4,4,0,0,1,2.59-1h53.4a15.1,15.1,0,0,1,7,1.74l.77.4a14.33,14.33,0,0,1,4.09,3.17,6.16,6.16,0,0,1,1.87,3.74H646.27S647,559.7,642.06,558.87Z"/><path class="cls-39" d="M653.42,544.91h37.51a5.28,5.28,0,0,1,5.26,4.7l1.63,14.2a5.3,5.3,0,0,1-4.67,5.87q-.3,0-.6,0H668a5.29,5.29,0,0,1-3.7-1.51L649.75,554a5.31,5.31,0,0,1-.88-6.44h0A5.33,5.33,0,0,1,653.42,544.91Z"/><path class="cls-50" d="M653.42,544.91h37.51a5.28,5.28,0,0,1,5.26,4.7l1.63,14.2a5.3,5.3,0,0,1-4.67,5.87q-.3,0-.6,0H668a5.29,5.29,0,0,1-3.7-1.51L649.75,554a5.31,5.31,0,0,1-.88-6.44h0A5.33,5.33,0,0,1,653.42,544.91Z"/><polygon class="cls-39" points="659.35 548.5 688.92 548.5 692.93 560.37 666.94 560.37 659.35 548.5"/><polygon class="cls-45" points="664.06 548.5 670.59 560.37 690.05 560.37 685.92 548.5 664.06 548.5"/></g><g id="freepik--character-1--inject-15"><path class="cls-51" d="M751.75,594c-.12.71-.26,1.43-.41,2.18a201.74,201.74,0,0,1-6.61,24.41c-4.66,14.05-9.92,26.46-11.88,30.69-3.2,6.87-23.89,66.55-23.89,66.55l-4.9-1s11.26-55.32,14.92-73.15c.21-1,.38-1.89.54-2.65,1-4.85,7.5-31.34,10.92-45.32.29-1.09.54-2.18.78-3.13.83-3.41,1.35-5.53,1.35-5.53s-16.18-11.68-17.48-31.92a42.54,42.54,0,0,1,0-5.05l29.5-1.54S755.71,571.9,751.75,594Z"/><path class="cls-44" d="M744.73,620.55c-4.66,14.05-9.92,26.46-11.88,30.69-3.2,6.87-23.89,66.55-23.89,66.55l-4.9-1s11.26-55.32,14.92-73.15c.21-1,.38-1.89.54-2.65,1-4.85,7.5-31.34,10.92-45.32.29-1.09.54-2.18.78-3.13,2.59-4.57,4.73-6.65,6.12-5.18C742.81,593.14,744.35,609.2,744.73,620.55Z"/><path class="cls-51" d="M734.54,632,721.6,645.45c6.78,2.11,12.81,3.49,18.44,5.46,13.18,4.62,66.42,20.54,66.42,20.54l1-5s-41.94-25.29-70.06-32.29Z"/><path class="cls-45" d="M803.53,662.54c-.66,0-.4,8.15-.4,8.15s4.94,5.16,5.94,10.06,4,2.27,4.16-3.17.29-9.58.41-13.45S810.4,662.58,803.53,662.54Z"/><path class="cls-45" d="M805.09,675a1.18,1.18,0,0,1-.22.72.77.77,0,0,1-.87.16.87.87,0,0,1-.54-.45,3.27,3.27,0,0,1-.15-1.83c-.37.65-.82,1.22-1.25,1.23s-.5-.18-.66-.55a1.25,1.25,0,0,1,0-1.1c.49-1.09,2.4-1.7,2.5-1.73h.15a.2.2,0,0,1,.06.07A10.28,10.28,0,0,1,805.09,675Zm-1.4-.74a2.14,2.14,0,0,0,.14,1,.5.5,0,0,0,.29.24.52.52,0,0,0,.42,0c.33-.39-.07-1.88-.54-3.1a9.44,9.44,0,0,0-.31,1.89Zm-2-.54a1,1,0,0,0,.08.38c0,.11.15.31.26.3.37,0,1.09-1.15,1.53-2.34a3.48,3.48,0,0,0-1.79,1.34.89.89,0,0,0-.08.32Z"/><path class="cls-51" d="M748.36,549s-5.89,3.48-6.64,3.54-4.12,0-4.19-.26-.17-5.13-.17-5.13l5.34-2.52s3.28-.54,5,.27Z"/><path class="cls-51" d="M748.39,509.57a67.94,67.94,0,0,1,10.22,8.94,45.32,45.32,0,0,1,8,11.41,27.08,27.08,0,0,1,1.35,3.47,12.38,12.38,0,0,1,.34,1.23,6.65,6.65,0,0,1,.09,1.89,7,7,0,0,1-1.09,3.13,11.39,11.39,0,0,1-3.28,3.28,19.86,19.86,0,0,1-3.22,1.87A49.65,49.65,0,0,1,748,548.65a2.19,2.19,0,0,1-1.29-4.16h.1a78.44,78.44,0,0,0,10.68-5.66,18.34,18.34,0,0,0,2.1-1.62,3.76,3.76,0,0,0,1.09-1.35c0-.12,0-.06-.08.13s.08.69-.16,0a19.06,19.06,0,0,0-1.09-2.39,42.67,42.67,0,0,0-7-9c-1.38-1.41-2.88-2.75-4.37-4.08s-3.13-2.61-4.59-3.71l-.1-.08a4.41,4.41,0,0,1,5.17-7.14Z"/><path class="cls-51" d="M733.46,493.3c-.82,4.37,0,11.65,3,14.42,0,0-2.94,4.37-11,4.65-8.89.33-4.29-4.2-4.29-4.2,4.84-1.34,4.68-4.89,3.81-8.21Z"/><path class="cls-39" d="M715.75,487c.06.58-.2,1.1-.58,1.15s-.74-.38-.81-1,.2-1.09.59-1.09S715.69,486.43,715.75,487Z"/><path class="cls-39" d="M715.11,486.06l-1.44-.22S714.5,486.84,715.11,486.06Z"/><path class="cls-52" d="M715.32,487.65a16,16,0,0,1-1.7,4,2.49,2.49,0,0,0,2.18.12Z"/><path class="cls-39" d="M714.6,483.23a.22.22,0,0,0,.16,0,2.86,2.86,0,0,1,2.55,0,.35.35,0,0,0,.47-.13.33.33,0,0,0-.11-.46h0a3.58,3.58,0,0,0-3.19,0,.34.34,0,0,0-.17.45h0A.3.3,0,0,0,714.6,483.23Z"/><path class="cls-51" d="M735.21,482.78c.31,7.22.6,10.26-2.65,14.42-4.89,6.25-13.86,5.32-16.39-1.59-2.18-6.22-2.36-17,4.37-20.76a9.67,9.67,0,0,1,14.67,7.93Z"/><path class="cls-45" d="M710.87,716.82c.15-.65-7.88-2.08-7.88-2.08s-6.08,3.76-11.08,3.72-3,3.43,2.24,4.73l13.11,3.19C711,727.3,709.4,723.53,710.87,716.82Z"/><path class="cls-45" d="M698.33,715.75a1.17,1.17,0,0,1-.65-.36.78.78,0,0,1,0-.9.85.85,0,0,1,.54-.42,3.2,3.2,0,0,1,1.83.24c-.56-.51-1-1.1-.94-1.48s.27-.46.67-.55a1.3,1.3,0,0,1,1,.23c1,.7,1.18,2.7,1.19,2.8a.14.14,0,0,1,0,.09h0v.06h-.07A10.41,10.41,0,0,1,698.33,715.75Zm1-1.24a2,2,0,0,0-1,0,.46.46,0,0,0-.29.22c-.16.29-.08.4,0,.43.29.4,1.84.31,3.13.11A9.52,9.52,0,0,0,699.3,714.51Zm.94-1.82a.81.81,0,0,0-.38,0c-.12,0-.33.09-.35.2-.06.36.92,1.24,2,2a3.61,3.61,0,0,0-.94-2,.93.93,0,0,0-.27-.12Z"/><path class="cls-51" d="M717.52,516.38c-1.91,3.72-3.9,7.33-6,10.93s-4.4,7.29-6.86,10.76l-1.1,1.44-.36.41c-.15.15-.21.25-.44.46l-.31.28-.39.32a6,6,0,0,1-1.26.7,5.12,5.12,0,0,1-3.28.16,6,6,0,0,1-2-1,8.73,8.73,0,0,1-1.78-2,20.76,20.76,0,0,1-1.77-3.28c-.45-1.09-.82-2.11-1.17-3.15A75.81,75.81,0,0,1,688,520a2.19,2.19,0,0,1,4.2-1.18h0c1.6,3.71,3.17,7.51,4.93,11,.43.86.88,1.71,1.35,2.49a12.42,12.42,0,0,0,1.37,2c.19.22.42.39.34.27a1.75,1.75,0,0,0-.64-.32,2.88,2.88,0,0,0-1.74.08,3,3,0,0,0-.59.31l-.09.07h0a.14.14,0,0,1,.06-.11l.14-.17a11.72,11.72,0,0,0,.7-1.09c1-1.57,2-3.28,3-5.06l2.94-5.32,5.84-10.76a4.41,4.41,0,1,1,7.8,4.11Z"/><path class="cls-51" d="M687.48,518.41s-1.16-6.75-.93-7.48,1.48-3.85,1.74-3.81,4.85,1.67,4.85,1.67l.44,5.9s-.67,3.28-2,4.55Z"/><path class="cls-39" d="M716.94,482.73S720,497.2,732.56,497.2c1.73,0,5.16-4,6.56-11.15A12.45,12.45,0,0,0,730,472C717.24,468.59,713.63,481.45,716.94,482.73Z"/><path class="cls-51" d="M720.66,487.11a6.46,6.46,0,0,1-.54,3.9c-.8,1.71-2.19,1.56-2.76.26s-.75-3.48.44-4.79S720.37,485.65,720.66,487.11Z"/><path class="cls-51" d="M736.45,584.49c-.52,3-1,6.66-1.45,10.59-1.83,16.89-2.92,39.24-2.92,39.24l-10.44,11.13a10.62,10.62,0,0,1-2.63-1.81c-7.64-7.08-9-26.47-8.35-45.3a367,367,0,0,1,4.49-43.26h0C715.75,555.44,739.21,568.78,736.45,584.49Z"/><path class="cls-51" d="M749.5,510.32A100,100,0,0,0,745,526.88c-.07.34-.13.67-.18,1a70.67,70.67,0,0,0-1,9.17,44.36,44.36,0,0,0,.86,11.44L715.11,550s-1.09-3.27-2.35-8.29c-.59-2.42-1.21-5.25-1.74-8.3-.08-.49-.17-1-.24-1.5-1.1-6.74-1.64-14.32-.47-20.83a35.38,35.38,0,0,1,7.09-3.56l1.39-.49c1-.35,2.06-.66,3.2-1l1.35-.28a41.54,41.54,0,0,1,6.66-.93,32,32,0,0,1,7.75.52c.41.09.79.17,1.17.27a26.53,26.53,0,0,1,3.16.91c.37.12.73.25,1.09.39A25.89,25.89,0,0,1,749.5,510.32Z"/><path class="cls-39" d="M745,526.88c-.07.34-.13.67-.18,1a70.67,70.67,0,0,0-1,9.17l-.89,2.86-30.1,1.83c-.59-2.42-1.21-5.25-1.74-8.3-.08-.49-.17-1-.24-1.5,3.15-2.18,12-8.74,12.87-12.71s-4.6-10-6.25-11.68l1.39-.49c1-.35,2.06-.66,3.2-1l1.35-.28c1.44,2.12,5.15,6.88,8.69,6.61,3.75-.28,5.3-5.29,5.72-7,.41.09.79.17,1.17.27a26.53,26.53,0,0,1,3.16.91c.37.12.73.25,1.09.39-.76,2.66-2.57,9.26-2.47,12.31C740.82,521.81,743.27,525,745,526.88Z"/><path class="cls-45" d="M744.61,548.5,715.11,550s-1.09-3.27-2.35-8.29c-.59-2.42-1.21-5.25-1.74-8.3,3.74-2.07,14-8.23,14.1-13.67.1-5-4.16-10.31-6.33-12.71,1-.35,2.06-.66,3.2-1,2.63,3,7.35,7.65,11,7.08s5.32-5,6-7.56a26.57,26.57,0,0,1,3.16.92c-1.26,3.76-3.52,11.22-2.75,13.76.62,2.08,3.35,5.33,5.46,7.58a74.34,74.34,0,0,0-1,9.17A44.34,44.34,0,0,0,744.61,548.5Z"/><path class="cls-39" d="M751.75,594c-.12.71-.26,1.43-.41,2.18l-14.68-1.28-1.67.22-4.57.62-19.84,2.67a367.25,367.25,0,0,1,4.49-43.26h0a42.37,42.37,0,0,1,0-5l29.5-1.54S755.71,571.9,751.75,594Z"/><path class="cls-44" d="M735,595.05l2.33-6.75s8.4-.41,12.14-4.54c0,0-2.38,7.49-8.12,11.47Z"/><path class="cls-39" d="M732.08,473.51s.61-4.61,7.31-6.92,7.89,13.4,11.89,17.2,8.1-1.09,8.1-1.09-.2,7.56-8.2,7.56-15.1-12-15.1-12l-3.28-.83Z"/><path class="cls-49" d="M803.53,662.54c-.66,0-.4,8.15-.4,8.15s4.94,5.16,5.94,10.06,4,2.27,4.16-3.17.29-9.58.41-13.45S810.4,662.58,803.53,662.54Z"/><path class="cls-49" d="M710.87,716.82c.15-.65-7.88-2.08-7.88-2.08s-6.08,3.76-11.08,3.72-3,3.43,2.24,4.73l13.11,3.19C711,727.3,709.4,723.53,710.87,716.82Z"/></g><polyline class="cls-50" points="482.1 827.76 723.88 850.44 510.85 1067.72 149.27 1067.32"/><g id="freepik--Ball--inject-1"><ellipse class="cls-45" cx="574.52" cy="841.04" rx="97.39" ry="104.05"/><g class="cls-53"><path class="cls-7" d="M670.22,860.4a297.76,297.76,0,0,1-77.68,82.88c1.34-.27,2.67-.57,4-.9a298.94,298.94,0,0,0,72.82-77.68C669.62,863.27,670,861.83,670.22,860.4Z"/><path class="cls-7" d="M671.4,830.4c-.09-.91-.19-1.82-.31-2.73-26.85,47.85-64.35,87.88-109.17,116.52l2.54.31C608.17,916.2,644.85,877.06,671.4,830.4Z"/><path class="cls-7" d="M666.55,806.88c-.22-.67-.47-1.33-.71-2-30.18,55.42-73.35,101.5-125.25,133.7l1.9.73C593.77,907.23,636.49,861.64,666.55,806.88Z"/><path class="cls-7" d="M658.72,788.72c-.29-.55-.62-1.09-.91-1.57C625.39,846.24,579.3,895.44,524,930l1.47,1C580.46,896.44,626.33,847.47,658.72,788.72Z"/><path class="cls-7" d="M649,774c-.35-.46-.72-.9-1.07-1.34-33.9,60.17-81.09,110.54-137.43,146.71l1.25,1.14C568,884.35,615.11,834.06,649,774Z"/><path class="cls-7" d="M637.69,761.88c-.4-.38-.79-.75-1.21-1.1C601.8,820.1,554.89,870.17,499.35,907.19l1,1.27C556,871.37,602.94,821.25,637.69,761.88Z"/><path class="cls-7" d="M620.1,749.06l-1.34-.72c-31.49,58-76.66,106.25-131,139.84.22.47.43,1,.66,1.43C543.05,855.87,588.46,807.41,620.1,749.06Z"/><path class="cls-7" d="M599.94,740.61l-1.47-.41c-27.21,53.47-68.33,97.37-118.4,126.4.12.51.25,1,.37,1.5C531,838.89,572.53,794.59,599.94,740.61Z"/><path class="cls-7" d="M577.36,737h-1.47c-22.21,44.94-56.61,81.67-98.7,105.35v1.57C520,820,554.93,782.71,577.36,737Z"/><path class="cls-7" d="M479.89,816.76c30.33-17.89,55.32-44.58,72.07-77l-1.69.46a189.35,189.35,0,0,1-69.95,74.65A6.81,6.81,0,0,0,479.89,816.76Z"/></g></g><g id="freepik--Character--inject-1"><ellipse class="cls-39" cx="429.67" cy="574.05" rx="17.49" ry="15.9"/><path class="cls-39" d="M435.08,592.38a.92.92,0,0,1-1-.86.9.9,0,0,1,.7-.84c8.77-2.26,13.87-10.56,11.38-18.54a15.34,15.34,0,0,0-7.87-9,17.82,17.82,0,0,0-12.58-1.35.91.91,0,0,1-1-.85.83.83,0,0,1,.45-.74c9.79-2.52,20,2.66,22.74,11.56s-2.93,18.17-12.72,20.68Z"/><path class="cls-39" d="M441.32,592.68a.91.91,0,0,1-1-.78.87.87,0,0,1,.51-.82c8.13-3.77,11.37-12.82,7.22-20.22s-14.11-10.34-22.25-6.57a17.34,17.34,0,0,0-2.19,1.23,1,1,0,0,1-1.28-.38.82.82,0,0,1,.29-1.09c8.7-4.82,20-2.32,25.34,5.59s2.55,18.22-6.15,23h0A1,1,0,0,1,441.32,592.68Z"/><path class="cls-54" d="M381.15,629.53a246.57,246.57,0,0,1-27.73-15.88,133,133,0,0,1-13.06-9.7,64.52,64.52,0,0,1-6.18-6,27.29,27.29,0,0,1-5.45-8.5l-.25-.74-.3-.86-.08-.42v-.86l-.28-2.28c0-1.3-.16-2.64-.18-3.92v-7.49c.11-4.92.42-9.78.74-14.64.72-9.7,1.76-19.32,3.18-29a4.26,4.26,0,0,1,4.88-3.31,4.08,4.08,0,0,1,3.68,3.63h0c.54,9.59.95,19.17,1.35,28.76.19,4.8.47,9.59.74,14.26.14,2.34.33,4.68.56,6.93l.39,3.29a9.53,9.53,0,0,0,.44,1.9,16.15,16.15,0,0,0,2.93,3.68,60.2,60.2,0,0,0,5,4.31c3.66,2.83,7.7,5.55,11.87,8.18s8.52,5.13,12.89,7.59,8.9,4.89,13.2,7.18l.18.08a7.5,7.5,0,0,1,3.32,10.7,9.11,9.11,0,0,1-11.77,3Z"/><path class="cls-54" d="M339.17,535.26l13.95-11.67-16.38-4.79s-10.63,7.2-5.48,14.38Z"/><path class="cls-54" d="M350.52,513l-6.08-1.45a4.81,4.81,0,0,0-5.5,2.45l-2.2,4.79,16.38,4.79.84-5.89A4.3,4.3,0,0,0,350.52,513Z"/><path class="cls-45" d="M314.57,508H321c3.61,0,6.54,2.66,6.54,5.94v13.92c0,3.28-2.93,5.94-6.54,5.94h-6.46c-3.61,0-6.54-2.66-6.54-5.94V513.94C308,510.66,311,508,314.57,508Z"/><path class="cls-45" d="M364,508h6.47c3.61,0,6.53,2.66,6.53,5.94v13.92c0,3.28-2.92,5.94-6.53,5.94H364c-3.61,0-6.54-2.66-6.54-5.94V513.94C357.46,510.66,360.39,508,364,508Z"/><path class="cls-45" d="M363.82,524H321.16a3.35,3.35,0,0,1-3.41-3.19h0a3.27,3.27,0,0,1,3.41-3h42.61a3.37,3.37,0,0,1,3.41,3.1h0A3.35,3.35,0,0,1,363.82,524Z"/><path class="cls-45" d="M370.61,624.54c-.28,11.19,1.44,34.39,10.07,82.61h68.76c-1.07-23.55-2.32-39,8.14-82.61,1.38-5.8-2.67-11.53-9.05-12.79-.31-.06-.62-.11-.94-.15-4.42-.54-9.68-1.05-15.16-1.29a239.3,239.3,0,0,0-31.23,0c-6.71.56-13.9,1.59-19.33,2.39C375.48,613.68,370.75,618.65,370.61,624.54Z"/><path class="cls-45" d="M401.2,610.26c-12.3-5-29.52-6.11-29.52-6.11a64.46,64.46,0,0,0-5.63,26c18.61,3.88,26.56,1.37,27.95-3S401.2,610.26,401.2,610.26Z"/><path class="cls-54" d="M429.34,578.3c-2,9.14-3.94,25.87,3.09,32,0,0-5.94,15-27.94,17.73-12.46-9.34-3.29-17.73-3.29-17.73,11.21-2.45,10.91-10,9-17.1Z"/><path class="cls-44" d="M421.52,584.41l-11.34,8.8a28.83,28.83,0,0,1,1,5c4.27-.56,10.15-4.79,10.54-8.9A12.59,12.59,0,0,0,421.52,584.41Z"/><path class="cls-54" d="M441.27,566.65c-6.61,14.05-9.07,20.12-19.95,24.9-16.34,7.2-33.88-3.2-32-18.81,1.67-14,12.2-34.62,29.88-35.33,12.6-.62,23.37,8.16,24.05,19.61A19.1,19.1,0,0,1,441.27,566.65Z"/><path class="cls-39" d="M415.89,535.26c1-3.36-3.83-20.51-16-18.41S384.42,540,405.51,542C405.51,542,413.06,544.47,415.89,535.26Z"/><path class="cls-45" d="M413.92,544.83c-5.71,3.53-13,2.84-16.23-1.6s-1.27-10.77,4.44-14.29,13-2.84,16.24,1.6S419.56,541.31,413.92,544.83Z"/><path class="cls-39" d="M429.67,528.59c-14.8-4.14-32.14,3.45-31.63,18,23.14,1,25.44,8.29,34.41,8.29-4,4.8-6.21,19,2.77,17,16.42,6.39,22.6-10,19.12-15C457.38,544.16,446,533.18,429.67,528.59Z"/><ellipse class="cls-45" cx="450.7" cy="551.47" rx="10.51" ry="12.51"/><path class="cls-39" d="M448.82,544.86c2.52-3,23.39-11.51,29.88-.19s-11.21,28.2-28.86,13.71C449.86,558.38,441.92,553.09,448.82,544.86Z"/><path class="cls-54" d="M382.13,707.9s-24.37,95.52-34.61,141.54C336.83,897.38,314,1026.6,314,1026.6l14.06-.83s44.93-110.26,54-170.1c20.28-49.69,52-149.54,52-149.54Z"/><path class="cls-45" d="M313.11,1025.56l5.27-27s13.25-2.12,22.4-3.05c-3.51,7.91-12,30-12,30Z"/><path class="cls-39" d="M314,1024.1l14.33-.35a1.44,1.44,0,0,1,1.52,1l2.78,12.18a2.66,2.66,0,0,1-2.55,2.83,2.44,2.44,0,0,1-.38,0c-7.4,0-7.84-.27-17.16,0-5.74.13-16.14,2.35-23.91,1.07s-4.78-7.07-1.41-7c12.22.2,13.48-3.19,23.66-8.66A6.84,6.84,0,0,1,314,1024.1Z"/><path class="cls-54" d="M449.44,707.15S491.61,797.86,495,849.09c21.22,44.74,40.26,177.51,40.26,177.51l-14.06-.83s-33.39-105.21-58.59-169C442.3,807,394.08,708,394.08,708Z"/><path class="cls-45" d="M520.17,1025.56l-9.63-30.07a193.22,193.22,0,0,1,20.84,1.18c1.44,8.12,3.83,28.3,3.83,28.3Z"/><path class="cls-39" d="M521.75,1024.1l13-.32a1.36,1.36,0,0,1,1.41,1l2.54,12.18a2.53,2.53,0,0,1-2.34,2.8l-.33,0c-6.69,0-7-.29-15.51-.08-5.28.12-7.38,1-12.76,1-7,0-4.24-6.28-1.3-7,6.85-1.79,9.65-6.14,12.49-8.61A4.55,4.55,0,0,1,521.75,1024.1Z"/><path class="cls-39" d="M415.73,562.88c-.45,1.18-1.51,1.9-2.35,1.6s-1.14-1.44-.69-2.6,1.51-1.91,2.36-1.6S416.19,561.72,415.73,562.88Z"/><path class="cls-39" d="M401.2,558.17c-.46,1.16-1.51,1.9-2.35,1.6s-1.16-1.44-.71-2.62,1.53-1.89,2.36-1.6S401.66,557,401.2,558.17Z"/><path class="cls-39" d="M400.85,555.74l-2.78-1.81S398.81,556.63,400.85,555.74Z"/><path class="cls-55" d="M404.26,561.43a35.88,35.88,0,0,1-7.52,6,5.92,5.92,0,0,0,4.27,2.27Z"/><path class="cls-39" d="M406,576.27a11.31,11.31,0,0,1-2.23-.53.34.34,0,0,1-.24-.46.42.42,0,0,1,.52-.22,11.69,11.69,0,0,0,9.72-.93.45.45,0,0,1,.56,0,.35.35,0,0,1,0,.51A12.13,12.13,0,0,1,406,576.27Z"/><path class="cls-54" d="M442,575.35a12.38,12.38,0,0,1-7.66,4.92c-4.2.83-6.06-2.64-4.69-6.14,1.24-3.19,4.92-7.37,9.05-6.63a5,5,0,0,1,4.22,6A4.83,4.83,0,0,1,442,575.35Z"/><path class="cls-39" d="M420.36,557.94a.71.71,0,0,1-.5-.35,6.46,6.46,0,0,0-4.69-3.08.79.79,0,0,1-.86-.69.77.77,0,0,1,.75-.78.78.78,0,0,1,.22,0,8,8,0,0,1,6,3.83.7.7,0,0,1-.32,1A.8.8,0,0,1,420.36,557.94Z"/><path class="cls-39" d="M396.81,549.75a.71.71,0,0,1,.16-1.33,8.59,8.59,0,0,1,7.22,1.09.67.67,0,0,1,.11,1h0a.88.88,0,0,1-1.14.1,6.79,6.79,0,0,0-5.71-.82A.86.86,0,0,1,396.81,549.75Z"/><path class="cls-39" d="M415.38,560.47l-2.76-1.82S413.34,561.36,415.38,560.47Z"/><path class="cls-39" d="M380.9,710.56l69.79-2a1,1,0,0,0,1-.94.76.76,0,0,0,0-.21L450.56,704a1,1,0,0,0-1-.66l-68.87,2a1,1,0,0,0-1,.94l.13,3.36a.94.94,0,0,0,1,.88Z"/><path class="cls-39" d="M438.72,706.13s-14.81,52.73-29,78.53c-13.25,3-41.61-12-44.93-18.34,7.26-34.54,11.88-52.6,17.34-58.48C413.77,708.33,438.72,706.13,438.72,706.13Z"/><path class="cls-44" d="M414.29,731.14c-6.08,12.28-4.9,34.21-2.35,49.53a269.3,269.3,0,0,0,10.81-25.44Z"/><path class="cls-39" d="M391,707.33s19.33,51.61,33.58,77.4c14.43-.58,48.6-14.57,51.91-20.87-7.24-34.55-21.58-51.8-27-57.73C417.81,706.61,391,707.33,391,707.33Z"/><path class="cls-54" d="M452.25,614.37c8.28,2.2,17,4.31,25.41,5.89a110.33,110.33,0,0,0,12.3,1.6,31.87,31.87,0,0,0,5.17,0,10,10,0,0,0,1.35-.21c.11,0,0,0-.09.15l-.28.27-.16.19h0a38.47,38.47,0,0,0,2.92-4.43c1-1.69,1.95-3.47,2.9-5.27,1.86-3.63,3.73-7.33,5.5-11.09l10.81-22.69h0a4.47,4.47,0,0,1,5.65-2.06,3.84,3.84,0,0,1,2.52,4.41c-1.86,8.24-4.09,16.35-6.75,24.43-1.35,4-2.74,8-4.36,12.1-.82,2-1.67,4-2.63,6.1a46.24,46.24,0,0,1-3.6,6.39l-.55.7a7.66,7.66,0,0,1-.72.79,11.42,11.42,0,0,1-1.53,1.32,14.7,14.7,0,0,1-3,1.71,23.25,23.25,0,0,1-5.27,1.52,43.68,43.68,0,0,1-8.47.59,108.08,108.08,0,0,1-14.82-1.32,210.91,210.91,0,0,1-27.57-6c-4.57-1.27-7.13-5.67-5.73-9.82s6.24-6.49,10.81-5.21Z"/><path class="cls-45" d="M445.27,611.33c13.32,1.76,20.18,4.79,20.18,4.79s-.81,14.14-7.61,25c-16.48-8-21.72-18.84-20.3-23.2S445.27,611.33,445.27,611.33Z"/><path class="cls-54" d="M518,582.7l-9-14.39,17.57,5.31s2.76,7-2.09,11.58Z"/><path class="cls-54" d="M515.55,560.8l6.9,1.6a4.09,4.09,0,0,1,3.31,3.5l.74,7.7-17.58-5.3,1.43-4.65A4.41,4.41,0,0,1,515.55,560.8Z"/><path class="cls-45" d="M493.94,552.07l6.37,1a6,6,0,0,1,5.28,6.9l-2.71,13.7a6.51,6.51,0,0,1-7.59,4.8l-6.36-1c-3.56-.58-5.92-3.67-5.28-6.9l2.7-13.7A6.52,6.52,0,0,1,493.94,552.07Z"/><path class="cls-45" d="M542.61,560l6.37,1a6,6,0,0,1,5.28,6.9l-2.71,13.7a6.52,6.52,0,0,1-7.59,4.8l-6.36-1c-3.56-.58-5.92-3.67-5.28-6.91l2.7-13.69A6.52,6.52,0,0,1,542.61,560Z"/><path class="cls-45" d="M539.34,575.71l-41.93-6.84a3.23,3.23,0,0,1-2.76-3.61h0a3.52,3.52,0,0,1,4-2.51l41.93,6.84a3.24,3.24,0,0,1,2.76,3.61h0A3.51,3.51,0,0,1,539.34,575.71Z"/></g><polygon class="cls-50" points="1472.26 832.05 1301.5 855.7 1508.99 1068.42 1743.82 1056.57 1472.26 832.05"/><g id="freepik--Character--inject-5"><path class="cls-39" d="M1511.63,439.12a8.88,8.88,0,0,0-5.5-5.59,4.91,4.91,0,0,1-2.87-1.46,7.44,7.44,0,0,1-.65-2.31,4.42,4.42,0,0,0-5.58-2.94l-.14.05a5.13,5.13,0,0,1-1.65.61c-2.38.14-2.84-4.58-5.23-4.43a5,5,0,0,1,1.36,2.74,2.33,2.33,0,0,1-1.39,2.49c-2.52.78-3.85-4.25-6.45-3.84-1.39.22-2.39,2-3.78,1.74a4.47,4.47,0,0,1-1.52-.81,3.57,3.57,0,0,0-4.8,1.26c-.81,1.41-.9,3.54-2.39,4a3.33,3.33,0,0,1-2.71-.83,9.88,9.88,0,0,0-.8,4.33,5.83,5.83,0,0,0-5,6.35,11.85,11.85,0,0,0-4.4,1.73,4.4,4.4,0,0,0-1.89,4.17,4,4,0,0,1,.17,1.09,2.08,2.08,0,0,1-.47,1.07,20.81,20.81,0,0,0-2.66,3.72,3,3,0,0,0,1.15,4c.33.12.73.19.92.48a1,1,0,0,1,0,.8,10.6,10.6,0,0,1-1.51,2.91,4.47,4.47,0,0,0-.86,3.11c.21,1.09,1.41,2,2.37,1.56l-3.25,4.12c-.65.83-1.33,1.86-1,2.85.47,1.29,2.33,1.32,3.46.58s1.89-2,3-2.71a7.81,7.81,0,0,0,1.39-.89c.31-.31.57-.73,1-.85.85-.22,1.39,1.1,1,1.86a4.65,4.65,0,0,1-2.13,1.56,2.46,2.46,0,0,0-1.51,2c0,.44.29.81.32,1.25.12,1.55-2.09,1.85-2.89,3.11a3.7,3.7,0,0,0,.09,3.12c.45,1.26,1.77,2.73,2.8,1.88.34-.3.49-.78.81-1.12a3.23,3.23,0,0,1,1.44-.67,6.88,6.88,0,0,0,3.23-2.27c-1.51.81-3.38,2-3.32,3.79a7.19,7.19,0,0,0,.62,2.17c.48,1.4.48,2.92.94,4.34a3.38,3.38,0,0,0,3,2.65,3.4,3.4,0,0,0,.25,4.72,3.16,3.16,0,0,0,3.35.63,2.58,2.58,0,0,1,1.12-.35,2.2,2.2,0,0,1,1.15.57,6.82,6.82,0,0,0,7.28.37l-1-1a15.71,15.71,0,0,0,7.48,1.12c2.51-.43,5-2.53,4.91-5.16,0-1.14-.4-2.48.4-3.26a2.64,2.64,0,0,1,2.18-.43l9.51.9a8.24,8.24,0,0,0,4.53-.42,3,3,0,0,0,1.51-3.95h0a8.31,8.31,0,0,1,4.27-1.83c1.74-.18,3.49.19,5.23,0a4.68,4.68,0,0,0,4.28-2.6c.63-1.66-1-4-2.62-3.3,1.32-2.35,5.64-.49,7.09-2.75,1.18-1.85-.81-4.05-1.4-6.23.56-.56,1.43-.68,2-1.23,1.23-1.15.43-3.25-.63-4.58s-2.42-2.75-2.07-4.42,2.42-2.85,2.22-4.57a1.86,1.86,0,0,0-2-1.56c.17-3.36-6-3.67-6.31-7a1.33,1.33,0,0,1,.14-.76,1.35,1.35,0,0,1,.51-.44,14.37,14.37,0,0,1,3-.72c1-.25,2.12-1,2.19-2s-1.65-1.86-2.07-.87a2.3,2.3,0,0,0-3.16-1,1.8,1.8,0,0,0-.45.31,2.49,2.49,0,0,0-2.74-1.55,7.11,7.11,0,0,0-3.12,1.43"/><path class="cls-56" d="M1492.52,430.51a3.6,3.6,0,0,1,.46.36,3,3,0,0,1,.77,1.38,3.91,3.91,0,0,1-.24,2.46,11.06,11.06,0,0,1-1.86,2.71l-.14.16.18.09a6.69,6.69,0,0,1,3,3.12,5.45,5.45,0,0,1,.09,4.79,4.83,4.83,0,0,1-3.3,2.77l-.5.1.45.23a6.18,6.18,0,0,1,3,3.88,6.12,6.12,0,0,1-.32,4,6.72,6.72,0,0,1-1.51,2.18c-.47.42-.76.59-.74.62l.22-.11a5.19,5.19,0,0,0,.59-.42,6.21,6.21,0,0,0,1.65-2.18,6.37,6.37,0,0,0,.43-4.17,6.48,6.48,0,0,0-3.18-4.11v.32a5.13,5.13,0,0,0,3.55-2.94,5.48,5.48,0,0,0,.55-2.64,6.25,6.25,0,0,0-.65-2.48,6.91,6.91,0,0,0-3.21-3.11v.23a10.67,10.67,0,0,0,1.85-2.82,4,4,0,0,0,.19-2.6,2.77,2.77,0,0,0-.87-1.41l-.38-.24Z"/><path class="cls-56" d="M1462.28,443.82l.12.19c.09.12.22.31.4.53a8.8,8.8,0,0,0,1.84,1.55,9.2,9.2,0,0,0,3.48,1.34,8.64,8.64,0,0,0,4.69-.49l-.23-.15a7.87,7.87,0,0,0,3,5.8,5.54,5.54,0,0,0,6.61,0l-.27-.16a5,5,0,0,0,.33,2.49,7,7,0,0,0,1.21,1.9,8.44,8.44,0,0,0,3,2,16.76,16.76,0,0,0,2.2.75,4.64,4.64,0,0,0,.82.19,3.78,3.78,0,0,0-.79-.3,21.74,21.74,0,0,1-2.16-.82,8.63,8.63,0,0,1-2.87-2,5.39,5.39,0,0,1-1.42-4.15v-.42l-.32.26a5.22,5.22,0,0,1-6.2,0,7.47,7.47,0,0,1-2.89-5.53v-.21l-.21.09a8.5,8.5,0,0,1-4.54.53,9,9,0,0,1-3.41-1.25A11,11,0,0,1,1462.28,443.82Z"/><path class="cls-56" d="M1465.31,465.26v.25a1.38,1.38,0,0,0,.45.59,5.19,5.19,0,0,0,2.5.82,6.23,6.23,0,0,0,3.79-.85,6.72,6.72,0,0,0,2.9-3.86h-.31a7.55,7.55,0,0,0,3.87,2.8,8,8,0,0,0,3.85.28,9,9,0,0,0,2.5-.76,3,3,0,0,0,.83-.49,13.68,13.68,0,0,1-3.36,1,8.14,8.14,0,0,1-3.73-.34,7.42,7.42,0,0,1-3.68-2.71l-.21-.3-.1.36h0a6.2,6.2,0,0,1-6.35,4.56,5.5,5.5,0,0,1-2.44-.7A1.22,1.22,0,0,1,1465.31,465.26Z"/><path class="cls-56" d="M1515.07,443a11,11,0,0,1-1.18,3.54,7.9,7.9,0,0,1-7.32,4,7.57,7.57,0,0,1-2.69-.64h-.21v.22a10.94,10.94,0,0,1-1.36,3.66,11.27,11.27,0,0,1-2,2.39,10.51,10.51,0,0,1-.91.74.92.92,0,0,1-.77.14.55.55,0,0,1-.35-.36.31.31,0,0,1,0-.19v.2a.56.56,0,0,0,.36.45.91.91,0,0,0,.89-.09,5.67,5.67,0,0,0,1-.72,10,10,0,0,0,2.07-2.41,10.71,10.71,0,0,0,1.44-3.75l-.23.12a7.84,7.84,0,0,0,2.8.69,8,8,0,0,0,7.56-4.28,8.22,8.22,0,0,0,.91-2.63c0-.26,0-.51,0-.77A2.52,2.52,0,0,0,1515.07,443Z"/><path class="cls-45" d="M1487.2,471.49c2.4-3.87,6.64-6.11,10.89-7.43a11.28,11.28,0,0,1,5.52-.61,4.82,4.82,0,0,1,3.87,3.68l-1.35,2.8c-1.36,4.92-6.38,7.55-9.71,11.35-1.51,1.65-2.88,3.73-5.05,3.84a4.46,4.46,0,0,1-3-1.23C1484.87,481,1484.8,475.27,1487.2,471.49Z"/><path class="cls-39" d="M1480.82,503.32a10.46,10.46,0,0,1,1.51-13c-1.72-2.43-.91-6,1-8.27a19.31,19.31,0,0,1,7.45-4.67,13.33,13.33,0,0,1,16-9.34c3.69-5.09,11.09-5.58,16.92-3.54a15.36,15.36,0,0,0,4.35,1.19,27.58,27.58,0,0,0,3.28-.31c6-.56,11.83,4.06,13.93,9.93a11.81,11.81,0,0,0,1.16,2.74,15.84,15.84,0,0,0,2.86,2.57,10,10,0,0,1,3.36,7.47c0,2.41-.85,4.92,0,7.14.43,1.13,1.28,2,1.63,3.21,1,3.35-2.74,6.56-2.22,10,.1.7.37,1.37.54,2.07a6.4,6.4,0,0,1-.54,4.24,9,9,0,0,0-1.44,3,9.32,9.32,0,0,0,.38,2.52c.32,2.07-4.31,9.76-6,10.81l-51.32-1.87a9.79,9.79,0,0,1-7-8.83,3.72,3.72,0,0,0-.4-2,3.94,3.94,0,0,0-1.36-1c-3.23-2-3.43-6.66-2.92-10.49a4.54,4.54,0,0,0,0-1.56A6,6,0,0,0,1480.82,503.32Z"/><path class="cls-57" d="M1495.44,504.4a28.36,28.36,0,0,1,15.62-24,32.89,32.89,0,0,1,13.22-2.7,20.37,20.37,0,0,1,12,3.12c2.79.81,12.74,11.05,12.82,21.67.09,11.81-.24,26.21-2.06,34.91-3.67,17.5-16.93,19-16.93,19s-.08,4.28-.18,9.86l8.28,1c-.13,7.25-8.77,23.76-8.77,23.76h-34l-7.85-24.24,7.85-1.73Z"/><path class="cls-58" d="M1521.57,533.07a3.76,3.76,0,0,1,1.25-2.3,3.62,3.62,0,0,1,4.54-.27,5.18,5.18,0,0,1,1.89,4.8h0a4.5,4.5,0,0,1-3.22,1.91,3.11,3.11,0,0,1-.61,0,3.94,3.94,0,0,1-2.73-1.1A3.76,3.76,0,0,1,1521.57,533.07Z"/><path class="cls-39" d="M1542.78,515.88a2.23,2.23,0,0,1-2.24,2.17,2.16,2.16,0,0,1-2.16-2.13v0a2.25,2.25,0,0,1,2.24-2.17,2.15,2.15,0,0,1,2.16,2.14Z"/><path class="cls-39" d="M1544.9,508.85c-.29.28-1.89-1.08-4.25-1.2s-4.16,1-4.4.67.18-.66,1-1.17a5.87,5.87,0,0,1,3.55-.92,5.73,5.73,0,0,1,3.36,1.34C1544.82,508.12,1545.05,508.66,1544.9,508.85Z"/><path class="cls-39" d="M1530,527.25a14.55,14.55,0,0,1,3.88-.5c.61,0,1.18-.12,1.3-.54a3.17,3.17,0,0,0-.3-1.87l-1.51-4.83c-2.13-6.89-3.63-12.45-3.36-12.62s2.21,5.43,4.33,12.31l1.51,4.86a3.71,3.71,0,0,1,.18,2.46,1.53,1.53,0,0,1-1,.85,3.55,3.55,0,0,1-1,0A15.45,15.45,0,0,1,1530,527.25Z"/><path class="cls-58" d="M1530.13,556.16a42.85,42.85,0,0,1-22.68-7.6s5.26,12.6,22.5,11.93Z"/><path class="cls-39" d="M1523,528.54c.38,0,.24,2.63,2.34,4.67s4.84,1.87,4.84,2.23-.63.48-1.78.45a6.29,6.29,0,0,1-4.05-1.71,5.82,5.82,0,0,1-1.82-3.9C1522.49,529.09,1522.76,528.51,1523,528.54Z"/><path class="cls-39" d="M1544.43,499.62c-.42.57-2.22,0-4.34.12s-3.91.55-4.35,0c-.2-.28.07-.84.83-1.4a6.19,6.19,0,0,1,3.51-1.06,6.3,6.3,0,0,1,3.5,1C1544.36,498.78,1544.63,499.34,1544.43,499.62Z"/><path class="cls-39" d="M1516.62,514.84a2.24,2.24,0,0,0,2.09,2.32,2.13,2.13,0,0,0,2.31-2v0a2.26,2.26,0,0,0-2.08-2.34,2.14,2.14,0,0,0-2.31,2Z"/><path class="cls-39" d="M1512.48,507.91c.27.32,2-.93,4.33-.88s4.09,1.3,4.35,1-.15-.67-.89-1.26a6,6,0,0,0-3.48-1.17,5.73,5.73,0,0,0-3.45,1.09C1512.6,507.29,1512.36,507.79,1512.48,507.91Z"/><path class="cls-39" d="M1512.25,499.71c.46.58,2.3,0,4.54,0s4,.44,4.54-.14c.19-.27-.09-.83-.9-1.37a6.93,6.93,0,0,0-7.24,0C1512.32,498.87,1512,499.51,1512.25,499.71Z"/><path class="cls-57" d="M1497.39,520.94c0-1.3-1.24-4.5-2.49-4.76-3.34-.73-9.42-.79-10,8-.71,12,11.16,10.29,11.2,10S1497.15,525.49,1497.39,520.94Z"/><path class="cls-58" d="M1493.19,529.52a3.34,3.34,0,0,1-.56.28,2,2,0,0,1-1.51,0c-1.21-.54-2.14-2.63-2.06-4.79a6.86,6.86,0,0,1,.76-3,2.38,2.38,0,0,1,1.61-1.55,1,1,0,0,1,1.17.65c.13.34,0,.58.12.61s.26-.19.2-.69a1.38,1.38,0,0,0-.43-.79,1.44,1.44,0,0,0-1.1-.37,2.88,2.88,0,0,0-2.24,1.72,7.71,7.71,0,0,0-.91,3.32c0,2.43,1,4.76,2.67,5.37a2.13,2.13,0,0,0,1.87-.19C1493.14,529.82,1493.23,529.55,1493.19,529.52Z"/><path class="cls-39" d="M1551.78,502.62a7.06,7.06,0,0,1-3.37-6.66c-1.61.39-3-1.78-3.92-3.22s-1.92-2.22-1.77-3.88a1.89,1.89,0,0,0,0-1,1.93,1.93,0,0,0-1.24-.82,8,8,0,0,1-4.85-5.9,16.29,16.29,0,0,1-8.09.92,6.2,6.2,0,0,1-8.86,1.19,6.4,6.4,0,0,1-1.82-2.27,5.64,5.64,0,0,1-4,2.66,15.78,15.78,0,0,1-4.85,0,7,7,0,0,1-4.82,7.59,1.48,1.48,0,0,0-1.12.59c-.23.4,0,.92.1,1.35a5.46,5.46,0,0,1-3.73,6.68l-.17,0a4.12,4.12,0,0,1,0,5.72,3.76,3.76,0,0,1-.72.6c-.44.23-1,.53-1,1a1.19,1.19,0,0,0,.23.53,7.81,7.81,0,0,1,1.63,4.08A2.9,2.9,0,0,1,1497,515a3.81,3.81,0,0,1,1.34,2.73c0,1-1.11,2-2,1.55-.39-.18-6.15-1.68-6.39-2-3-4.81,1.36-9.69,2-15.4a37.87,37.87,0,0,1,5.92-16,27.19,27.19,0,0,1,4.44-5.57,35.66,35.66,0,0,1,6.68-4.52,32.4,32.4,0,0,1,9.62-4.08c6.4-1.17,12.82,1.56,18.55,4.67a28.05,28.05,0,0,1,6.16,4.22,25.72,25.72,0,0,1,5,7.49,32.62,32.62,0,0,1,3.58,12.55"/><path class="cls-56" d="M1554.3,498.48a4.3,4.3,0,0,0-.57-1.34,17.62,17.62,0,0,1-.85-1.56,5.78,5.78,0,0,1-.54-2.28,18.59,18.59,0,0,1,.21-3,14.15,14.15,0,0,0,.09-3.56,10.19,10.19,0,0,0-1.34-3.88,9.45,9.45,0,0,0-1.35-1.79,16.45,16.45,0,0,0-1.77-1.56,6.74,6.74,0,0,1-1.69-1.68,9.57,9.57,0,0,1-1-2.32,16.06,16.06,0,0,0-6.94-8.64,14.3,14.3,0,0,0-2.77-1.24,12.43,12.43,0,0,0-3-.53,12.68,12.68,0,0,0-1.51,0l-1.52.2a7.36,7.36,0,0,1-3.13-.16c-1-.28-2-.71-3.1-1.05a20.59,20.59,0,0,0-3.28-.78,18.72,18.72,0,0,0-3.43-.22,16.1,16.1,0,0,0-3.46.47,11.44,11.44,0,0,0-6,3.67c-.17.19-.32.39-.47.58h.2a13.55,13.55,0,0,0-16.24,9.48l.1-.11a36,36,0,0,0-4.4,2.07,12.16,12.16,0,0,0-3.5,2.89,8.52,8.52,0,0,0-1.73,4.07,5.86,5.86,0,0,0,.91,4.14v-.2a10.14,10.14,0,0,0-3,6,10.54,10.54,0,0,0,.92,6.06,12.62,12.62,0,0,0,.71,1.23,9.58,9.58,0,0,1,.76,1.12,2.49,2.49,0,0,1,.34,1.2,8.62,8.62,0,0,1-.09,1.24,19.49,19.49,0,0,0-.1,4.58,9.61,9.61,0,0,0,1,3.53,6,6,0,0,0,1.73,2.06c.57.43,1.1.62,1.39.87s.39.39.41.37a1.77,1.77,0,0,0-.4-.42c-.27-.25-.8-.45-1.36-.9a6.1,6.1,0,0,1-1.66-2,10,10,0,0,1-.91-3.49,20.19,20.19,0,0,1,.14-4.53,6.94,6.94,0,0,0,.1-1.29,2.75,2.75,0,0,0-.37-1.31,10.63,10.63,0,0,0-.76-1.13,11.89,11.89,0,0,1-.68-1.2,10.15,10.15,0,0,1-.86-5.9,9.89,9.89,0,0,1,2.93-5.86l.11-.09v-.11a5.44,5.44,0,0,1-.85-3.91,8,8,0,0,1,1.68-3.9,11.89,11.89,0,0,1,3.42-2.82,36.11,36.11,0,0,1,4.17-2h0a13.19,13.19,0,0,1,15.8-9.21h.11l.09-.1.44-.56a11.21,11.21,0,0,1,5.91-3.56,16.07,16.07,0,0,1,3.38-.45,19.13,19.13,0,0,1,3.38.21,18.86,18.86,0,0,1,3.22.77c1,.32,2,.78,3.13,1a6.77,6.77,0,0,0,1.61.26,7.49,7.49,0,0,0,1.64-.09,13.46,13.46,0,0,0,1.51-.2,12.68,12.68,0,0,1,1.51,0,11.57,11.57,0,0,1,3,.5,12.82,12.82,0,0,1,2.7,1.21,15.79,15.79,0,0,1,6.84,8.45,10.31,10.31,0,0,0,1,2.39A7.8,7.8,0,0,0,1548,480a13.73,13.73,0,0,1,1.76,1.56,11.2,11.2,0,0,1,1.33,1.73,10.11,10.11,0,0,1,1.33,3.78,14,14,0,0,1,0,3.54,16.73,16.73,0,0,0-.18,3,5.65,5.65,0,0,0,.59,2.32c.31.62.65,1.11.87,1.56a6.61,6.61,0,0,1,.5.95Z"/><path class="cls-56" d="M1512.39,465.73a10,10,0,0,1,.91-.43,7.46,7.46,0,0,1,2.58-.63,7.1,7.1,0,0,1,3.81.78,7.62,7.62,0,0,1,3.33,3.45,6.27,6.27,0,0,1,.51,1.39,1.53,1.53,0,0,1-.15,1.27l-.3.39.48-.11a4.73,4.73,0,0,1,5.46,3,5.51,5.51,0,0,1,.37,2v.58a3.73,3.73,0,0,0,.07-.56,5,5,0,0,0-2.18-4.68,5,5,0,0,0-3.82-.71l.17.28a1.94,1.94,0,0,0,.22-1.56,6.94,6.94,0,0,0-.54-1.55,8.05,8.05,0,0,0-3.5-3.59,7.5,7.5,0,0,0-6.6,0,6.82,6.82,0,0,0-.64.39C1512.45,465.65,1512.39,465.71,1512.39,465.73Z"/><path class="cls-56" d="M1492.73,478.52a3.42,3.42,0,0,0,.38.45,8.38,8.38,0,0,0,1.29,1,5.21,5.21,0,0,0,2.28.84,4.1,4.1,0,0,0,3-.75h-.26l.32.51.38.5a7.2,7.2,0,0,0,2.83,2,7.27,7.27,0,0,0,2.76.52,6.94,6.94,0,0,0,1.86-.34,2.5,2.5,0,0,0,.64-.3,10.08,10.08,0,0,1-2.5.37,7.3,7.3,0,0,1-2.64-.56,6.9,6.9,0,0,1-2.68-2c-.12-.15-.24-.29-.36-.47l-.31-.48-.1-.15-.15.11a3.91,3.91,0,0,1-2.71.71,5.45,5.45,0,0,1-2.21-.73A20.2,20.2,0,0,1,1492.73,478.52Z"/><path class="cls-56" d="M1486,489.34v.24a2.26,2.26,0,0,0,.23.59,3.2,3.2,0,0,0,1.81,1.38,5.75,5.75,0,0,0,3.36-.18,18.39,18.39,0,0,0,1.89-.66,3.16,3.16,0,0,0,1.69-1.43l.08-.19h-.27a12.64,12.64,0,0,0,3.35,2.32,5.85,5.85,0,0,0,3.27.53,4.28,4.28,0,0,0,2.07-.84,2.49,2.49,0,0,0,.44-.42c.09-.11.13-.17.12-.17s-.21.19-.64.48a4.57,4.57,0,0,1-2,.7,5.63,5.63,0,0,1-3.1-.57,13.75,13.75,0,0,1-3.27-2.31l-.18-.15-.09.23-.08.16a2.92,2.92,0,0,1-1.51,1.26,17.48,17.48,0,0,1-1.84.65,5.61,5.61,0,0,1-3.19.28,3.12,3.12,0,0,1-1.77-1.23A3.28,3.28,0,0,1,1486,489.34Z"/><path class="cls-39" d="M1536.37,445.58h-2.18a12.82,12.82,0,0,0-5.59,1.56,12.37,12.37,0,0,0-5.66,6.38,5.66,5.66,0,0,0,.17,4.84,3,3,0,0,0,4.18.93l.09-.06a2.36,2.36,0,0,0,.51-2.32,5.11,5.11,0,0,0-1.35-2.18,7.43,7.43,0,0,0-4.53-1.83,9,9,0,0,0-7.64,3.11,10.27,10.27,0,0,0-2.34,5.39c-.18,1.41,0,2.21-.11,2.22a1.85,1.85,0,0,1-.15-.57,7.86,7.86,0,0,1,0-1.68,9.67,9.67,0,0,1,10.14-9.23h.2a8.78,8.78,0,0,1,2.59.53,6.55,6.55,0,0,1,2.42,1.46,5.84,5.84,0,0,1,1.51,2.56,3,3,0,0,1-3.73,3.83,4,4,0,0,1-2.45-1.75,6.38,6.38,0,0,1-.2-5.51,12.7,12.7,0,0,1,6-6.65,12.29,12.29,0,0,1,5.85-1.38,9.9,9.9,0,0,1,1.62.17C1536.24,445.49,1536.37,445.55,1536.37,445.58Z"/><path class="cls-56" d="M1449.54,476a16.15,16.15,0,0,0,.42,2.25,11.77,11.77,0,0,0,3,5.27,10,10,0,0,0,8,3.12,10.83,10.83,0,0,0,4.9-1.56,9,9,0,0,0,3.63-4.13,3.94,3.94,0,0,0-1.18-4.81h.47a3.19,3.19,0,0,0,.36,3.91,4.77,4.77,0,0,0,3.69,1.36,13.6,13.6,0,0,0,6.67-2.12,9.91,9.91,0,0,0,3.3-3.36c.56-1,.71-1.56.78-1.56a2.34,2.34,0,0,1-.07.45,6.79,6.79,0,0,1-.47,1.26,9.7,9.7,0,0,1-3.27,3.66,14,14,0,0,1-6.92,2.38,5.4,5.4,0,0,1-4.25-1.55,4.62,4.62,0,0,1-1.08-2.31,3.2,3.2,0,0,1,.7-2.63l.2-.25.27.17a4.75,4.75,0,0,1,1.51,5.79,9.78,9.78,0,0,1-4,4.52,11.26,11.26,0,0,1-5.24,1.66,10.4,10.4,0,0,1-8.44-3.39,11.4,11.4,0,0,1-2.9-5.6,10.05,10.05,0,0,1-.18-1.73C1449.49,476.16,1449.51,476,1449.54,476Z"/><path class="cls-39" d="M1555.44,467.47s.15,0,.39.28a5.53,5.53,0,0,1,.86,1.07,6.89,6.89,0,0,1,.87,5,6.51,6.51,0,0,1-5.39,4.93,5.5,5.5,0,0,1-4.35-1.09,3.28,3.28,0,0,1-.72-4.5,2.56,2.56,0,0,1,.2-.26,3,3,0,0,1,4.25.55,2.92,2.92,0,0,1,.29.48,4.4,4.4,0,0,1-.64,4.56,7,7,0,0,1-3.41,2.19,10.36,10.36,0,0,1-3.45.44,17.83,17.83,0,0,1-4.85-1,7,7,0,0,1-1.65-.75,10.53,10.53,0,0,1,1.74.43,18.84,18.84,0,0,0,4.78.75,10.18,10.18,0,0,0,3.23-.5,6.28,6.28,0,0,0,3-2,3.63,3.63,0,0,0,.53-3.74,2.16,2.16,0,0,0-2.93-1,1.69,1.69,0,0,0-.36.23,2.13,2.13,0,0,0-.55,1.85,2.83,2.83,0,0,0,1,1.71,5,5,0,0,0,3.77,1,5.94,5.94,0,0,0,4.94-4.34,6.8,6.8,0,0,0-.57-4.67C1555.89,468,1555.38,467.53,1555.44,467.47Z"/><path class="cls-59" d="M1493.37,959.46c-.21.56-4.19,1.3-3.8,10.11s-2.6,19.32-2.38,23.64,1.51,20.09,11.15,21.28c6.17.74,9.21-4.67,10.59-8.43a15,15,0,0,0,.85-5.65l-1.37-34.25a9.18,9.18,0,0,0-2.81-6.47,11.14,11.14,0,0,0-6.39-2.55A7.62,7.62,0,0,0,1493.37,959.46Z"/><path class="cls-45" d="M1493.7,961.25c-.18.51-3.9,1.21-3.52,9.43s-2.42,18-2.24,22,1.36,18.68,10.4,19.83c5.77.7,8.59-4.34,9.85-7.78a14,14,0,0,0,.78-5.26l-1.33-32a8.64,8.64,0,0,0-2.63-6,10.42,10.42,0,0,0-6-2.37A7.26,7.26,0,0,0,1493.7,961.25Z"/><path class="cls-39" d="M1505.28,987.71a10.55,10.55,0,0,1-11.56,0,32.26,32.26,0,0,0,5.77.92A34.23,34.23,0,0,0,1505.28,987.71Z"/><path class="cls-39" d="M1505.36,991.79a10.59,10.59,0,0,1-11.57,0,30.66,30.66,0,0,0,5.78.92A32.44,32.44,0,0,0,1505.36,991.79Z"/><path class="cls-39" d="M1505.28,996.24a10.47,10.47,0,0,1-11.56,0,32.15,32.15,0,0,0,5.77.94A31.36,31.36,0,0,0,1505.28,996.24Z"/><path class="cls-39" d="M1500.08,986.46a5.3,5.3,0,0,1-2.43-1,10.89,10.89,0,0,1-2.3-1.76,9.24,9.24,0,0,1-1.13-1.29,2.1,2.1,0,0,1-.47-1,1.29,1.29,0,0,1,.42-1.2,1.87,1.87,0,0,1,2.07-.18,5.39,5.39,0,0,1,1.51,1,7,7,0,0,1,1.7,2.42,4.05,4.05,0,0,1,.39,2.67,24.88,24.88,0,0,0-.91-2.42,6.7,6.7,0,0,0-1.66-2.11c-.71-.64-1.84-1.41-2.52-.8-.31.24-.19.64.13,1.09a12.93,12.93,0,0,0,1,1.23A13.78,13.78,0,0,0,1498,985,21.37,21.37,0,0,1,1500.08,986.46Z"/><path class="cls-39" d="M1499.74,986.78a4.86,4.86,0,0,1,.25-2.67,9.52,9.52,0,0,1,1.26-2.63,9.26,9.26,0,0,1,1.09-1.34c.21-.21.43-.42.66-.62a2.55,2.55,0,0,1,.91-.57.69.69,0,0,1,.82.48,1.57,1.57,0,0,1,0,.61,7,7,0,0,1-.17.91,7.83,7.83,0,0,1-.56,1.65,8.72,8.72,0,0,1-1.65,2.42,4.56,4.56,0,0,1-2.16,1.46c-.08-.11.77-.64,1.75-1.85a9.24,9.24,0,0,0,1.88-3.88,8.13,8.13,0,0,1,.13-.84c0-.28,0-.31,0-.31h.09v.14a4.38,4.38,0,0,0-.59.4c-.21.19-.42.38-.61.58a10.62,10.62,0,0,0-2.36,3.6C1499.93,985.7,1499.87,986.78,1499.74,986.78Z"/><path class="cls-59" d="M1531.53,986.29c.21.6,4.19,1.37,3.8,10.61s2.6,20.23,2.39,24.72-1.51,21-11.16,22.26c-6.17.79-9.21-4.89-10.59-8.81a16.21,16.21,0,0,1-.84-5.9l1.36-35.81a9.88,9.88,0,0,1,2.81-6.77,11.08,11.08,0,0,1,6.4-2.68A7.56,7.56,0,0,1,1531.53,986.29Z"/><path class="cls-45" d="M1531.2,988.16c.18.55,3.9,1.28,3.52,9.89s2.42,18.83,2.24,23.05-1.36,19.6-10.4,20.75c-5.76.74-8.59-4.56-9.84-8.21a15.32,15.32,0,0,1-.79-5.5l1.27-33.36a9.25,9.25,0,0,1,2.63-6.32,10.22,10.22,0,0,1,6-2.49A7.12,7.12,0,0,1,1531.2,988.16Z"/><path class="cls-39" d="M1519.62,1015.86a28.35,28.35,0,0,0,5.79,1,27.73,27.73,0,0,0,5.78-1,10.34,10.34,0,0,1-11.57,0Z"/><path class="cls-39" d="M1519.54,1020.14a17.74,17.74,0,0,0,11.57,0,8.4,8.4,0,0,1-5.78,1.79A8.56,8.56,0,0,1,1519.54,1020.14Z"/><path class="cls-39" d="M1519.62,1024.79a17.65,17.65,0,0,0,11.57,0,10.34,10.34,0,0,1-11.57,0Z"/><path class="cls-39" d="M1524.79,1014.55c0-.11.88-.55,2.16-1.56a15.73,15.73,0,0,0,2.09-1.91,16.17,16.17,0,0,0,1-1.29c.31-.47.4-.89.1-1.16-.68-.62-1.84.24-2.55.89a7.44,7.44,0,0,0-1.65,2.23c-.7,1.44-.74,2.5-.88,2.49a4.39,4.39,0,0,1,.38-2.74,7.35,7.35,0,0,1,1.65-2.52,6.26,6.26,0,0,1,1.51-1.11,1.84,1.84,0,0,1,2.12.16,1.37,1.37,0,0,1,.44,1.21,2.29,2.29,0,0,1-.43,1,11.39,11.39,0,0,1-1.15,1.35,11.65,11.65,0,0,1-2.28,1.87A5.25,5.25,0,0,1,1524.79,1014.55Z"/><path class="cls-39" d="M1525.17,1014.8c-.14,0-.2-1-.77-2.57a11.34,11.34,0,0,0-1.3-2.49,10.84,10.84,0,0,0-1-1.28c-.2-.21-.41-.41-.63-.61s-.49-.43-.59-.43.13,0,.12-.09a1.6,1.6,0,0,0,0,.31,6.56,6.56,0,0,0,.14.87,10.72,10.72,0,0,0,.46,1.56,11.32,11.32,0,0,0,1.39,2.44c1,1.28,1.85,1.84,1.77,2a4.63,4.63,0,0,1-2.19-1.56,9.18,9.18,0,0,1-1.63-2.54,8.91,8.91,0,0,1-.56-1.7,7.52,7.52,0,0,1-.15-.95,1.62,1.62,0,0,1,0-.62.71.71,0,0,1,.35-.43.69.69,0,0,1,.49,0,2.59,2.59,0,0,1,.91.62,6.86,6.86,0,0,1,.67.65,11.41,11.41,0,0,1,1.09,1.4,10.24,10.24,0,0,1,1.24,2.76A5.42,5.42,0,0,1,1525.17,1014.8Z"/><path class="cls-56" d="M1515.69,903.29c-66.76,0-138.16-102.36-175.52-164.85-.89-1.56-1.59-2.68-2.08-3.49a21.19,21.19,0,0,1-2.14-4.51c-.21-.66-2-6.43,1.68-8.35l.68,1.41c-2.57,1.32-1,6.22-.92,6.44a19.18,19.18,0,0,0,2,4.17l2.1,3.51c66.45,111.15,130.77,169.31,181.06,163.74,22.47-2.49,59.54-17.47,108.55-74.65,30.84-36,54.86-75.52,62.75-92,3.25-6.79.33-8.45.21-8.53l.67-1.39a4,4,0,0,1,1.84,2.38c.7,2.11.24,4.88-1.38,8.24-7.92,16.52-32,56.2-63,92.33-27.21,31.76-68.31,70.59-109.51,75.15A63,63,0,0,1,1515.69,903.29Z"/><path class="cls-57" d="M1688.19,719.7s-12.71-9.69-16.39-11.59-9.07-1.55-9.39-1.86-5.08-4.36-5.08-4.36l-10.58,15.57s10.07,11.89,15.72,13.74,8.44.34,8.44.34,3.71,2.28,5.4-1c0,0,6.27,2.32,6.64-2.4,0,0,2.7,4.6,5.18,5s2.41-1.87,1.92-3.72-4.53-7.07-4.53-7.07S1688.07,721.8,1688.19,719.7Z"/><path class="cls-56" d="M1666.69,725.83l24.2,2.57a3.19,3.19,0,0,0,3.46-2.9h0a3.22,3.22,0,0,0-2.8-3.56h0l-24.2-2.57a3.18,3.18,0,0,0-3.46,2.88v0h0a3.22,3.22,0,0,0,2.79,3.56Z"/><path class="cls-57" d="M1687.3,721.49c-4,1.55-8.78-.61-11.22-3.49a7.36,7.36,0,0,1-3.57,1.85,14.71,14.71,0,0,1-3.55.52c-4.94-.36-8.07-2.2-11.79-5.56"/><path class="cls-58" d="M1657.17,714.81c.09-.13,1.51,1.2,4,2.79a16.47,16.47,0,0,0,4.81,1.94,20.35,20.35,0,0,0,3,.44,14,14,0,0,0,3.21-.49,10.8,10.8,0,0,0,2-.66,4,4,0,0,0,1.51-1l.29-.42.33.36a11.75,11.75,0,0,0,7.56,4,16.59,16.59,0,0,0,3.45-.22,2.53,2.53,0,0,1-.87.39,7.46,7.46,0,0,1-2.61.32,11.55,11.55,0,0,1-8-3.94h.6a4.33,4.33,0,0,1-1.86,1.36,11.65,11.65,0,0,1-2.13.73,14.19,14.19,0,0,1-3.43.48,19.84,19.84,0,0,1-3.15-.49,15.6,15.6,0,0,1-4.93-2.2,21.16,21.16,0,0,1-2.83-2.27A4.61,4.61,0,0,1,1657.17,714.81Z"/><path class="cls-57" d="M1682.84,728a15.65,15.65,0,0,0-1.36-3.78,4.14,4.14,0,0,0-2.66-2.35,2.49,2.49,0,0,0-2.9,1.55,4.35,4.35,0,0,0,0,1.76c.24,1.67.48,3.33.74,5"/><path class="cls-58" d="M1676.69,730.27a8.81,8.81,0,0,1-.68-2.62c-.15-.82-.34-1.76-.5-2.88a3.11,3.11,0,0,1,.25-1.9,2.74,2.74,0,0,1,1.62-1.27,3.32,3.32,0,0,1,3.51,1.15,8,8,0,0,1,1.41,2.64,5.16,5.16,0,0,1,.54,2.65c-.1,0-.33-1-1.06-2.43a8.43,8.43,0,0,0-1.42-2.35,2.66,2.66,0,0,0-2.74-.89,2,2,0,0,0-1.17.89,2.29,2.29,0,0,0-.22,1.43c.11,1,.23,1.95.34,2.88A10.18,10.18,0,0,1,1676.69,730.27Z"/><path class="cls-57" d="M1670.94,731.68a9.6,9.6,0,0,0-.75-5.74,14.57,14.57,0,0,0-1.32-1.7,4.45,4.45,0,0,1-1-1.91,2,2,0,0,1,.64-2,2.42,2.42,0,0,1,2.25,0,8.37,8.37,0,0,1,4.64,4.06,14.7,14.7,0,0,1,.94,6.23"/><path class="cls-58" d="M1676.37,730.64c-.15,0-.09-1.56-.53-4A7.53,7.53,0,0,0,1674,723a8.39,8.39,0,0,0-4.27-2.47,1.21,1.21,0,0,0-1.48.92,1.52,1.52,0,0,0,0,.21,2.9,2.9,0,0,0,.7,2.1c.45.64,1,1.2,1.42,1.87a6.07,6.07,0,0,1,.77,2,10.19,10.19,0,0,1,0,3,3.25,3.25,0,0,1-.23,1.07v-1.09a14,14,0,0,0-.29-2.88,5.09,5.09,0,0,0-.77-1.75,22.21,22.21,0,0,0-1.51-1.8,3.64,3.64,0,0,1-.89-2.67,2,2,0,0,1,2.16-1.84l.2,0a8.58,8.58,0,0,1,4.7,2.76,7.86,7.86,0,0,1,1.83,4.11,15,15,0,0,1,.12,3A2.85,2.85,0,0,1,1676.37,730.64Z"/><path class="cls-57" d="M1666.21,731.17a3.51,3.51,0,0,0-.11-3.11,8.86,8.86,0,0,0-1.69-1.22,2.66,2.66,0,0,1-.33-3.66,2.49,2.49,0,0,1,3.56-.34,2.23,2.23,0,0,1,.26.27s3.45,3,3,6"/><path class="cls-58" d="M1670.94,729.19a12.38,12.38,0,0,0-.41-1.88,10.11,10.11,0,0,0-2.82-3.88h0a2.25,2.25,0,0,0-2.6-.48,2.28,2.28,0,0,0-.91,3c.38,1,1.68,1.17,2.3,2.17a3.07,3.07,0,0,1,.15,2.36c-.17.52-.31.78-.35.77a3.67,3.67,0,0,1,0-.83,3,3,0,0,0-.3-2,3,3,0,0,0-1.12-.8,3.13,3.13,0,0,1-1.38-1.36,3.28,3.28,0,0,1-.22-2.18,2.67,2.67,0,0,1,1.51-1.85,3,3,0,0,1,3.51.71h0a9.68,9.68,0,0,1,2.78,4.33A2.63,2.63,0,0,1,1670.94,729.19Z"/><path class="cls-57" d="M1342.62,715.74s13.23-8.82,17.07-10.44,9.07-.89,9.48-1.23l5.43-4.83,9.45,16.36s-10.78,12-16.54,13.45-8.44-.21-8.44-.21-3.84,2-5.32-1.39c0,0-6.41,1.9-6.49-2.83,0,0-3,4.4-5.47,4.67s-2.3-2-1.69-3.83,5-6.76,5-6.76S1342.61,717.84,1342.62,715.74Z"/><path class="cls-56" d="M1363.7,723.28l-24.33,1a3.16,3.16,0,0,1-3.26-3.07v0h0a3.23,3.23,0,0,1,3-3.38l24.33-1a3.18,3.18,0,0,1,3.26,3.1h0A3.22,3.22,0,0,1,1363.7,723.28Z"/><path class="cls-57" d="M1343.41,717.58c3.93,1.79,8.78,0,11.4-2.74a7.56,7.56,0,0,0,3.45,2.09,14.62,14.62,0,0,0,3.52.74c4.94,0,8.18-1.65,12.09-4.78"/><path class="cls-58" d="M1373.87,712.89a5.7,5.7,0,0,1-.95.94,19.63,19.63,0,0,1-3,2.1,15.39,15.39,0,0,1-5.07,1.85,18.58,18.58,0,0,1-3.16.3,13.92,13.92,0,0,1-3.38-.7,11.24,11.24,0,0,1-2.09-.87,4.66,4.66,0,0,1-1.79-1.48l.61.09a11.58,11.58,0,0,1-8.26,3.42,8.14,8.14,0,0,1-2.58-.49c-.56-.25-.85-.42-.83-.47a15.14,15.14,0,0,0,3.41.47,11.81,11.81,0,0,0,7.73-3.47l.33-.36.28.45a4,4,0,0,0,1.51,1.12,11.13,11.13,0,0,0,2,.81,14.71,14.71,0,0,0,3.16.68,18,18,0,0,0,3-.23,16.56,16.56,0,0,0,4.92-1.63C1372.33,714,1373.8,712.78,1373.87,712.89Z"/><path class="cls-57" d="M1347.44,724.43a15.86,15.86,0,0,1,1.52-3.69,4,4,0,0,1,2.79-2.16,2.48,2.48,0,0,1,2.8,1.77,4.35,4.35,0,0,1-.12,1.76c-.35,1.65-.7,3.28-1.06,4.93"/><path class="cls-58" d="M1353.42,727a9.23,9.23,0,0,1,.28-2.67c.17-.94.35-1.87.52-2.85a2.4,2.4,0,0,0-.12-1.45,2.06,2.06,0,0,0-1.12-1,2.65,2.65,0,0,0-2.8.71,9.11,9.11,0,0,0-1.51,2.26c-.8,1.42-1.09,2.36-1.2,2.35a5,5,0,0,1,.72-2.62,7.94,7.94,0,0,1,1.51-2.55,3.39,3.39,0,0,1,3.57-.92,2.66,2.66,0,0,1,1.67,3.3c-.22,1.11-.46,2-.68,2.85A8.69,8.69,0,0,1,1353.42,727Z"/><path class="cls-57" d="M1359.07,728.84a9.6,9.6,0,0,1,1.11-5.69,13.88,13.88,0,0,1,1.42-1.55,4.6,4.6,0,0,0,1.12-1.86,2,2,0,0,0-.52-2,2.43,2.43,0,0,0-2.25-.18,8.25,8.25,0,0,0-4.88,3.77,14.68,14.68,0,0,0-1.32,6.23"/><path class="cls-58" d="M1353.75,727.45a5.14,5.14,0,0,1-.08-1.11,15.7,15.7,0,0,1,.31-3,7.72,7.72,0,0,1,2.08-4,8.6,8.6,0,0,1,4.86-2.46,2,2,0,0,1,2.23,1.74,1.64,1.64,0,0,1,0,.23,3.72,3.72,0,0,1-1.06,2.62,19.13,19.13,0,0,0-1.51,1.68,5.29,5.29,0,0,0-.88,1.7,13.57,13.57,0,0,0-.47,2.85c0,.7-.07,1.09-.13,1.09a2.9,2.9,0,0,1-.17-1.09,10.14,10.14,0,0,1,.24-3,5.79,5.79,0,0,1,.88-2c.45-.62,1-1.15,1.51-1.76a3,3,0,0,0,.83-2,1.23,1.23,0,0,0-1.23-1.25.65.65,0,0,0-.2,0,8.3,8.3,0,0,0-4.4,2.17,7.64,7.64,0,0,0-2,3.59C1353.93,725.88,1353.9,727.47,1353.75,727.45Z"/><path class="cls-57" d="M1363.85,728.63a3.59,3.59,0,0,1,.3-3.11,10,10,0,0,1,1.76-1.11,2.66,2.66,0,0,0,.6-3.62,2.49,2.49,0,0,0-3.53-.62,2.89,2.89,0,0,0-.32.29s-3.63,2.76-3.36,5.85"/><path class="cls-58" d="M1359.3,726.36a2.72,2.72,0,0,1,.09-2,9.66,9.66,0,0,1,3-4.13h0a3,3,0,0,1,3.54-.48,2.73,2.73,0,0,1,1.33,1.95,3.3,3.3,0,0,1-.36,2.16,3,3,0,0,1-1.51,1.25,3.31,3.31,0,0,0-1.15.73,2.94,2.94,0,0,0-.43,2v.83a2.66,2.66,0,0,1-.28-.78,3,3,0,0,1,.28-2.35c.67-1,2-1,2.42-2a2.17,2.17,0,0,0-3.34-2.73h0a10.42,10.42,0,0,0-3,3.69A12.16,12.16,0,0,0,1359.3,726.36Z"/><path class="cls-39" d="M1464.32,709.67c-10.23,16.24-22.89,31.14-15.72,73.89,7.32,43.59,24.58,94.74,24.58,94.74s-4.91,21.9-.19,40.93A148.87,148.87,0,0,0,1484.42,949a63.24,63.24,0,0,1,5.58,16.3c.72,3.69,1.37,7,1.31,6.42a8.34,8.34,0,0,0,10.84,5,8.52,8.52,0,0,0,4.89-5s1-26,0-39.45,0-35.73,0-35.73,2.27-17.64,2.74-33.88,0-76.56,0-76.56l1.51-72.06Z"/><path class="cls-57" d="M1517.09,983.79s1.52,10.55,2.33,14.4c.92,4.22,4,7.28,6.91,7.38,4.73.12,6.53-3.74,7.38-7.6s2.19-14,2.19-14Z"/><path class="cls-39" d="M1563.78,711a271.91,271.91,0,0,1,10,49c3.52,36.63-21.29,88.19-23.45,111.38s0,41.83-.38,54.3c-.56,22.29-12.25,60.21-12.25,60.21-6.54,7.79-11,8.36-20.64,1.36,0,0-5.62-27.62-4.53-47.67s2.43-41.1,2.43-41.1-5.44-23.62-5.35-26.19,0-120.32,0-120.32l1.68-37.69Z"/><path class="cls-7" d="M1455.07,735.3a2.79,2.79,0,0,1-.14.37l-.42,1.06c-.38.93-.94,2.32-1.51,4.12a55.48,55.48,0,0,0-3,15.9,117,117,0,0,0,1.91,24c1.51,9,3.8,18.68,6,29,4.53,20.52,9.19,38.92,13.49,52,2.13,6.54,4,11.74,5.41,15.32l1.6,4.13c.17.43.29.79.41,1.07a1.9,1.9,0,0,1,.11.39,1.55,1.55,0,0,1-.19-.36l-.48-1c-.39-.92-1-2.29-1.74-4.06-1.51-3.55-3.46-8.74-5.64-15.26a501.84,501.84,0,0,1-13.74-52c-2.21-10.26-4.54-20-6.05-29a113.09,113.09,0,0,1-1.72-24.16,52.68,52.68,0,0,1,3.26-15.91c.7-1.79,1.29-3.12,1.71-4.08l.51-1C1455,735.4,1455.06,735.28,1455.07,735.3Z"/><path class="cls-56" d="M1502.79,888.89A7.16,7.16,0,0,1,1502,890a6.72,6.72,0,0,1-1.15,1.11,9.45,9.45,0,0,1-1.7,1.19,13.77,13.77,0,0,1-11.74.71,20.57,20.57,0,0,1-5.7-3.46,25.14,25.14,0,0,1-3.66-4l-1.18-1.73-.75-1.4a4.34,4.34,0,0,1-.56-1.24,7.58,7.58,0,0,1,.81,1.07l.87,1.31,1.25,1.65a28.29,28.29,0,0,0,3.69,3.81,21.17,21.17,0,0,0,5.5,3.27,13.62,13.62,0,0,0,11.19-.45A27,27,0,0,0,1502.79,888.89Z"/><path class="cls-56" d="M1543.93,894.52a8.74,8.74,0,0,1-2.48,2.37,18.28,18.28,0,0,1-15.74,2.64,8.16,8.16,0,0,1-3-1.43c0-.12,1.24.42,3.22.89a20.33,20.33,0,0,0,15.3-2.58A26.28,26.28,0,0,1,1543.93,894.52Z"/><path class="cls-56" d="M1510,775.15a8,8,0,0,1,0,1V779c0,2.57,0,6.11.1,10.42v34.37c0,13.37-.16,25.49-.21,34.37-.07,4.32-.14,7.79-.17,10.42a25.57,25.57,0,0,1-.09,2.83,4,4,0,0,1-.09,1,5.32,5.32,0,0,1-.07-1v-2.83c0-2.57,0-6.1-.08-10.42V823.75c0-13.37.14-25.48.2-34.37,0-4.31.1-7.79.15-10.42,0-1.15,0-2.1.08-2.83A4.13,4.13,0,0,1,1510,775.15Z"/><path class="cls-56" d="M1537.31,757a37.55,37.55,0,0,0-21.73,13.58,12.7,12.7,0,0,1,2.21-3.25,29.62,29.62,0,0,1,15.69-9.87A11.57,11.57,0,0,1,1537.31,757Z"/><path class="cls-56" d="M1510,775.15a13,13,0,0,0-.62-1.56,16,16,0,0,0-2.92-3.44,79.21,79.21,0,0,0-12.09-8.87,100.28,100.28,0,0,0-13.25-7,30.58,30.58,0,0,0-4.26-1.46c-1-.25-1.62-.25-1.62-.33a4,4,0,0,1,1.68,0,22.52,22.52,0,0,1,4.4,1.25,80.05,80.05,0,0,1,13.44,6.82,67,67,0,0,1,12.1,9.14,14.24,14.24,0,0,1,2.81,3.72A2.74,2.74,0,0,1,1510,775.15Z"/><path class="cls-7" d="M1493.57,971.4c-.08,0,0-1.3-.29-3.57a38.67,38.67,0,0,0-2.53-9.34c-1.51-3.81-3.7-8.14-5.85-13.12a125.78,125.78,0,0,1-5.86-16.71,124.11,124.11,0,0,1-4.42-31.85c0-4.12.17-7.47.35-9.76.1-1.07.19-1.95.27-2.65a4.77,4.77,0,0,1,.15-.92,3.7,3.7,0,0,1,0,.94l-.12,2.65c-.07,2.3-.2,5.62-.09,9.72a130.78,130.78,0,0,0,10.39,48.26c2.1,5,4.31,9.35,5.7,13.24a36.22,36.22,0,0,1,2.31,9.48,21.43,21.43,0,0,1,.08,2.66A4,4,0,0,1,1493.57,971.4Z"/><path class="cls-7" d="M1548,897.73a3.26,3.26,0,0,1,.13.93c0,.7.12,1.56.19,2.68s.17,2.6.2,4.27.1,3.55,0,5.63c0,4.19-.21,9.17-.62,14.7s-1.14,11.55-2.1,17.85a309.21,309.21,0,0,1-6.79,31.93c-1.08,4-2,7.29-2.71,9.52-.33,1-.59,1.88-.8,2.55a6.49,6.49,0,0,1-.33.87,3.66,3.66,0,0,1,.18-.92c.16-.68.39-1.56.66-2.6.59-2.26,1.52-5.52,2.45-9.56,2-8.09,4.54-19.33,6.57-31.91,1-6.23,1.66-12.31,2.14-17.79s.73-10.47.79-14.64V898.66A4.83,4.83,0,0,1,1548,897.73Z"/><path class="cls-7" d="M1565.92,736.48a2.12,2.12,0,0,1,.18.37l.5,1.11c.19.45.48,1.09.74,1.82s.56,1.56.87,2.55a62.51,62.51,0,0,1,2.68,17,129.6,129.6,0,0,1-2.16,25.41,281.52,281.52,0,0,1-6.93,30.4c-2.94,10.67-6.14,20.71-8.66,29.91a167.77,167.77,0,0,0-4.54,25c-.74,7.21-.95,13.08-1,17.13V893a1.48,1.48,0,0,1,0,.42,1.48,1.48,0,0,1,0-.42V891.8c0-1.06-.08-2.63-.11-4.67,0-4.07.12-10,.79-17.13a162.91,162.91,0,0,1,4.34-25.12c2.51-9.27,5.67-19.29,8.61-29.94a293,293,0,0,0,7-30.31,133,133,0,0,0,2.32-25.27,65.58,65.58,0,0,0-2.57-17c-.3-1-.58-1.82-.8-2.57s-.5-1.33-.68-1.83l-.41-1.14A1.38,1.38,0,0,1,1565.92,736.48Z"/><path class="cls-57" d="M1553.19,566.45s19.58,4.67,28.54,27.82c0,0,4.54,11,9.41,24.73S1604,651.15,1604,651.15l53.3,50.74L1647.49,718s-55-34-62-40.83c-7.35-7.24-25.3-55.34-25.3-55.34l-14.5-56.92Z"/><path class="cls-57" d="M1477.1,565.89s-19,3.53-28,26.73c0,0-4.53,11-9.4,24.73s-12.9,32.17-12.9,32.17l-53.37,50.81,9.84,16.08s55-34,62-40.83c7.18-7.07,24.53-53.27,25.28-55.27v-.14l13.7-55.36Z"/><path class="cls-45" d="M1468.13,625.61s3.32,41.56,3.78,47.91c.79,10.6-17,40.84-22.45,59.78,0,0,30.92,20,65.14,18.68s56.19-19.44,56.19-19.44c-2.62-17.5-14.72-43.25-15.65-59.16l5.91-37.67a100.77,100.77,0,0,0-2.16-32.16l-11-38.27-17.72-3.11s.19,18.29-18.24,18.37c-16.33.12-16.45-17.13-16.45-17.13l-15.78,2Z"/><path class="cls-57" d="M1469.71,645.44s35.15,20,30.81,28-28.64,1.81-28.64,1.81Z"/><path class="cls-57" d="M1559.91,642.87s-35.73,22.25-31.39,30.29,26.62.21,26.62.21Z"/><path class="cls-58" d="M1465.75,601a26.93,26.93,0,0,1,.69,4.39c.36,3,.82,6.6,1.32,10.61s.83,7.93,1,10.67a22.06,22.06,0,0,1,0,4.45,28.36,28.36,0,0,1-.61-4.41c-.34-3-.75-6.6-1.21-10.61s-.9-7.91-1.1-10.65A22.07,22.07,0,0,1,1465.75,601Z"/><path class="cls-39" d="M1508.85,639.62a6.67,6.67,0,0,1-1.13.9,20.36,20.36,0,0,1-3.46,1.81,23.1,23.1,0,0,1-24.2-4.16,20.47,20.47,0,0,1-2.7-2.88,4.73,4.73,0,0,1-.8-1.23c.12-.09,1.33,1.56,3.85,3.66a24,24,0,0,0,23.71,4.08C1507.1,640.69,1508.78,639.49,1508.85,639.62Z"/><g class="cls-60"><path d="M1478.31,636.14a18.13,18.13,0,0,0,14.41,12.65c6.67.82,13.41-3.63,17-9.48-4.85,2.49-8.92,4.31-14.68,4.37s-13.13-2.88-16.71-7.54"/></g><path class="cls-39" d="M1525.79,638.74c0-.12,1.75,1.06,4.79,2.18a23.93,23.93,0,0,0,23.69-4.07c2.54-2.08,3.75-3.76,3.86-3.66a4.45,4.45,0,0,1-.79,1.23,20.31,20.31,0,0,1-2.7,2.86,23.12,23.12,0,0,1-24.2,4.17,18.44,18.44,0,0,1-3.46-1.82A6.35,6.35,0,0,1,1525.79,638.74Z"/><g class="cls-60"><path d="M1556.39,635.27A18.15,18.15,0,0,1,1542,647.91c-6.68.81-13.41-3.62-17-9.49,4.85,2.5,8.92,4.33,14.68,4.39s13.11-2.9,16.71-7.54"/></g><path class="cls-39" d="M1550.72,708.67a3.62,3.62,0,0,1-.68.41l-2,1c-1.77.86-4.33,2.09-7.56,3.55A266.09,266.09,0,0,1,1515.2,724a148.64,148.64,0,0,1-14.45,4.14,105.42,105.42,0,0,1-12.1,2.06c-1.74.25-3.31.31-4.7.4s-2.57.14-3.54.14h-2.25a2.62,2.62,0,0,1-.79,0,3,3,0,0,1,.79-.11l2.24-.14a28.23,28.23,0,0,0,3.52-.28c1.38-.17,3-.23,4.66-.51a118.62,118.62,0,0,0,12-2.23c4.45-1,9.33-2.47,14.38-4.17,10.06-3.44,18.93-7.3,25.33-10.09l7.56-3.31,2.08-.87A2.58,2.58,0,0,1,1550.72,708.67Z"/><path class="cls-39" d="M1530.13,708.49a9.69,9.69,0,0,1-1.29.73c-.86.42-2.08,1-3.66,1.56a70.45,70.45,0,0,1-25.7,4.67,35.25,35.25,0,0,1-4-.19A4.59,4.59,0,0,1,1494,715c0-.12,2.09,0,5.42-.17A85.78,85.78,0,0,0,1525,710.2C1528.16,709.17,1530.08,708.38,1530.13,708.49Z"/><path class="cls-7" d="M1551,614a28.49,28.49,0,0,1-7.7.69,29.22,29.22,0,0,1-7.69-.61,50.63,50.63,0,0,1,7.69-.2A52.08,52.08,0,0,1,1551,614Z"/><path class="cls-7" d="M1549.83,611.8a56,56,0,0,1-13.44,0A56,56,0,0,1,1549.83,611.8Z"/></g></g></g></svg>