<svg xmlns="http://www.w3.org/2000/svg" viewBox="0 0 453.83 344.9"><defs><style>.cls-1{fill:#8b2789;}.cls-2{fill:none;stroke:#231f20;stroke-miterlimit:10;stroke-width:2px;}.cls-3,.cls-4{fill:#231f20;}.cls-4{font-size:300px;font-family:Georgia;}</style></defs><title>logo georgia</title><g id="Calque_2" data-name="Calque 2"><g id="Calque_2-2" data-name="Calque 2"><path class="cls-1" d="M319.19,285s10,5.51,25.68,7.34a45.68,45.68,0,0,0,22.93-2.76c4.83-2,12.91-9,16.51-12.84S395.7,265,398.07,260.21c2.17-4.44,6.48-14.43,7.58-19.26,1.2-5.26,1.8-15.7,1.59-21.09-.23-5.58-4.83-16.11-7.34-21.1-4.18-8.28-16-23.45-23.85-28.43-6-3.82-27.51-7.34-27.51-7.34s-8-31.36-13.76-40.36c-4.78-7.52-17.88-20.44-25.68-24.76-7-3.86-22.36-9.05-30.27-10.09s-24.4-2.26-32.1,0c-7.88,2.31-22.45,10.83-28.37,16.51-8.52,8.16-28.5,37.61-28.5,37.61s-26.12-5.58-34.85-4.59c-8.51,1-27.37,7.64-34.1,12.92-5.78,4.54-16.35,21.93-16.35,21.93l-11,20.18s-23.65-2.91-31.19-.92c-7,1.85-20,9.57-24.76,15.05-5,5.83-12.61,19.71-14.68,27.15-2.15,7.73-2.92,24.62,0,32.1s15.19,19.45,22,23.84c5.74,3.7,19.88,7.82,26.69,8.18,8.72.45,32.93-7.26,32.93-7.26s21.38,14.39,29.35,17.43c6.77,2.57,21.23,6.76,28.44,7.5,7.75.8,23.57-.33,31.18-2,6.68-1.47,24.83-11.46,24.83-11.46s16.2,9.17,21.95,11.46c11.37,4.54,21.8,8.5,34.85,6.42a58.08,58.08,0,0,0,22.93-10.09C310.57,300.77,319.19,285,319.19,285Z"/><line class="cls-2" y1="265.08" x2="419.16" y2="266"/><line class="cls-2" x1="0.97" y1="233.11" x2="418.29" y2="232.19"/><rect class="cls-3" x="33.48" y="233.04" width="6.42" height="32.5"/><rect class="cls-3" x="47.47" y="233.04" width="6.42" height="32.5"/><rect class="cls-3" x="61.6" y="233.04" width="6.42" height="32.5"/><rect class="cls-3" x="75.84" y="233.04" width="6.42" height="32.5"/><rect class="cls-3" x="90.35" y="233.04" width="6.42" height="32.5"/><rect class="cls-3" x="103.25" y="233.04" width="6.42" height="32.5"/><rect class="cls-3" x="117.03" y="233.04" width="6.42" height="32.5"/><rect class="cls-3" x="130.46" y="233.04" width="6.42" height="32.5"/><rect class="cls-3" x="143.38" y="233.04" width="6.42" height="32.5"/><rect class="cls-3" x="156.16" y="232.48" width="6.42" height="32.5"/><rect class="cls-3" x="169.23" y="233.04" width="6.42" height="32.5"/><rect class="cls-3" x="182.07" y="233.04" width="6.42" height="32.5"/><rect class="cls-3" x="194.82" y="233.04" width="6.42" height="32.5"/><rect class="cls-3" x="207.71" y="232.48" width="6.42" height="32.5"/><rect class="cls-3" x="220.74" y="232.48" width="6.42" height="32.5"/><rect class="cls-3" x="233.66" y="232.48" width="6.42" height="32.5"/><rect class="cls-3" x="246.96" y="232.48" width="6.42" height="32.5"/><rect class="cls-3" x="259.8" y="233.04" width="6.42" height="32.5"/><rect class="cls-3" x="273.1" y="232.48" width="6.42" height="32.5"/><rect class="cls-3" x="285.94" y="232.48" width="6.42" height="32.5"/><rect class="cls-3" x="298.78" y="232.48" width="6.42" height="32.5"/><rect class="cls-3" x="311.45" y="232.48" width="6.42" height="32.5"/><rect class="cls-3" x="324" y="232.48" width="6.42" height="32.5"/><rect class="cls-3" x="337.07" y="233.04" width="6.42" height="32.5"/><rect class="cls-3" x="350.52" y="232.48" width="6.42" height="32.5"/><rect class="cls-3" x="363.65" y="232.48" width="6.42" height="32.5"/><rect class="cls-3" x="376.97" y="232.48" width="6.42" height="32.5"/><text class="cls-4" transform="translate(60.01 253.93)">Tt</text></g></g></svg>