<svg width="231" height="279" viewBox="0 0 231 279" fill="none" xmlns="http://www.w3.org/2000/svg">
<path d="M191.296 245.927C191.296 245.927 195.759 248.396 202.765 249.23C206.229 249.71 209.758 249.296 213.016 248.027C215.177 247.139 218.795 244.001 220.408 242.313C222.021 240.625 225.511 237.081 226.575 234.937C227.55 232.953 229.487 228.499 229.983 226.348C230.525 223.998 230.804 219.339 230.716 216.933C230.619 214.442 228.574 209.737 227.458 207.508C225.598 203.808 220.332 197.025 216.829 194.794C214.151 193.082 204.542 191.489 204.542 191.489C204.542 191.489 200.999 177.483 198.435 173.465C196.306 170.099 190.465 164.319 186.984 162.382C183.86 160.652 177 158.342 173.466 157.847C169.932 157.352 162.564 156.817 159.12 157.813C155.596 158.836 149.075 162.628 146.424 165.152C142.607 168.785 133.647 181.908 133.647 181.908C133.647 181.908 121.979 179.395 118.076 179.823C114.272 180.26 105.836 183.204 102.823 185.558C100.235 187.573 95.4924 195.328 95.4924 195.328L90.5551 204.319C90.5551 204.319 79.9885 202.995 76.6166 203.88C73.4862 204.698 67.6681 208.13 65.535 210.549C63.2942 213.15 59.8785 219.337 58.9456 222.651C57.9766 226.098 57.6146 233.64 58.9118 236.978C60.2089 240.315 65.68 245.675 68.7189 247.646C71.2803 249.299 77.5954 251.152 80.6386 251.32C84.5352 251.53 95.3633 248.115 95.3633 248.115C95.3633 248.115 104.903 254.564 108.462 255.925C111.485 257.084 117.943 258.965 121.165 259.302C124.627 259.668 131.699 259.184 135.102 258.443C138.089 257.798 146.211 253.354 146.211 253.354C146.211 253.354 153.441 257.464 156.009 258.492C161.085 260.535 165.742 262.309 171.577 261.394C175.282 260.667 178.783 259.139 181.835 256.92C187.427 252.947 191.296 245.927 191.296 245.927Z" fill="#8B2789"/>
<g filter="url(#filter0_f_177:6)">
<path d="M158.604 237.836C158.604 237.836 163.012 240.403 169.998 241.391C173.45 241.947 176.987 241.611 180.272 240.413C182.452 239.574 186.139 236.516 187.789 234.864C189.438 233.212 193.005 229.746 194.117 227.625C195.135 225.663 197.169 221.253 197.713 219.114C198.306 216.776 198.688 212.124 198.653 209.717C198.611 207.225 196.67 202.476 195.603 200.222C193.826 196.482 188.71 189.585 185.257 187.277C182.618 185.507 173.045 183.702 173.045 183.702C173.045 183.702 169.812 169.623 167.337 165.549C165.283 162.137 159.571 156.229 156.133 154.217C153.047 152.418 146.241 149.957 142.718 149.385C139.196 148.812 131.841 148.115 128.377 149.035C124.831 149.98 118.228 153.627 115.521 156.092C111.626 159.64 102.379 172.563 102.379 172.563C102.379 172.563 90.7691 169.793 86.8579 170.135C83.0449 170.488 74.5462 173.246 71.4817 175.533C68.85 177.491 63.938 185.139 63.938 185.139L58.8038 194.019C58.8038 194.019 48.2689 192.463 44.8784 193.273C41.7307 194.022 35.8384 197.325 33.6526 199.696C31.3551 202.247 27.804 208.358 26.7982 211.65C25.7535 215.076 25.2255 222.608 26.4488 225.973C27.6722 229.338 33.0239 234.817 36.0186 236.854C38.543 238.563 44.8158 240.556 47.8545 240.791C51.7456 241.086 62.6462 237.91 62.6462 237.91C62.6462 237.91 72.0418 244.568 75.5698 246.007C78.5664 247.232 84.9815 249.255 88.1948 249.663C91.6487 250.105 98.7291 249.778 102.147 249.111C105.148 248.532 113.366 244.268 113.366 244.268C113.366 244.268 120.504 248.536 123.048 249.621C128.079 251.775 132.696 253.651 138.549 252.865C142.269 252.219 145.803 250.77 148.904 248.617C154.581 244.769 158.604 237.836 158.604 237.836Z" fill="#8B2789" fill-opacity="0.25"/>
</g>
<path d="M155.454 74.1991C155.454 74.1991 158.368 74.8246 162.426 74.1047C164.445 73.787 166.348 72.958 167.955 71.6966C169.013 70.8345 170.505 68.4672 171.121 67.2504C171.737 66.0335 173.089 63.4607 173.321 62.0815C173.53 60.8072 173.859 57.9885 173.773 56.7021C173.678 55.2958 173.045 52.6433 172.589 51.3129C172.113 49.9365 170.173 47.6519 169.171 46.594C167.505 44.8398 163.412 41.9382 161.076 41.2837C159.289 40.78 153.645 41.5155 153.645 41.5155C153.645 41.5155 149.294 34.2836 147.179 32.4706C145.419 30.9487 141.174 28.7052 138.9 28.2118C136.86 27.7732 132.633 27.6424 130.573 27.9639C128.513 28.2855 124.302 29.2336 122.545 30.3735C120.748 31.542 117.743 34.7661 116.688 36.6266C115.169 39.3042 112.379 48.1594 112.379 48.1594C112.379 48.1594 105.429 48.7289 103.32 49.629C101.266 50.5175 97.0473 53.5917 95.7607 55.4181C94.6547 56.9833 93.3156 62.1226 93.3156 62.1226L92.0766 67.9859C92.0766 67.9859 85.9438 69.0344 84.208 70.0999C82.596 71.0874 79.9236 73.9914 79.1402 75.7049C78.3275 77.5388 77.4648 81.5767 77.5041 83.5878C77.5458 85.6798 78.6202 89.9585 79.9104 91.605C81.2007 93.2515 85.1674 95.3226 87.2004 95.9103C88.9125 96.401 92.7577 96.3686 94.4878 95.9473C96.7024 95.4052 102.179 91.6622 102.179 91.6622C102.179 91.6622 108.606 93.6538 110.826 93.8123C112.713 93.9485 116.642 93.9071 118.501 93.5507C120.499 93.1687 124.372 91.7015 126.149 90.7106C127.71 89.8446 131.5 85.9846 131.5 85.9846C131.5 85.9846 136.239 87.0588 137.848 87.1991C141.033 87.482 143.937 87.6856 147.045 86.1865C148.994 85.1525 150.693 83.7058 152.024 81.9477C154.479 78.7798 155.454 74.1991 155.454 74.1991Z" fill="#8B2789"/>
<g filter="url(#filter1_f_177:6)">
<path d="M138.514 69.5209C138.514 69.5209 141.411 69.9233 145.331 68.9264C147.284 68.4702 149.087 67.5217 150.569 66.1714C151.543 65.2515 152.833 62.827 153.348 61.5916C153.864 60.3563 155.001 57.7407 155.129 56.374C155.242 55.1117 155.361 52.3292 155.184 51.0764C154.99 49.7067 154.18 47.1561 153.637 45.8867C153.073 44.5738 151.009 42.4773 149.953 41.514C148.196 39.917 143.98 37.3717 141.646 36.8993C139.861 36.535 134.39 37.6612 134.39 37.6612C134.39 37.6612 129.61 30.8961 127.41 29.2738C125.578 27.911 121.262 26.0207 119 25.7015C116.972 25.4191 112.825 25.5954 110.832 26.0584C108.839 26.5214 104.786 27.7526 103.148 28.9948C101.473 30.2679 98.7645 33.6399 97.8653 35.5369C96.5713 38.267 94.4788 47.1351 94.4788 47.1351C94.4788 47.1351 87.7174 48.1929 85.7171 49.2258C83.7713 50.2433 79.8632 53.556 78.7355 55.4362C77.7657 57.0479 76.825 62.1745 76.825 62.1745L76.0344 68.0026C76.0344 68.0026 70.1073 69.4703 68.485 70.6382C66.9784 71.7208 64.5717 74.7555 63.9283 76.4891C63.2649 78.3426 62.7112 82.3569 62.8945 84.3224C63.086 86.3671 64.4456 90.4776 65.827 91.9963C67.2084 93.5149 71.24 95.2564 73.2722 95.6853C74.9833 96.0424 78.7445 95.7338 80.4076 95.1969C82.5361 94.5068 87.6272 90.449 87.6272 90.449C87.6272 90.449 94.0606 91.9356 96.2453 91.9309C98.1016 91.9284 101.945 91.6049 103.738 91.1222C105.667 90.6045 109.351 88.8896 111.02 87.7918C112.485 86.8317 115.917 82.7808 115.917 82.7808C115.917 82.7808 120.632 83.4911 122.218 83.5125C125.355 83.5601 128.213 83.5503 131.147 81.8593C132.98 80.7069 134.539 79.1686 135.715 77.352C137.889 74.0746 138.514 69.5209 138.514 69.5209Z" fill="#8B2789" fill-opacity="0.25"/>
</g>
<defs>
<filter id="filter0_f_177:6" x="0.742188" y="123.589" width="222.913" height="154.459" filterUnits="userSpaceOnUse" color-interpolation-filters="sRGB">
<feFlood flood-opacity="0" result="BackgroundImageFix"/>
<feBlend mode="normal" in="SourceGraphic" in2="BackgroundImageFix" result="shape"/>
<feGaussianBlur stdDeviation="12.5" result="effect1_foregroundBlur_177:6"/>
</filter>
<filter id="filter1_f_177:6" x="37.8589" y="0.565567" width="142.416" height="120.273" filterUnits="userSpaceOnUse" color-interpolation-filters="sRGB">
<feFlood flood-opacity="0" result="BackgroundImageFix"/>
<feBlend mode="normal" in="SourceGraphic" in2="BackgroundImageFix" result="shape"/>
<feGaussianBlur stdDeviation="12.5" result="effect1_foregroundBlur_177:6"/>
</filter>
</defs>
</svg>
