<svg width="144" height="121" viewBox="0 0 144 121" fill="none" xmlns="http://www.w3.org/2000/svg">
<path d="M118.454 74.1991C118.454 74.1991 121.368 74.8246 125.426 74.1047C127.445 73.787 129.348 72.958 130.955 71.6966C132.013 70.8345 133.505 68.4672 134.121 67.2504C134.737 66.0335 136.089 63.4607 136.321 62.0815C136.53 60.8072 136.859 57.9886 136.773 56.7021C136.678 55.2958 136.045 52.6433 135.589 51.3129C135.113 49.9365 133.173 47.6519 132.171 46.594C130.505 44.8398 126.412 41.9382 124.076 41.2837C122.289 40.78 116.645 41.5155 116.645 41.5155C116.645 41.5155 112.294 34.2836 110.179 32.4706C108.419 30.9488 104.174 28.7052 101.9 28.2118C99.8599 27.7732 95.6331 27.6424 93.5732 27.9639C91.5132 28.2855 87.3022 29.2336 85.5452 30.3735C83.7476 31.542 80.7432 34.7661 79.6877 36.6266C78.1686 39.3042 75.3794 48.1594 75.3794 48.1594C75.3794 48.1594 68.4294 48.7289 66.3196 49.629C64.2663 50.5175 60.0473 53.5917 58.7607 55.4181C57.6547 56.9833 56.3156 62.1226 56.3156 62.1226L55.0766 67.9859C55.0766 67.9859 48.9438 69.0344 47.208 70.0999C45.596 71.0874 42.9236 73.9914 42.1402 75.7049C41.3275 77.5388 40.4648 81.5767 40.5041 83.5878C40.5458 85.6798 41.6202 89.9585 42.9104 91.605C44.2007 93.2515 48.1674 95.3226 50.2004 95.9103C51.9125 96.401 55.7577 96.3686 57.4878 95.9473C59.7024 95.4052 65.1792 91.6622 65.1792 91.6622C65.1792 91.6622 71.6056 93.6538 73.826 93.8123C75.7126 93.9485 79.6423 93.9071 81.5009 93.5507C83.4991 93.1687 87.3716 91.7015 89.1489 90.7106C90.7101 89.8446 94.4996 85.9846 94.4996 85.9846C94.4996 85.9846 99.2385 87.0588 100.848 87.1991C104.033 87.482 106.937 87.6856 110.045 86.1865C111.994 85.1525 113.693 83.7058 115.024 81.9477C117.479 78.7798 118.454 74.1991 118.454 74.1991Z" fill="#8B2789"/>
<g filter="url(#filter0_f_174:5)">
<path d="M101.514 69.5209C101.514 69.5209 104.411 69.9233 108.331 68.9264C110.284 68.4703 112.087 67.5217 113.569 66.1714C114.543 65.2515 115.833 62.827 116.348 61.5916C116.864 60.3563 118.001 57.7407 118.129 56.374C118.242 55.1117 118.361 52.3292 118.184 51.0764C117.99 49.7067 117.18 47.1561 116.637 45.8868C116.073 44.5738 114.009 42.4773 112.953 41.514C111.196 39.917 106.98 37.3717 104.646 36.8993C102.861 36.535 97.3904 37.6612 97.3904 37.6612C97.3904 37.6612 92.6105 30.8961 90.4104 29.2738C88.5782 27.911 84.262 26.0207 82.0002 25.7015C79.9719 25.4191 75.8255 25.5954 73.8324 26.0584C71.8393 26.5214 67.786 27.7526 66.1483 28.9948C64.473 30.2679 61.7645 33.6399 60.8653 35.5369C59.5713 38.267 57.4788 47.1351 57.4788 47.1351C57.4788 47.1351 50.7174 48.1929 48.7171 49.2258C46.7713 50.2433 42.8632 53.556 41.7355 55.4362C40.7657 57.0479 39.825 62.1745 39.825 62.1745L39.0344 68.0026C39.0344 68.0026 33.1073 69.4703 31.485 70.6382C29.9784 71.7208 27.5717 74.7555 26.9283 76.4891C26.2649 78.3426 25.7112 82.3569 25.8945 84.3224C26.086 86.367 27.4456 90.4776 28.827 91.9963C30.2084 93.5149 34.24 95.2564 36.2722 95.6853C37.9833 96.0424 41.7445 95.7338 43.4076 95.1969C45.5361 94.5068 50.6272 90.449 50.6272 90.449C50.6272 90.449 57.0606 91.9356 59.2453 91.9309C61.1016 91.9284 64.9449 91.6049 66.7385 91.1222C68.6667 90.6045 72.3514 88.8896 74.0196 87.7918C75.4853 86.8317 78.9165 82.7808 78.9165 82.7808C78.9165 82.7808 83.6322 83.4911 85.2178 83.5125C88.3553 83.5601 91.2129 83.5503 94.1468 81.8593C95.9796 80.7069 97.5387 79.1686 98.7149 77.352C100.889 74.0746 101.514 69.5209 101.514 69.5209Z" fill="#8B2789" fill-opacity="0.25"/>
</g>
<defs>
<filter id="filter0_f_174:5" x="0.858887" y="0.565567" width="142.416" height="120.273" filterUnits="userSpaceOnUse" color-interpolation-filters="sRGB">
<feFlood flood-opacity="0" result="BackgroundImageFix"/>
<feBlend mode="normal" in="SourceGraphic" in2="BackgroundImageFix" result="shape"/>
<feGaussianBlur stdDeviation="12.5" result="effect1_foregroundBlur_174:5"/>
</filter>
</defs>
</svg>
