<svg width="228" height="155" viewBox="0 0 228 155" fill="none" xmlns="http://www.w3.org/2000/svg">
<g filter="url(#filter0_f_174:4)">
<path d="M153.869 117.825C153.869 117.825 157.803 121.071 164.537 123.176C167.854 124.283 171.4 124.524 174.835 123.873C177.122 123.397 181.255 120.976 183.15 119.613C185.045 118.25 189.126 115.406 190.565 113.493C191.887 111.721 194.608 107.698 195.491 105.676C196.455 103.464 197.584 98.9354 197.939 96.5541C198.3 94.0879 197.153 89.088 196.465 86.6913C195.316 82.713 191.383 75.0788 188.348 72.2431C186.03 70.0697 176.876 66.7402 176.876 66.7402C176.876 66.7402 175.963 52.3229 174.179 47.9021C172.704 44.203 168.023 37.4493 164.955 34.9071C162.201 32.6332 155.882 29.1038 152.499 27.969C149.116 26.8343 141.971 24.9566 138.403 25.304C134.751 25.6629 127.645 28.1941 124.575 30.1892C120.157 33.0605 108.941 44.3171 108.941 44.3171C108.941 44.3171 97.9329 39.7058 94.0179 39.4108C90.1979 39.1429 81.3651 40.4891 77.9711 42.2503C75.0573 43.7571 68.9729 50.5104 68.9729 50.5104L62.47 58.4428C62.47 58.4428 52.3256 55.2031 48.8486 55.4542C45.6212 55.6844 39.2723 57.9908 36.7318 59.9769C34.0519 62.123 29.5592 67.5783 28.0341 70.6649C26.4491 73.8764 24.7097 81.2241 25.3727 84.7425C26.0357 88.2609 30.4307 94.5335 33.0564 97.0285C35.2712 99.1233 41.139 102.104 44.0998 102.827C47.8918 103.749 59.1627 102.377 59.1627 102.377C59.1627 102.377 67.3576 110.468 70.6064 112.458C73.3655 114.152 79.3689 117.185 82.4738 118.108C85.8108 119.103 92.8509 119.925 96.332 119.82C99.3866 119.734 108.186 116.855 108.186 116.855C108.186 116.855 114.54 122.222 116.875 123.704C121.491 126.643 125.744 129.241 131.647 129.412C135.423 129.377 139.144 128.518 142.552 126.896C148.778 124.016 153.869 117.825 153.869 117.825Z" fill="#8B2789" fill-opacity="0.25"/>
</g>
<path d="M171.869 130.825C171.869 130.825 175.803 134.071 182.537 136.176C185.854 137.283 189.4 137.524 192.835 136.873C195.122 136.397 199.255 133.976 201.15 132.613C203.045 131.25 207.126 128.406 208.565 126.493C209.887 124.721 212.608 120.698 213.491 118.676C214.455 116.464 215.584 111.935 215.939 109.554C216.3 107.088 215.153 102.088 214.465 99.6913C213.316 95.713 209.383 88.0788 206.348 85.2431C204.03 83.0697 194.876 79.7402 194.876 79.7402C194.876 79.7402 193.963 65.3229 192.179 60.9021C190.704 57.203 186.023 50.4493 182.955 47.9071C180.201 45.6332 173.882 42.1038 170.499 40.969C167.116 39.8343 159.971 37.9566 156.403 38.304C152.751 38.6629 145.645 41.1941 142.575 43.1892C138.157 46.0605 126.941 57.3171 126.941 57.3171C126.941 57.3171 115.933 52.7058 112.018 52.4108C108.198 52.1429 99.3651 53.4891 95.9711 55.2503C93.0573 56.7571 86.9729 63.5104 86.9729 63.5104L80.47 71.4428C80.47 71.4428 70.3256 68.2031 66.8486 68.4542C63.6212 68.6844 57.2723 70.9908 54.7318 72.9769C52.0519 75.123 47.5592 80.5783 46.0341 83.6649C44.4491 86.8764 42.7097 94.2241 43.3727 97.7425C44.0357 101.261 48.4307 107.533 51.0564 110.028C53.2712 112.123 59.139 115.104 62.0998 115.827C65.8918 116.749 77.1627 115.377 77.1627 115.377C77.1627 115.377 85.3576 123.468 88.6064 125.458C91.3655 127.152 97.3689 130.185 100.474 131.108C103.811 132.103 110.851 132.925 114.332 132.82C117.387 132.734 126.186 129.855 126.186 129.855C126.186 129.855 132.54 135.222 134.875 136.704C139.491 139.643 143.744 142.241 149.647 142.412C153.423 142.377 157.144 141.518 160.552 139.896C166.778 137.016 171.869 130.825 171.869 130.825Z" fill="#8B2789"/>
<defs>
<filter id="filter0_f_174:4" x="0.228027" y="0.26181" width="222.779" height="154.151" filterUnits="userSpaceOnUse" color-interpolation-filters="sRGB">
<feFlood flood-opacity="0" result="BackgroundImageFix"/>
<feBlend mode="normal" in="SourceGraphic" in2="BackgroundImageFix" result="shape"/>
<feGaussianBlur stdDeviation="12.5" result="effect1_foregroundBlur_174:4"/>
</filter>
</defs>
</svg>
