<svg width="228" height="321" viewBox="0 0 228 321" fill="none" xmlns="http://www.w3.org/2000/svg">
<g filter="url(#filter0_f_177:7)">
<path d="M153.869 117.825C153.869 117.825 157.803 121.071 164.537 123.176C167.854 124.283 171.4 124.524 174.835 123.873C177.122 123.397 181.255 120.976 183.15 119.613C185.045 118.25 189.126 115.406 190.565 113.493C191.887 111.721 194.608 107.698 195.491 105.676C196.455 103.464 197.584 98.9354 197.939 96.5541C198.3 94.0879 197.153 89.088 196.465 86.6913C195.316 82.713 191.383 75.0788 188.348 72.2431C186.03 70.0697 176.876 66.7402 176.876 66.7402C176.876 66.7402 175.963 52.3229 174.179 47.9021C172.704 44.203 168.023 37.4493 164.955 34.9071C162.201 32.6332 155.882 29.1038 152.499 27.969C149.116 26.8343 141.971 24.9566 138.403 25.304C134.751 25.6629 127.645 28.1941 124.575 30.1892C120.157 33.0605 108.941 44.3171 108.941 44.3171C108.941 44.3171 97.9329 39.7058 94.0179 39.4108C90.1979 39.1429 81.3651 40.4891 77.9711 42.2503C75.0573 43.7571 68.9729 50.5104 68.9729 50.5104L62.47 58.4428C62.47 58.4428 52.3256 55.2031 48.8486 55.4542C45.6212 55.6844 39.2723 57.9908 36.7318 59.9769C34.0519 62.123 29.5592 67.5783 28.0341 70.6649C26.4491 73.8764 24.7097 81.2241 25.3727 84.7425C26.0357 88.2609 30.4307 94.5335 33.0564 97.0285C35.2712 99.1233 41.139 102.104 44.0998 102.827C47.8918 103.749 59.1627 102.377 59.1627 102.377C59.1627 102.377 67.3576 110.468 70.6064 112.458C73.3654 114.152 79.3689 117.185 82.4738 118.108C85.8108 119.103 92.8509 119.925 96.332 119.82C99.3866 119.734 108.186 116.855 108.186 116.855C108.186 116.855 114.54 122.222 116.875 123.704C121.491 126.643 125.744 129.241 131.647 129.412C135.423 129.377 139.144 128.518 142.552 126.896C148.778 124.016 153.869 117.825 153.869 117.825Z" fill="#8B2789" fill-opacity="0.25"/>
</g>
<path d="M171.869 130.825C171.869 130.825 175.803 134.071 182.537 136.176C185.854 137.283 189.4 137.524 192.835 136.873C195.122 136.397 199.255 133.976 201.15 132.613C203.045 131.25 207.126 128.406 208.565 126.493C209.887 124.721 212.608 120.698 213.491 118.676C214.455 116.464 215.584 111.935 215.939 109.554C216.3 107.088 215.153 102.088 214.465 99.6913C213.316 95.713 209.383 88.0788 206.348 85.2431C204.03 83.0697 194.876 79.7402 194.876 79.7402C194.876 79.7402 193.963 65.3229 192.179 60.9021C190.704 57.203 186.023 50.4493 182.955 47.9071C180.201 45.6332 173.882 42.1038 170.499 40.969C167.116 39.8343 159.971 37.9566 156.403 38.304C152.751 38.6629 145.645 41.1941 142.575 43.1892C138.157 46.0605 126.941 57.3171 126.941 57.3171C126.941 57.3171 115.933 52.7058 112.018 52.4108C108.198 52.1429 99.3651 53.4891 95.9711 55.2503C93.0573 56.7571 86.9729 63.5104 86.9729 63.5104L80.47 71.4428C80.47 71.4428 70.3256 68.2031 66.8486 68.4542C63.6212 68.6844 57.2723 70.9908 54.7318 72.9769C52.0519 75.123 47.5592 80.5783 46.0341 83.6649C44.4491 86.8764 42.7097 94.2241 43.3727 97.7425C44.0357 101.261 48.4307 107.533 51.0564 110.028C53.2712 112.123 59.139 115.104 62.0998 115.827C65.8918 116.749 77.1627 115.377 77.1627 115.377C77.1627 115.377 85.3576 123.468 88.6064 125.458C91.3654 127.152 97.3689 130.185 100.474 131.108C103.811 132.103 110.851 132.925 114.332 132.82C117.387 132.734 126.186 129.855 126.186 129.855C126.186 129.855 132.54 135.222 134.875 136.704C139.491 139.643 143.744 142.241 149.647 142.412C153.423 142.377 157.144 141.518 160.552 139.896C166.778 137.016 171.869 130.825 171.869 130.825Z" fill="#8B2789"/>
<path d="M148.878 292.956C148.878 292.956 151.486 294.399 155.579 294.886C157.603 295.166 159.665 294.924 161.568 294.183C162.831 293.664 164.945 291.831 165.887 290.845C166.83 289.858 168.869 287.788 169.49 286.535C170.06 285.376 171.191 282.773 171.482 281.517C171.798 280.144 171.961 277.422 171.91 276.016C171.853 274.561 170.659 271.812 170.006 270.509C168.92 268.348 165.843 264.384 163.796 263.081C162.232 262.081 156.617 261.15 156.617 261.15C156.617 261.15 154.548 252.968 153.049 250.62C151.806 248.653 148.393 245.276 146.359 244.145C144.534 243.134 140.526 241.784 138.461 241.495C136.397 241.206 132.092 240.893 130.08 241.475C128.021 242.073 124.211 244.288 122.662 245.763C120.432 247.885 115.197 255.553 115.197 255.553C115.197 255.553 108.38 254.084 106.1 254.334C103.877 254.59 98.9482 256.31 97.1876 257.685C95.6756 258.863 92.9049 263.393 92.9049 263.393L90.0202 268.646C90.0202 268.646 83.8466 267.873 81.8766 268.39C80.0476 268.868 76.6484 270.873 75.4021 272.286C74.093 273.806 72.0973 277.42 71.5522 279.357C70.9861 281.371 70.7746 285.777 71.5325 287.727C72.2903 289.677 75.4868 292.808 77.2623 293.96C78.7588 294.926 82.4485 296.009 84.2264 296.107C86.5031 296.23 92.8294 294.234 92.8294 294.234C92.8294 294.234 98.4032 298.002 100.482 298.797C102.249 299.474 106.022 300.573 107.904 300.771C109.927 300.984 114.059 300.702 116.047 300.268C117.792 299.892 122.537 297.295 122.537 297.295C122.537 297.295 126.762 299.696 128.262 300.297C131.228 301.491 133.949 302.527 137.358 301.993C139.522 301.568 141.568 300.675 143.351 299.378C146.618 297.057 148.878 292.956 148.878 292.956Z" fill="#8B2789"/>
<g filter="url(#filter1_f_177:7)">
<path d="M153.595 286.526C153.595 286.526 156.125 287.994 160.132 288.553C162.112 288.869 164.14 288.673 166.022 287.983C167.271 287.499 169.382 285.742 170.327 284.793C171.271 283.844 173.313 281.853 173.948 280.636C174.53 279.51 175.692 276.979 176.001 275.752C176.339 274.411 176.554 271.743 176.531 270.363C176.504 268.934 175.387 266.213 174.773 264.922C173.75 262.779 170.809 258.829 168.827 257.51C167.312 256.497 161.822 255.472 161.822 255.472C161.822 255.472 159.954 247.402 158.53 245.068C157.349 243.114 154.068 239.733 152.094 238.582C150.323 237.554 146.418 236.15 144.398 235.825C142.377 235.5 138.159 235.108 136.174 235.639C134.141 236.184 130.359 238.282 128.81 239.698C126.58 241.737 121.29 249.156 121.29 249.156C121.29 249.156 114.63 247.579 112.388 247.779C110.202 247.986 105.332 249.575 103.577 250.89C102.07 252.015 99.2611 256.406 99.2611 256.406L96.3261 261.503C96.3261 261.503 90.2838 260.621 88.3405 261.089C86.5364 261.522 83.1611 263.421 81.9102 264.783C80.5954 266.248 78.5653 269.755 77.9919 271.644C77.3963 273.61 77.1012 277.929 77.806 279.857C78.5108 281.785 81.585 284.922 83.3042 286.087C84.7534 287.064 88.3522 288.201 90.0948 288.332C92.3263 288.498 98.5735 286.666 98.5735 286.666C98.5735 286.666 103.968 290.474 105.992 291.295C107.711 291.995 111.392 293.148 113.235 293.379C115.216 293.629 119.275 293.434 121.235 293.048C122.955 292.714 127.662 290.26 127.662 290.26C127.662 290.26 131.76 292.7 133.22 293.32C136.106 294.55 138.755 295.621 142.111 295.164C144.243 294.79 146.268 293.956 148.044 292.718C151.296 290.506 153.595 286.526 153.595 286.526Z" fill="#8B2789" fill-opacity="0.25"/>
</g>
<defs>
<filter id="filter0_f_177:7" x="0.228027" y="0.26181" width="222.779" height="154.151" filterUnits="userSpaceOnUse" color-interpolation-filters="sRGB">
<feFlood flood-opacity="0" result="BackgroundImageFix"/>
<feBlend mode="normal" in="SourceGraphic" in2="BackgroundImageFix" result="shape"/>
<feGaussianBlur stdDeviation="12.5" result="effect1_foregroundBlur_177:7"/>
</filter>
<filter id="filter1_f_177:7" x="52.395" y="210.378" width="149.138" height="109.894" filterUnits="userSpaceOnUse" color-interpolation-filters="sRGB">
<feFlood flood-opacity="0" result="BackgroundImageFix"/>
<feBlend mode="normal" in="SourceGraphic" in2="BackgroundImageFix" result="shape"/>
<feGaussianBlur stdDeviation="12.5" result="effect1_foregroundBlur_177:7"/>
</filter>
</defs>
</svg>
