<svg width="231" height="156" viewBox="0 0 231 156" fill="none" xmlns="http://www.w3.org/2000/svg">
<path d="M191.296 122.927C191.296 122.927 195.759 125.396 202.765 126.23C206.229 126.71 209.758 126.296 213.016 125.027C215.177 124.139 218.795 121.001 220.408 119.313C222.021 117.625 225.511 114.081 226.575 111.937C227.55 109.953 229.487 105.499 229.983 103.348C230.525 100.998 230.804 96.3387 230.716 93.9328C230.619 91.4421 228.574 86.7375 227.458 84.5077C225.598 80.8077 220.332 74.0245 216.829 71.7936C214.151 70.0823 204.542 68.4885 204.542 68.4885C204.542 68.4885 200.999 54.4834 198.435 50.4649C196.306 47.0991 190.465 41.3188 186.984 39.3824C183.86 37.6523 177 35.342 173.466 34.8471C169.932 34.3523 162.564 33.8171 159.12 34.8132C155.596 35.8359 149.075 39.6277 146.424 42.1521C142.607 45.785 133.647 58.9081 133.647 58.9081C133.647 58.9081 121.979 56.3945 118.076 56.8227C114.272 57.2601 105.836 60.2037 102.823 62.5577C100.235 64.5734 95.4924 72.3282 95.4924 72.3282L90.5551 81.3189C90.5551 81.3189 79.9885 79.9952 76.6166 80.8798C73.4862 81.6981 67.6681 85.13 65.535 87.5485C63.2942 90.1498 59.8785 96.3367 58.9456 99.6507C57.9766 103.098 57.6146 110.64 58.9118 113.978C60.2089 117.315 65.68 122.675 68.7189 124.646C71.2803 126.299 77.5954 128.152 80.6386 128.32C84.5352 128.53 95.3633 125.115 95.3633 125.115C95.3633 125.115 104.903 131.564 108.462 132.925C111.485 134.084 117.943 135.965 121.165 136.302C124.627 136.668 131.699 136.184 135.102 135.443C138.089 134.798 146.211 130.354 146.211 130.354C146.211 130.354 153.441 134.464 156.009 135.492C161.085 137.535 165.742 139.309 171.577 138.394C175.282 137.667 178.783 136.139 181.835 133.92C187.427 129.947 191.296 122.927 191.296 122.927Z" fill="#8B2789"/>
<g filter="url(#filter0_f_174:2)">
<path d="M158.604 114.836C158.604 114.836 163.012 117.403 169.998 118.391C173.45 118.947 176.987 118.611 180.272 117.413C182.452 116.574 186.139 113.516 187.789 111.864C189.438 110.212 193.005 106.746 194.117 104.625C195.135 102.663 197.169 98.253 197.713 96.1143C198.306 93.776 198.688 89.1243 198.653 86.7171C198.611 84.2248 196.67 79.4763 195.603 77.2225C193.826 73.4824 188.71 66.5849 185.257 64.2773C182.618 62.5075 173.045 60.7025 173.045 60.7025C173.045 60.7025 169.812 46.6228 167.337 42.5487C165.283 39.1368 159.571 33.2293 156.133 31.2167C153.047 29.4181 146.241 26.9573 142.718 26.3847C139.196 25.8122 131.841 25.1149 128.377 26.0349C124.831 26.9797 118.228 30.6269 115.521 33.0923C111.626 36.6403 102.379 49.5628 102.379 49.5628C102.379 49.5628 90.7691 46.7929 86.8579 47.135C83.0449 47.4884 74.5462 50.2456 71.4817 52.5326C68.85 54.4908 63.938 62.1393 63.938 62.1393L58.8038 71.0191C58.8038 71.0191 48.2689 69.4629 44.8784 70.2731C41.7307 71.0223 35.8384 74.3251 33.6526 76.6961C31.3551 79.2473 27.804 85.3575 26.7982 88.6501C25.7535 92.0758 25.2255 99.608 26.4488 102.973C27.6722 106.338 33.0239 111.817 36.0186 113.854C38.543 115.563 44.8158 117.556 47.8545 117.791C51.7456 118.086 62.6462 114.91 62.6462 114.91C62.6462 114.91 72.0418 121.568 75.5698 123.007C78.5664 124.232 84.9815 126.255 88.1948 126.663C91.6487 127.105 98.7291 126.778 102.147 126.111C105.148 125.532 113.366 121.268 113.366 121.268C113.366 121.268 120.504 125.536 123.048 126.621C128.079 128.775 132.696 130.651 138.549 129.865C142.269 129.219 145.803 127.77 148.904 125.617C154.581 121.769 158.604 114.836 158.604 114.836Z" fill="#8B2789" fill-opacity="0.25"/>
</g>
<defs>
<filter id="filter0_f_174:2" x="0.742188" y="0.588541" width="222.913" height="154.459" filterUnits="userSpaceOnUse" color-interpolation-filters="sRGB">
<feFlood flood-opacity="0" result="BackgroundImageFix"/>
<feBlend mode="normal" in="SourceGraphic" in2="BackgroundImageFix" result="shape"/>
<feGaussianBlur stdDeviation="12.5" result="effect1_foregroundBlur_174:2"/>
</filter>
</defs>
</svg>
