<svg width="150" height="111" viewBox="0 0 150 111" fill="none" xmlns="http://www.w3.org/2000/svg">
<path d="M96.8785 82.9557C96.8785 82.9557 99.4862 84.3987 103.579 84.8856C105.603 85.1663 107.665 84.9243 109.568 84.1826C110.831 83.664 112.945 81.8306 113.887 80.8446C114.83 79.8585 116.869 77.7876 117.49 76.5348C118.06 75.3757 119.191 72.7733 119.482 71.5171C119.798 70.1436 119.961 67.4216 119.91 66.016C119.853 64.5607 118.659 61.8121 118.006 60.5093C116.92 58.3476 113.843 54.3845 111.796 53.081C110.232 52.0812 104.617 51.1501 104.617 51.1501C104.617 51.1501 102.548 42.9675 101.049 40.6197C99.8058 38.6532 96.3931 35.276 94.3591 34.1447C92.5337 33.1338 88.5261 31.784 86.4613 31.4949C84.3966 31.2058 80.0915 30.8932 78.0796 31.4751C76.0206 32.0726 72.2109 34.288 70.6616 35.7629C68.4318 37.8855 63.1966 45.5527 63.1966 45.5527C63.1966 45.5527 56.3797 44.0841 54.0996 44.3343C51.8769 44.5898 46.9482 46.3096 45.1876 47.6849C43.6756 48.8626 40.9049 53.3934 40.9049 53.3934L38.0202 58.6463C38.0202 58.6463 31.8466 57.8728 29.8766 58.3897C28.0476 58.8678 24.6484 60.8729 23.4021 62.2859C22.093 63.8057 20.0973 67.4204 19.5522 69.3566C18.9861 71.371 18.7746 75.7775 19.5325 77.7272C20.2903 79.6769 23.4868 82.8084 25.2623 83.96C26.7588 84.9258 30.4485 86.0088 32.2264 86.1069C34.5031 86.2296 40.8294 84.2341 40.8294 84.2341C40.8294 84.2341 46.4032 88.0023 48.4824 88.7973C50.2486 89.4743 54.0217 90.5732 55.9039 90.7706C57.927 90.984 62.0586 90.7017 64.0467 90.2683C65.7918 89.8917 70.5372 87.2952 70.5372 87.2952C70.5372 87.2952 74.7616 89.6964 76.2616 90.2971C79.2277 91.4906 81.9487 92.5271 85.3576 91.9927C87.5222 91.5676 89.5678 90.6754 91.3511 89.3784C94.6179 87.0574 96.8785 82.9557 96.8785 82.9557Z" fill="#8B2789"/>
<g filter="url(#filter0_f_174:3)">
<path d="M101.595 76.5263C101.595 76.5263 104.125 77.9941 108.132 78.5532C110.112 78.869 112.14 78.6726 114.022 77.9826C115.271 77.4989 117.382 75.742 118.327 74.7932C119.271 73.8444 121.313 71.853 121.948 70.6361C122.53 69.5101 123.692 66.9791 124.001 65.7523C124.339 64.4109 124.554 61.7432 124.531 60.3629C124.504 58.9339 123.387 56.2131 122.773 54.9218C121.75 52.7791 118.809 48.8292 116.827 47.5095C115.312 46.4974 109.822 45.472 109.822 45.472C109.822 45.472 107.954 37.402 106.53 35.0685C105.349 33.1142 102.068 29.7325 100.094 28.582C98.3232 27.5538 94.4178 26.1496 92.3976 25.8249C90.3773 25.5001 86.1593 25.1077 84.1736 25.6387C82.1414 26.184 78.3592 28.282 76.8096 29.6983C74.5795 31.7367 69.2901 39.1557 69.2901 39.1557C69.2901 39.1557 62.6305 37.5791 60.3882 37.7792C58.2022 37.9857 53.3318 39.5752 51.577 40.8897C50.0699 42.0152 47.2611 46.4057 47.2611 46.4057L44.3261 51.5025C44.3261 51.5025 38.2838 50.6208 36.3405 51.0888C34.5364 51.5215 31.1611 53.4213 29.9102 54.783C28.5954 56.2482 26.5653 59.7553 25.9919 61.6443C25.3963 63.6096 25.1012 67.9291 25.806 69.8573C26.5108 71.7855 29.585 74.9218 31.3042 76.087C32.7534 77.0644 36.3522 78.2005 38.0948 78.3322C40.3263 78.4979 46.5735 76.6656 46.5735 76.6656C46.5735 76.6656 51.9676 80.4739 53.992 81.2954C55.7115 81.9948 59.3919 83.1481 61.2348 83.3793C63.2157 83.6289 67.2753 83.4341 69.2347 83.0484C70.9545 82.7136 75.6624 80.2603 75.6624 80.2603C75.6624 80.2603 79.7597 82.7004 81.2196 83.3197C84.1062 84.5498 86.7555 85.6209 90.1109 85.1644C92.2434 84.7904 94.2683 83.9556 96.0439 82.7184C99.2956 80.506 101.595 76.5263 101.595 76.5263Z" fill="#8B2789" fill-opacity="0.25"/>
</g>
<defs>
<filter id="filter0_f_174:3" x="0.39502" y="0.377956" width="149.138" height="109.894" filterUnits="userSpaceOnUse" color-interpolation-filters="sRGB">
<feFlood flood-opacity="0" result="BackgroundImageFix"/>
<feBlend mode="normal" in="SourceGraphic" in2="BackgroundImageFix" result="shape"/>
<feGaussianBlur stdDeviation="12.5" result="effect1_foregroundBlur_174:3"/>
</filter>
</defs>
</svg>
