<svg xmlns="http://www.w3.org/2000/svg" viewBox="0 0 155.26 371.3"><defs><style>.cls-1{fill:#545a5a;}.cls-2,.cls-5{fill:#66003d;}.cls-3,.cls-4{fill:none;}.cls-3,.cls-5{stroke:#cdb4bd;}.cls-4,.cls-6{stroke:#66003d;}.cls-4,.cls-5{stroke-width:5.03px;}.cls-6{fill:#cdb4bd;stroke-width:2.51px;}</style></defs><title>sacn</title><g id="Calque_2" data-name="Calque 2"><g id="scanner_abonement_-_copie" data-name="scanner abonement - copie"><rect class="cls-1" x="65.19" y="259.31" width="26.02" height="111.99"/><rect class="cls-2" x="2.51" y="2.51" width="150.23" height="268.79" rx="15.09"/><rect class="cls-3" x="2.51" y="2.51" width="150.23" height="268.79" rx="15.09"/><rect class="cls-4" x="2.51" y="2.51" width="150.23" height="268.79" rx="15.09"/><rect class="cls-5" x="28.76" y="36" width="96.84" height="133.04" rx="3.02"/><circle class="cls-6" cx="78.02" cy="22.65" r="5.51"/><circle class="cls-6" cx="77.86" cy="224.47" r="29.64"/><path class="cls-2" d="M72.54,229l-2.72-2.37s9.39-7,16.63.11l-2.34,2.35C81.93,228.48,79.61,225.14,72.54,229Z"/><path class="cls-2" d="M67.56,224.13l-3-2.45s14.3-10.53,27-.12a15.16,15.16,0,0,1-2.86,2.6C84.23,219.38,74.27,219.34,67.56,224.13Z"/><path class="cls-2" d="M62.3,219.09l-3-2.45s17.27-16.33,38.32,0a15,15,0,0,1-2.87,2.6C80.34,208.4,70.62,214,62.3,219.09Z"/><circle class="cls-2" cx="78.36" cy="234.19" r="3.96"/></g></g></svg>