<svg xmlns="http://www.w3.org/2000/svg" xmlns:xlink="http://www.w3.org/1999/xlink" viewBox="0 0 873.01 146.81"><defs><style>.cls-1{fill:#cecece;}.cls-17,.cls-2,.cls-40,.cls-5,.cls-55,.cls-68,.cls-69,.cls-73{fill:none;}.cls-3,.cls-42{fill:#263238;}.cls-4,.cls-45,.cls-47{fill:#ffc8c5;}.cls-5{stroke:#000;}.cls-17,.cls-40,.cls-5,.cls-68,.cls-69{stroke-miterlimit:10;}.cls-17,.cls-5,.cls-69{stroke-width:2px;}.cls-6{fill:#30001f;}.cls-7{fill:#5a5a5a;}.cls-8{clip-path:url(#clip-path);}.cls-9{fill:#66003d;}.cls-10,.cls-14{fill:#568384;}.cls-11{fill:#c0c6c9;}.cls-12{fill:#0b0b0b;}.cls-13{fill:#629596;}.cls-14{opacity:0.31;}.cls-15{clip-path:url(#clip-path-2);}.cls-16{fill:#8b2789;}.cls-17{stroke:#231f20;}.cls-18,.cls-19{fill:#231f20;}.cls-19,.cls-21,.cls-22,.cls-23,.cls-24,.cls-26,.cls-29,.cls-34,.cls-35,.cls-42,.cls-45,.cls-47,.cls-49,.cls-50,.cls-54,.cls-58{isolation:isolate;}.cls-19{font-size:30.08px;font-family:Georgia;}.cls-20{fill:#407bff;}.cls-21,.cls-22,.cls-23,.cls-24,.cls-25,.cls-26,.cls-34,.cls-35{fill:#fff;}.cls-21,.cls-29{opacity:0.2;}.cls-22{opacity:0.1;}.cls-23,.cls-45,.cls-49,.cls-50{opacity:0.5;}.cls-24{opacity:0.3;}.cls-26{opacity:0.8;}.cls-27{fill:#7f3e3b;}.cls-28{fill:#803e3c;}.cls-30{fill:#630f0f;}.cls-31{fill:#b55b52;}.cls-32{fill:#a02724;}.cls-33{fill:#b0bec5;}.cls-34{opacity:0.7;}.cls-35{opacity:0.4;}.cls-36{clip-path:url(#clip-path-3);}.cls-37{fill:#cfd8dc;}.cls-38{clip-path:url(#clip-path-4);}.cls-39{clip-path:url(#clip-path-5);}.cls-40,.cls-55,.cls-73{stroke:#263238;}.cls-40{stroke-width:0.25px;}.cls-41{clip-path:url(#clip-path-6);}.cls-42,.cls-54{opacity:0.42;}.cls-43,.cls-50{fill:#f9c7de;}.cls-44{clip-path:url(#clip-path-7);}.cls-46{clip-path:url(#clip-path-8);}.cls-48{clip-path:url(#clip-path-9);}.cls-51{clip-path:url(#clip-path-10);}.cls-52{clip-path:url(#clip-path-11);}.cls-53{clip-path:url(#clip-path-12);}.cls-55,.cls-73{stroke-linecap:round;stroke-linejoin:round;}.cls-55{stroke-width:1.14px;}.cls-56{clip-path:url(#clip-path-13);}.cls-57{clip-path:url(#clip-path-14);}.cls-58{opacity:0.65;}.cls-59{clip-path:url(#clip-path-15);}.cls-60{clip-path:url(#clip-path-16);}.cls-61{clip-path:url(#clip-path-17);}.cls-62{fill:#456868;opacity:0.7;}.cls-63{fill:#c69c6d;}.cls-64{fill:#180633;}.cls-65{fill:#a589b6;}.cls-66{fill:#b897d1;}.cls-67{fill:#242426;}.cls-68,.cls-69{stroke:#242426;}.cls-68{stroke-width:3px;}.cls-70{fill:#ebebeb;}.cls-71{fill:#e6e6e6;}.cls-72{fill:#e0e0e0;}.cls-73{stroke-width:0.5px;}.cls-74{fill:#c12837;}</style><clipPath id="clip-path" transform="translate(0 7.42)"><path class="cls-1" d="M820.5,116.48H401.14a4.24,4.24,0,0,1-4.24-4.24V4.32A4.24,4.24,0,0,1,401.14.08H772.3c43.1-.6,43.76,20.72,58.7,51.38,5.27,10.79,12.9,26.05,12.9,38.05v3.57A23.4,23.4,0,0,1,820.5,116.48Z"/></clipPath><clipPath id="clip-path-2" transform="translate(0 7.42)"><rect class="cls-1" x="51.15" width="338.92" height="116.25" rx="4.73"/></clipPath><clipPath id="clip-path-3" transform="translate(0 7.42)"><path class="cls-2" d="M66,67.27a14.92,14.92,0,0,0-.57,2.47c0,.75,1,1.75,1.63,2.33a4.33,4.33,0,0,0,3.16.77A7.34,7.34,0,0,0,73,72.1s0,4.56,0,5.62S73.12,90,73.12,90H83.28S83,79.47,83.1,78.24s.63-4.82.63-4.82,3.82,1.77,4.68,1.77,2.93-2.29,2.84-2.89-3.07-2.36-4.1-3.22S85.71,67.39,85,67a30.66,30.66,0,0,0-4.68-1.14c-.72-.08-4.62.14-5.68.2S71.8,68,71.37,68.28a11.06,11.06,0,0,1-1,.63s.17-.2-.11-.26a2.1,2.1,0,0,0-.43-.05,13.46,13.46,0,0,0-.26-1.84,6.4,6.4,0,0,0-2.44-.52C66.46,66.29,66,67.27,66,67.27Z"/></clipPath><clipPath id="clip-path-4" transform="translate(0 7.42)"><path class="cls-2" d="M77.81,58.66a5.38,5.38,0,0,1-.65-1c-.24-.52-.58-1.38.07-1.9s3.12-.86,4.32-.71,2.2,1.38,3.15,3.1,1.26,3,1,3.61A2.23,2.23,0,0,1,83.66,63c-1,0-1.59-1.1-2.17-1.65s-2.4-1.69-2.64-1.94a10.15,10.15,0,0,0-.89-.7Z"/></clipPath><clipPath id="clip-path-5" transform="translate(0 7.42)"><path class="cls-2" d="M82.34,61.6a5.35,5.35,0,0,0-1.25-1.93,4.48,4.48,0,0,0-2.85-.92,1.26,1.26,0,0,0-.77.27s-.55,2-.83,2.73a2.88,2.88,0,0,0,0,1.88,7.19,7.19,0,0,0,.76,1.55,7.56,7.56,0,0,1,.46,2.76,14.6,14.6,0,0,0,2.57-1.41c.28-.37.13-1.65.25-2.27a1.65,1.65,0,0,1,.11-.36,1.71,1.71,0,0,0,.35-.56S82.34,61.69,82.34,61.6Z"/></clipPath><clipPath id="clip-path-6" transform="translate(0 7.42)"><path class="cls-3" d="M72.64,64.92a1.61,1.61,0,0,0,3.15-.56Z"/></clipPath><clipPath id="clip-path-7" transform="translate(0 7.42)"><path class="cls-4" d="M69.65,60.13a4.77,4.77,0,0,0-.46,1.32V63a13.05,13.05,0,0,0-1.87,2.35c-.08.49-.31,1.67,0,1.67a6.36,6.36,0,0,0,1.9-1.69l.8-2.18a1.79,1.79,0,0,1,.2-.26,2.54,2.54,0,0,0,.14-.86s.32,0,.32-.21v-1C70.68,60.53,69.65,60.13,69.65,60.13Z"/></clipPath><clipPath id="clip-path-8" transform="translate(0 7.42)"><path class="cls-2" d="M89.19,72.41s-2.5.43-2.24,1l.09.4a22.9,22.9,0,0,0-1.72,2.38c.08.09,3.33,2,3.44,2s2.15-3.64,2.58-4.36.49-1.38,0-1.72-1.15-.66-1.15-.66"/></clipPath><clipPath id="clip-path-9" transform="translate(0 7.42)"><path class="cls-2" d="M84.11,77.55a2.34,2.34,0,0,1-.57.52,3,3,0,0,0-1.06,1c-.35.52-.78,1-.53,1.18a.94.94,0,0,0,.53.2s.17.4.4.43a2,2,0,0,0,.34,0s.2.2.31.2h.3s.11.15.37,0,.52-1,.6-1.29a4.16,4.16,0,0,0,.09-.89l.4-.57-.92-.92Z"/></clipPath><clipPath id="clip-path-10" transform="translate(0 7.42)"><path class="cls-2" d="M82.16,61.94,83,61.1c.44-.44-.34-1.3-.62-1.61A5.87,5.87,0,0,0,80,57.86c-.57-.2-1.8-.58-2.11.18l-.55,1.35a5.81,5.81,0,0,1,2.79.55A6.07,6.07,0,0,1,82.16,61.94Z"/></clipPath><clipPath id="clip-path-11" transform="translate(0 7.42)"><path class="cls-2" d="M81.27,62.4s1-.77,1.23-.31-.37,1.1-.86,1.1A1.34,1.34,0,0,1,80.9,63"/></clipPath><clipPath id="clip-path-12" transform="translate(0 7.42)"><path class="cls-2" d="M75.36,79.79H65.22V90.87c0,.66,2.28,1.21,5.09,1.21s5.09-.55,5.09-1.21Z"/></clipPath><clipPath id="clip-path-13" transform="translate(0 7.42)"><path class="cls-2" d="M70.31,78a17.3,17.3,0,0,0-3.93.39c-.71.17-2,.53-1.71,1.56.13.46.67.64,1.07.78a8.27,8.27,0,0,0,1.55.35,18.92,18.92,0,0,0,3,.21,16.67,16.67,0,0,0,3.92-.39,2.75,2.75,0,0,0,1.53-.68A.88.88,0,0,0,75.69,79l0,0a4.21,4.21,0,0,0-1.55-.58,16.13,16.13,0,0,0-2.5-.32C71.18,78,70.74,78,70.31,78Z"/></clipPath><clipPath id="clip-path-14" transform="translate(0 7.42)"><ellipse class="cls-2" cx="70.31" cy="79.4" rx="5.09" ry="1.08"/></clipPath><clipPath id="clip-path-15" transform="translate(0 7.42)"><path class="cls-2" d="M85,82.21H76.87v8.9c0,.53,1.83,1,4.09,1s4.09-.44,4.09-1Z"/></clipPath><clipPath id="clip-path-16" transform="translate(0 7.42)"><path class="cls-2" d="M81,80.79a13.31,13.31,0,0,0-3.15.31c-.58.13-1.62.42-1.38,1.25.1.37.54.51.86.62a6.76,6.76,0,0,0,1.24.29,15.19,15.19,0,0,0,2.43.17,13.86,13.86,0,0,0,3.15-.31,2.27,2.27,0,0,0,1.23-.55.71.71,0,0,0,0-1l0,0A3.13,3.13,0,0,0,84,81.08a12.55,12.55,0,0,0-2-.26C81.66,80.8,81.31,80.79,81,80.79Z"/></clipPath><clipPath id="clip-path-17" transform="translate(0 7.42)"><ellipse class="cls-2" cx="80.96" cy="81.9" rx="4.09" ry="0.87"/></clipPath></defs><title>train_2</title><g id="Calque_2" data-name="Calque 2"><g id="Calque_1_-_copie" data-name="Calque 1 - copie"><rect x="16.69" y="111.76" width="13.64" height="33.55"/><rect x="40.42" y="111.76" width="13.64" height="33.55"/><rect x="62.68" y="111.76" width="13.64" height="33.55"/><rect x="86.09" y="111.76" width="13.64" height="33.55"/><rect x="108.28" y="111.13" width="13.64" height="33.55"/><rect x="131.59" y="110.88" width="13.64" height="33.55"/><rect x="153.98" y="110.88" width="13.64" height="33.55"/><rect x="176.35" y="111.13" width="13.64" height="33.55"/><rect x="197.68" y="111.13" width="13.64" height="33.55"/><rect x="219.39" y="111.13" width="13.64" height="33.55"/><rect x="241.85" y="110.88" width="13.64" height="33.55"/><rect x="263.04" y="111.13" width="13.64" height="33.55"/><rect x="285.43" y="111.13" width="13.64" height="33.55"/><rect x="307.91" y="110.88" width="13.64" height="33.55"/><rect x="328.77" y="111.13" width="13.64" height="33.55"/><rect x="351.21" y="110.88" width="13.64" height="33.55"/><rect x="374.86" y="110.13" width="13.64" height="33.55"/><rect x="397.02" y="110.88" width="13.64" height="33.55"/><rect x="420.04" y="110.88" width="13.64" height="33.55"/><rect x="441.31" y="110.88" width="13.64" height="33.55"/><rect x="463.51" y="110.88" width="13.64" height="33.55"/><rect x="487.05" y="110.88" width="13.64" height="33.55"/><rect x="509.95" y="110.88" width="13.64" height="33.55"/><rect x="531.84" y="111.13" width="13.64" height="33.55"/><rect x="554.97" y="111.78" width="13.64" height="33.55"/><rect x="577.67" y="111.88" width="13.64" height="33.55"/><rect x="601.74" y="111.13" width="13.64" height="33.55"/><rect x="625.02" y="111.16" width="13.64" height="33.55"/><rect x="649.68" y="110.88" width="13.64" height="33.55"/><rect x="674.84" y="111.88" width="13.64" height="33.55"/><rect x="698.89" y="111.48" width="13.64" height="33.55"/><rect x="721.88" y="111.88" width="13.64" height="33.55"/><rect x="746.96" y="111.88" width="13.64" height="33.55"/><rect x="769.84" y="113.03" width="13.64" height="33.55"/><rect x="791.6" y="111.16" width="13.64" height="33.55"/><rect x="813.05" y="111.88" width="13.64" height="33.55"/><rect x="837.26" y="111.88" width="13.64" height="33.55"/><line class="cls-5" x1="0.05" y1="112.42" x2="873" y2="113.83"/><line class="cls-5" y1="144.4" x2="872.37" y2="145.81"/><g id="roue"><circle class="cls-6" cx="422.85" cy="121.81" r="9.9"/><circle class="cls-6" cx="454.95" cy="121.66" r="9.9"/><circle class="cls-6" cx="487.05" cy="121.81" r="9.9"/><circle class="cls-6" cx="674.4" cy="121.06" r="9.9"/><circle class="cls-6" cx="706.5" cy="120.91" r="9.9"/><circle class="cls-6" cx="738.6" cy="121.06" r="9.9"/></g><g id="roue-2" data-name="roue"><ellipse class="cls-6" cx="88.58" cy="123.01" rx="8.18" ry="9.9"/><ellipse class="cls-6" cx="115.1" cy="122.86" rx="8.18" ry="9.9"/><ellipse class="cls-6" cx="141.62" cy="123.01" rx="8.18" ry="9.9"/><ellipse class="cls-6" cx="296.39" cy="122.26" rx="8.18" ry="9.9"/><ellipse class="cls-6" cx="322.91" cy="122.11" rx="8.18" ry="9.9"/><ellipse class="cls-6" cx="349.43" cy="122.26" rx="8.18" ry="9.9"/></g><rect class="cls-7" x="389.1" y="12.3" width="9.9" height="105.6"/><g id="tete"><path class="cls-1" d="M820.5,116.48H401.14a4.24,4.24,0,0,1-4.24-4.24V4.32A4.24,4.24,0,0,1,401.14.08H772.3c43.1-.6,43.76,20.72,58.7,51.38,5.27,10.79,12.9,26.05,12.9,38.05v3.57A23.4,23.4,0,0,1,820.5,116.48Z" transform="translate(0 7.42)"/><g class="cls-8"><rect class="cls-9" x="395.1" y="84" width="477.9" height="40.2"/><rect class="cls-9" x="394.5" width="477.9" height="40.2"/><path class="cls-10" d="M846.08,77.11l-56,.52c-2.66,0-5-1.26-5.91-3.18L765.42,32.7c-1.38-3.05,1.6-6.22,5.83-6.22h67Z" transform="translate(0 7.42)"/><path class="cls-11" d="M567.3,19.13h37.2a7.2,7.2,0,0,1,7.2,7.2V111.6a0,0,0,0,1,0,0H560.1a0,0,0,0,1,0,0V26.33A7.2,7.2,0,0,1,567.3,19.13Z"/><rect class="cls-10" x="565.05" y="32.62" width="15.98" height="25.65" rx="7.99"/><rect class="cls-10" x="591.9" y="32.4" width="15.98" height="25.65" rx="7.99"/><rect class="cls-12" x="583.2" y="18.65" width="3.15" height="93.09"/><path class="cls-11" d="M462,18.68h37.2a7.2,7.2,0,0,1,7.2,7.2v85.28a0,0,0,0,1,0,0H454.8a0,0,0,0,1,0,0V25.88A7.2,7.2,0,0,1,462,18.68Z"/><rect class="cls-10" x="459.75" y="32.18" width="15.98" height="25.65" rx="7.99"/><rect class="cls-10" x="485.6" y="31.95" width="15.97" height="25.65" rx="7.99"/><rect class="cls-12" x="477.9" y="18.65" width="3.15" height="92.5"/><rect class="cls-10" x="404.7" y="28.8" width="41.1" height="68.4" rx="11.25"/><rect class="cls-10" x="626.7" y="28.8" width="65.7" height="68.4" rx="14.22"/><rect class="cls-10" x="705.9" y="28.8" width="52.43" height="68.4" rx="12.7"/><path class="cls-13" d="M846.08,72,795,72.45c-2.44,0-4.61-1-5.4-2.51L772.36,36.88c-1.25-2.42,1.47-4.93,5.34-4.93h61.22Z" transform="translate(0 7.42)"/><rect class="cls-14" x="407.56" y="30.49" width="35.13" height="67.61" rx="10.34"/></g></g><g id="wagon"><rect class="cls-1" x="51.15" y="7.42" width="338.92" height="116.25" rx="4.73"/><g class="cls-15"><rect class="cls-9" x="50.47" y="87.2" width="342.6" height="39.74"/><rect class="cls-9" x="49.96" y="4.16" width="341.32" height="39.74"/><path class="cls-11" d="M334.61,23.07h30.87a6.62,6.62,0,0,1,6.62,6.62v84.8a0,0,0,0,1,0,0H328a0,0,0,0,1,0,0V29.69A6.62,6.62,0,0,1,334.61,23.07Z"/><rect class="cls-10" x="332.23" y="36.41" width="13.66" height="25.36" rx="6.8"/><rect class="cls-10" x="355.18" y="36.19" width="13.66" height="25.36" rx="6.8"/><rect class="cls-12" x="347.74" y="22.6" width="2.69" height="92.03"/><path class="cls-11" d="M108.12,22.62H139a6.62,6.62,0,0,1,6.62,6.62V114a0,0,0,0,1,0,0H101.5a0,0,0,0,1,0,0V29.24A6.62,6.62,0,0,1,108.12,22.62Z"/><rect class="cls-10" x="105.73" y="35.97" width="13.66" height="25.36" rx="6.8"/><rect class="cls-10" x="127.83" y="35.75" width="13.66" height="25.36" rx="6.8"/><rect class="cls-12" x="121.25" y="22.6" width="2.69" height="91.44"/><rect class="cls-10" x="154.49" y="31.29" width="58.73" height="67.61" rx="13.07"/><rect class="cls-10" x="58.68" y="32.63" width="35.13" height="67.61" rx="10.34"/><rect class="cls-10" x="263.34" y="32.63" width="56.16" height="67.61" rx="13.07"/></g></g><g id="Calque_2-2" data-name="Calque 2"><g id="Calque_2-2-2" data-name="Calque 2-2"><path class="cls-16" d="M542,65.85a7.72,7.72,0,0,0,2.57.74,4.62,4.62,0,0,0,2.3-.28A6.45,6.45,0,0,0,548.49,65a9.9,9.9,0,0,0,1.38-1.65,13.46,13.46,0,0,0,.76-1.94,10.6,10.6,0,0,0,.16-2.11,7.43,7.43,0,0,0-.74-2.12,9.4,9.4,0,0,0-2.39-2.85,12.34,12.34,0,0,0-2.76-.73,22.86,22.86,0,0,0-1.38-4A9.78,9.78,0,0,0,541,47.09a11.44,11.44,0,0,0-3-1,10.23,10.23,0,0,0-3.22,0,9.19,9.19,0,0,0-2.84,1.65A38.05,38.05,0,0,0,529,51.5,18.81,18.81,0,0,0,525.5,51a9.59,9.59,0,0,0-3.42,1.3,12.36,12.36,0,0,0-1.64,2.2l-1.11,2a14.23,14.23,0,0,0-3.12-.09A6.53,6.53,0,0,0,513.73,58a9.34,9.34,0,0,0-1.48,2.72,7,7,0,0,0,0,3.22,7.31,7.31,0,0,0,2.21,2.39,7.53,7.53,0,0,0,2.68.82,16.24,16.24,0,0,0,3.3-.73,26.41,26.41,0,0,0,2.94,1.75,15,15,0,0,0,2.85.75,13.16,13.16,0,0,0,3.13-.2,16.77,16.77,0,0,0,2.49-1.15s1.62.92,2.2,1.15a6.21,6.21,0,0,0,3.49.64,5.73,5.73,0,0,0,2.3-1A8.65,8.65,0,0,0,542,65.85Z" transform="translate(0 7.42)"/><line class="cls-17" x1="509.95" y1="71.28" x2="551.98" y2="71.37"/><line class="cls-17" x1="510.05" y1="68.07" x2="551.89" y2="67.98"/><rect class="cls-18" x="513.31" y="68.07" width="0.64" height="3.26"/><rect class="cls-18" x="514.71" y="68.07" width="0.64" height="3.26"/><rect class="cls-18" x="516.13" y="68.07" width="0.64" height="3.26"/><rect class="cls-18" x="517.56" y="68.07" width="0.64" height="3.26"/><rect class="cls-18" x="519.01" y="68.07" width="0.64" height="3.26"/><rect class="cls-18" x="520.31" y="68.07" width="0.64" height="3.26"/><rect class="cls-18" x="521.69" y="68.07" width="0.64" height="3.26"/><rect class="cls-18" x="523.03" y="68.07" width="0.64" height="3.26"/><rect class="cls-18" x="524.33" y="68.07" width="0.64" height="3.26"/><rect class="cls-18" x="525.61" y="68.01" width="0.64" height="3.26"/><rect class="cls-18" x="526.92" y="68.07" width="0.64" height="3.26"/><rect class="cls-18" x="528.21" y="68.07" width="0.64" height="3.26"/><rect class="cls-18" x="529.49" y="68.07" width="0.64" height="3.26"/><rect class="cls-18" x="530.78" y="68.01" width="0.64" height="3.26"/><rect class="cls-18" x="532.09" y="68.01" width="0.64" height="3.26"/><rect class="cls-18" x="533.38" y="68.01" width="0.64" height="3.26"/><rect class="cls-18" x="534.72" y="68.01" width="0.64" height="3.26"/><rect class="cls-18" x="536" y="68.07" width="0.64" height="3.26"/><rect class="cls-18" x="537.34" y="68.01" width="0.64" height="3.26"/><rect class="cls-18" x="538.62" y="68.01" width="0.64" height="3.26"/><rect class="cls-18" x="539.91" y="68.01" width="0.64" height="3.26"/><rect class="cls-18" x="541.18" y="68.01" width="0.64" height="3.26"/><rect class="cls-18" x="542.44" y="68.01" width="0.64" height="3.26"/><rect class="cls-18" x="543.75" y="68.07" width="0.64" height="3.26"/><rect class="cls-18" x="545.1" y="68.01" width="0.64" height="3.26"/><rect class="cls-18" x="546.42" y="68.01" width="0.64" height="3.26"/><rect class="cls-18" x="547.75" y="68.01" width="0.64" height="3.26"/><text class="cls-19" transform="translate(515.97 70.16)">Tt</text></g></g><g id="Calque_2-3" data-name="Calque 2"><g id="Calque_2-2-3" data-name="Calque 2-2"><path class="cls-16" d="M247.86,70.39a7.84,7.84,0,0,0,2.58.74,4.64,4.64,0,0,0,2.3-.28,6.58,6.58,0,0,0,1.65-1.29,9.9,9.9,0,0,0,1.38-1.65,12.39,12.39,0,0,0,.76-1.94,10.6,10.6,0,0,0,.16-2.11,6.87,6.87,0,0,0-.74-2.12,9.26,9.26,0,0,0-2.39-2.85,12.29,12.29,0,0,0-2.75-.73,23.72,23.72,0,0,0-1.38-4,9.82,9.82,0,0,0-2.58-2.48,11.26,11.26,0,0,0-3-1,10.23,10.23,0,0,0-3.22,0,9.36,9.36,0,0,0-2.85,1.65A39.21,39.21,0,0,0,234.9,56a18.82,18.82,0,0,0-3.5-.46,9.74,9.74,0,0,0-3.42,1.3,12.36,12.36,0,0,0-1.64,2.2l-1.1,2a14.3,14.3,0,0,0-3.13-.09,6.61,6.61,0,0,0-2.48,1.51,9.55,9.55,0,0,0-1.47,2.72,6.87,6.87,0,0,0,0,3.22,7.17,7.17,0,0,0,2.2,2.39,7.66,7.66,0,0,0,2.68.82,16.24,16.24,0,0,0,3.3-.73,27.41,27.41,0,0,0,2.94,1.75,14.87,14.87,0,0,0,2.86.75,13.07,13.07,0,0,0,3.12-.2,16.77,16.77,0,0,0,2.49-1.15s1.63.92,2.2,1.15a6.25,6.25,0,0,0,3.5.64,5.79,5.79,0,0,0,2.3-1A8.53,8.53,0,0,0,247.86,70.39Z" transform="translate(0 7.42)"/><line class="cls-17" x1="215.86" y1="75.82" x2="257.89" y2="75.91"/><line class="cls-17" x1="215.96" y1="72.61" x2="257.8" y2="72.52"/><rect class="cls-18" x="219.22" y="72.61" width="0.64" height="3.26"/><rect class="cls-18" x="220.62" y="72.61" width="0.64" height="3.26"/><rect class="cls-18" x="222.04" y="72.61" width="0.64" height="3.26"/><rect class="cls-18" x="223.46" y="72.61" width="0.64" height="3.26"/><rect class="cls-18" x="224.92" y="72.61" width="0.64" height="3.26"/><rect class="cls-18" x="226.21" y="72.61" width="0.64" height="3.26"/><rect class="cls-18" x="227.59" y="72.61" width="0.64" height="3.26"/><rect class="cls-18" x="228.94" y="72.61" width="0.64" height="3.26"/><rect class="cls-18" x="230.24" y="72.61" width="0.64" height="3.26"/><rect class="cls-18" x="231.52" y="72.55" width="0.64" height="3.26"/><rect class="cls-18" x="232.83" y="72.61" width="0.64" height="3.26"/><rect class="cls-18" x="234.11" y="72.61" width="0.64" height="3.26"/><rect class="cls-18" x="235.39" y="72.61" width="0.64" height="3.26"/><rect class="cls-18" x="236.69" y="72.55" width="0.64" height="3.26"/><rect class="cls-18" x="237.99" y="72.55" width="0.64" height="3.26"/><rect class="cls-18" x="239.29" y="72.55" width="0.64" height="3.26"/><rect class="cls-18" x="240.62" y="72.55" width="0.64" height="3.26"/><rect class="cls-18" x="241.91" y="72.61" width="0.64" height="3.26"/><rect class="cls-18" x="243.24" y="72.55" width="0.64" height="3.26"/><rect class="cls-18" x="244.53" y="72.55" width="0.64" height="3.26"/><rect class="cls-18" x="245.82" y="72.55" width="0.64" height="3.26"/><rect class="cls-18" x="247.09" y="72.55" width="0.64" height="3.26"/><rect class="cls-18" x="248.34" y="72.55" width="0.64" height="3.26"/><rect class="cls-18" x="249.66" y="72.61" width="0.64" height="3.26"/><rect class="cls-18" x="251" y="72.55" width="0.64" height="3.26"/><rect class="cls-18" x="252.32" y="72.55" width="0.64" height="3.26"/><rect class="cls-18" x="253.66" y="72.55" width="0.64" height="3.26"/><text class="cls-19" transform="translate(221.88 74.7)">Tt</text></g></g><path class="cls-20" d="M412.42,78.6h25.4a1.31,1.31,0,0,1,1.31,1.31,1.48,1.48,0,0,1,0,.21l-1.44,9h-25l-1.56-9a1.31,1.31,0,0,1,1.07-1.51Z" transform="translate(0 7.42)"/><g id="freepik--Weights--inject-25"><path class="cls-3" d="M710.65,64.37h-.53c-1.69,0-3,1.73-3,3.86s1.36,3.86,3,3.86h.53c1.69,0,3.06-1.72,3.06-3.86S712.35,64.37,710.65,64.37Z" transform="translate(0 7.42)"/><path class="cls-21" d="M713.71,68.23c0,2.13-1.37,3.86-3.06,3.86s-3-1.72-3-3.86,1.37-3.86,3-3.86S713.71,66.1,713.71,68.23Z" transform="translate(0 7.42)"/><path class="cls-3" d="M711.16,65.37h-.39a2.94,2.94,0,0,0,0,5.72h.39a2.94,2.94,0,0,0,0-5.72Z" transform="translate(0 7.42)"/><path class="cls-22" d="M713.43,68.23a2.33,2.33,0,1,1-4.53,0c0-1.57,1-2.86,2.26-2.86A2.62,2.62,0,0,1,713.43,68.23Z" transform="translate(0 7.42)"/><path class="cls-3" d="M711.67,67.36h-.12a.9.9,0,0,0,0,1.75h.12a.9.9,0,0,0,0-1.75Z" transform="translate(0 7.42)"/><path class="cls-21" d="M712.36,68.23a.71.71,0,1,1-.69-.87A.8.8,0,0,1,712.36,68.23Z" transform="translate(0 7.42)"/><path class="cls-3" d="M711,57.28h-.4c-1.26,0-2.29,1.3-2.29,2.9a2.64,2.64,0,0,0,2.29,2.89h.4a2.64,2.64,0,0,0,2.29-2.89C713.26,58.58,712.24,57.28,711,57.28Z" transform="translate(0 7.42)"/><ellipse class="cls-21" cx="710.97" cy="67.6" rx="2.29" ry="2.89"/><path class="cls-3" d="M711.35,58h-.29a2.2,2.2,0,0,0,0,4.29h.29a2.2,2.2,0,0,0,0-4.29Z" transform="translate(0 7.42)"/><ellipse class="cls-22" cx="711.35" cy="67.6" rx="1.7" ry="2.14"/><path class="cls-3" d="M711.73,59.52h-.09a.67.67,0,0,0,0,1.31h.09a.59.59,0,0,0,.52-.65A.6.6,0,0,0,711.73,59.52Z" transform="translate(0 7.42)"/><ellipse class="cls-21" cx="711.73" cy="67.6" rx="0.52" ry="0.66"/><path class="cls-3" d="M710.52,73.19h-.65c-2,0-3.66,2.07-3.66,4.63s1.64,4.64,3.66,4.64h.65c2,0,3.66-2.08,3.66-4.64S712.54,73.19,710.52,73.19Z" transform="translate(0 7.42)"/><ellipse class="cls-21" cx="710.52" cy="85.25" rx="3.67" ry="4.63"/><path class="cls-3" d="M711.13,74.39h-.48c-1.5,0-2.71,1.54-2.71,3.43s1.21,3.43,2.71,3.43h.48c1.49,0,2.71-1.53,2.71-3.43S712.62,74.39,711.13,74.39Z" transform="translate(0 7.42)"/><path class="cls-22" d="M713.84,77.82c0,1.9-1.22,3.43-2.71,3.43s-2.72-1.53-2.72-3.43,1.22-3.43,2.72-3.43S713.84,75.93,713.84,77.82Z" transform="translate(0 7.42)"/><path class="cls-3" d="M711.73,76.77h-.15a1,1,0,0,0-.83,1,1,1,0,0,0,.83,1.06h.15a1,1,0,0,0,.83-1.06A1,1,0,0,0,711.73,76.77Z" transform="translate(0 7.42)"/><ellipse class="cls-21" cx="711.73" cy="85.25" rx="0.83" ry="1.05"/><polygon class="cls-3" points="736.4 90.47 735.99 90.53 735.63 90.47 732.9 90.85 732.9 91.25 733.67 91.25 737.96 91.25 738.73 91.25 738.73 90.85 736.4 90.47"/><polygon class="cls-21" points="736.4 90.47 735.99 90.53 735.63 90.47 732.9 90.85 732.9 91.25 733.67 91.25 737.96 91.25 738.73 91.25 738.73 90.85 736.4 90.47"/><polygon class="cls-21" points="735.99 90.53 733.67 90.85 733.67 91.25 732.9 91.25 732.9 90.85 735.63 90.47 735.99 90.53"/><rect class="cls-3" x="735.6" y="67.28" width="0.96" height="23.23"/><rect class="cls-21" x="735.6" y="67.28" width="0.96" height="23.23"/><rect class="cls-21" x="735.6" y="67.28" width="0.48" height="23.23"/><polygon class="cls-3" points="713.38 90.47 712.97 90.53 712.62 90.47 709.88 90.85 709.88 91.25 710.65 91.25 714.94 91.25 715.71 91.25 715.71 90.85 713.38 90.47"/><polygon class="cls-21" points="713.38 90.47 712.97 90.53 712.62 90.47 709.88 90.85 709.88 91.25 710.65 91.25 714.94 91.25 715.71 91.25 715.71 90.85 713.38 90.47"/><polygon class="cls-21" points="712.97 90.53 710.65 90.85 710.65 91.25 709.88 91.25 709.88 90.85 712.62 90.47 712.97 90.53"/><rect class="cls-3" x="712.58" y="67.28" width="0.96" height="23.23"/><rect class="cls-21" x="712.58" y="67.28" width="0.96" height="23.23"/><rect class="cls-21" x="712.58" y="67.28" width="0.48" height="23.23"/><path class="cls-3" d="M735.8,77.82a.5.5,0,0,1-.1.31.26.26,0,0,1-.18.12H711.85c-.17,0-.31-.19-.31-.43a.56.56,0,0,1,.09-.31.27.27,0,0,1,.22-.12h23.67A.4.4,0,0,1,735.8,77.82Z" transform="translate(0 7.42)"/><path class="cls-23" d="M735.8,77.82a.5.5,0,0,1-.1.31.26.26,0,0,1-.18.12H711.85c-.17,0-.31-.19-.31-.43a.56.56,0,0,1,.09-.31.27.27,0,0,1,.22-.12h23.67A.4.4,0,0,1,735.8,77.82Z" transform="translate(0 7.42)"/><path class="cls-3" d="M737.18,73.19h-.64c-2,0-3.67,2.07-3.67,4.63s1.64,4.64,3.67,4.64h.64c2,0,3.66-2.08,3.66-4.64S739.2,73.19,737.18,73.19Z" transform="translate(0 7.42)"/><path class="cls-21" d="M740.84,77.82c0,2.56-1.64,4.64-3.66,4.64s-3.67-2.08-3.67-4.64,1.64-4.63,3.67-4.63S740.84,75.26,740.84,77.82Z" transform="translate(0 7.42)"/><path class="cls-3" d="M737.79,74.39h-.48c-1.5,0-2.71,1.54-2.71,3.43s1.21,3.43,2.71,3.43h.48c1.49,0,2.71-1.53,2.71-3.43S739.28,74.39,737.79,74.39Z" transform="translate(0 7.42)"/><path class="cls-22" d="M740.5,77.82c0,1.9-1.22,3.43-2.71,3.43s-2.72-1.53-2.72-3.43,1.22-3.43,2.72-3.43S740.5,75.93,740.5,77.82Z" transform="translate(0 7.42)"/><path class="cls-3" d="M738.39,76.77h-.15a1,1,0,0,0-.83,1,1,1,0,0,0,.83,1.06h.15a1,1,0,0,0,.83-1.06A1,1,0,0,0,738.39,76.77Z" transform="translate(0 7.42)"/><path class="cls-21" d="M739.23,77.82a.86.86,0,1,1-1.67,0,.86.86,0,1,1,1.67,0Z" transform="translate(0 7.42)"/><path class="cls-3" d="M739.44,77.82a.56.56,0,0,1-.09.31.28.28,0,0,1-.18.12h-.66c-.17,0-.3-.19-.3-.43a.44.44,0,0,1,.09-.31.24.24,0,0,1,.21-.12h.66A.41.41,0,0,1,739.44,77.82Z" transform="translate(0 7.42)"/><path class="cls-21" d="M739.44,77.82a.56.56,0,0,1-.09.31.28.28,0,0,1-.18.12.39.39,0,0,1-.27-.43.46.46,0,0,1,.09-.3.23.23,0,0,1,.18-.12A.4.4,0,0,1,739.44,77.82Z" transform="translate(0 7.42)"/><path class="cls-3" d="M735.8,68.23a.5.5,0,0,1-.1.31.26.26,0,0,1-.18.12H711.85c-.17,0-.31-.19-.31-.43a.59.59,0,0,1,.09-.31.27.27,0,0,1,.22-.12h23.67A.4.4,0,0,1,735.8,68.23Z" transform="translate(0 7.42)"/><path class="cls-23" d="M735.8,68.23a.5.5,0,0,1-.1.31.26.26,0,0,1-.18.12H711.85c-.17,0-.31-.19-.31-.43a.59.59,0,0,1,.09-.31.27.27,0,0,1,.22-.12h23.67A.4.4,0,0,1,735.8,68.23Z" transform="translate(0 7.42)"/><path class="cls-3" d="M737.32,64.37h-.54c-1.68,0-3,1.73-3,3.86s1.37,3.86,3,3.86h.54c1.68,0,3-1.72,3-3.86S739,64.37,737.32,64.37Z" transform="translate(0 7.42)"/><ellipse class="cls-21" cx="737.32" cy="75.66" rx="3.05" ry="3.86"/><path class="cls-3" d="M737.82,65.37h-.39a2.94,2.94,0,0,0,0,5.72h.39a2.61,2.61,0,0,0,2.26-2.86C740.08,66.66,739.07,65.37,737.82,65.37Z" transform="translate(0 7.42)"/><ellipse class="cls-22" cx="737.82" cy="75.66" rx="2.26" ry="2.86"/><path class="cls-3" d="M738.33,67.36h-.12a.9.9,0,0,0,0,1.75h.12a.9.9,0,0,0,0-1.75Z" transform="translate(0 7.42)"/><path class="cls-21" d="M739,68.23a.71.71,0,1,1-.69-.87A.8.8,0,0,1,739,68.23Z" transform="translate(0 7.42)"/><path class="cls-3" d="M739.44,68.23a.56.56,0,0,1-.09.31.28.28,0,0,1-.18.12h-.66c-.17,0-.3-.19-.3-.43a.45.45,0,0,1,.09-.31.24.24,0,0,1,.21-.12h.66A.41.41,0,0,1,739.44,68.23Z" transform="translate(0 7.42)"/><path class="cls-21" d="M739.44,68.23a.56.56,0,0,1-.09.31.28.28,0,0,1-.18.12.39.39,0,0,1-.27-.43.46.46,0,0,1,.09-.3.23.23,0,0,1,.18-.12A.4.4,0,0,1,739.44,68.23Z" transform="translate(0 7.42)"/><path class="cls-3" d="M735.8,60.18a.47.47,0,0,1-.1.3.27.27,0,0,1-.18.13H711.85c-.17,0-.31-.2-.31-.44a.55.55,0,0,1,.09-.3.29.29,0,0,1,.22-.13h23.67A.42.42,0,0,1,735.8,60.18Z" transform="translate(0 7.42)"/><path class="cls-23" d="M735.8,60.18a.47.47,0,0,1-.1.3.27.27,0,0,1-.18.13H711.85c-.17,0-.31-.2-.31-.44a.55.55,0,0,1,.09-.3.29.29,0,0,1,.22-.13h23.67A.42.42,0,0,1,735.8,60.18Z" transform="translate(0 7.42)"/><path class="cls-3" d="M737.63,57.28h-.4c-1.26,0-2.29,1.3-2.29,2.9a2.64,2.64,0,0,0,2.29,2.89h.4a2.64,2.64,0,0,0,2.29-2.89C739.92,58.58,738.9,57.28,737.63,57.28Z" transform="translate(0 7.42)"/><path class="cls-21" d="M739.92,60.18a2.35,2.35,0,1,1-4.58,0c0-1.6,1-2.9,2.29-2.9S739.92,58.58,739.92,60.18Z" transform="translate(0 7.42)"/><path class="cls-3" d="M738,58h-.29a2.2,2.2,0,0,0,0,4.29H738A2.2,2.2,0,0,0,738,58Z" transform="translate(0 7.42)"/><path class="cls-22" d="M739.71,60.18A1.74,1.74,0,1,1,738,58,2,2,0,0,1,739.71,60.18Z" transform="translate(0 7.42)"/><path class="cls-3" d="M738.39,59.52h-.09a.67.67,0,0,0,0,1.31h.09a.59.59,0,0,0,.52-.65A.6.6,0,0,0,738.39,59.52Z" transform="translate(0 7.42)"/><path class="cls-21" d="M738.91,60.18a.59.59,0,0,1-.52.65.6.6,0,0,1-.52-.65.61.61,0,0,1,.52-.66A.6.6,0,0,1,738.91,60.18Z" transform="translate(0 7.42)"/><path class="cls-3" d="M739.44,60.18a.53.53,0,0,1-.09.3.29.29,0,0,1-.18.13h-.66c-.17,0-.3-.2-.3-.44a.43.43,0,0,1,.09-.3.25.25,0,0,1,.21-.13h.66A.42.42,0,0,1,739.44,60.18Z" transform="translate(0 7.42)"/><path class="cls-21" d="M739.44,60.18a.53.53,0,0,1-.09.3.29.29,0,0,1-.18.13.39.39,0,0,1-.27-.43.49.49,0,0,1,.09-.31.26.26,0,0,1,.18-.12A.41.41,0,0,1,739.44,60.18Z" transform="translate(0 7.42)"/><path class="cls-3" d="M712.82,60.61v.85h-.15l-.5-1,.08-.33h.15C712.4,60.56,712.82,60.61,712.82,60.61Z" transform="translate(0 7.42)"/><path class="cls-21" d="M712.82,60.61v.85h-.15l-.5-1,.08-.33h.15C712.4,60.56,712.82,60.61,712.82,60.61Z" transform="translate(0 7.42)"/><path class="cls-3" d="M712.82,60.61v.85h0l-.5-1,.09-.33h0C712.4,60.56,712.82,60.61,712.82,60.61Z" transform="translate(0 7.42)"/><path class="cls-3" d="M712.82,68.66v.85h-.15l-.5-.94.08-.34h.15C712.4,68.62,712.82,68.66,712.82,68.66Z" transform="translate(0 7.42)"/><path class="cls-21" d="M712.82,68.66v.85h-.15l-.5-.94.08-.34h.15C712.4,68.62,712.82,68.66,712.82,68.66Z" transform="translate(0 7.42)"/><path class="cls-3" d="M712.82,68.66v.85h0l-.5-.94.09-.34h0C712.4,68.62,712.82,68.66,712.82,68.66Z" transform="translate(0 7.42)"/><path class="cls-3" d="M712.82,78.25v.85h-.15l-.5-.94.08-.33h.15C712.4,78.21,712.82,78.25,712.82,78.25Z" transform="translate(0 7.42)"/><path class="cls-21" d="M712.82,78.25v.85h-.15l-.5-.94.08-.33h.15C712.4,78.21,712.82,78.25,712.82,78.25Z" transform="translate(0 7.42)"/><path class="cls-3" d="M712.82,78.25v.85h0l-.5-.94.09-.33h0C712.4,78.21,712.82,78.25,712.82,78.25Z" transform="translate(0 7.42)"/></g><g id="freepik--Characters--inject-78"><path class="cls-3" d="M659.89,86.5c-11.75,0-21.28-.87-21.28-1.94v4.15c0,1.08,9.53,1.94,21.28,1.94s21.28-.86,21.28-1.94V84.56C681.17,85.63,671.65,86.5,659.89,86.5Z" transform="translate(0 7.42)"/><path class="cls-24" d="M659.89,73.86c-11.74,0-21.28-.77-21.28-1.73V88.18c0,1,9.53,1.73,21.28,1.73s21.28-.77,21.28-1.73V72.12C681.17,73.09,671.65,73.86,659.89,73.86Z" transform="translate(0 7.42)"/><path class="cls-3" d="M639.6,88.7V72.77a.07.07,0,0,0-.06-.07s0,0,0,.07h0V88.68Z" transform="translate(0 7.42)"/><path class="cls-3" d="M641.53,73l-.1,0V89l.1,0Z" transform="translate(0 7.42)"/><path class="cls-3" d="M643.47,73.23h-.1v16h.1Z" transform="translate(0 7.42)"/><path class="cls-3" d="M645.41,73.4h-.1v16h.1Z" transform="translate(0 7.42)"/><path class="cls-3" d="M647.35,73.53h-.11v16h.11Z" transform="translate(0 7.42)"/><path class="cls-3" d="M649.29,73.63h-.11V89.68h.11Z" transform="translate(0 7.42)"/><path class="cls-3" d="M651.22,73.71h-.1V89.76h.1Z" transform="translate(0 7.42)"/><path class="cls-3" d="M653.16,73.77h-.1V89.83h.1Z" transform="translate(0 7.42)"/><path class="cls-3" d="M655.1,73.82H655V89.87h.1Z" transform="translate(0 7.42)"/><path class="cls-3" d="M657,73.85h-.1V89.9h.1Z" transform="translate(0 7.42)"/><path class="cls-3" d="M659,73.86h-.11v16H659Z" transform="translate(0 7.42)"/><path class="cls-3" d="M660.81,89.91h.1v-16h-.1Z" transform="translate(0 7.42)"/><path class="cls-3" d="M662.85,73.85h-.1V89.9h.1Z" transform="translate(0 7.42)"/><path class="cls-3" d="M664.79,73.82h-.1V89.87h.1Z" transform="translate(0 7.42)"/><path class="cls-3" d="M666.73,73.77h-.1v16h.1Z" transform="translate(0 7.42)"/><path class="cls-3" d="M668.67,73.71h-.11V89.76h.11Z" transform="translate(0 7.42)"/><path class="cls-3" d="M670.6,73.63h-.1V89.68h.1Z" transform="translate(0 7.42)"/><path class="cls-3" d="M672.54,73.52h-.1v16h.1Z" transform="translate(0 7.42)"/><path class="cls-3" d="M674.48,73.39h-.1v16h.1Z" transform="translate(0 7.42)"/><path class="cls-3" d="M676.42,73.22h-.11v16h.11Z" transform="translate(0 7.42)"/><path class="cls-3" d="M678.25,89.06l.11,0V73l-.11,0Z" transform="translate(0 7.42)"/><path class="cls-3" d="M680.24,72.7s0,0,0,.07h0V88.7l.11,0V72.77a.07.07,0,0,0-.06-.07Z" transform="translate(0 7.42)"/><ellipse class="cls-24" cx="659.89" cy="76.35" rx="21.77" ry="1.77"/><path class="cls-20" d="M659.89,70.7c-12,0-21.77-.8-21.77-1.78v3.8c0,1,9.75,1.77,21.77,1.77s21.77-.79,21.77-1.77v-3.8C681.66,69.9,671.92,70.7,659.89,70.7Z" transform="translate(0 7.42)"/><path class="cls-3" d="M659.89,70.7c-12,0-21.77-.8-21.77-1.78v3.8c0,1,9.75,1.77,21.77,1.77s21.77-.79,21.77-1.77v-3.8C681.66,69.9,671.92,70.7,659.89,70.7Z" transform="translate(0 7.42)"/><path class="cls-20" d="M679.39,68.92c0,.44-8.73.79-19.5.79s-19.49-.36-19.49-.79,8.73-.79,19.49-.79S679.39,68.48,679.39,68.92Z" transform="translate(0 7.42)"/><path class="cls-24" d="M679.39,68.92c0,.44-8.73.79-19.5.79s-19.49-.36-19.49-.79,8.73-.79,19.49-.79S679.39,68.48,679.39,68.92Z" transform="translate(0 7.42)"/><path class="cls-25" d="M657.23,68.45c-.15,0-.28.15-.28.35h0c0,.11.56.11.56,0a.32.32,0,0,0-.27-.35Z" transform="translate(0 7.42)"/><path class="cls-25" d="M658.82,68.89c-.11,0-.2.12-.2.27h0c0,.07.4.07.4,0s-.09-.27-.2-.27Z" transform="translate(0 7.42)"/><path class="cls-25" d="M644,68.45a.33.33,0,0,0-.28.35c0,.11.56.11.56,0a.32.32,0,0,0-.27-.35Z" transform="translate(0 7.42)"/><path class="cls-25" d="M642.51,68.73c-.11,0-.2.12-.2.27h0c0,.07.4.07.4,0s-.09-.27-.2-.27Z" transform="translate(0 7.42)"/><path class="cls-25" d="M662,69c-.15,0-.27.16-.27.36h0c0,.1.56.1.56,0S662.16,69,662,69Z" transform="translate(0 7.42)"/><path class="cls-25" d="M663.5,68.51c-.11,0-.2.11-.2.26h0c0,.07.4.07.4,0A.24.24,0,0,0,663.5,68.51Z" transform="translate(0 7.42)"/><path class="cls-25" d="M676.57,68.67c-.11,0-.2.11-.2.26h0c0,.07.4.07.4,0s-.09-.26-.2-.26Z" transform="translate(0 7.42)"/><path class="cls-25" d="M660.67,68.41c-.13,0-.24.15-.24.32h0c0,.09.49.09.49,0a.29.29,0,0,0-.25-.32Z" transform="translate(0 7.42)"/><path class="cls-20" d="M681.21,66c0,.1-.28.17-.64.17s-.64-.07-.64-.17.29-.17.64-.17S681.21,66,681.21,66Z" transform="translate(0 7.42)"/><path class="cls-23" d="M681.21,66c0,.1-.28.17-.64.17s-.64-.07-.64-.17.29-.17.64-.17S681.21,66,681.21,66Z" transform="translate(0 7.42)"/><path class="cls-20" d="M680.57,66.21c-.35,0-.64-.07-.64-.17v2.59c0,.09.29.17.64.17s.64-.08.64-.17V66C681.21,66.14,680.93,66.21,680.57,66.21Z" transform="translate(0 7.42)"/><path class="cls-24" d="M680.57,66.21c-.35,0-.64-.07-.64-.17v2.59c0,.09.29.17.64.17s.64-.08.64-.17V66C681.21,66.14,680.93,66.21,680.57,66.21Z" transform="translate(0 7.42)"/><path class="cls-20" d="M680.73,65.77c0,.2-.07.27-.16.27s-.15-.07-.15-.27a3.32,3.32,0,0,1,.15-.64A2.73,2.73,0,0,1,680.73,65.77Z" transform="translate(0 7.42)"/><path class="cls-26" d="M680.73,65.77c0,.2-.07.27-.16.27s-.15-.07-.15-.27a3.32,3.32,0,0,1,.15-.64A2.73,2.73,0,0,1,680.73,65.77Z" transform="translate(0 7.42)"/><path class="cls-20" d="M639.8,65.68c0,.08-.26.15-.57.15s-.57-.07-.57-.15.25-.15.57-.15S639.8,65.6,639.8,65.68Z" transform="translate(0 7.42)"/><path class="cls-23" d="M639.8,65.68c0,.08-.26.15-.57.15s-.57-.07-.57-.15.25-.15.57-.15S639.8,65.6,639.8,65.68Z" transform="translate(0 7.42)"/><path class="cls-20" d="M639.23,65.83c-.32,0-.57-.07-.57-.15v3.19c0,.09.25.15.57.15s.57-.06.57-.15V65.68C639.8,65.76,639.55,65.83,639.23,65.83Z" transform="translate(0 7.42)"/><path class="cls-24" d="M639.23,65.83c-.32,0-.57-.07-.57-.15v3.19c0,.09.25.15.57.15s.57-.06.57-.15V65.68C639.8,65.76,639.55,65.83,639.23,65.83Z" transform="translate(0 7.42)"/><path class="cls-20" d="M639.36,65.44c0,.18-.06.24-.13.24s-.14-.06-.14-.24a.3.3,0,1,1,.27,0Z" transform="translate(0 7.42)"/><path class="cls-26" d="M639.36,65.44c0,.18-.06.24-.13.24s-.14-.06-.14-.24a.3.3,0,1,1,.27,0Z" transform="translate(0 7.42)"/><ellipse class="cls-20" cx="679.04" cy="75.89" rx="0.81" ry="0.21"/><ellipse class="cls-23" cx="679.04" cy="75.89" rx="0.81" ry="0.21"/><path class="cls-20" d="M679,68.68c-.44,0-.8-.09-.8-.21v.71c0,.12.36.21.8.21s.81-.09.81-.21v-.71C679.85,68.59,679.49,68.68,679,68.68Z" transform="translate(0 7.42)"/><path class="cls-24" d="M679,68.68c-.44,0-.8-.09-.8-.21v.71c0,.12.36.21.8.21s.81-.09.81-.21v-.71C679.85,68.59,679.49,68.68,679,68.68Z" transform="translate(0 7.42)"/><path class="cls-20" d="M679.24,68.13c0,.25-.09.34-.2.34s-.19-.09-.19-.34a4.34,4.34,0,0,1,.19-.81A3.54,3.54,0,0,1,679.24,68.13Z" transform="translate(0 7.42)"/><path class="cls-26" d="M679.24,68.13c0,.25-.09.34-.2.34s-.19-.09-.19-.34a4.34,4.34,0,0,1,.19-.81A3.54,3.54,0,0,1,679.24,68.13Z" transform="translate(0 7.42)"/><path class="cls-3" d="M671.82,51.49c-.25-1.47.47-2.5,1.46-2.36a1.17,1.17,0,0,1,1,1.08.83.83,0,0,1,1.22.33c.63,1.17-.26,3.1-2.47,2.67A5.84,5.84,0,0,1,671.82,51.49Z" transform="translate(0 7.42)"/><path class="cls-20" d="M670.16,51.69a.31.31,0,0,0,0-.38v0c-.3-.33-.48-.24-.69,0a.42.42,0,0,0,.21.69C669.82,52.07,670,51.86,670.16,51.69Z" transform="translate(0 7.42)"/><path class="cls-20" d="M669.79,51.24c-.16-.58.59-.66.59-1.3C671,50.92,670,52.11,669.79,51.24Z" transform="translate(0 7.42)"/><path class="cls-20" d="M669.69,51.55c-.23-.53-.76.17-1.14-.24C668.73,52.55,670,52.36,669.69,51.55Z" transform="translate(0 7.42)"/><path class="cls-27" d="M664.15,60.36v-.73a1.92,1.92,0,0,0-.17-.76l-.19-.43a.49.49,0,0,0-.64-.3l-.36.18a.76.76,0,0,0-.32.89h0l.11.4a4.17,4.17,0,0,0,.8,1.75l.18-.11A1.24,1.24,0,0,0,664.15,60.36Z" transform="translate(0 7.42)"/><path class="cls-28" d="M669.31,63.38l-.11.19-.1.17-.21.31a6.36,6.36,0,0,1-.43.59,8.22,8.22,0,0,1-1,1,5.34,5.34,0,0,1-1.18.8,4.22,4.22,0,0,1-.67.26,3,3,0,0,1-.72.12h-.38l-.14,0a1.18,1.18,0,0,1-.51-.26,1.53,1.53,0,0,1-.18-.18l-.14-.18a2.45,2.45,0,0,1-.29-.61,3.94,3.94,0,0,1-.14-.49,9.07,9.07,0,0,1-.19-1.65c0-.5,0-1,0-1.51s.06-1,.12-1.49.35-.7.67-.63a.7.7,0,0,1,.47.59v0c.16.89.3,1.83.48,2.68a7.11,7.11,0,0,0,.3,1.12.87.87,0,0,0,.07.17s0,0,0,0a.58.58,0,0,0-.36-.26h-.07a.15.15,0,0,0,.09,0,2.28,2.28,0,0,0,.72-.31,5,5,0,0,0,.73-.59,10.1,10.1,0,0,0,.68-.77c.11-.14.22-.29.32-.44l.15-.22.13-.19.07-.11a1,1,0,0,1,1.63-.23A1.86,1.86,0,0,1,669.31,63.38Z" transform="translate(0 7.42)"/><ellipse class="cls-25" cx="670.27" cy="76.21" rx="3.85" ry="0.37"/><path class="cls-25" d="M653.92,69.25c.49,0,1.67-.4.93-.52C656.21,68.82,654.8,69.28,653.92,69.25Z" transform="translate(0 7.42)"/><path class="cls-25" d="M665.73,69.25c-.49,0-1.67-.4-.93-.52C663.44,68.82,664.85,69.28,665.73,69.25Z" transform="translate(0 7.42)"/><path class="cls-27" d="M674,63a22.13,22.13,0,0,0-.21,4.88c0,.28,0,.54.05.79a15.49,15.49,0,0,1-3.65.35,18.44,18.44,0,0,1-3.23-.26c0-.35.06-.69.1-1a5.45,5.45,0,0,1,.18-1c-1.08-1-.2-2.64-.23-3.36a2.42,2.42,0,0,1,1.66-2.6l.83-.13a15.51,15.51,0,0,1,2.55,0l.7.07a1.8,1.8,0,0,1,1.27,2C674,62.85,674,62.91,674,63Z" transform="translate(0 7.42)"/><path class="cls-20" d="M667.14,63.3c-.37,1-1.35,3.27.14,3.84,1.13.44,5.79.2,6.48,0a5.58,5.58,0,0,0,0-2.09s-2.2-.27-2.07-1.55c-1,.85-1.73.31-2.75.23C668.28,63.68,667.37,64,667.14,63.3Z" transform="translate(0 7.42)"/><path class="cls-23" d="M667.14,63.3c-.37,1-1.35,3.27.14,3.84,1.13.44,5.79.2,6.48,0a5.58,5.58,0,0,0,0-2.09s-2.2-.27-2.07-1.55c-1,.85-1.73.31-2.75.23C668.28,63.68,667.37,64,667.14,63.3Z" transform="translate(0 7.42)"/><path class="cls-27" d="M672.13,56.93a8.78,8.78,0,0,0-.08,3.74,4.68,4.68,0,0,0-2.64,1.69c-.72-1.4,0-1.68,0-1.68.65-.19.75-1.21.75-2Z" transform="translate(0 7.42)"/><path class="cls-29" d="M670.15,58.67l1.12-1a1.58,1.58,0,0,1-.1.65,2.49,2.49,0,0,1-1.09,1.28A5.86,5.86,0,0,0,670.15,58.67Z" transform="translate(0 7.42)"/><path class="cls-27" d="M672.66,55c-.32,1.74-.43,2.5-1.22,3.24-1.19,1.13-2.72.24-2.8-1.59-.07-1.65.46-4.23,1.85-4.63S673,53.22,672.66,55Z" transform="translate(0 7.42)"/><path class="cls-3" d="M671.6,52.87c-.4,1-.27,3.11.53,3.25a2.57,2.57,0,0,0,1.21-3.46c-.73-2.09-3.41-2.13-3.73-.19A4.56,4.56,0,0,0,671.6,52.87Z" transform="translate(0 7.42)"/><path class="cls-3" d="M670.38,51.54c-1.31.38-1.29,1.25-2,1.61,2.09.49,4,0,3.64-.85A1.41,1.41,0,0,0,670.38,51.54Z" transform="translate(0 7.42)"/><path class="cls-20" d="M672.71,56.28c-.44-1.6-1.35-3.87-2.85-4.53a.77.77,0,0,1,.65-.54c.6-.12,2.66,2,2.35,4.91A.21.21,0,0,1,672.71,56.28Z" transform="translate(0 7.42)"/><path class="cls-3" d="M670.57,55.18c0,.15-.09.25-.16.23s-.12-.14-.1-.29.1-.24.17-.23S670.59,55,670.57,55.18Z" transform="translate(0 7.42)"/><path class="cls-3" d="M669.22,54.9c0,.14-.1.24-.17.23s-.11-.15-.09-.29.09-.25.16-.23S669.24,54.75,669.22,54.9Z" transform="translate(0 7.42)"/><path class="cls-3" d="M669.15,54.63l-.25-.16S669,54.76,669.15,54.63Z" transform="translate(0 7.42)"/><path class="cls-30" d="M669.55,55a4,4,0,0,1-.52.83.44.44,0,0,0,.38.18Z" transform="translate(0 7.42)"/><path class="cls-3" d="M670,56.55a1.13,1.13,0,0,1-.18,0,.05.05,0,0,1,0-.05,0,0,0,0,1,0,0h0a.73.73,0,0,0,.78-.24,0,0,0,0,1,0,0,.06.06,0,0,1,0,.06h0A.8.8,0,0,1,670,56.55Z" transform="translate(0 7.42)"/><path class="cls-27" d="M672.76,56.59a1,1,0,0,1-.54.63c-.31.11-.46-.32-.37-.77s.33-.93.63-.84S672.9,56.19,672.76,56.59Z" transform="translate(0 7.42)"/><path class="cls-3" d="M671,54.29l0,0a.56.56,0,0,0-.37-.38.09.09,0,0,1-.06-.1s0-.09.08-.08a.73.73,0,0,1,.47.48.09.09,0,0,1,0,.11Z" transform="translate(0 7.42)"/><path class="cls-3" d="M668.88,53.82l0,0a.09.09,0,0,1,0-.12.53.53,0,0,1,.57-.21.08.08,0,0,1,.05.1.07.07,0,0,1-.08.06.45.45,0,0,0-.46.18Z" transform="translate(0 7.42)"/><path class="cls-3" d="M670.51,54.91l-.25-.16S670.36,55.05,670.51,54.91Z" transform="translate(0 7.42)"/><path class="cls-29" d="M673.79,65.05h0l0-.56-1-.7a4.3,4.3,0,0,0,.14,1.07,3.58,3.58,0,0,0,.87,1.76A5.89,5.89,0,0,0,673.79,65.05Z" transform="translate(0 7.42)"/><path class="cls-20" d="M667.06,64.4a.17.17,0,0,1-.14-.18,5.22,5.22,0,0,1,1.45-3.52c.07-.06.15,0,.2,0a.24.24,0,0,1,0,.26,4.79,4.79,0,0,0-1.32,3.18.19.19,0,0,1-.14.2h0Z" transform="translate(0 7.42)"/><path class="cls-23" d="M667.06,64.4a.17.17,0,0,1-.14-.18,5.22,5.22,0,0,1,1.45-3.52c.07-.06.15,0,.2,0a.24.24,0,0,1,0,.26,4.79,4.79,0,0,0-1.32,3.18.19.19,0,0,1-.14.2h0Z" transform="translate(0 7.42)"/><path class="cls-27" d="M672.9,68.91l-.49,1,1.42.72a4.92,4.92,0,0,0,.13-2l-.19,0A.87.87,0,0,0,672.9,68.91Z" transform="translate(0 7.42)"/><path class="cls-27" d="M672.72,71.21l.52.16c.23.07.47-.11.53-.42l.06-.3-1.42-.71,0,.68A.6.6,0,0,0,672.72,71.21Z" transform="translate(0 7.42)"/><path class="cls-28" d="M673.62,61.27c.31.36.58.73.86,1.11s.55.78.81,1.19c.13.2.26.41.38.62s.25.44.37.67a9.64,9.64,0,0,1,.69,1.53l0,.13a1.49,1.49,0,0,1,0,1.1,3.08,3.08,0,0,1-.33.59,3.49,3.49,0,0,1-.37.47,3.55,3.55,0,0,1-.82.65,3.76,3.76,0,0,1-.84.33,2.84,2.84,0,0,1-.42.08l-.21,0h-.23c-.31,0-.57-.32-.58-.73a.84.84,0,0,1,.22-.59l.14-.16.13-.1.14-.11.27-.23a5.66,5.66,0,0,0,.49-.49l.2-.25c.06-.08.1-.18.15-.25a1.83,1.83,0,0,0,.18-.46v1.23a10,10,0,0,0-.58-1c-.23-.35-.48-.7-.73-1s-.5-.71-.76-1.06l-.78-1h0a1.88,1.88,0,0,1,0-2.15,1,1,0,0,1,1.65,0h0Z" transform="translate(0 7.42)"/><path class="cls-20" d="M671.61,64.4a.16.16,0,0,1-.14-.18,6.8,6.8,0,0,1,1.07-3.62.12.12,0,0,1,.2,0,.24.24,0,0,1,0,.27h0a6.4,6.4,0,0,0-1,3.34.17.17,0,0,1-.13.2Z" transform="translate(0 7.42)"/><path class="cls-23" d="M671.61,64.4a.16.16,0,0,1-.14-.18,6.8,6.8,0,0,1,1.07-3.62.12.12,0,0,1,.2,0,.24.24,0,0,1,0,.27h0a6.4,6.4,0,0,0-1,3.34.17.17,0,0,1-.13.2Z" transform="translate(0 7.42)"/><path class="cls-3" d="M651.28,50.8a2.68,2.68,0,0,1,.88.16s-.24.21-.24.36a.43.43,0,0,0,.27.06,1.42,1.42,0,0,1-.5.45A1.91,1.91,0,0,1,651.28,50.8Z" transform="translate(0 7.42)"/><path class="cls-3" d="M647.82,53.72c0,.81.67,1.11.44,1.61.52.16.71-.81.71-.81A3.82,3.82,0,0,0,647.82,53.72Z" transform="translate(0 7.42)"/><path class="cls-31" d="M653.67,59.43l.15.32.16.34.34.68c.23.45.47.89.71,1.31s.5.83.76,1.22a11,11,0,0,0,.82,1.06l-.94-.25s.09,0,.2-.11a2.65,2.65,0,0,0,.38-.37,12.41,12.41,0,0,0,.8-1.07c.26-.4.52-.82.77-1.25l.36-.67.18-.34a2.17,2.17,0,0,0,.15-.35c.11-.48.51-.75.88-.6a1,1,0,0,1,.47,1.09.94.94,0,0,1-.1.28l0,0a2.83,2.83,0,0,0-.14.41l-.14.4c-.09.27-.18.54-.28.8-.19.54-.4,1.06-.63,1.58a11.54,11.54,0,0,1-.82,1.56,4.88,4.88,0,0,1-.59.75,2.45,2.45,0,0,1-.93.66.86.86,0,0,1-.88-.19l-.06-.06a10.44,10.44,0,0,1-1.14-1.25c-.35-.44-.67-.9-1-1.38s-.58-1-.85-1.46c-.14-.25-.26-.5-.39-.76s-.12-.26-.19-.39-.11-.26-.18-.42a1.85,1.85,0,0,1,.53-2.15,1.07,1.07,0,0,1,1.58.54Z" transform="translate(0 7.42)"/><path class="cls-25" d="M654,68.73c0,.23-1.88.42-4.2.42s-4.2-.19-4.2-.42,1.88-.42,4.2-.42S654,68.5,654,68.73Z" transform="translate(0 7.42)"/><path class="cls-31" d="M654.09,61.59a51,51,0,0,1-.72,7v.06a21.19,21.19,0,0,1-3.89.31,24.26,24.26,0,0,1-3.4-.22v-.06c0-.26,0-.58,0-1-.2-2.27,0-4-.33-7-.14-1.46.55-2.81,1.5-3a14.42,14.42,0,0,1,4.59-.05C653.12,57.92,654.1,59.6,654.09,61.59Z" transform="translate(0 7.42)"/><path class="cls-29" d="M645.86,62.51c.07,1.2.07,2.2.1,3.19a9.72,9.72,0,0,0,.79-3.61Z" transform="translate(0 7.42)"/><path class="cls-31" d="M647.83,68.41l1.35,1-1.31,1.7s-1.14-1.08-.8-2Z" transform="translate(0 7.42)"/><path class="cls-31" d="M649.63,71.4l-.54.49a.44.44,0,0,1-.68-.08l-.55-.72,1.32-1.69.57,1a.84.84,0,0,1-.12,1Z" transform="translate(0 7.42)"/><path class="cls-31" d="M648.05,60.62l-.09.15-.1.18-.22.35c-.13.25-.27.49-.41.75-.27.5-.53,1-.76,1.55s-.48,1.07-.69,1.61-.41,1.11-.59,1.68l0-.82s0,.07,0,.17a2.12,2.12,0,0,0,.21.36,6.05,6.05,0,0,0,.71.8,10.29,10.29,0,0,0,.87.76l.47.33.24.16.12.08.12,0a1,1,0,0,1,0,1.88.65.65,0,0,1-.32-.11l-.08-.06a.47.47,0,0,0-.15-.06l-.15-.05-.29-.1-.57-.23a11.21,11.21,0,0,1-1.16-.56,5.58,5.58,0,0,1-1.15-.88,4.43,4.43,0,0,1-.57-.71,3.6,3.6,0,0,1-.45-1.16,1.54,1.54,0,0,1,0-.74l0-.08c.17-.66.34-1.33.56-2,.1-.32.22-.64.33-1s.24-.63.37-.93c.26-.62.54-1.23.84-1.81.15-.29.31-.58.47-.86s.16-.29.25-.43l.14-.21.15-.23a1,1,0,0,1,1.72-.2,2,2,0,0,1,.15,2.25h0Z" transform="translate(0 7.42)"/><path class="cls-31" d="M648.62,53.68a16.86,16.86,0,0,1-.29,4,2.91,2.91,0,0,0,2.49,1.14c1.21,0,1-.51.73-1.07a1.6,1.6,0,0,1-.67-1.95Z" transform="translate(0 7.42)"/><path class="cls-29" d="M648.83,53.4l2,2.45a1.43,1.43,0,0,0,0,1,1.5,1.5,0,0,1-1.18-.55,3.87,3.87,0,0,1-.84-2.26C648.82,53.85,648.83,53.63,648.83,53.4Z" transform="translate(0 7.42)"/><path class="cls-31" d="M648.22,52.37c.09,1.8-.11,2.09.59,3,1.06,1.38,2.61,1.32,3-.22s.39-4.59-1-5.29c-1-.49-2.09.15-2.47,1.43A3.26,3.26,0,0,0,648.22,52.37Z" transform="translate(0 7.42)"/><path class="cls-3" d="M648.16,53.54c.49.15,1-.2,1.17-.82a2.16,2.16,0,0,1-.55-.16s.55-.31.63-.62a1.84,1.84,0,0,1-.57-.33A1.63,1.63,0,0,1,650.1,51a6,6,0,0,1,1.46.46,1.92,1.92,0,0,1-.33-.46,1.39,1.39,0,0,0,1-.42l-.43-.1c.25-.24.71-.54.82-1a2.56,2.56,0,0,1-1.05-.35,1.27,1.27,0,0,0-.86-.27,1.12,1.12,0,0,1,.51-.28,2,2,0,0,0-1.52.29.72.72,0,0,1,.32-.66,1.34,1.34,0,0,0-1.32,1,3.59,3.59,0,0,0,0-.77s-.35,1.07-.85,1.35-.65.68-.4,1c-.73.24-.4,1.28-.19,1.69s-.26.7-.26.7a.47.47,0,0,0,.38.06c-.21.78.49.92.29,1.36C648,54.62,648.16,53.54,648.16,53.54Z" transform="translate(0 7.42)"/><path class="cls-25" d="M651.41,54.56a7.29,7.29,0,0,0-1.47-.33,1,1,0,0,0,.87.85C651.37,55.16,651.41,54.56,651.41,54.56Z" transform="translate(0 7.42)"/><path class="cls-31" d="M647.66,53.45a1.4,1.4,0,0,0,.56.85c.33.21.53-.21.47-.71s-.3-1.12-.65-1.12S647.53,53,647.66,53.45Z" transform="translate(0 7.42)"/><path class="cls-3" d="M650.22,52.67c0,.15.06.16.14.16s.15,0,.14-.18-.08-.27-.15-.27S650.22,52.52,650.22,52.67Z" transform="translate(0 7.42)"/><path class="cls-3" d="M651.62,52.78c0,.16,0,.17.13.17s.15,0,.14-.18-.07-.28-.15-.27S651.61,52.63,651.62,52.78Z" transform="translate(0 7.42)"/><path class="cls-32" d="M651.15,52.72a4.56,4.56,0,0,0,.42,1,.44.44,0,0,1-.43.1Z" transform="translate(0 7.42)"/><path class="cls-3" d="M649.81,52l0,0a.11.11,0,0,1,0-.13h0a.61.61,0,0,1,.58-.31s.07,0,.06.1h0a.07.07,0,0,1-.08.07h0a.51.51,0,0,0-.46.26A.06.06,0,0,1,649.81,52Z" transform="translate(0 7.42)"/><path class="cls-3" d="M652.1,52.47a.12.12,0,0,1-.05,0,.58.58,0,0,0-.39-.41.09.09,0,0,1,0-.1h0s0-.09.07-.08a.73.73,0,0,1,.5.51.11.11,0,0,1,0,.12Z" transform="translate(0 7.42)"/><path class="cls-29" d="M648.86,63.08c0,.13,0,.25-.08.26s-.12-.08-.14-.21,0-.25.08-.27S648.84,63,648.86,63.08Z" transform="translate(0 7.42)"/><path class="cls-29" d="M653,63.08c0,.13,0,.25.07.26s.13-.08.14-.21,0-.25-.08-.27S653,63,653,63.08Z" transform="translate(0 7.42)"/><path class="cls-31" d="M660.83,58.42l-.43-.64a.45.45,0,0,0-.75-.07h0l-.72.85-.6,1.85.62.91c.7.36,1.41-1.23,1.41-1.23l.49-.77A.85.85,0,0,0,660.83,58.42Z" transform="translate(0 7.42)"/><path class="cls-3" d="M659.89,86.5c-11.77,0-21.32-.87-21.32-1.94v4.15c0,1.08,9.55,1.94,21.32,1.94s21.32-.86,21.32-1.94V84.56C681.21,85.63,671.68,86.5,659.89,86.5Z" transform="translate(0 7.42)"/></g><g id="freepik--Character--inject-89"><ellipse class="cls-33" cx="740.78" cy="89.85" rx="7.37" ry="5.45"/><ellipse class="cls-24" cx="740.78" cy="89.85" rx="7.37" ry="5.45"/><polygon class="cls-27" points="717.81 66.25 718.31 65.46 721.37 67.2 720.5 68.51 717.81 66.25"/><path class="cls-3" d="M743.86,73.24s-8-5-11.36-7.44c-3.72-2-11.13-6-11.13-6l-.88,1.32a41.21,41.21,0,0,0,10.26,7.08c4.93,4.73,9.44,8.93,11.59,8.8C743.86,75.9,743.86,73.24,743.86,73.24Z" transform="translate(0 7.42)"/><path class="cls-29" d="M737.06,74a24.15,24.15,0,0,0,3,2.21h0l2.66.2.17-.28A36.5,36.5,0,0,0,737.06,74Z" transform="translate(0 7.42)"/><path class="cls-3" d="M718.35,58l0,1.35a.1.1,0,0,1-.1.11l-1.1.15a.24.24,0,0,1-.26-.24h0c0-.59,0-.88,0-1.62,0-.46-.06-.74-.07-1.38s.61-.64.66-.37a3.26,3.26,0,0,0,.74,1.76A.38.38,0,0,1,718.35,58Z" transform="translate(0 7.42)"/><path class="cls-27" d="M749.52,71.88c-.29-.17-.62-.37-.94-.54s-.64-.36-1-.52-.66-.32-1-.47a10.64,10.64,0,0,0-1-.42l-.2-.08h-.09a.8.8,0,0,0-.3.09,3.37,3.37,0,0,0-.76.59,9,9,0,0,0-.71.8c-.23.28-.46.58-.66.88h0a.34.34,0,0,1-.47.08.34.34,0,0,1-.12-.41,9.18,9.18,0,0,1,1.2-2,3.83,3.83,0,0,1,1-.89,1.81,1.81,0,0,1,.75-.29,1.55,1.55,0,0,1,.48,0l.12,0,.08,0,.14,0a15.19,15.19,0,0,1,2.18.86c.35.17.7.34,1,.53s.68.38,1,.61a.68.68,0,0,1-.73,1.14Z" transform="translate(0 7.42)"/><path class="cls-27" d="M749.24,70.66c-1.08.26-2.89,1.12-6.21,2.1l1.11,5.31a23,23,0,0,1,7.32-.77.71.71,0,0,0,.72-.7.06.06,0,0,0,0,0A13.16,13.16,0,0,0,752,75a16.5,16.5,0,0,0-.5-2.4c-.09-.3-.2-.62-.31-.91A1.67,1.67,0,0,0,749.24,70.66Z" transform="translate(0 7.42)"/><path class="cls-29" d="M751.1,76.77a4.07,4.07,0,0,0-1.54.54h1.24Z" transform="translate(0 7.42)"/><path class="cls-3" d="M754.84,68.33c-.6-.42-1.55.08-1.89,1.33a7.74,7.74,0,0,0,.43,3.21,10.8,10.8,0,0,0,2,.29c1.16.06,3.34-.38,2.75-2.32C758.52,69,756.15,66.93,754.84,68.33Z" transform="translate(0 7.42)"/><path class="cls-29" d="M749,73.57a1.65,1.65,0,0,1,1.54.73A3.67,3.67,0,0,0,749,73.57Z" transform="translate(0 7.42)"/><path class="cls-27" d="M754.3,73.13c-.79.19-2.16.65-2.41,1.37,0,0-.81.14-1.42-1.2s.4-1,.4-1c.56.71,1.14.42,1.64,0Z" transform="translate(0 7.42)"/><path class="cls-29" d="M753.56,72.79l-1-.49a3,3,0,0,1-.37.25c-.09.34.59.64.93.53A1.86,1.86,0,0,0,753.56,72.79Z" transform="translate(0 7.42)"/><path class="cls-27" d="M756.11,71.31c-.72,1.11-1,1.58-1.9,1.85a1.69,1.69,0,0,1-2.2-2c.33-1.16,1.44-2.77,2.82-2.6a1.79,1.79,0,0,1,1.56,2A1.83,1.83,0,0,1,756.11,71.31Z" transform="translate(0 7.42)"/><path class="cls-3" d="M754,68.1c-.9,1,1.68,1.83,1,4.07,1-.26,2.76-1.79,1.31-3.38C755.74,68.13,754.6,67.44,754,68.1Z" transform="translate(0 7.42)"/><path class="cls-3" d="M715.92,86a1.28,1.28,0,0,0-1.14.24c-.48.31-1.86.25-2,.88s1,.88,1.55.69a4,4,0,0,1,1.39-.49C716.08,87.34,716.53,86.35,715.92,86Z" transform="translate(0 7.42)"/><path class="cls-27" d="M715.28,86.75h0a.53.53,0,0,1,.31-.61L718,85l.45,1.47-2.53.65a.52.52,0,0,1-.64-.38Z" transform="translate(0 7.42)"/><path class="cls-3" d="M743.33,74.21s-9.63,3.84-13.43,5.41C725.94,81.25,718,85,718,85l.45,1.48s8.94-2.54,12.37-4.2c6.52-1.55,11.95-2.25,13.31-4.22Z" transform="translate(0 7.42)"/><path class="cls-3" d="M754.11,70.58c-.05.1-.14.14-.2.11s-.07-.14,0-.23a.18.18,0,0,1,.21-.11C754.16,70.39,754.16,70.49,754.11,70.58Z" transform="translate(0 7.42)"/><path class="cls-3" d="M753.06,70a.18.18,0,0,1-.21.11c-.06,0-.06-.14,0-.23s.14-.14.2-.11S753.11,69.9,753.06,70Z" transform="translate(0 7.42)"/><path class="cls-3" d="M753.07,69.78l-.19-.19S752.9,69.83,753.07,69.78Z" transform="translate(0 7.42)"/><path class="cls-30" d="M753.29,70.34a2.87,2.87,0,0,1-.67.41.5.5,0,0,0,.3.25Z" transform="translate(0 7.42)"/><path class="cls-3" d="M753.23,71.64a.59.59,0,0,1-.14-.06,0,0,0,0,1,0,0s0,0,0,0h0a.82.82,0,0,0,.76,0s0,0,0,0a0,0,0,0,1,0,0h0A.85.85,0,0,1,753.23,71.64Z" transform="translate(0 7.42)"/><path class="cls-27" d="M755.91,72.41a1,1,0,0,1-.7.22c-.33,0-.38-.36-.19-.61s.56-.49.85-.33a.42.42,0,0,1,.16.58A.41.41,0,0,1,755.91,72.41Z" transform="translate(0 7.42)"/><path class="cls-3" d="M754.66,70.61a.08.08,0,0,1,0-.07.71.71,0,0,0-.27-.52.06.06,0,0,1,0-.09.06.06,0,0,1,.08,0,.87.87,0,0,1,.34.63.09.09,0,0,1-.07.06Z" transform="translate(0 7.42)"/><path class="cls-3" d="M753,69.32a.05.05,0,0,1,0-.07.06.06,0,0,1,0,0,.62.62,0,0,1,.55.16.06.06,0,0,1,0,.09.07.07,0,0,1-.09,0h0a.5.5,0,0,0-.44-.12Z" transform="translate(0 7.42)"/><path class="cls-27" d="M752.19,76.76l-.61,2.51-.3,1.26-.14.62c0,.21-.08.42-.11.6a.89.89,0,0,0,0,.23c0,.09,0,.19,0,.29s0,.42.05.62c0,.41.11.84.17,1.26l.39,2.56h0a.33.33,0,0,1-.28.38.33.33,0,0,1-.37-.22c-.28-.83-.52-1.66-.74-2.52-.1-.42-.21-.85-.29-1.29,0-.22-.08-.44-.11-.68s0-.23,0-.35a2.94,2.94,0,0,1,0-.42l.09-.69.12-.65c.08-.43.16-.86.26-1.29.18-.85.38-1.7.6-2.54a.68.68,0,1,1,1.32.33h0Z" transform="translate(0 7.42)"/><path class="cls-3" d="M754.12,70.37l-.19-.19S754,70.42,754.12,70.37Z" transform="translate(0 7.42)"/><path class="cls-27" d="M751.43,86.46h1.22l-.68.76s-.89.08-1-.46Z" transform="translate(0 7.42)"/><polygon class="cls-27" points="753.78 94.7 753.12 94.91 751.97 94.64 752.65 93.89 753.78 94.7"/><path class="cls-27" d="M742.91,72l.4.72L742,72.66s-.1-.66.37-.87Z" transform="translate(0 7.42)"/><polygon class="cls-27" points="742.86 81.01 741.89 80.73 742.03 80.09 743.31 80.17 742.86 81.01"/><path class="cls-33" d="M752.15,75.7a.89.89,0,0,1,0,.59c-1.82-.19-3.58,0-3.82,1.12a14.74,14.74,0,0,0-2.65.33.19.19,0,0,1-.24-.14,0,0,0,0,1,0,0,27.15,27.15,0,0,0-1.12-5.22.19.19,0,0,1,.11-.25h0c5.21-1.47,6.53-.91,6.53-.91a1.52,1.52,0,0,1,.25.49c-.72,0-2.47-.16-2,2.1A2.56,2.56,0,0,0,752.15,75.7Z" transform="translate(0 7.42)"/><path class="cls-33" d="M750.38,71.09c-.31-.07-3.14-1.13-3.64.48C746.33,72.89,750.38,71.09,750.38,71.09Z" transform="translate(0 7.42)"/></g><g id="freepik--Bathtub--inject-1"><path class="cls-20" d="M435.67,42.29H413.59a.49.49,0,0,0-.48.49h0a.49.49,0,0,0,.48.48h22.08a.49.49,0,0,0,.48-.48h0A.49.49,0,0,0,435.67,42.29Z" transform="translate(0 7.42)"/><path class="cls-23" d="M435.67,42.29H413.59a.49.49,0,0,0-.48.49h0a.49.49,0,0,0,.48.48h22.08a.49.49,0,0,0,.48-.48h0A.49.49,0,0,0,435.67,42.29Z" transform="translate(0 7.42)"/><path class="cls-3" d="M423,44.35h.24V42a.12.12,0,0,0-.12-.12h0A.12.12,0,0,0,423,42Z" transform="translate(0 7.42)"/><path class="cls-34" d="M423,44.35h.24V42a.12.12,0,0,0-.12-.12h0A.12.12,0,0,0,423,42Z" transform="translate(0 7.42)"/><path class="cls-3" d="M421.1,44.35h.24V42a.12.12,0,0,0-.12-.12h0a.11.11,0,0,0-.12.11h0Z" transform="translate(0 7.42)"/><path class="cls-34" d="M421.1,44.35h.24V42a.12.12,0,0,0-.12-.12h0a.11.11,0,0,0-.12.11h0Z" transform="translate(0 7.42)"/><path class="cls-3" d="M419.07,44.35h.24V42a.12.12,0,0,0-.12-.12h0a.12.12,0,0,0-.12.12Z" transform="translate(0 7.42)"/><path class="cls-34" d="M419.07,44.35h.24V42a.12.12,0,0,0-.12-.12h0a.12.12,0,0,0-.12.12Z" transform="translate(0 7.42)"/><path class="cls-3" d="M417.39,44.35h.24V42a.12.12,0,0,0-.12-.12h0a.12.12,0,0,0-.12.12Z" transform="translate(0 7.42)"/><path class="cls-34" d="M417.39,44.35h.24V42a.12.12,0,0,0-.12-.12h0a.12.12,0,0,0-.12.12Z" transform="translate(0 7.42)"/><path class="cls-3" d="M415.63,44.35h.24V42a.12.12,0,0,0-.12-.12h0a.12.12,0,0,0-.12.12Z" transform="translate(0 7.42)"/><path class="cls-34" d="M415.63,44.35h.24V42a.12.12,0,0,0-.12-.12h0a.12.12,0,0,0-.12.12Z" transform="translate(0 7.42)"/><path class="cls-3" d="M414.12,44.35h.24V42a.12.12,0,0,0-.12-.12h0a.12.12,0,0,0-.12.12Z" transform="translate(0 7.42)"/><path class="cls-34" d="M414.12,44.35h.24V42a.12.12,0,0,0-.12-.12h0a.12.12,0,0,0-.12.12Z" transform="translate(0 7.42)"/><path class="cls-3" d="M413.37,44.35h.24V42a.12.12,0,0,0-.12-.12h0a.12.12,0,0,0-.12.12Z" transform="translate(0 7.42)"/><path class="cls-34" d="M413.37,44.35h.24V42a.12.12,0,0,0-.12-.12h0a.12.12,0,0,0-.12.12Z" transform="translate(0 7.42)"/><polygon class="cls-20" points="413.16 51.46 414.49 51.64 412.74 87.88 411.44 87.41 413.16 51.46"/><polygon class="cls-20" points="423.46 51.55 423.89 86.54 420.86 86.23 421.46 51.55 423.46 51.55"/><polygon class="cls-29" points="421.65 51.55 422.26 86.38 420.86 86.23 421.46 51.55 421.65 51.55"/><polygon class="cls-20" points="419.5 51.55 421.45 51.62 420.86 87.44 418.56 87.04 419.5 51.55"/><polygon class="cls-29" points="419.5 51.55 419.68 51.58 419.49 87.2 418.56 87.04 419.5 51.55"/><polygon class="cls-20" points="417.8 51.62 419.49 51.69 418.56 87.88 416.5 87.47 417.8 51.62"/><polygon class="cls-29" points="417.8 51.62 417.87 51.63 417.38 87.64 416.5 87.47 417.8 51.62"/><polygon class="cls-20" points="415.98 51.5 417.78 51.73 416.5 88.48 414.49 88.02 415.98 51.5"/><polygon class="cls-29" points="415.98 51.5 416.06 51.51 414.68 88.06 414.49 88.02 415.98 51.5"/><polygon class="cls-20" points="414.49 51.55 415.97 51.55 414.49 88.22 412.74 87.7 414.49 51.55"/><polygon class="cls-29" points="414.49 51.55 414.57 51.55 412.97 87.76 412.74 87.7 414.49 51.55"/><path class="cls-20" d="M434.52,77.42l3-.09-.45.42c-.13.7-.75,1.5-1.18,1.5h-1.17c-.74,0-1-.33-1-1l.17-1.29c-.34-.1-.33-.61-.12-.85a.56.56,0,0,1,.93,0C434.89,76.39,434.67,77,434.52,77.42Z" transform="translate(0 7.42)"/><path class="cls-24" d="M434.52,77.42l3-.09-.45.42c-.13.7-.75,1.5-1.18,1.5h-1.17c-.74,0-1-.33-1-1l.17-1.29c-.34-.1-.33-.61-.12-.85a.56.56,0,0,1,.93,0C434.89,76.39,434.67,77,434.52,77.42Z" transform="translate(0 7.42)"/><path class="cls-3" d="M432.93,76.58l.79-.19a.83.83,0,0,0,.71.35c0,.08,0,.17-.13.25h-1A1.1,1.1,0,0,1,432.93,76.58Z" transform="translate(0 7.42)"/><path class="cls-21" d="M432.93,76.58l.79-.19a.83.83,0,0,0,.71.35c0,.08,0,.17-.13.25h-1A1.1,1.1,0,0,1,432.93,76.58Z" transform="translate(0 7.42)"/><rect class="cls-3" x="429.58" y="74.77" width="2.35" height="0.58"/><rect class="cls-23" x="429.58" y="74.77" width="2.35" height="0.58"/><circle class="cls-20" cx="429.22" cy="75.06" r="0.93"/><circle class="cls-24" cx="429.22" cy="75.06" r="0.93"/><circle class="cls-3" cx="432.77" cy="75.06" r="0.93"/><circle class="cls-24" cx="432.77" cy="75.06" r="0.93"/><path class="cls-20" d="M431,53.64h-.42l1,16.93c0,.34,0,.62-.32.74-.44.13-.62-.06-.65-.42v-3h-.39v3.19c0,.67.48.85,1.15.74.48-.18.63-.66.62-1.28Z" transform="translate(0 7.42)"/><path class="cls-34" d="M431,53.64h-.42l1,16.93c0,.34,0,.62-.32.74-.44.13-.62-.06-.65-.42v-3h-.39v3.19c0,.67.48.85,1.15.74.48-.18.63-.66.62-1.28Z" transform="translate(0 7.42)"/><path class="cls-20" d="M430.82,48.49h0c-.09-.85-.05-1.7-1.5-2.23a1.38,1.38,0,0,0-1.53.69l-.6,1,2.27,1.29.29-.44a.13.13,0,0,1,.17,0,.11.11,0,0,1,.05.09l.44,4.81h.7Z" transform="translate(0 7.42)"/><path class="cls-23" d="M430.82,48.49h0c-.09-.85-.05-1.7-1.5-2.23a1.38,1.38,0,0,0-1.53.69l-.6,1,2.27,1.29.29-.44a.13.13,0,0,1,.17,0,.11.11,0,0,1,.05.09l.44,4.81h.7Z" transform="translate(0 7.42)"/><polygon class="cls-20" points="426.87 55.74 429.32 57.07 429.56 56.68 427.13 55.3 426.87 55.74"/><polygon class="cls-35" points="426.87 55.74 429.32 57.07 429.56 56.68 427.13 55.3 426.87 55.74"/></g><g id="freepik--Kitchen--inject-36"><rect class="cls-3" x="65.37" y="36.32" width="22.39" height="5.79"/><polygon class="cls-3" points="87.75 36.32 65.37 36.32 67.61 32.59 85.52 32.59 87.75 36.32"/><line class="cls-3" x1="67.61" y1="32.59" x2="67.61" y2="28.46"/><line class="cls-3" x1="85.62" y1="32.59" x2="85.62" y2="28.46"/><path class="cls-3" d="M83.6,40l.13-4.81a.46.46,0,0,1,.46-.45h0a.46.46,0,0,1,.46.45L84.78,40" transform="translate(0 7.42)"/><circle class="cls-3" cx="84.17" cy="50.65" r="3.3"/><circle class="cls-3" cx="84.17" cy="50.65" r="2.58"/><path class="cls-3" d="M77.27,39.33l.11-4.23a.42.42,0,0,1,.41-.4h0a.4.4,0,0,1,.4.4l.12,4.26" transform="translate(0 7.42)"/><path class="cls-3" d="M77.38,35.1l0,1h.87l0-1a.41.41,0,1,0-.81,0Z" transform="translate(0 7.42)"/><circle class="cls-3" cx="77.77" cy="49.62" r="2.9"/><circle class="cls-3" cx="77.77" cy="49.62" r="2.27"/><path class="cls-3" d="M71.74,38.8l.11-3.75a.35.35,0,0,1,.36-.35h0a.36.36,0,0,1,.36.35l.1,3.77" transform="translate(0 7.42)"/><circle class="cls-3" cx="72.19" cy="48.76" r="2.57"/><circle class="cls-3" cx="72.19" cy="48.76" r="2.01"/></g><g id="freepik--Character--inject-36"><path class="cls-25" d="M66,67.27a14.92,14.92,0,0,0-.57,2.47c0,.75,1,1.75,1.63,2.33a4.33,4.33,0,0,0,3.16.77A7.34,7.34,0,0,0,73,72.1s0,4.56,0,5.62S73.12,90,73.12,90H83.28S83,79.47,83.1,78.24s.63-4.82.63-4.82,3.82,1.77,4.68,1.77,2.93-2.29,2.84-2.89-3.07-2.36-4.1-3.22S85.71,67.39,85,67a30.66,30.66,0,0,0-4.68-1.14c-.72-.08-4.62.14-5.68.2S71.8,68,71.37,68.28a11.06,11.06,0,0,1-1,.63s.17-.2-.11-.26a2.1,2.1,0,0,0-.43-.05,13.46,13.46,0,0,0-.26-1.84,6.4,6.4,0,0,0-2.44-.52C66.46,66.29,66,67.27,66,67.27Z" transform="translate(0 7.42)"/><g class="cls-36"><path class="cls-37" d="M91,72.9a1.08,1.08,0,0,0,.23-.6c-.09-.61-3.07-2.36-4.11-3.22s-1.43-1.69-2.15-2a29.57,29.57,0,0,0-4.68-1.15,10.84,10.84,0,0,0-1.14,0c.85.87-1.48,2.45-1,2.49a13.26,13.26,0,0,0,4-.85,5.79,5.79,0,0,1,2.82.72C86.13,68.9,89,71.22,91,72.9Z" transform="translate(0 7.42)"/><path class="cls-37" d="M86,74.41A12.34,12.34,0,0,1,84.7,73c-.13-.3.73-3.59.26-2.78a3.84,3.84,0,0,0-.51,1.55s-.56-2.14-.6-1.63,0,1.8,0,1.8-2-2.31-1.67-1.29.73,2.23.73,2.23L80.13,92.29l1.15-.38,2.57-18.27Z" transform="translate(0 7.42)"/><path class="cls-37" d="M73,73.08s0-4.58-.08-4.36a6.12,6.12,0,0,0-.26,1.2s-.64-1.5-.73-1a7,7,0,0,0,.13,1.63,16.31,16.31,0,0,1-2.87.64c-2.09.34-1.66,0-.42-.6A4,4,0,0,0,71,68c0-.64-.42-2.44-1.75-2.69s-4.11,2.35-4.32,2.87S66.52,68,66.52,68l.34,1.58c.09.39-.47,1-.51,1.2s1-.21.94-.09-1.11.94-.9,1.33,2,1.07,3.55,1.29A8.85,8.85,0,0,0,73,73.08Z" transform="translate(0 7.42)"/><path class="cls-23" d="M73,73.08s0-4.58-.08-4.36a6.12,6.12,0,0,0-.26,1.2s-.64-1.5-.73-1a7,7,0,0,0,.13,1.63,16.31,16.31,0,0,1-2.87.64c-2.09.34-1.66,0-.42-.6A4,4,0,0,0,71,68c0-.64-.42-2.44-1.75-2.69s-4.11,2.35-4.32,2.87S66.52,68,66.52,68l.34,1.58c.09.39-.47,1-.51,1.2s1-.21.94-.09-1.11.94-.9,1.33,2,1.07,3.55,1.29A8.85,8.85,0,0,0,73,73.08Z" transform="translate(0 7.42)"/><path class="cls-23" d="M86,74.41A12.34,12.34,0,0,1,84.7,73c-.13-.3.73-3.59.26-2.78a3.84,3.84,0,0,0-.51,1.55s-.56-2.14-.6-1.63,0,1.8,0,1.8-2-2.31-1.67-1.29.73,2.23.73,2.23L80.13,92.29l1.15-.38,2.57-18.27Z" transform="translate(0 7.42)"/><path class="cls-3" d="M73.12,90H83.28s-.08-3.24-.14-6.33L73.06,83C73.09,86.31,73.12,90,73.12,90Z" transform="translate(0 7.42)"/><path class="cls-23" d="M91,72.9a1.08,1.08,0,0,0,.23-.6c-.09-.61-3.07-2.36-4.11-3.22s-1.43-1.69-2.15-2a29.57,29.57,0,0,0-4.68-1.15,10.84,10.84,0,0,0-1.14,0c.85.87-1.48,2.45-1,2.49a13.26,13.26,0,0,0,4-.85,5.79,5.79,0,0,1,2.82.72C86.13,68.9,89,71.22,91,72.9Z" transform="translate(0 7.42)"/></g><path class="cls-2" d="M66,67.27a14.92,14.92,0,0,0-.57,2.47c0,.75,1,1.75,1.63,2.33a4.33,4.33,0,0,0,3.16.77A7.34,7.34,0,0,0,73,72.1s0,4.56,0,5.62S73.12,90,73.12,90H83.28S83,79.47,83.1,78.24s.63-4.82.63-4.82,3.82,1.77,4.68,1.77,2.93-2.29,2.84-2.89-3.07-2.36-4.1-3.22S85.71,67.39,85,67a30.66,30.66,0,0,0-4.68-1.14c-.72-.08-4.62.14-5.68.2S71.8,68,71.37,68.28a11.06,11.06,0,0,1-1,.63s.17-.2-.11-.26a2.1,2.1,0,0,0-.43-.05,13.46,13.46,0,0,0-.26-1.84,6.4,6.4,0,0,0-2.44-.52C66.46,66.29,66,67.27,66,67.27Z" transform="translate(0 7.42)"/><polyline class="cls-2" points="73.06 76.85 73 79.52 72.26 76.59"/><path class="cls-2" d="M69.79,68.6s-1.12,1.46-1.9,1.6" transform="translate(0 7.42)"/><path class="cls-2" d="M70.34,68.91s-.38.75-.78.83" transform="translate(0 7.42)"/><polyline class="cls-2" points="84.23 79.03 83.74 80.84 83.45 79"/><polyline class="cls-2" points="77.71 75.68 76.71 76.51 75.85 97.26"/><path class="cls-3" d="M77.16,70.7a.18.18,0,0,1-.18.19.18.18,0,0,1-.19-.19.18.18,0,0,1,.19-.18h0A.18.18,0,0,1,77.16,70.7Z" transform="translate(0 7.42)"/><path class="cls-3" d="M79.23,70.7a.18.18,0,0,1-.18.19.18.18,0,0,1-.19-.19.18.18,0,0,1,.19-.18A.18.18,0,0,1,79.23,70.7Z" transform="translate(0 7.42)"/><path class="cls-3" d="M77.09,74.3a.18.18,0,0,1-.18.19.18.18,0,0,1-.19-.19.18.18,0,0,1,.19-.18.18.18,0,0,1,.18.18Z" transform="translate(0 7.42)"/><path class="cls-3" d="M79.16,74.3a.18.18,0,0,1-.19.19.18.18,0,0,1-.18-.19.18.18,0,0,1,.18-.18.18.18,0,0,1,.19.18Z" transform="translate(0 7.42)"/><path class="cls-3" d="M77,78.38a.19.19,0,1,1-.37,0,.18.18,0,0,1,.19-.18.18.18,0,0,1,.18.18Z" transform="translate(0 7.42)"/><path class="cls-3" d="M79.09,78.38a.19.19,0,1,1-.37,0,.18.18,0,0,1,.18-.18.18.18,0,0,1,.19.18Z" transform="translate(0 7.42)"/><path class="cls-3" d="M68.18,64.15a5.47,5.47,0,0,0-1,.08,9.6,9.6,0,0,0-1.46,2.47A2.83,2.83,0,0,0,65.55,68l1.38-.66.4,1.84a16.86,16.86,0,0,0,2.47-2.29c.28-.57-.38-2.18-.38-2.18Z" transform="translate(0 7.42)"/><path class="cls-3" d="M77.77,65.3s-1.38.37-1.52,1.06,1,1.78,1.26,2,2.35-.23,3.3-.46S83,67,83,66.56s-.6-.69-.77-1.09-.29-.64-.81-.69a10,10,0,0,0-1.55,0C79.66,64.78,77.77,65.3,77.77,65.3Z" transform="translate(0 7.42)"/><path class="cls-3" d="M77.71,68.25S77.57,68,77,68a1.56,1.56,0,0,0-1,.63A2,2,0,0,0,77.71,68.25Z" transform="translate(0 7.42)"/><path class="cls-3" d="M77.71,68.25s.23-.43.69,0a4.06,4.06,0,0,1,.75,1.23A1.08,1.08,0,0,1,78,69.17C77.4,68.56,77.71,68.25,77.71,68.25Z" transform="translate(0 7.42)"/><path class="cls-2" d="M82.16,65.81s0,.55-1,1.09a15.9,15.9,0,0,1-2.3.95" transform="translate(0 7.42)"/><path class="cls-2" d="M80.41,66.54s.77-.5.89-.84a.45.45,0,0,0-.23-.52" transform="translate(0 7.42)"/><path class="cls-2" d="M77.77,68.14a3.12,3.12,0,0,1-.69-1.46c0-.63.26-.72.26-.72" transform="translate(0 7.42)"/><path class="cls-25" d="M77.81,58.66a5.38,5.38,0,0,1-.65-1c-.24-.52-.58-1.38.07-1.9s3.12-.86,4.32-.71,2.2,1.38,3.15,3.1,1.26,3,1,3.61A2.23,2.23,0,0,1,83.66,63c-1,0-1.59-1.1-2.17-1.65s-2.4-1.69-2.64-1.94a10.15,10.15,0,0,0-.89-.7Z" transform="translate(0 7.42)"/><g class="cls-38"><path class="cls-37" d="M82.3,55.32A7.4,7.4,0,0,1,84,58.41c.12,1.37-2.49.69-2.49.69s1.72-1,1.2-.9S81.75,58,81,58s-1.75-1-1.75-.69a1,1,0,0,0,.3.73c.21.3-.22,0,.81,1.46a9.67,9.67,0,0,1,.79,1.5l.36.3c.58.55,1.16,1.62,2.17,1.66a2.21,2.21,0,0,0,2.08-1.2c.21-.58-.09-1.9-1-3.62A7,7,0,0,0,82.3,55.32Z" transform="translate(0 7.42)"/><path class="cls-23" d="M82.3,55.32A7.4,7.4,0,0,1,84,58.41c.12,1.37-2.49.69-2.49.69s1.72-1,1.2-.9S81.75,58,81,58s-1.75-1-1.75-.69a1,1,0,0,0,.3.73c.21.3-.22,0,.81,1.46a9.67,9.67,0,0,1,.79,1.5l.36.3c.58.55,1.16,1.62,2.17,1.66a2.21,2.21,0,0,0,2.08-1.2c.21-.58-.09-1.9-1-3.62A7,7,0,0,0,82.3,55.32Z" transform="translate(0 7.42)"/></g><path class="cls-2" d="M77.81,58.66a5.38,5.38,0,0,1-.65-1c-.24-.52-.58-1.38.07-1.9s3.12-.86,4.32-.71,2.2,1.38,3.15,3.1,1.26,3,1,3.61A2.23,2.23,0,0,1,83.66,63c-1,0-1.59-1.1-2.17-1.65s-2.4-1.69-2.64-1.94a10.15,10.15,0,0,0-.89-.7Z" transform="translate(0 7.42)"/><path class="cls-2" d="M78.72,57.59a3.18,3.18,0,0,1-.81-.81" transform="translate(0 7.42)"/><path class="cls-2" d="M79,56.58a1.22,1.22,0,0,1,0-.27" transform="translate(0 7.42)"/><path class="cls-2" d="M79.5,57.73a4.12,4.12,0,0,1-.42-.84" transform="translate(0 7.42)"/><path class="cls-2" d="M82,59.08a5,5,0,0,0,1.59,0" transform="translate(0 7.42)"/><path class="cls-2" d="M84.57,60.67h.24" transform="translate(0 7.42)"/><path class="cls-2" d="M83.15,60.47a7.65,7.65,0,0,0,1,.17" transform="translate(0 7.42)"/><path class="cls-2" d="M83,61.11a4.54,4.54,0,0,0,1.45,1.08" transform="translate(0 7.42)"/><path class="cls-4" d="M82.34,61.6a5.35,5.35,0,0,0-1.25-1.93,4.48,4.48,0,0,0-2.85-.92,1.26,1.26,0,0,0-.77.27s-.55,2-.83,2.73a2.88,2.88,0,0,0,0,1.88,7.19,7.19,0,0,0,.76,1.55,7.56,7.56,0,0,1,.46,2.76,14.6,14.6,0,0,0,2.57-1.41c.28-.37.13-1.65.25-2.27a1.65,1.65,0,0,1,.11-.36,1.71,1.71,0,0,0,.35-.56S82.34,61.69,82.34,61.6Z" transform="translate(0 7.42)"/><g class="cls-39"><path class="cls-4" d="M81.66,60.33l-.68,0a20.89,20.89,0,0,1-.73,2.57,3.19,3.19,0,0,1-1.62,2c-.6.22-1.29-.08-1,.26A16.46,16.46,0,0,0,79.7,67a2.74,2.74,0,0,0,.71-.48c.28-.37.12-1.66.25-2.27a1.58,1.58,0,0,1,.11-.37,2,2,0,0,0,.35-.55s1.22-1.66,1.22-1.75A4.72,4.72,0,0,0,81.66,60.33Z" transform="translate(0 7.42)"/><path class="cls-4" d="M81.66,60.33l-.68,0a20.89,20.89,0,0,1-.73,2.57,3.19,3.19,0,0,1-1.62,2c-.6.22-1.29-.08-1,.26A16.46,16.46,0,0,0,79.7,67a2.74,2.74,0,0,0,.71-.48c.28-.37.12-1.66.25-2.27a1.58,1.58,0,0,1,.11-.37,2,2,0,0,0,.35-.55s1.22-1.66,1.22-1.75A4.72,4.72,0,0,0,81.66,60.33Z" transform="translate(0 7.42)"/></g><path class="cls-2" d="M82.34,61.6a5.35,5.35,0,0,0-1.25-1.93,4.48,4.48,0,0,0-2.85-.92,1.26,1.26,0,0,0-.77.27s-.55,2-.83,2.73a2.88,2.88,0,0,0,0,1.88,7.19,7.19,0,0,0,.76,1.55,7.56,7.56,0,0,1,.46,2.76,14.6,14.6,0,0,0,2.57-1.41c.28-.37.13-1.65.25-2.27a1.65,1.65,0,0,1,.11-.36,1.71,1.71,0,0,0,.35-.56S82.34,61.69,82.34,61.6Z" transform="translate(0 7.42)"/><path class="cls-40" d="M78.45,60.9a.78.78,0,0,1-.4.49c-.3.12-.7.09-.58.3s.58.34.58.34" transform="translate(0 7.42)"/><path class="cls-40" d="M77.62,62.8a2.66,2.66,0,0,0,.83,0" transform="translate(0 7.42)"/><path class="cls-40" d="M79.49,61.2s-.06.52.59.43" transform="translate(0 7.42)"/><path class="cls-40" d="M77.44,60.71s.31.49.74.19" transform="translate(0 7.42)"/><path class="cls-2" d="M79.65,60.5s.55-.19.79.49" transform="translate(0 7.42)"/><path class="cls-2" d="M78.45,60.25a.6.6,0,0,0-.89-.15" transform="translate(0 7.42)"/><path class="cls-40" d="M78.48,62.55s0,.46.28.55" transform="translate(0 7.42)"/><path class="cls-2" d="M81.27,63.13a4.94,4.94,0,0,1-1.44,1.23" transform="translate(0 7.42)"/><path class="cls-3" d="M81.19,60.8a1.46,1.46,0,0,0-.35.88c0,.4.66.81.84.81s.66-.73.66-.73A5,5,0,0,0,81.19,60.8Z" transform="translate(0 7.42)"/><path class="cls-3" d="M78.46,59.44a1.74,1.74,0,0,1-1.18.34,7.45,7.45,0,0,1-1.41-.11A7.45,7.45,0,0,1,78.46,59.44Z" transform="translate(0 7.42)"/><path class="cls-25" d="M72.64,64.92a1.61,1.61,0,0,0,3.15-.56Z" transform="translate(0 7.42)"/><path class="cls-3" d="M72.64,64.92a1.61,1.61,0,0,0,3.15-.56Z" transform="translate(0 7.42)"/><g class="cls-41"><path class="cls-42" d="M72.64,64.92a1.61,1.61,0,0,0,3.15-.56Z" transform="translate(0 7.42)"/></g><path class="cls-2" d="M72.64,64.92a1.61,1.61,0,0,0,3.15-.56Z" transform="translate(0 7.42)"/><path class="cls-25" d="M70.68,60.76a1.52,1.52,0,0,0,.17-.63c0-.31-.11-.83-.28-.77s-.18.49-.15.63a1.16,1.16,0,0,1,0,.37.55.55,0,0,0,0,.46C70.48,61,70.68,60.76,70.68,60.76Z" transform="translate(0 7.42)"/><path class="cls-3" d="M72.64,64.92l-3.11-6.67a.32.32,0,0,0-.44-.16h0a.32.32,0,0,0-.16.44h0l.14.27" transform="translate(0 7.42)"/><path class="cls-2" d="M69.5,59.7s0,.34.15.43.89.52.92.26-.52-.61-.69-.69A.35.35,0,0,0,69.5,59.7Z" transform="translate(0 7.42)"/><path class="cls-43" d="M69.65,60.13a4.77,4.77,0,0,0-.46,1.32V63a13.05,13.05,0,0,0-1.87,2.35c-.08.49-.31,1.67,0,1.67a6.36,6.36,0,0,0,1.9-1.69l.8-2.18a1.79,1.79,0,0,1,.2-.26,2.54,2.54,0,0,0,.14-.86s.32,0,.32-.21v-1C70.68,60.53,69.65,60.13,69.65,60.13Z" transform="translate(0 7.42)"/><path class="cls-4" d="M69.65,60.13a4.77,4.77,0,0,0-.46,1.32V63a13.05,13.05,0,0,0-1.87,2.35c-.08.49-.31,1.67,0,1.67a6.36,6.36,0,0,0,1.9-1.69l.8-2.18a1.79,1.79,0,0,1,.2-.26,2.54,2.54,0,0,0,.14-.86s.32,0,.32-.21v-1C70.68,60.53,69.65,60.13,69.65,60.13Z" transform="translate(0 7.42)"/><g class="cls-44"><path class="cls-4" d="M69.22,65.3c.11-.29.8-2.19.8-2.19a1.69,1.69,0,0,1,.2-.25,2.59,2.59,0,0,0,.14-.87s.32,0,.32-.2v-1s-.05-.1-.13-.16l-.21.93-.82.09a2.07,2.07,0,0,1,.29.62,2.88,2.88,0,0,1-.25,1.45,33.57,33.57,0,0,1-2.37,3.15c0,.1.06.16.13.16A6.54,6.54,0,0,0,69.22,65.3Z" transform="translate(0 7.42)"/><path class="cls-45" d="M69.22,65.3c.11-.29.8-2.19.8-2.19a1.69,1.69,0,0,1,.2-.25,2.59,2.59,0,0,0,.14-.87s.32,0,.32-.2v-1s-.05-.1-.13-.16l-.21.93-.82.09a2.07,2.07,0,0,1,.29.62,2.88,2.88,0,0,1-.25,1.45,33.57,33.57,0,0,1-2.37,3.15c0,.1.06.16.13.16A6.54,6.54,0,0,0,69.22,65.3Z" transform="translate(0 7.42)"/></g><path class="cls-2" d="M69.65,60.13a4.77,4.77,0,0,0-.46,1.32V63a13.05,13.05,0,0,0-1.87,2.35c-.08.49-.31,1.67,0,1.67a6.36,6.36,0,0,0,1.9-1.69l.8-2.18a1.79,1.79,0,0,1,.2-.26,2.54,2.54,0,0,0,.14-.86s.32,0,.32-.21v-1C70.68,60.53,69.65,60.13,69.65,60.13Z" transform="translate(0 7.42)"/><polyline class="cls-43" points="70.36 69.42 70.28 69.19 69.99 69.22"/><line class="cls-2" x1="69.59" y1="68.7" x2="70.57" y2="68.73"/><line class="cls-2" x1="69.65" y1="68.16" x2="70.59" y2="68.39"/><path class="cls-25" d="M89.19,72.41s-2.5.43-2.24,1l.09.4a22.9,22.9,0,0,0-1.72,2.38c.08.09,3.33,2,3.44,2s2.15-3.64,2.58-4.36.49-1.38,0-1.72-1.15-.66-1.15-.66" transform="translate(0 7.42)"/><g class="cls-46"><path class="cls-37" d="M91.29,72.1c-.55-.35-1.15-.66-1.15-.66l-.35.36c.36.3,1,.85,1,1.16s-.6,1.28-.68,1.45-.86-1.19-1.59-1.19,0,.27.42.69a1.29,1.29,0,0,1,.13,1.53c-.28.4-3.31.2-2.76,1.34,1,.59,2.38,1.4,2.46,1.4s2.15-3.64,2.58-4.36S91.83,72.44,91.29,72.1Z" transform="translate(0 7.42)"/><path class="cls-23" d="M91.29,72.1c-.55-.35-1.15-.66-1.15-.66l-.35.36c.36.3,1,.85,1,1.16s-.6,1.28-.68,1.45-.86-1.19-1.59-1.19,0,.27.42.69a1.29,1.29,0,0,1,.13,1.53c-.28.4-3.31.2-2.76,1.34,1,.59,2.38,1.4,2.46,1.4s2.15-3.64,2.58-4.36S91.83,72.44,91.29,72.1Z" transform="translate(0 7.42)"/></g><path class="cls-2" d="M89.19,72.41s-2.5.43-2.24,1l.09.4a22.9,22.9,0,0,0-1.72,2.38c.08.09,3.33,2,3.44,2s2.15-3.64,2.58-4.36.49-1.38,0-1.72-1.15-.66-1.15-.66" transform="translate(0 7.42)"/><path class="cls-2" d="M87.41,73.62a1.5,1.5,0,0,1,1.52.28,4.37,4.37,0,0,1,.75.89A1.91,1.91,0,0,0,89,73.47" transform="translate(0 7.42)"/><path class="cls-47" d="M84.11,77.55a2.34,2.34,0,0,1-.57.52,3,3,0,0,0-1.06,1c-.35.52-.78,1-.53,1.18a.94.94,0,0,0,.53.2s.17.4.4.43a2,2,0,0,0,.34,0s.2.2.31.2h.3s.11.15.37,0,.52-1,.6-1.29a4.16,4.16,0,0,0,.09-.89l.4-.57-.92-.92Z" transform="translate(0 7.42)"/><g class="cls-48"><g class="cls-49"><path class="cls-43" d="M84.11,77.55a2.62,2.62,0,0,1-.22.25l.41,1a13.22,13.22,0,0,1-.54,1.94.67.67,0,0,1-.47.28.48.48,0,0,0,.25.14h.29s.11.14.37,0,.52-1,.6-1.29a4.16,4.16,0,0,0,.09-.89l.4-.58-.92-.92Z" transform="translate(0 7.42)"/><path class="cls-50" d="M84.11,77.55a2.62,2.62,0,0,1-.22.25l.41,1a13.22,13.22,0,0,1-.54,1.94.67.67,0,0,1-.47.28.48.48,0,0,0,.25.14h.29s.11.14.37,0,.52-1,.6-1.29a4.16,4.16,0,0,0,.09-.89l.4-.58-.92-.92Z" transform="translate(0 7.42)"/></g></g><path class="cls-2" d="M84.11,77.55a2.34,2.34,0,0,1-.57.52,3,3,0,0,0-1.06,1c-.35.52-.78,1-.53,1.18a.94.94,0,0,0,.53.2s.17.4.4.43a2,2,0,0,0,.34,0s.2.2.31.2h.3s.11.15.37,0,.52-1,.6-1.29a4.16,4.16,0,0,0,.09-.89l.4-.57-.92-.92Z" transform="translate(0 7.42)"/><path class="cls-3" d="M85.23,75.83l3.59,1.89a.85.85,0,0,1,.23.83c-.06.38.34,1.78-.09,1.78a11.9,11.9,0,0,1-3.39-1.17,3.73,3.73,0,0,1-1.63-1.61C83.94,77.44,85.23,75.83,85.23,75.83Z" transform="translate(0 7.42)"/><path class="cls-25" d="M82.16,61.94,83,61.1c.44-.44-.34-1.3-.62-1.61A5.87,5.87,0,0,0,80,57.86c-.57-.2-1.8-.58-2.11.18l-.55,1.35a5.81,5.81,0,0,1,2.79.55A6.07,6.07,0,0,1,82.16,61.94Z" transform="translate(0 7.42)"/><g class="cls-51"><path class="cls-37" d="M79.94,57.87c-.48-.17-1.44-.47-1.9-.09a4,4,0,0,1,1.87.55c1.88.93,1.93,1.24,1.8,1.71a1.93,1.93,0,0,1-.57.68,6.29,6.29,0,0,1,1,1.22L83,61.1c.44-.44-.34-1.3-.62-1.61A5.73,5.73,0,0,0,79.94,57.87Z" transform="translate(0 7.42)"/><path class="cls-23" d="M79.94,57.87c-.48-.17-1.44-.47-1.9-.09a4,4,0,0,1,1.87.55c1.88.93,1.93,1.24,1.8,1.71a1.93,1.93,0,0,1-.57.68,6.29,6.29,0,0,1,1,1.22L83,61.1c.44-.44-.34-1.3-.62-1.61A5.73,5.73,0,0,0,79.94,57.87Z" transform="translate(0 7.42)"/></g><path class="cls-2" d="M82.16,61.94,83,61.1c.44-.44-.34-1.3-.62-1.61A5.87,5.87,0,0,0,80,57.86c-.57-.2-1.8-.58-2.11.18l-.55,1.35a5.81,5.81,0,0,1,2.79.55A6.07,6.07,0,0,1,82.16,61.94Z" transform="translate(0 7.42)"/><path class="cls-25" d="M81.27,62.4s1-.77,1.23-.31-.37,1.1-.86,1.1A1.34,1.34,0,0,1,80.9,63" transform="translate(0 7.42)"/><g class="cls-52"><path class="cls-37" d="M81.27,62.4s1-.77,1.23-.31-.37,1.1-.86,1.1A1.34,1.34,0,0,1,80.9,63" transform="translate(0 7.42)"/><path class="cls-23" d="M81.27,62.4s1-.77,1.23-.31-.37,1.1-.86,1.1A1.34,1.34,0,0,1,80.9,63" transform="translate(0 7.42)"/></g><path class="cls-4" d="M81.27,62.4s1-.77,1.23-.31-.37,1.1-.86,1.1A1.34,1.34,0,0,1,80.9,63" transform="translate(0 7.42)"/></g><g id="freepik--cooking-pots--inject-36"><path class="cls-25" d="M75.36,79.79H65.22V90.87c0,.66,2.28,1.21,5.09,1.21s5.09-.55,5.09-1.21Z" transform="translate(0 7.42)"/><g class="cls-53"><path class="cls-54" d="M75.36,79.79H65.22V90.87c0,.66,2.28,1.21,5.09,1.21s5.09-.55,5.09-1.21Z" transform="translate(0 7.42)"/><path class="cls-3" d="M67.63,79.79v12.1a18.15,18.15,0,0,0,2.34.18V79.79Z" transform="translate(0 7.42)"/><path class="cls-3" d="M70.84,79.79V92.07c.25,0,.5,0,.73,0V79.79Z" transform="translate(0 7.42)"/><path class="cls-25" d="M71.94,79.79V92l.73-.07V79.79Z" transform="translate(0 7.42)"/></g><path class="cls-55" d="M75.36,79.79H65.22V90.87c0,.66,2.28,1.21,5.09,1.21s5.09-.55,5.09-1.21Z" transform="translate(0 7.42)"/><path class="cls-25" d="M70.31,78a17.3,17.3,0,0,0-3.93.39c-.71.17-2,.53-1.71,1.56.13.46.67.64,1.07.78a8.27,8.27,0,0,0,1.55.35,18.92,18.92,0,0,0,3,.21,16.67,16.67,0,0,0,3.92-.39,2.75,2.75,0,0,0,1.53-.68A.88.88,0,0,0,75.69,79l0,0a4.21,4.21,0,0,0-1.55-.58,16.13,16.13,0,0,0-2.5-.32C71.18,78,70.74,78,70.31,78Z" transform="translate(0 7.42)"/><g class="cls-56"><path class="cls-54" d="M70.31,78a17.3,17.3,0,0,0-3.93.39c-.71.17-2,.53-1.71,1.56.13.46.67.64,1.07.78a8.27,8.27,0,0,0,1.55.35,18.92,18.92,0,0,0,3,.21,16.67,16.67,0,0,0,3.92-.39,2.75,2.75,0,0,0,1.53-.68A.88.88,0,0,0,75.69,79l0,0a4.21,4.21,0,0,0-1.55-.58,16.13,16.13,0,0,0-2.5-.32C71.18,78,70.74,78,70.31,78Z" transform="translate(0 7.42)"/></g><path class="cls-55" d="M70.31,78a17.3,17.3,0,0,0-3.93.39c-.71.17-2,.53-1.71,1.56.13.46.67.64,1.07.78a8.27,8.27,0,0,0,1.55.35,18.92,18.92,0,0,0,3,.21,16.67,16.67,0,0,0,3.92-.39,2.75,2.75,0,0,0,1.53-.68A.88.88,0,0,0,75.69,79l0,0a4.21,4.21,0,0,0-1.55-.58,16.13,16.13,0,0,0-2.5-.32C71.18,78,70.74,78,70.31,78Z" transform="translate(0 7.42)"/><ellipse class="cls-25" cx="70.31" cy="86.83" rx="5.09" ry="1.08"/><g class="cls-57"><ellipse class="cls-58" cx="70.31" cy="86.83" rx="5.09" ry="1.08"/></g><ellipse class="cls-55" cx="70.31" cy="86.83" rx="5.09" ry="1.08"/><path class="cls-3" d="M65.34,82.8s-.75-1.26-.52-1.66,1.23,0,1.52.34.55,1.41.4,1.44-.37,0-.43-.15a3.76,3.76,0,0,0-.52-1.17c-.18-.12-.57-.35-.57-.09s.43,1.15.37,1.29S65.51,83,65.34,82.8Z" transform="translate(0 7.42)"/><path class="cls-25" d="M85,82.21H76.87v8.9c0,.53,1.83,1,4.09,1s4.09-.44,4.09-1Z" transform="translate(0 7.42)"/><g class="cls-59"><path class="cls-54" d="M85,82.21H76.87v8.9c0,.53,1.83,1,4.09,1s4.09-.44,4.09-1Z" transform="translate(0 7.42)"/></g><path class="cls-55" d="M85,82.21H76.87v8.9c0,.53,1.83,1,4.09,1s4.09-.44,4.09-1Z" transform="translate(0 7.42)"/><path class="cls-3" d="M78.81,82.21v9.72a14.57,14.57,0,0,0,1.87.14V82.21Z" transform="translate(0 7.42)"/><path class="cls-3" d="M81.39,82.21v9.86c.2,0,.4,0,.59,0V82.21Z" transform="translate(0 7.42)"/><path class="cls-25" d="M82.27,82.21V92a5.61,5.61,0,0,0,.59-.06V82.21Z" transform="translate(0 7.42)"/><path class="cls-25" d="M81,80.79a13.31,13.31,0,0,0-3.15.31c-.58.13-1.62.42-1.38,1.25.1.37.54.51.86.62a6.76,6.76,0,0,0,1.24.29,15.19,15.19,0,0,0,2.43.17,13.86,13.86,0,0,0,3.15-.31,2.27,2.27,0,0,0,1.23-.55.71.71,0,0,0,0-1l0,0A3.13,3.13,0,0,0,84,81.08a12.55,12.55,0,0,0-2-.26C81.66,80.8,81.31,80.79,81,80.79Z" transform="translate(0 7.42)"/><g class="cls-60"><path class="cls-54" d="M81,80.79a13.31,13.31,0,0,0-3.15.31c-.58.13-1.62.42-1.38,1.25.1.37.54.51.86.62a6.76,6.76,0,0,0,1.24.29,15.19,15.19,0,0,0,2.43.17,13.86,13.86,0,0,0,3.15-.31,2.27,2.27,0,0,0,1.23-.55.71.71,0,0,0,0-1l0,0A3.13,3.13,0,0,0,84,81.08a12.55,12.55,0,0,0-2-.26C81.66,80.8,81.31,80.79,81,80.79Z" transform="translate(0 7.42)"/></g><path class="cls-55" d="M81,80.79a13.31,13.31,0,0,0-3.15.31c-.58.13-1.62.42-1.38,1.25.1.37.54.51.86.62a6.76,6.76,0,0,0,1.24.29,15.19,15.19,0,0,0,2.43.17,13.86,13.86,0,0,0,3.15-.31,2.27,2.27,0,0,0,1.23-.55.71.71,0,0,0,0-1l0,0A3.13,3.13,0,0,0,84,81.08a12.55,12.55,0,0,0-2-.26C81.66,80.8,81.31,80.79,81,80.79Z" transform="translate(0 7.42)"/><ellipse class="cls-25" cx="80.96" cy="89.32" rx="4.09" ry="0.87"/><g class="cls-61"><ellipse class="cls-58" cx="80.96" cy="89.32" rx="4.09" ry="0.87"/></g><ellipse class="cls-55" cx="80.96" cy="89.32" rx="4.09" ry="0.87"/><path class="cls-3" d="M77,84.63s-.6-1-.42-1.34,1,0,1.22.28.44,1.13.33,1.15-.3,0-.35-.12a3,3,0,0,0-.42-.94c-.13-.09-.46-.28-.46-.07s.35.92.3,1S77.11,84.77,77,84.63Z" transform="translate(0 7.42)"/><path class="cls-55" d="M67.65,74.71c0,.65.59.65.59,1.29s-.59.64-.59,1.29.59.64.59,1.29-.59.65-.59,1.29" transform="translate(0 7.42)"/><path class="cls-55" d="M68.24,73.42c0,.41-.23.56-.41.77" transform="translate(0 7.42)"/><path class="cls-55" d="M70.37,74.66c0,.52-.58.52-.58,1s.58.52.58,1-.58.52-.58,1,.58.53.58,1-.58.52-.58,1" transform="translate(0 7.42)"/><path class="cls-55" d="M72.51,73.42c0,.64-.59.64-.59,1.29s.59.65.59,1.29-.59.64-.59,1.29.59.64.59,1.29-.59.65-.59,1.29" transform="translate(0 7.42)"/><path class="cls-55" d="M79.39,78.75a.59.59,0,0,1,.07.29c0,.48-.44.48-.44,1s.44.49.44,1-.44.49-.44,1" transform="translate(0 7.42)"/><path class="cls-55" d="M81.07,78c0,.39-.44.39-.44.78s.44.4.44.79-.44.39-.44.78.44.4.44.79-.44.39-.44.79" transform="translate(0 7.42)"/><path class="cls-55" d="M82.47,79.51a.7.7,0,0,0-.23.5c0,.49.44.49.44,1s-.44.49-.44,1" transform="translate(0 7.42)"/></g><rect class="cls-62" x="404.31" y="28.4" width="41.1" height="68.4" rx="11.25"/><path class="cls-63" d="M183.41,90.34h-14a2.1,2.1,0,0,1,2.09-2.09h9.78a2.1,2.1,0,0,1,2.1,2.09Z" transform="translate(0 7.42)"/><path class="cls-64" d="M181.31,88.25h-9.78a2.1,2.1,0,0,0-2.09,2.09h14a2.1,2.1,0,0,0-2.1-2.09Z" transform="translate(0 7.42)"/><polygon class="cls-65" points="183.34 96.63 169 96.63 169 98.1 167.54 98.83 169.03 98.82 183.34 98.82 183.34 96.63"/><path class="cls-66" d="M169,90.67v-.92l-.85.32-5.76-14.93A.32.32,0,0,0,162,75l-.39.15a.91.91,0,0,0-.52,1.18l4.49,11.64h0V91.4h2.14l.52-.29c.09,0,.2-.06.24-.14Z" transform="translate(0 7.42)"/><path class="cls-67" d="M166.37,71.07h0a.78.78,0,0,1,.78.78V89.6a.78.78,0,0,1-.78.78H164a0,0,0,0,1,0,0V73.46a2.39,2.39,0,0,1,2.39-2.39Z" transform="translate(-17.96 72.44) rotate(-21.1)"/><rect class="cls-66" x="166.6" y="69.63" width="2.62" height="20.99" rx="1.31" transform="translate(-17.59 73.24) rotate(-21.1)"/><path class="cls-25" d="M184.41,90.34h14a2.1,2.1,0,0,0-2.1-2.09H186.5a2.1,2.1,0,0,0-2.09,2.09Z" transform="translate(0 7.42)"/><path class="cls-64" d="M196.28,88.25H186.5a2.1,2.1,0,0,0-2.09,2.09h14a2.1,2.1,0,0,0-2.1-2.09Z" transform="translate(0 7.42)"/><polygon class="cls-65" points="184.48 96.63 198.82 96.63 198.82 98.1 200.28 98.83 198.79 98.82 184.48 98.82 184.48 96.63"/><path class="cls-66" d="M198.82,90.67v-.92l.85.32,5.76-14.93a.32.32,0,0,1,.42-.18l.39.15a.91.91,0,0,1,.52,1.18l-4.49,11.64h0V91.4h-2.13l-.52-.29c-.1,0-.2-.06-.24-.14Z" transform="translate(0 7.42)"/><path class="cls-67" d="M200.66,71.07h2.39a.78.78,0,0,1,.78.78V89.6a.78.78,0,0,1-.78.78h0A2.39,2.39,0,0,1,200.66,88V71.07a0,0,0,0,1,0,0Z" transform="translate(361.88 236.28) rotate(-158.9)"/><rect class="cls-66" x="198.6" y="69.63" width="2.62" height="20.99" rx="1.31" transform="translate(357.57 234.27) rotate(-158.9)"/><line class="cls-68" x1="174.42" y1="87.18" x2="193.59" y2="87.1"/><line class="cls-69" x1="183.91" y1="87.15" x2="183.91" y2="98.91"/><polygon class="cls-70" points="668.86 36.38 669.15 36.34 670.78 48.43 670.49 48.47 668.86 36.38"/><polygon class="cls-70" points="669.67 48.98 670.49 36.35 670.79 36.37 669.97 49 669.67 48.98"/><polygon class="cls-70" points="669.68 49.87 672.03 36.69 672.32 36.74 669.97 49.92 669.68 49.87"/><path class="cls-71" d="M647,39.41a4.19,4.19,0,0,1,1.32-3.6c1.66-1.41,1.52-2.25,1-2.36s-.91,1.3-1.64,1.69c0,0,0-2,.72-2.74s1.13-2.65.42-2.68-.78,1.14-.92,2a7,7,0,0,1-.94,2,7.5,7.5,0,0,0-.63-2.53c-.47-.73.8-2.42.3-3.16s-1.34.67-1.29,2.25,1.18,3.27.91,4.92c0,0-.48-1.16-.91-1.27s-.88-.87-1.18-1.15-.65.7,0,1.61,2.34,3.36,2.08,5.34Z" transform="translate(0 7.42)"/><path class="cls-71" d="M648,38.41l.54,3.29a1.68,1.68,0,0,1-1.44,1.91,1.23,1.23,0,0,1-.27,0h-.59A1.69,1.69,0,0,1,644.54,42a1.1,1.1,0,0,1,0-.26l.54-3.29Z" transform="translate(0 7.42)"/><rect class="cls-72" x="642.07" y="50.48" width="34.29" height="1.66"/><rect class="cls-71" x="668.85" y="43.75" width="3.31" height="6.72"/><polygon class="cls-71" points="660.89 50.53 659.36 46.54 659.81 43.02 657.59 43.02 658.04 46.54 656.5 50.53 660.89 50.53"/><g id="freepik--Lamps--inject-2"><path class="cls-66" d="M168.57,35.74l-1.65-2.37h-6.47l-1.65,2.37a7.1,7.1,0,0,0,.24,8.47l.77,1h7.74l.77-1A7.08,7.08,0,0,0,168.57,35.74Z" transform="translate(0 7.42)"/><line class="cls-73" x1="158.8" y1="43.16" x2="161.84" y2="43.16"/><line class="cls-73" x1="165.2" y1="44.13" x2="162.64" y2="44.13"/><line class="cls-73" x1="169.76" y1="48.61" x2="163.76" y2="48.61"/><line class="cls-73" x1="158.8" y1="48.53" x2="161.12" y2="48.53"/><line class="cls-73" x1="166.8" y1="47.33" x2="164.96" y2="47.33"/><line class="cls-73" x1="161.2" y1="50.29" x2="162.8" y2="50.29"/><line class="cls-73" x1="167.28" y1="41.57" x2="165.92" y2="41.57"/><line class="cls-73" x1="163.69" y1="40.79" x2="163.69" y2="31.63"/><path class="cls-66" d="M188.23,35.74l-1.65-2.37H180.1l-1.66,2.37a7.08,7.08,0,0,0,.25,8.47l.76,1h7.74l.77-1A7.1,7.1,0,0,0,188.23,35.74Z" transform="translate(0 7.42)"/><line class="cls-73" x1="178.45" y1="43.16" x2="181.49" y2="43.16"/><line class="cls-73" x1="184.85" y1="44.13" x2="182.29" y2="44.13"/><line class="cls-73" x1="189.41" y1="48.61" x2="183.41" y2="48.61"/><line class="cls-73" x1="178.45" y1="48.53" x2="180.77" y2="48.53"/><line class="cls-73" x1="186.45" y1="47.33" x2="184.61" y2="47.33"/><line class="cls-73" x1="180.85" y1="50.29" x2="182.45" y2="50.29"/><line class="cls-73" x1="186.93" y1="41.57" x2="185.57" y2="41.57"/><line class="cls-73" x1="183.34" y1="40.79" x2="183.34" y2="31.63"/><path class="cls-66" d="M207.88,35.74l-1.65-2.37h-6.47l-1.66,2.37a7.08,7.08,0,0,0,.25,8.47l.76,1h7.74l.79-1A7.08,7.08,0,0,0,207.88,35.74Z" transform="translate(0 7.42)"/><line class="cls-73" x1="198.1" y1="43.16" x2="201.14" y2="43.16"/><line class="cls-73" x1="204.5" y1="44.13" x2="201.94" y2="44.13"/><line class="cls-73" x1="209.06" y1="48.61" x2="203.06" y2="48.61"/><line class="cls-73" x1="198.1" y1="48.53" x2="200.42" y2="48.53"/><line class="cls-73" x1="206.1" y1="47.33" x2="204.26" y2="47.33"/><line class="cls-73" x1="200.5" y1="50.29" x2="202.1" y2="50.29"/><line class="cls-73" x1="206.58" y1="41.57" x2="205.22" y2="41.57"/><line class="cls-73" x1="202.99" y1="40.79" x2="202.99" y2="31.63"/></g><path class="cls-63" d="M296.81,91.48H282.15A2.84,2.84,0,0,1,285,88.64h9a2.84,2.84,0,0,1,2.84,2.84Z" transform="translate(0 7.42)"/><path class="cls-64" d="M294,88.64h-9a2.84,2.84,0,0,0-2.84,2.84h14.66A2.84,2.84,0,0,0,294,88.64Z" transform="translate(0 7.42)"/><polygon class="cls-65" points="296.74 97.36 281.68 97.36 281.68 99.35 280.01 100.24 281.58 100.22 297.6 100.22 296.74 97.36"/><path class="cls-66" d="M282.14,91.88l.09-1.57-1.25.47-6.44-26a.43.43,0,0,0-.57-.35l-.57.21a1.68,1.68,0,0,0-.87,2l5,20.29h0l.55,5.92,2,0,.8-.2c.14-.06.29-.1.35-.23Z" transform="translate(0 7.42)"/><rect class="cls-66" x="277.12" y="63.53" width="3.55" height="28.49" rx="0.12" transform="translate(-10.59 79.97) rotate(-14.55)"/><rect class="cls-74" x="272.81" y="69.09" width="1.5" height="10.29" rx="0.75" transform="translate(557 84.8) rotate(165.45)"/><path class="cls-66" d="M312.58,91.32l.08-.49-1.16.45-6.3-25.5a.43.43,0,0,0-.54-.34l-.53.21a1.59,1.59,0,0,0-.82,1.86l5,20.07h0l.29,5,2.16-.23.72-.42c.13,0,.28-.09.33-.21Z" transform="translate(0 7.42)"/><polygon class="cls-66" points="314.27 97.93 311.05 99.78 304.35 72.96 307.56 72.12 314.27 97.93"/><path class="cls-74" d="M305.76,80.05h0a.71.71,0,0,0,.5-.87l-2.06-8.05a.7.7,0,0,0-.86-.51h0a.72.72,0,0,0-.5.87l2.07,8.05A.7.7,0,0,0,305.76,80.05Z" transform="translate(0 7.42)"/></g></g></svg>